<svg width="59" height="59" viewBox="0 0 59 59" fill="none" xmlns="http://www.w3.org/2000/svg">
<path d="M17.3591 24.5488C17.179 24.3688 16.8789 24.3688 16.6388 24.5488L13.2776 27.9701C13.0976 28.1501 13.0976 28.5103 13.2776 28.6903L13.4577 28.8704L20.0601 27.3098C20.0001 27.2498 17.3591 24.5488 17.3591 24.5488ZM42.8083 13.3848L44.849 15.4256L28.5231 31.8114L31.1641 34.4524L55.4128 11.7642L55.0527 3.24117L46.4696 2.82102L23.7814 27.0697L26.4224 29.7107L42.8083 13.3848ZM24.6217 39.9744L31.2241 38.4138L29.7836 36.9733L23.1812 38.5339L24.6217 39.9744ZM33.5049 40.7547L26.9025 42.3152L29.5435 44.9562C29.7236 45.1362 30.0837 45.1362 30.2638 44.9562L33.625 41.595C33.805 41.4149 33.805 41.1148 33.625 40.8747C33.685 40.8747 33.5049 40.7547 33.5049 40.7547ZM20.9004 36.253L27.5028 34.6925L26.0622 33.252L19.4599 34.8125L20.9004 36.253ZM17.179 32.5317L23.7814 30.9711L22.3409 29.5306L15.7385 31.0912L17.179 32.5317ZM13.5177 48.6175L21.3806 40.7547L17.5392 36.9133L9.67634 44.7761C10.5767 45.1362 11.2969 45.6764 11.9572 46.3367C12.6174 46.9369 13.1576 47.7172 13.5177 48.6175ZM13.9379 52.0988C13.7578 53.5993 13.0976 55.0398 11.9572 56.1202C9.25619 58.8212 4.81459 58.8212 2.11362 56.1202C-0.587352 53.4192 -0.587352 48.9776 2.11362 46.2767C3.25403 45.1362 4.69455 44.476 6.13507 44.2959L15.5585 34.8726L11.2969 30.611C10.0365 29.3506 10.0365 27.2498 11.2969 25.9293L14.6581 22.5681C15.9186 21.3077 18.0193 21.3077 19.3398 22.5681L21.8607 25.089L45.3292 0L57.6936 0.540194L58.2338 12.9046L33.1448 36.4331L35.6657 38.954C36.9261 40.2145 36.9261 42.3152 35.6657 43.6357L32.3045 46.9969C31.044 48.2574 28.9433 48.2574 27.6228 46.9969L23.3613 42.7354C23.3613 42.6754 13.9379 52.0988 13.9379 52.0988ZM9.97645 48.2574C8.35587 46.6368 5.71492 46.5768 4.09433 48.2574C2.47375 49.878 2.47375 52.5189 4.09433 54.1395C5.71492 55.7601 8.35587 55.7601 9.97645 54.1395C11.6571 52.5189 11.597 49.878 9.97645 48.2574Z" fill="#547D9B"/>
</svg>
