<svg width="44" height="43" viewBox="0 0 44 43" fill="none" xmlns="http://www.w3.org/2000/svg">
<path d="M3.79015 42.9755C1.68939 42.9755 0.00878906 41.2949 0.00878906 39.1941C0.00878906 38.1737 0.42894 37.2134 1.1492 36.5532L21.3765 16.2659L18.2554 15.3055C18.0153 15.2455 17.7752 15.0654 17.6551 14.8253C17.4751 14.5252 17.4151 14.2251 17.4151 13.865C17.4751 13.5649 17.6551 13.2648 17.8952 13.0847L24.0174 8.76315L23.9574 1.26045C23.9574 1.02037 24.0174 0.720259 24.1975 0.540194C24.4376 0.180065 24.7977 0 25.2179 0C25.518 0 25.7581 0.0600216 25.9381 0.240086L32.0003 4.74171L39.1429 2.34084C39.2629 2.28082 39.383 2.28082 39.563 2.28082C39.6831 2.28082 39.8031 2.28082 39.9832 2.34084C40.6434 2.58093 41.0035 3.24117 40.7635 3.9014L38.3626 11.044L42.8642 17.1062C43.1643 17.4663 43.2243 18.0065 42.9843 18.4266C42.7442 18.8468 42.324 19.0869 41.8438 19.0869L34.3411 18.9668L30.0196 25.089C29.7795 25.4492 29.4194 25.6292 28.9992 25.6292H28.7591C28.339 25.5692 27.9188 25.2091 27.7988 24.7289L26.7784 21.6078L6.4311 41.8951C5.77086 42.6153 4.81052 42.9755 3.79015 42.9755ZM2.88983 38.3538C2.58972 38.834 2.58972 39.3742 2.8298 39.7943C3.06989 40.1545 3.49004 40.3945 3.91019 40.3945C4.15028 40.3945 4.39037 40.3345 4.57043 40.2145L10.0924 34.6925L8.29177 32.8918L2.88983 38.3538ZM10.1524 31.0912L11.9531 32.8918L25.8781 18.9668L25.458 17.6464L24.1375 17.2262L10.1524 31.0912ZM26.5984 9.42339C26.5984 9.84354 26.4183 10.2037 26.0582 10.4438L21.4365 13.805L26.8384 15.4856C27.2586 15.6056 27.5587 15.9057 27.6787 16.3259L29.3594 21.7278L32.6005 17.1062C32.8406 16.746 33.2007 16.566 33.6209 16.566H39.383L35.9617 12.0043C35.7216 11.6442 35.6616 11.224 35.7817 10.8639L37.5823 5.52199L32.2404 7.32264C32.1203 7.38266 31.9403 7.38266 31.8202 7.38266C31.5802 7.38266 31.28 7.32264 31.1 7.14257L26.5984 3.78136V9.42339Z" fill="#516933"/>
</svg>
