<svg width="58" height="53" viewBox="0 0 58 53" fill="none" xmlns="http://www.w3.org/2000/svg">
<path d="M10.5713 52.3384H47.6646V43.6953H10.5713V52.3384ZM13.6324 46.7564H44.6035V49.3373H13.6324V46.7564Z" fill="#67983F"/>
<path d="M57.3281 12.4245C57.3281 9.96359 55.1673 7.92285 52.5863 7.92285C49.9454 7.92285 47.8446 9.96359 47.8446 12.4245C47.8446 14.1651 48.925 15.7257 50.5456 16.4459L38.7214 25.029L29.5981 8.94322C31.9989 8.70313 33.8596 6.84246 33.8596 4.50162C33.8596 2.04073 31.7589 0 29.1179 0C26.477 0 24.3762 2.04073 24.3762 4.50162C24.3762 6.84246 26.2369 8.70313 28.6377 8.94322L19.5144 25.029L7.75021 16.4459C9.31077 15.7257 10.4512 14.1651 10.4512 12.4245C10.4512 9.96359 8.35043 7.92285 5.70948 7.92285C3.06853 7.92285 0.967773 9.96359 0.967773 12.4245C0.967773 14.5252 2.52834 16.3259 4.68911 16.806L11.1114 40.9347H47.3045L53.6067 16.806C55.7675 16.3259 57.3281 14.5252 57.3281 12.4245ZM52.5863 10.984C53.5467 10.984 54.267 11.6442 54.267 12.4245C54.267 13.2048 53.4867 13.865 52.5863 13.865C51.626 13.865 50.9057 13.2048 50.9057 12.4245C50.8457 11.5842 51.626 10.984 52.5863 10.984ZM27.3773 4.50162C27.3773 3.72134 28.1576 3.0611 29.1179 3.0611C30.0782 3.0611 30.7985 3.72134 30.7985 4.50162C30.7985 5.2819 30.0182 5.94214 29.1179 5.94214C28.1576 5.94214 27.3773 5.2819 27.3773 4.50162ZM5.64946 10.984C6.6098 10.984 7.33006 11.6442 7.33006 12.4245C7.33006 13.2048 6.54978 13.865 5.64946 13.865C4.74913 13.865 3.96885 13.2048 3.96885 12.4245C3.96885 11.5842 4.68911 10.984 5.64946 10.984ZM44.9036 37.8136H13.3922L8.89062 21.0076L20.4748 29.4706L29.1179 14.2851L37.761 29.5306L49.3452 21.0076L44.9036 37.8136Z" fill="#67983F"/>
</svg>
