<svg width="82" height="56" viewBox="0 0 82 56" fill="none" xmlns="http://www.w3.org/2000/svg">
<path d="M77.5337 32.4117L79.4544 33.372C79.6345 33.4921 79.8746 33.4921 80.0546 33.4921C80.5948 33.4921 81.075 33.1919 81.3151 32.7118C81.6752 32.0515 81.3751 31.2112 80.7149 30.8511L78.7942 29.8908C76.2132 28.5703 73.2722 27.91 70.3912 27.91H60.3075C61.3279 25.8693 61.9281 23.5885 61.9281 21.1876V1.3805C61.9281 0.600216 61.3279 0 60.5476 0H21.4735H15.8915C12.0502 0 8.92903 3.12112 8.92903 6.96251C8.92903 7.74279 9.52925 8.343 10.3095 8.343C11.0898 8.343 11.69 7.74279 11.69 6.96251C11.69 4.68169 13.5507 2.76099 15.8915 2.76099H20.0931V21.1876C20.0931 23.5885 20.6933 25.8693 21.7136 27.91H8.08873C5.56782 27.91 3.16696 28.9304 1.36631 30.7311L0.946161 31.1512C0.405967 31.6914 0.405967 32.5917 0.946161 33.1319C1.24627 33.432 1.6064 33.5521 1.90651 33.5521C2.20661 33.5521 2.62677 33.432 2.86685 33.1319L3.287 32.7118C4.54746 31.4513 6.22806 30.7311 8.08873 30.7311H13.0705H23.4543C26.2153 34.1523 30.4168 36.3131 35.1585 36.3131H46.8627C51.6044 36.3131 55.8059 34.1523 58.5669 30.7311H68.9506H70.4512C72.852 30.671 75.3129 31.2713 77.5337 32.4117ZM53.5251 8.343V13.925H42.3611V8.343H53.5251ZM39.6001 13.925H28.4361V8.343H39.6001V13.925ZM45.1821 16.746V33.4921H36.7791V16.746H45.1821ZM47.9431 33.372V16.746H54.9056C55.6859 16.746 56.2861 16.1458 56.2861 15.3655V6.96251C56.2861 6.18223 55.6859 5.58201 54.9056 5.58201H27.0556C26.2753 5.58201 25.6751 6.18223 25.6751 6.96251V15.3055C25.6751 16.0858 26.2753 16.686 27.0556 16.686H34.0181V33.312C30.5968 33.0119 27.5958 31.2713 25.555 28.6903C25.435 28.4502 25.3149 28.2702 25.0748 28.1501C23.6943 26.1694 22.854 23.7686 22.854 21.1276V2.76099H59.1071V21.1876C59.1071 23.7686 58.2668 26.2294 56.8863 28.2102C56.7062 28.3302 56.5262 28.5103 56.4061 28.7503C54.4254 31.3313 51.4243 33.0719 47.9431 33.372Z" fill="#EE942F"/>
<path d="M4.18671 34.3937C4.18671 34.3937 4.12669 34.4538 4.12669 34.5138C1.90589 36.7946 0.525391 39.8557 0.525391 43.2769C0.525391 46.6982 1.90589 49.8193 4.12669 52.0401C4.12669 52.1001 4.18671 52.1001 4.18671 52.1601C4.18671 52.2202 4.24673 52.2202 4.30675 52.2202C6.58757 54.441 9.64867 55.8215 13.0699 55.8215C16.4911 55.8215 19.6123 54.441 21.8331 52.2202C21.8931 52.2202 21.8931 52.1601 21.9531 52.1601C22.0131 52.1601 22.0131 52.1001 22.0131 52.0401C24.2339 49.7593 25.6144 46.6982 25.6144 43.2769C25.6144 39.8557 24.2339 36.7346 22.0131 34.5138C22.0131 34.4538 21.9531 34.4538 21.9531 34.3937C21.9531 34.3337 21.8931 34.3337 21.8331 34.3337C19.5522 32.1129 16.4911 30.7324 13.0699 30.7324C9.64867 30.7324 6.52755 32.1129 4.30675 34.3337C4.24673 34.3337 4.24673 34.3337 4.18671 34.3937ZM22.7334 41.8364H16.4311L20.8727 37.3948C21.8331 38.7153 22.4933 40.2158 22.7334 41.8364ZM20.8727 49.099L16.4311 44.6574H22.7334C22.4933 46.278 21.8331 47.7786 20.8727 49.099ZM3.46645 44.6574H9.7087L5.2671 49.099C4.30675 47.7786 3.70654 46.278 3.46645 44.6574ZM11.6894 46.6381V52.8804C10.0688 52.6403 8.56828 51.9801 7.24781 51.0197L11.6894 46.6381ZM14.4504 46.6381L18.892 51.0797C17.6315 52.0401 16.131 52.7003 14.4504 52.8804V46.6381ZM14.4504 39.9157V33.6135C16.071 33.8535 17.5715 34.5138 18.892 35.4741L14.4504 39.9157ZM11.6894 39.9157L7.24781 35.4741C8.50826 34.5138 10.0088 33.8535 11.6894 33.6135V39.9157ZM9.7087 41.8364H3.46645C3.70654 40.2158 4.36677 38.7153 5.32712 37.3948L9.7087 41.8364Z" fill="#EE942F"/>
<path d="M77.8334 52.0401C80.0542 49.7593 81.4347 46.6982 81.4347 43.2769C81.4347 39.8557 80.0542 36.7346 77.8334 34.5138C77.8334 34.4538 77.7734 34.4538 77.7734 34.3937C77.7734 34.3337 77.7134 34.3337 77.6534 34.3337C75.3726 32.1129 72.3115 30.7324 68.8902 30.7324C65.469 30.7324 62.3479 32.1129 60.1271 34.3337C60.067 34.3337 60.067 34.3937 60.007 34.3937C59.947 34.3937 59.947 34.4538 59.947 34.5138C57.7262 36.7946 56.3457 39.8557 56.3457 43.2769C56.3457 46.6982 57.7262 49.8193 59.947 52.0401C59.947 52.1001 60.007 52.1001 60.007 52.1601C60.007 52.2202 60.067 52.2202 60.1271 52.2202C62.4079 54.441 65.469 55.8215 68.8902 55.8215C72.3115 55.8215 75.4326 54.441 77.6534 52.2202C77.7134 52.2202 77.7134 52.1601 77.7734 52.1601C77.8334 52.1001 77.8334 52.1001 77.8334 52.0401ZM59.2868 44.6574H65.529L61.0874 49.099C60.1271 47.7786 59.5268 46.278 59.2868 44.6574ZM61.0874 37.4548L65.529 41.8964H59.2868C59.5268 40.2158 60.1271 38.7153 61.0874 37.4548ZM78.4937 41.8364H72.2514L76.693 37.3948C77.6534 38.7153 78.3136 40.2158 78.4937 41.8364ZM70.2707 39.9157V33.6135C71.8913 33.8535 73.3918 34.5138 74.7123 35.4741L70.2707 39.9157ZM67.5097 39.9157L63.0681 35.4741C64.3286 34.5138 65.8291 33.8535 67.5097 33.6135V39.9157ZM67.5097 46.6381V52.8804C65.8891 52.6403 64.3886 51.9801 63.0681 51.0197L67.5097 46.6381ZM70.2707 46.6381L74.7123 51.0797C73.4519 52.0401 71.9513 52.7003 70.2707 52.9404V46.6381ZM72.2514 44.6574H78.4937C78.2536 46.278 77.5934 47.7786 76.633 49.099L72.2514 44.6574Z" fill="#EE942F"/>
</svg>
