<svg width="1862" height="31" viewBox="0 0 1862 31" fill="none" xmlns="http://www.w3.org/2000/svg">
<path d="M162.858 15.4868C162.858 13.8168 163.415 12.1469 164.608 10.9541C166.039 9.52269 168.107 9.04556 170.492 9.68173C171.685 9.99982 172.878 10.5565 174.23 11.3517C173.435 10.0793 172.878 8.80699 172.56 7.61417C171.924 5.22853 172.401 3.16098 173.832 1.72959C176.138 -0.576531 180.512 -0.576531 182.818 1.72959C184.25 3.16098 184.727 5.22853 184.09 7.61417C183.772 8.807 183.216 9.99982 182.421 11.3517C183.693 10.5565 184.965 9.99982 186.158 9.68173C188.544 9.04556 190.611 9.52269 192.043 10.9541C194.349 13.2602 194.349 17.6339 192.043 19.94C190.611 21.3714 188.544 21.8485 186.158 21.2123C184.965 20.8943 183.772 20.3376 182.421 19.5424C183.216 20.8147 183.772 22.0871 184.09 23.2799C184.727 25.6655 184.25 27.7331 182.818 29.1645C180.512 31.4706 176.138 31.4706 173.832 29.1645C172.401 27.7331 171.924 25.6655 172.56 23.2799C172.878 22.0871 173.435 20.8943 174.23 19.5424C172.957 20.3376 171.685 20.8943 170.492 21.2123C168.107 21.8485 166.039 21.3714 164.608 19.94C163.494 18.8267 162.858 17.1567 162.858 15.4868ZM177.252 15.4868C174.627 13.1012 172.242 11.6698 170.174 11.1131C168.266 10.636 166.675 10.9541 165.642 11.9879C163.892 13.7373 163.892 17.2363 165.642 18.9857C166.675 20.0195 168.266 20.3376 170.174 19.8605C172.242 19.3038 174.627 17.8724 177.252 15.4868ZM178.365 16.6001C175.979 19.2243 174.548 21.6099 173.991 23.6775C173.514 25.586 173.832 27.1764 174.866 28.2102C176.615 29.9597 180.114 29.9597 181.864 28.2102C182.898 27.1764 183.216 25.586 182.739 23.6775C182.182 21.6099 180.671 19.2243 178.365 16.6001ZM182.898 5.70566C182.898 4.51284 182.5 3.55858 181.784 2.84289C180.035 1.09342 176.536 1.09342 174.786 2.84289C173.753 3.87667 173.435 5.4671 173.912 7.37561C174.468 9.44317 175.9 11.8288 178.285 14.453C180.671 11.8288 182.102 9.44317 182.659 7.37561C182.818 6.73944 182.898 6.18279 182.898 5.70566ZM192.361 15.4868C192.361 14.2145 191.884 12.8626 191.009 11.9879C189.975 10.9541 188.385 10.636 186.476 11.1131C184.409 11.6698 182.023 13.1012 179.399 15.4868C182.023 17.8724 184.409 19.3038 186.476 19.8605C188.385 20.3376 189.975 20.0195 191.009 18.9857C191.884 18.111 192.361 16.8387 192.361 15.4868Z" fill="black"/>
<path d="M336.614 9.91894C341.862 9.91895 345.997 14.8493 346.236 15.0878C346.474 15.3264 346.474 15.724 346.236 15.9626C346.077 16.2011 341.941 21.1315 336.614 21.1315C331.286 21.1315 327.15 16.2011 326.991 15.9626C326.753 15.724 326.753 15.3264 326.991 15.0878C327.15 14.8493 331.365 9.91894 336.614 9.91894ZM344.645 15.4854C343.532 14.2926 340.272 11.3503 336.534 11.3503C332.797 11.3503 329.616 14.3721 328.502 15.4854C329.616 16.6783 332.876 19.6206 336.614 19.6206C340.351 19.6206 343.532 16.6783 344.645 15.4854Z" fill="black"/>
<path d="M250.969 14.7695L332.876 14.7695C333.273 14.7695 333.592 15.0876 333.592 15.4852C333.592 15.8828 333.273 16.2009 332.876 16.2009L250.969 16.2009C250.571 16.2009 250.253 15.8828 250.253 15.4852C250.253 15.0876 250.571 14.7695 250.969 14.7695Z" fill="black"/>
<path d="M350.609 14.7695L355.937 14.7695C356.335 14.7695 356.653 15.0876 356.653 15.4852C356.653 15.8828 356.335 16.2009 355.937 16.2009L350.609 16.2009C350.212 16.2009 349.894 15.8828 349.894 15.4852C349.894 15.0876 350.212 14.7695 350.609 14.7695Z" fill="black"/>
<path d="M231.884 9.9209L235.383 9.9209C235.701 9.9209 236.019 10.1595 236.099 10.5571C236.099 10.6366 236.496 13.1813 235.224 14.8512C234.985 15.0898 234.826 15.3284 234.508 15.4874C234.667 15.6464 234.826 15.726 234.985 15.885C236.496 17.4754 236.178 20.3382 236.178 20.4972C236.099 20.8949 235.86 21.1334 235.462 21.1334L231.963 21.1334C228.942 21.1334 226.556 18.7478 226.317 15.8055C226.158 15.885 225.92 15.9645 225.761 16.1236C223.773 16.9188 206.914 16.6007 203.574 16.5212C203.177 16.5212 202.859 16.2031 202.859 15.8055C202.859 15.4079 203.177 15.0898 203.574 15.0898C211.208 15.2488 223.852 15.4079 225.204 14.8512C226.079 14.5331 226.636 13.7379 227.192 12.8632C228.067 11.5113 229.26 9.9209 231.884 9.9209ZM234.667 11.3523L231.884 11.3523C230.055 11.3523 229.26 12.4656 228.385 13.6584C228.067 14.056 227.749 14.4536 227.431 14.8512C227.59 15.0103 227.749 15.1693 227.749 15.4079C227.749 17.7935 229.657 19.6225 231.963 19.6225L234.747 19.6225C234.747 18.7478 234.588 17.4754 233.952 16.7597C233.554 16.3621 232.997 16.1236 232.282 16.1236C231.884 16.2031 231.566 15.8055 231.566 15.4079C231.566 15.0103 231.884 14.6922 232.202 14.6922C233.077 14.6127 233.633 14.3741 234.111 13.8174C234.588 13.1018 234.667 11.9885 234.667 11.3523Z" fill="black"/>
<path d="M20.0379 21.1315C14.7895 21.1315 10.6543 16.2011 10.4158 15.9626C10.1772 15.724 10.1772 15.3264 10.4158 15.0878C10.5748 14.8493 14.7099 9.91894 20.0379 9.91894C25.3658 9.91895 29.4214 14.8493 29.6599 15.0878C29.8985 15.3264 29.8985 15.724 29.6599 15.9626C29.5009 16.2011 25.2863 21.1315 20.0379 21.1315ZM12.0062 15.4854C13.1195 16.6783 16.3799 19.6206 20.1174 19.6206C23.8549 19.6206 27.0357 16.5987 28.2286 15.4854C27.1153 14.2926 23.8549 11.3503 20.1174 11.3503C16.3003 11.3503 13.1195 14.3721 12.0062 15.4854Z" fill="black"/>
<path d="M105.683 16.2009L23.7762 16.2009C23.3786 16.2009 23.0605 15.8828 23.0605 15.4852C23.0605 15.0876 23.3786 14.7695 23.7762 14.7695L105.683 14.7695C106.081 14.7695 106.399 15.0876 106.399 15.4852C106.399 15.8828 106.081 16.2009 105.683 16.2009Z" fill="black"/>
<path d="M6.04359 16.2009L0.715645 16.2009C0.318038 16.2009 -4.24796e-05 15.8828 -4.24649e-05 15.4852C-4.24502e-05 15.0876 0.318038 14.7695 0.715645 14.7695L6.04359 14.7695C6.4412 14.7695 6.75928 15.0876 6.75928 15.4852C6.75928 15.8828 6.4412 16.2009 6.04359 16.2009Z" fill="black"/>
<path d="M124.848 21.1334L121.349 21.1334C121.031 21.1334 120.713 20.8949 120.633 20.4972C120.633 20.4177 120.235 17.873 121.508 16.2031C121.746 15.9645 121.905 15.726 122.224 15.5669C122.064 15.4079 121.905 15.3284 121.746 15.1693C120.236 13.5789 120.554 10.7161 120.554 10.5571C120.633 10.1595 120.872 9.9209 121.269 9.9209L124.768 9.9209C127.79 9.9209 130.176 12.3065 130.414 15.2488C130.573 15.1693 130.812 15.0898 130.971 14.9307C132.959 14.1355 149.817 14.4536 153.157 14.5331C153.555 14.5331 153.873 14.8512 153.873 15.2488C153.873 15.6464 153.555 15.9645 153.157 15.9645C145.523 15.8055 132.879 15.6464 131.528 16.2031C130.653 16.5212 130.096 17.3164 129.539 18.1911C128.585 19.543 127.392 21.1334 124.848 21.1334ZM121.985 19.702L124.768 19.702C126.597 19.702 127.392 18.5887 128.267 17.3959C128.585 16.9983 128.903 16.6007 129.221 16.2031C129.062 16.044 128.903 15.885 128.903 15.6464C128.903 13.2608 126.995 11.4318 124.689 11.4318L121.905 11.4318C121.905 12.3065 122.064 13.5789 122.701 14.2946C123.098 14.6922 123.655 14.9307 124.371 14.9307C124.768 14.8512 125.086 15.2488 125.086 15.6464C125.086 16.044 124.768 16.3621 124.45 16.3621C123.575 16.4417 123.019 16.6802 122.542 17.2369C122.064 17.873 121.985 18.9863 121.985 19.702Z" fill="black"/>
<path d="M1668.2 15.4868C1668.2 13.8168 1668.76 12.1469 1669.95 10.9541C1671.39 9.52269 1673.45 9.04556 1675.84 9.68173C1677.03 9.99982 1678.22 10.5565 1679.58 11.3517C1678.78 10.0793 1678.22 8.80699 1677.91 7.61417C1677.27 5.22853 1677.75 3.16098 1679.18 1.72959C1681.49 -0.576531 1685.86 -0.576531 1688.16 1.72959C1689.6 3.16098 1690.07 5.22853 1689.44 7.61417C1689.12 8.807 1688.56 9.99982 1687.77 11.3517C1689.04 10.5565 1690.31 9.99982 1691.5 9.68173C1693.89 9.04556 1695.96 9.52269 1697.39 10.9541C1699.7 13.2602 1699.7 17.6339 1697.39 19.94C1695.96 21.3714 1693.89 21.8485 1691.5 21.2123C1690.31 20.8943 1689.12 20.3376 1687.77 19.5424C1688.56 20.8147 1689.12 22.0871 1689.44 23.2799C1690.07 25.6655 1689.6 27.7331 1688.16 29.1645C1685.86 31.4706 1681.49 31.4706 1679.18 29.1645C1677.75 27.7331 1677.27 25.6655 1677.91 23.2799C1678.22 22.0871 1678.78 20.8943 1679.58 19.5424C1678.3 20.3376 1677.03 20.8943 1675.84 21.2123C1673.45 21.8485 1671.39 21.3714 1669.95 19.94C1668.84 18.8267 1668.2 17.1567 1668.2 15.4868ZM1682.6 15.4868C1679.97 13.1012 1677.59 11.6698 1675.52 11.1131C1673.61 10.636 1672.02 10.9541 1670.99 11.9879C1669.24 13.7373 1669.24 17.2363 1670.99 18.9857C1672.02 20.0195 1673.61 20.3376 1675.52 19.8605C1677.59 19.3038 1679.97 17.8724 1682.6 15.4868ZM1683.71 16.6001C1681.33 19.2243 1679.89 21.6099 1679.34 23.6775C1678.86 25.586 1679.18 27.1764 1680.21 28.2102C1681.96 29.9597 1685.46 29.9597 1687.21 28.2102C1688.24 27.1764 1688.56 25.586 1688.09 23.6775C1687.53 21.6099 1686.02 19.2243 1683.71 16.6001ZM1688.24 5.70566C1688.24 4.51284 1687.85 3.55858 1687.13 2.84289C1685.38 1.09342 1681.88 1.09342 1680.13 2.84289C1679.1 3.87667 1678.78 5.4671 1679.26 7.37561C1679.82 9.44317 1681.25 11.8288 1683.63 14.453C1686.02 11.8288 1687.45 9.44317 1688.01 7.37561C1688.16 6.73944 1688.24 6.18279 1688.24 5.70566ZM1697.71 15.4868C1697.71 14.2145 1697.23 12.8626 1696.36 11.9879C1695.32 10.9541 1693.73 10.636 1691.82 11.1131C1689.76 11.6698 1687.37 13.1012 1684.75 15.4868C1687.37 17.8724 1689.76 19.3038 1691.82 19.8605C1693.73 20.3376 1695.32 20.0195 1696.36 18.9857C1697.23 18.111 1697.71 16.8387 1697.71 15.4868Z" fill="black"/>
<path d="M1841.96 9.91894C1847.21 9.91895 1851.34 14.8493 1851.58 15.0878C1851.82 15.3264 1851.82 15.724 1851.58 15.9626C1851.42 16.2011 1847.29 21.1315 1841.96 21.1315C1836.63 21.1315 1832.5 16.2011 1832.34 15.9626C1832.1 15.724 1832.1 15.3264 1832.34 15.0878C1832.5 14.8493 1836.71 9.91894 1841.96 9.91894ZM1849.99 15.4854C1848.88 14.2926 1845.62 11.3503 1841.88 11.3503C1838.14 11.3503 1834.96 14.3721 1833.85 15.4854C1834.96 16.6783 1838.22 19.6206 1841.96 19.6206C1845.7 19.6206 1848.88 16.6783 1849.99 15.4854Z" fill="black"/>
<path d="M1756.32 14.7695L1838.22 14.7695C1838.62 14.7695 1838.94 15.0876 1838.94 15.4852C1838.94 15.8828 1838.62 16.2009 1838.22 16.2009L1756.32 16.2009C1755.92 16.2009 1755.6 15.8828 1755.6 15.4852C1755.6 15.0876 1755.92 14.7695 1756.32 14.7695Z" fill="black"/>
<path d="M1855.96 14.7695L1861.28 14.7695C1861.68 14.7695 1862 15.0876 1862 15.4852C1862 15.8828 1861.68 16.2009 1861.28 16.2009L1855.96 16.2009C1855.56 16.2009 1855.24 15.8828 1855.24 15.4852C1855.24 15.0876 1855.56 14.7695 1855.96 14.7695Z" fill="black"/>
<path d="M1737.23 9.9209L1740.73 9.9209C1741.05 9.9209 1741.37 10.1595 1741.45 10.5571C1741.45 10.6366 1741.84 13.1813 1740.57 14.8512C1740.33 15.0898 1740.17 15.3284 1739.85 15.4874C1740.01 15.6464 1740.17 15.726 1740.33 15.885C1741.84 17.4754 1741.52 20.3382 1741.52 20.4972C1741.45 20.8949 1741.21 21.1334 1740.81 21.1334L1737.31 21.1334C1734.29 21.1334 1731.9 18.7478 1731.66 15.8055C1731.51 15.885 1731.27 15.9645 1731.11 16.1236C1729.12 16.9188 1712.26 16.6007 1708.92 16.5212C1708.52 16.5212 1708.21 16.2031 1708.21 15.8055C1708.21 15.4079 1708.52 15.0898 1708.92 15.0898C1716.56 15.2488 1729.2 15.4079 1730.55 14.8512C1731.43 14.5331 1731.98 13.7379 1732.54 12.8632C1733.41 11.5113 1734.61 9.9209 1737.23 9.9209ZM1740.01 11.3523L1737.23 11.3523C1735.4 11.3523 1734.61 12.4656 1733.73 13.6584C1733.41 14.056 1733.1 14.4536 1732.78 14.8512C1732.94 15.0103 1733.1 15.1693 1733.1 15.4079C1733.1 17.7935 1735 19.6225 1737.31 19.6225L1740.09 19.6225C1740.09 18.7478 1739.93 17.4754 1739.3 16.7597C1738.9 16.3621 1738.34 16.1236 1737.63 16.1236C1737.23 16.2031 1736.91 15.8055 1736.91 15.4079C1736.91 15.0103 1737.23 14.6922 1737.55 14.6922C1738.42 14.6127 1738.98 14.3741 1739.46 13.8174C1739.93 13.1018 1740.01 11.9885 1740.01 11.3523Z" fill="black"/>
<path d="M1525.38 21.1315C1520.14 21.1315 1516 16.2011 1515.76 15.9626C1515.52 15.724 1515.52 15.3264 1515.76 15.0878C1515.92 14.8493 1520.06 9.91894 1525.38 9.91894C1530.71 9.91895 1534.77 14.8493 1535.01 15.0878C1535.25 15.3264 1535.25 15.724 1535.01 15.9626C1534.85 16.2011 1530.63 21.1315 1525.38 21.1315ZM1517.35 15.4854C1518.47 16.6783 1521.73 19.6206 1525.46 19.6206C1529.2 19.6206 1532.38 16.5987 1533.58 15.4854C1532.46 14.2926 1529.2 11.3503 1525.46 11.3503C1521.65 11.3503 1518.47 14.3721 1517.35 15.4854Z" fill="black"/>
<path d="M1611.03 16.2009L1529.12 16.2009C1528.73 16.2009 1528.41 15.8828 1528.41 15.4852C1528.41 15.0876 1528.73 14.7695 1529.12 14.7695L1611.03 14.7695C1611.43 14.7695 1611.75 15.0876 1611.75 15.4852C1611.75 15.8828 1611.43 16.2009 1611.03 16.2009Z" fill="black"/>
<path d="M1511.39 16.2009L1506.06 16.2009C1505.66 16.2009 1505.35 15.8828 1505.35 15.4852C1505.35 15.0876 1505.66 14.7695 1506.06 14.7695L1511.39 14.7695C1511.79 14.7695 1512.11 15.0876 1512.11 15.4852C1512.11 15.8828 1511.79 16.2009 1511.39 16.2009Z" fill="black"/>
<path d="M1630.19 21.1334L1626.7 21.1334C1626.38 21.1334 1626.06 20.8949 1625.98 20.4972C1625.98 20.4177 1625.58 17.873 1626.85 16.2031C1627.09 15.9645 1627.25 15.726 1627.57 15.5669C1627.41 15.4079 1627.25 15.3284 1627.09 15.1693C1625.58 13.5789 1625.9 10.7161 1625.9 10.5571C1625.98 10.1595 1626.22 9.9209 1626.62 9.9209L1630.11 9.9209C1633.14 9.9209 1635.52 12.3065 1635.76 15.2488C1635.92 15.1693 1636.16 15.0898 1636.32 14.9307C1638.31 14.1355 1655.16 14.4536 1658.5 14.5331C1658.9 14.5331 1659.22 14.8512 1659.22 15.2488C1659.22 15.6464 1658.9 15.9645 1658.5 15.9645C1650.87 15.8055 1638.23 15.6464 1636.87 16.2031C1636 16.5212 1635.44 17.3164 1634.89 18.1911C1633.93 19.543 1632.74 21.1334 1630.19 21.1334ZM1627.33 19.702L1630.11 19.702C1631.94 19.702 1632.74 18.5887 1633.61 17.3959C1633.93 16.9983 1634.25 16.6007 1634.57 16.2031C1634.41 16.044 1634.25 15.885 1634.25 15.6464C1634.25 13.2608 1632.34 11.4318 1630.04 11.4318L1627.25 11.4318C1627.25 12.3065 1627.41 13.5789 1628.05 14.2946C1628.44 14.6922 1629 14.9307 1629.72 14.9307C1630.11 14.8512 1630.43 15.2488 1630.43 15.6464C1630.43 16.044 1630.11 16.3621 1629.8 16.3621C1628.92 16.4417 1628.37 16.6802 1627.89 17.2369C1627.41 17.873 1627.33 18.9863 1627.33 19.702Z" fill="black"/>
<path d="M915.591 15.4868C915.591 13.8168 916.147 12.1469 917.34 10.9541C918.772 9.52269 920.839 9.04556 923.225 9.68173C924.418 9.99982 925.61 10.5565 926.962 11.3517C926.167 10.0793 925.61 8.80699 925.292 7.61417C924.656 5.22853 925.133 3.16098 926.565 1.72959C928.871 -0.576531 933.244 -0.576531 935.551 1.72959C936.982 3.16098 937.459 5.22853 936.823 7.61417C936.505 8.807 935.948 9.99982 935.153 11.3517C936.425 10.5565 937.698 9.99982 938.89 9.68173C941.276 9.04556 943.344 9.52269 944.775 10.9541C947.081 13.2602 947.081 17.6339 944.775 19.94C943.344 21.3714 941.276 21.8485 938.89 21.2123C937.698 20.8943 936.505 20.3376 935.153 19.5424C935.948 20.8147 936.505 22.0871 936.823 23.2799C937.459 25.6655 936.982 27.7331 935.551 29.1645C933.244 31.4706 928.871 31.4706 926.565 29.1645C925.133 27.7331 924.656 25.6655 925.292 23.2799C925.61 22.0871 926.167 20.8943 926.962 19.5424C925.69 20.3376 924.418 20.8943 923.225 21.2123C920.839 21.8485 918.772 21.3714 917.34 19.94C916.227 18.8267 915.591 17.1567 915.591 15.4868ZM929.984 15.4868C927.36 13.1012 924.974 11.6698 922.907 11.1131C920.998 10.636 919.408 10.9541 918.374 11.9879C916.624 13.7373 916.624 17.2363 918.374 18.9857C919.408 20.0195 920.998 20.3376 922.907 19.8605C924.974 19.3038 927.36 17.8724 929.984 15.4868ZM931.097 16.6001C928.712 19.2243 927.28 21.6099 926.724 23.6775C926.247 25.586 926.565 27.1764 927.598 28.2102C929.348 29.9597 932.847 29.9597 934.596 28.2102C935.63 27.1764 935.948 25.586 935.471 23.6775C934.914 21.6099 933.403 19.2243 931.097 16.6001ZM935.63 5.70566C935.63 4.51284 935.232 3.55858 934.517 2.84289C932.767 1.09342 929.268 1.09342 927.519 2.84289C926.485 3.87667 926.167 5.4671 926.644 7.37561C927.201 9.44317 928.632 11.8288 931.018 14.453C933.403 11.8288 934.835 9.44317 935.392 7.37561C935.551 6.73944 935.63 6.18279 935.63 5.70566ZM945.093 15.4868C945.093 14.2145 944.616 12.8626 943.741 11.9879C942.707 10.9541 941.117 10.636 939.209 11.1131C937.141 11.6698 934.755 13.1012 932.131 15.4868C934.755 17.8724 937.141 19.3038 939.209 19.8605C941.117 20.3376 942.707 20.0195 943.741 18.9857C944.616 18.111 945.093 16.8387 945.093 15.4868Z" fill="black"/>
<path d="M1089.35 9.91894C1094.59 9.91895 1098.73 14.8493 1098.97 15.0878C1099.21 15.3264 1099.21 15.724 1098.97 15.9626C1098.81 16.2011 1094.67 21.1315 1089.35 21.1315C1084.02 21.1315 1079.88 16.2011 1079.72 15.9626C1079.49 15.724 1079.49 15.3264 1079.72 15.0878C1079.88 14.8493 1084.1 9.91894 1089.35 9.91894ZM1097.38 15.4854C1096.26 14.2926 1093 11.3503 1089.27 11.3503C1085.53 11.3503 1082.35 14.3721 1081.23 15.4854C1082.35 16.6783 1085.61 19.6206 1089.35 19.6206C1093.08 19.6206 1096.26 16.6783 1097.38 15.4854Z" fill="black"/>
<path d="M1003.7 14.7695L1085.61 14.7695C1086.01 14.7695 1086.32 15.0876 1086.32 15.4852C1086.32 15.8828 1086.01 16.2009 1085.61 16.2009L1003.7 16.2009C1003.3 16.2009 1002.99 15.8828 1002.99 15.4852C1002.99 15.0876 1003.3 14.7695 1003.7 14.7695Z" fill="black"/>
<path d="M1103.34 14.7695L1108.67 14.7695C1109.07 14.7695 1109.39 15.0876 1109.39 15.4852C1109.39 15.8828 1109.07 16.2009 1108.67 16.2009L1103.34 16.2009C1102.94 16.2009 1102.63 15.8828 1102.63 15.4852C1102.63 15.0876 1102.94 14.7695 1103.34 14.7695Z" fill="black"/>
<path d="M984.616 9.9209L988.115 9.9209C988.433 9.9209 988.751 10.1595 988.831 10.5571C988.831 10.6366 989.228 13.1813 987.956 14.8512C987.717 15.0898 987.558 15.3284 987.24 15.4874C987.399 15.6464 987.558 15.726 987.717 15.885C989.228 17.4754 988.91 20.3382 988.91 20.4972C988.831 20.8949 988.592 21.1334 988.195 21.1334L984.696 21.1334C981.674 21.1334 979.288 18.7478 979.05 15.8055C978.891 15.885 978.652 15.9645 978.493 16.1236C976.505 16.9188 959.646 16.6007 956.307 16.5212C955.909 16.5212 955.591 16.2031 955.591 15.8055C955.591 15.4079 955.909 15.0898 956.307 15.0898C963.941 15.2488 976.584 15.4079 977.936 14.8512C978.811 14.5331 979.368 13.7379 979.924 12.8632C980.799 11.5113 981.992 9.9209 984.616 9.9209ZM987.399 11.3523L984.616 11.3523C982.787 11.3523 981.992 12.4656 981.117 13.6584C980.799 14.056 980.481 14.4536 980.163 14.8512C980.322 15.0103 980.481 15.1693 980.481 15.4079C980.481 17.7935 982.39 19.6225 984.696 19.6225L987.479 19.6225C987.479 18.7478 987.32 17.4754 986.684 16.7597C986.286 16.3621 985.729 16.1236 985.014 16.1236C984.616 16.2031 984.298 15.8055 984.298 15.4079C984.298 15.0103 984.616 14.6922 984.934 14.6922C985.809 14.6127 986.366 14.3741 986.843 13.8174C987.32 13.1018 987.399 11.9885 987.399 11.3523Z" fill="black"/>
<path d="M772.77 21.1315C767.522 21.1315 763.387 16.2011 763.148 15.9626C762.91 15.724 762.91 15.3264 763.148 15.0878C763.307 14.8493 767.442 9.91894 772.77 9.91894C778.098 9.91895 782.154 14.8493 782.392 15.0878C782.631 15.3264 782.631 15.724 782.392 15.9626C782.233 16.2011 778.019 21.1315 772.77 21.1315ZM764.739 15.4854C765.852 16.6783 769.112 19.6206 772.85 19.6206C776.587 19.6206 779.768 16.5987 780.961 15.4854C779.848 14.2926 776.587 11.3503 772.85 11.3503C769.033 11.3503 765.852 14.3721 764.739 15.4854Z" fill="black"/>
<path d="M858.416 16.2009L776.509 16.2009C776.111 16.2009 775.793 15.8828 775.793 15.4852C775.793 15.0876 776.111 14.7695 776.509 14.7695L858.416 14.7695C858.813 14.7695 859.131 15.0876 859.131 15.4852C859.131 15.8828 858.813 16.2009 858.416 16.2009Z" fill="black"/>
<path d="M758.776 16.2009L753.448 16.2009C753.05 16.2009 752.732 15.8828 752.732 15.4852C752.732 15.0876 753.05 14.7695 753.448 14.7695L758.776 14.7695C759.174 14.7695 759.492 15.0876 759.492 15.4852C759.492 15.8828 759.174 16.2009 758.776 16.2009Z" fill="black"/>
<path d="M877.581 21.1334L874.082 21.1334C873.764 21.1334 873.446 20.8949 873.367 20.4972C873.367 20.4177 872.969 17.873 874.241 16.2031C874.48 15.9645 874.639 15.726 874.957 15.5669C874.798 15.4079 874.639 15.3284 874.48 15.1693C872.969 13.5789 873.287 10.7161 873.287 10.5571C873.367 10.1595 873.605 9.9209 874.003 9.9209L877.502 9.9209C880.523 9.9209 882.909 12.3065 883.148 15.2488C883.307 15.1693 883.545 15.0898 883.704 14.9307C885.692 14.1355 902.551 14.4536 905.891 14.5331C906.288 14.5331 906.606 14.8512 906.606 15.2488C906.606 15.6464 906.288 15.9645 905.891 15.9645C898.257 15.8055 885.613 15.6464 884.261 16.2031C883.386 16.5212 882.83 17.3164 882.273 18.1911C881.319 19.543 880.126 21.1334 877.581 21.1334ZM874.718 19.702L877.502 19.702C879.331 19.702 880.126 18.5887 881.001 17.3959C881.319 16.9983 881.637 16.6007 881.955 16.2031C881.796 16.044 881.637 15.885 881.637 15.6464C881.637 13.2608 879.728 11.4318 877.422 11.4318L874.639 11.4318C874.639 12.3065 874.798 13.5789 875.434 14.2946C875.832 14.6922 876.388 14.9307 877.104 14.9307C877.502 14.8512 877.82 15.2488 877.82 15.6464C877.82 16.044 877.502 16.3621 877.184 16.3621C876.309 16.4417 875.752 16.6802 875.275 17.2369C874.798 17.873 874.718 18.9863 874.718 19.702Z" fill="black"/>
<path d="M419.576 15.4868C419.576 13.8168 420.133 12.1469 421.326 10.9541C422.757 9.52269 424.825 9.04556 427.21 9.68173C428.403 9.99982 429.596 10.5565 430.948 11.3517C430.153 10.0793 429.596 8.80699 429.278 7.61417C428.642 5.22853 429.119 3.16098 430.55 1.72959C432.856 -0.576531 437.23 -0.576531 439.536 1.72959C440.968 3.16098 441.445 5.22853 440.809 7.61417C440.49 8.807 439.934 9.99982 439.139 11.3517C440.411 10.5565 441.683 9.99982 442.876 9.68173C445.262 9.04556 447.329 9.52269 448.761 10.9541C451.067 13.2602 451.067 17.6339 448.761 19.94C447.329 21.3714 445.262 21.8485 442.876 21.2123C441.683 20.8943 440.49 20.3376 439.139 19.5424C439.934 20.8147 440.49 22.0871 440.809 23.2799C441.445 25.6655 440.968 27.7331 439.536 29.1645C437.23 31.4706 432.856 31.4706 430.55 29.1645C429.119 27.7331 428.642 25.6655 429.278 23.2799C429.596 22.0871 430.153 20.8943 430.948 19.5424C429.676 20.3376 428.403 20.8943 427.21 21.2123C424.825 21.8485 422.757 21.3714 421.326 19.94C420.133 18.8267 419.576 17.1567 419.576 15.4868ZM433.97 15.4868C431.345 13.1012 428.96 11.6698 426.892 11.1131C424.984 10.636 423.393 10.9541 422.36 11.9879C420.61 13.7373 420.61 17.2363 422.36 18.9857C423.393 20.0195 424.984 20.3376 426.892 19.8605C428.96 19.3038 431.345 17.8724 433.97 15.4868ZM435.003 16.6001C432.618 19.2243 431.186 21.6099 430.63 23.6775C430.153 25.586 430.471 27.1764 431.504 28.2102C433.254 29.9597 436.753 29.9597 438.502 28.2102C439.536 27.1764 439.854 25.586 439.377 23.6775C438.82 21.6099 437.389 19.2243 435.003 16.6001ZM439.616 5.70566C439.616 4.51284 439.218 3.55858 438.502 2.84289C436.753 1.09342 433.254 1.09342 431.504 2.84289C430.471 3.87667 430.153 5.4671 430.63 7.37561C431.186 9.44317 432.618 11.8288 435.003 14.453C437.389 11.8288 438.82 9.44317 439.377 7.37561C439.536 6.73944 439.616 6.18279 439.616 5.70566ZM449.079 15.4868C449.079 14.2145 448.602 12.8626 447.727 11.9879C446.693 10.9541 445.103 10.636 443.194 11.1131C441.127 11.6698 438.741 13.1012 436.117 15.4868C438.741 17.8724 441.127 19.3038 443.194 19.8605C445.103 20.3376 446.693 20.0195 447.727 18.9857C448.602 18.111 449.079 16.8387 449.079 15.4868Z" fill="black"/>
<path d="M380.61 21.1334L377.111 21.1334C376.793 21.1334 376.475 20.8949 376.396 20.4972C376.396 20.4177 375.998 17.873 377.271 16.2031C377.509 15.9645 377.668 15.726 377.986 15.5669C377.827 15.4079 377.668 15.3284 377.509 15.1693C375.998 13.5789 376.316 10.7161 376.316 10.5571C376.396 10.1595 376.634 9.9209 377.032 9.9209L380.531 9.9209C383.553 9.9209 385.938 12.3065 386.177 15.2488C386.336 15.1693 386.575 15.0898 386.734 14.9307C388.722 14.1355 405.58 14.4536 408.92 14.5331C409.318 14.5331 409.636 14.8512 409.636 15.2488C409.636 15.6464 409.318 15.9645 408.92 15.9645C401.286 15.8055 388.642 15.6464 387.29 16.2031C386.416 16.5212 385.859 17.3164 385.302 18.1911C384.427 19.543 383.235 21.1334 380.61 21.1334ZM377.827 19.702L380.61 19.702C382.439 19.702 383.235 18.5887 384.109 17.3959C384.427 16.9983 384.746 16.6007 385.064 16.2031C384.905 16.044 384.746 15.885 384.746 15.6464C384.746 13.2608 382.837 11.4318 380.531 11.4318L377.748 11.4318C377.748 12.3065 377.907 13.5789 378.543 14.2946C378.941 14.6922 379.497 14.9307 380.213 14.9307C380.61 14.8512 380.929 15.2488 380.929 15.6464C380.929 16.044 380.61 16.3621 380.292 16.3621C379.418 16.4417 378.861 16.6802 378.384 17.2369C377.907 17.873 377.827 18.9863 377.827 19.702Z" fill="black"/>
<path d="M689.87 15.4874C689.87 17.1573 689.314 18.8273 688.121 20.0201C686.69 21.4515 684.622 21.9286 682.236 21.2924C681.043 20.9743 679.851 20.4177 678.499 19.6225C679.294 20.8948 679.851 22.1672 680.169 23.36C680.805 25.7456 680.328 27.8132 678.896 29.2446C676.59 31.5507 672.217 31.5507 669.91 29.2446C668.479 27.8132 668.002 25.7456 668.638 23.36C668.956 22.1671 669.513 20.9743 670.308 19.6225C669.036 20.4177 667.763 20.9743 666.571 21.2924C664.185 21.9286 662.117 21.4515 660.686 20.0201C658.38 17.7139 658.38 13.3403 660.686 11.0342C662.117 9.60277 664.185 9.12564 666.571 9.76181C667.763 10.0799 668.956 10.6365 670.308 11.4318C669.513 10.1594 668.956 8.88707 668.638 7.69425C668.002 5.30861 668.479 3.24105 669.91 1.80967C672.217 -0.496453 676.59 -0.496453 678.896 1.80967C680.328 3.24105 680.805 5.30861 680.169 7.69425C679.851 8.88708 679.294 10.0799 678.499 11.4318C679.771 10.6365 681.043 10.0799 682.236 9.76181C684.622 9.12564 686.69 9.60277 688.121 11.0342C689.314 12.1475 689.87 13.8174 689.87 15.4874ZM675.477 15.4874C678.101 17.873 680.487 19.3044 682.554 19.861C684.463 20.3382 686.053 20.0201 687.087 18.9863C688.837 17.2368 688.837 13.7379 687.087 11.9884C686.053 10.9546 684.463 10.6365 682.554 11.1137C680.487 11.6703 678.101 13.1812 675.477 15.4874ZM674.443 14.4536C676.829 11.8294 678.26 9.44372 678.817 7.37617C679.294 5.46765 678.976 3.87722 677.942 2.84345C676.193 1.09398 672.694 1.09398 670.944 2.84345C669.91 3.87722 669.592 5.46765 670.07 7.37617C670.626 9.44372 672.058 11.8294 674.443 14.4536ZM669.831 25.348C669.831 26.5408 670.229 27.4951 670.944 28.2108C672.694 29.9602 676.193 29.9602 677.942 28.2108C678.976 27.177 679.294 25.5866 678.817 23.6781C678.26 21.6105 676.829 19.2249 674.443 16.6007C672.058 19.2249 670.626 21.6105 670.07 23.6781C669.91 24.2347 669.831 24.7914 669.831 25.348ZM660.368 15.4874C660.368 16.7597 660.845 18.1116 661.72 18.9863C662.754 20.0201 664.344 20.3382 666.253 19.861C668.32 19.3044 670.706 17.873 673.33 15.4874C670.706 13.1017 668.32 11.6703 666.253 11.1137C664.344 10.6365 662.754 10.9546 661.72 11.9884C660.845 12.8631 660.368 14.215 660.368 15.4874Z" fill="black"/>
<path d="M728.836 9.9209L732.255 9.9209C732.573 9.9209 732.891 10.1595 732.971 10.5571C732.971 10.6366 733.369 13.1813 732.096 14.8512C731.858 15.0898 731.699 15.3284 731.38 15.4874C731.54 15.6464 731.699 15.726 731.858 15.885C733.369 17.4754 733.05 20.3382 733.05 20.4972C732.971 20.8949 732.732 21.1334 732.335 21.1334L728.836 21.1334C725.814 21.1334 723.428 18.7478 723.19 15.8055C723.031 15.885 722.792 15.9645 722.633 16.1236C720.645 16.9188 703.787 16.6007 700.447 16.5212C700.049 16.5212 699.731 16.2031 699.731 15.8055C699.731 15.4079 700.049 15.0898 700.447 15.0898C708.081 15.2488 720.725 15.4079 722.076 14.8512C722.951 14.5331 723.508 13.7379 724.065 12.8632C725.019 11.5113 726.212 9.9209 728.836 9.9209ZM731.619 11.3523L728.836 11.3523C727.007 11.3523 726.212 12.4656 725.337 13.6584C725.019 14.056 724.701 14.4536 724.383 14.8512C724.542 15.0103 724.701 15.1693 724.701 15.4079C724.701 17.7935 726.609 19.6225 728.915 19.6225L731.619 19.6225C731.619 18.7478 731.46 17.4754 730.824 16.7597C730.347 16.4417 729.87 16.2031 729.074 16.2031C728.677 16.2826 728.359 15.885 728.359 15.4874C728.359 15.0898 728.677 14.7717 728.995 14.7717C729.87 14.6922 730.426 14.4536 730.903 13.897C731.54 13.1018 731.619 11.9885 731.619 11.3523Z" fill="black"/>
<path d="M548.64 15.4874C548.719 14.4536 549.196 13.4994 550.151 12.3065C551.582 10.6366 553.332 9.36425 555.161 8.8076C556.91 8.25095 558.819 8.72808 559.852 9.9209C560.568 10.7161 560.966 11.9885 560.727 13.1018C560.568 13.9765 559.852 14.8512 559.375 15.4874C559.852 16.044 560.568 16.9983 560.727 17.873C560.886 18.9863 560.568 20.2587 559.852 21.0539C558.739 22.2467 556.83 22.6443 555.161 22.1672C553.411 21.6105 551.662 20.4177 550.151 18.6683C549.196 17.555 548.719 16.5212 548.64 15.4874C548.64 15.5669 548.64 15.5669 548.64 15.4874ZM559.375 12.5451C559.375 11.9885 559.137 11.3523 558.819 10.9547C557.944 10.0799 556.592 9.9209 555.558 10.239C554.047 10.7161 552.536 11.8294 551.264 13.2608C550.548 14.1355 550.151 14.8512 550.071 15.4874C550.151 16.1236 550.548 16.8393 551.264 17.714C552.536 19.2249 554.047 20.2587 555.558 20.7358C556.592 21.0539 557.944 20.9744 558.819 20.0201C559.216 19.543 559.455 18.7478 559.375 18.0321C559.296 17.3959 558.5 16.4417 558.023 15.9645C557.785 15.726 557.785 15.2488 558.023 14.9308C558.5 14.4536 559.296 13.4198 559.375 12.8632C559.375 12.7837 559.375 12.6246 559.375 12.5451Z" fill="black"/>
<path d="M555.002 15.4873L555.002 15.4078C555.081 15.0102 555.24 14.6126 555.479 14.374C555.956 13.8969 556.592 13.7379 557.228 13.8174C557.944 13.9764 558.501 14.5331 558.898 14.9307L558.978 15.0102C559.137 15.1692 559.216 15.3283 559.216 15.4873C559.216 15.6464 559.137 15.8849 558.978 15.9645L558.898 16.044C558.501 16.4416 557.944 16.9982 557.228 17.1573C556.592 17.3163 555.956 17.0778 555.479 16.6006C555.24 16.2825 555.002 15.9645 555.002 15.5668C555.002 15.5668 555.002 15.5668 555.002 15.4873ZM557.467 15.4873C557.308 15.3283 557.149 15.2488 556.91 15.1692C556.751 15.1692 556.592 15.1692 556.513 15.3283C556.433 15.4078 556.433 15.4078 556.433 15.4873C556.433 15.5668 556.513 15.5668 556.513 15.6464C556.592 15.7259 556.751 15.8054 556.91 15.8054C557.149 15.7259 557.308 15.6464 557.467 15.4873Z" fill="black"/>
<path d="M557.07 16.2023C557.07 15.9638 557.149 15.7252 557.388 15.5662C557.467 15.5662 557.467 15.4866 557.547 15.4866C557.467 15.4866 557.467 15.4071 557.388 15.4071C557.07 15.1685 556.99 14.7709 557.149 14.4529C557.388 14.1348 557.786 14.0552 558.104 14.2143C558.501 14.4529 558.819 14.6914 559.058 15.089C559.296 15.3276 559.296 15.7252 559.058 16.0433C558.74 16.3614 558.422 16.6795 558.104 16.918C557.786 17.1566 557.308 16.9975 557.149 16.6795C557.07 16.4409 557.07 16.3614 557.07 16.2023Z" fill="black"/>
<path d="M636.749 14.7715C640.725 14.7715 643.986 18.0319 643.986 22.0079C643.986 22.4055 643.668 22.7236 643.27 22.7236C642.873 22.7236 642.554 22.4055 642.554 22.0079C642.554 18.8271 639.93 16.2029 636.749 16.2029C636.352 16.2029 636.034 15.8848 636.034 15.4872C636.034 15.0896 636.352 14.7715 636.749 14.7715Z" fill="black"/>
<path d="M643.192 8.25C643.59 8.25 643.908 8.56809 643.908 8.96569C643.908 12.9418 640.647 16.2021 636.671 16.2021C636.274 16.2021 635.956 15.8841 635.956 15.4864C635.956 15.0888 636.274 14.7708 636.671 14.7708C639.852 14.7708 642.476 12.1465 642.476 8.96569C642.476 8.56809 642.874 8.25 643.192 8.25Z" fill="black"/>
<path d="M575.437 14.7715L637.861 14.7715C638.259 14.7715 638.577 15.0896 638.577 15.4872C638.577 15.8848 638.259 16.2029 637.861 16.2029L575.437 16.2029C575.039 16.2029 574.721 15.8848 574.721 15.4872C574.721 15.0896 575.039 14.7715 575.437 14.7715Z" fill="black"/>
<path d="M644.303 14.7715L649.711 14.7715C650.108 14.7715 650.426 15.0896 650.426 15.4872C650.426 15.8848 650.108 16.2029 649.711 16.2029L644.303 16.2029C643.906 16.2029 643.587 15.8848 643.587 15.4872C643.587 15.0896 643.906 14.7715 644.303 14.7715Z" fill="black"/>
<path d="M473.492 16.2031C469.516 16.2031 466.256 12.9427 466.256 8.96667C466.256 8.56906 466.574 8.25098 466.971 8.25098C467.369 8.25098 467.687 8.56906 467.687 8.96667C467.687 12.1475 470.311 14.7717 473.492 14.7717C473.89 14.7717 474.208 15.0898 474.208 15.4874C474.208 15.885 473.89 16.2031 473.492 16.2031Z" fill="black"/>
<path d="M467.051 22.7246C466.653 22.7246 466.335 22.4065 466.335 22.0089C466.335 18.0328 469.596 14.7725 473.572 14.7725C473.969 14.7725 474.287 15.0905 474.287 15.4882C474.287 15.8858 473.969 16.2038 473.572 16.2038C470.391 16.2038 467.767 18.8281 467.767 22.0089C467.767 22.4065 467.449 22.7246 467.051 22.7246Z" fill="black"/>
<path d="M534.803 16.2029L472.379 16.2029C471.981 16.2029 471.663 15.8848 471.663 15.4872C471.663 15.0896 471.981 14.7715 472.379 14.7715L534.803 14.7715C535.2 14.7715 535.519 15.0896 535.519 15.4872C535.519 15.8848 535.2 16.2029 534.803 16.2029Z" fill="black"/>
<path d="M465.937 16.2029L460.53 16.2029C460.132 16.2029 459.814 15.8848 459.814 15.4872C459.814 15.0896 460.132 14.7715 460.53 14.7715L465.937 14.7715C466.335 14.7715 466.653 15.0896 466.653 15.4872C466.653 15.8848 466.335 16.2029 465.937 16.2029Z" fill="black"/>
<path d="M1172.19 15.4868C1172.19 13.8168 1172.75 12.1469 1173.94 10.9541C1175.37 9.52269 1177.44 9.04556 1179.82 9.68173C1181.02 9.99982 1182.21 10.5565 1183.56 11.3517C1182.77 10.0793 1182.21 8.80699 1181.89 7.61417C1181.26 5.22853 1181.73 3.16098 1183.16 1.72959C1185.47 -0.576531 1189.84 -0.576531 1192.15 1.72959C1193.58 3.16098 1194.06 5.22853 1193.42 7.61417C1193.1 8.807 1192.55 9.99982 1191.75 11.3517C1193.02 10.5565 1194.3 9.99982 1195.49 9.68173C1197.88 9.04556 1199.94 9.52269 1201.37 10.9541C1203.68 13.2602 1203.68 17.6339 1201.37 19.94C1199.94 21.3714 1197.88 21.8485 1195.49 21.2123C1194.3 20.8943 1193.1 20.3376 1191.75 19.5424C1192.55 20.8147 1193.1 22.0871 1193.42 23.2799C1194.06 25.6655 1193.58 27.7331 1192.15 29.1645C1189.84 31.4706 1185.47 31.4706 1183.16 29.1645C1181.73 27.7331 1181.26 25.6655 1181.89 23.2799C1182.21 22.0871 1182.77 20.8943 1183.56 19.5424C1182.29 20.3376 1181.02 20.8943 1179.82 21.2123C1177.44 21.8485 1175.37 21.3714 1173.94 19.94C1172.75 18.8267 1172.19 17.1567 1172.19 15.4868ZM1186.58 15.4868C1183.96 13.1012 1181.57 11.6698 1179.51 11.1131C1177.6 10.636 1176.01 10.9541 1174.97 11.9879C1173.22 13.7373 1173.22 17.2363 1174.97 18.9857C1176.01 20.0195 1177.6 20.3376 1179.51 19.8605C1181.57 19.3038 1183.96 17.8724 1186.58 15.4868ZM1187.62 16.6001C1185.23 19.2243 1183.8 21.6099 1183.24 23.6775C1182.77 25.586 1183.08 27.1764 1184.12 28.2102C1185.87 29.9597 1189.37 29.9597 1191.12 28.2102C1192.15 27.1764 1192.47 25.586 1191.99 23.6775C1191.43 21.6099 1190 19.2243 1187.62 16.6001ZM1192.23 5.70566C1192.23 4.51284 1191.83 3.55858 1191.12 2.84289C1189.37 1.09342 1185.87 1.09342 1184.12 2.84289C1183.08 3.87667 1182.77 5.4671 1183.24 7.37561C1183.8 9.44317 1185.23 11.8288 1187.62 14.453C1190 11.8288 1191.43 9.44317 1191.99 7.37561C1192.15 6.73944 1192.23 6.18279 1192.23 5.70566ZM1201.69 15.4868C1201.69 14.2145 1201.22 12.8626 1200.34 11.9879C1199.31 10.9541 1197.72 10.636 1195.81 11.1131C1193.74 11.6698 1191.35 13.1012 1188.73 15.4868C1191.35 17.8724 1193.74 19.3038 1195.81 19.8605C1197.72 20.3376 1199.31 20.0195 1200.34 18.9857C1201.22 18.111 1201.69 16.8387 1201.69 15.4868Z" fill="black"/>
<path d="M1133.22 21.1334L1129.73 21.1334C1129.41 21.1334 1129.09 20.8949 1129.01 20.4972C1129.01 20.4177 1128.61 17.873 1129.88 16.2031C1130.12 15.9645 1130.28 15.726 1130.6 15.5669C1130.44 15.4079 1130.28 15.3284 1130.12 15.1693C1128.61 13.5789 1128.93 10.7161 1128.93 10.5571C1129.01 10.1595 1129.25 9.9209 1129.65 9.9209L1133.14 9.9209C1136.17 9.9209 1138.55 12.3065 1138.79 15.2488C1138.95 15.1693 1139.19 15.0898 1139.35 14.9307C1141.34 14.1355 1158.19 14.4536 1161.53 14.5331C1161.93 14.5331 1162.25 14.8512 1162.25 15.2488C1162.25 15.6464 1161.93 15.9645 1161.53 15.9645C1153.9 15.8055 1141.26 15.6464 1139.9 16.2031C1139.03 16.5212 1138.47 17.3164 1137.92 18.1911C1137.04 19.543 1135.85 21.1334 1133.22 21.1334ZM1130.44 19.702L1133.22 19.702C1135.05 19.702 1135.85 18.5887 1136.72 17.3959C1137.04 16.9983 1137.36 16.6007 1137.68 16.2031C1137.52 16.044 1137.36 15.885 1137.36 15.6464C1137.36 13.2608 1135.45 11.4318 1133.14 11.4318L1130.36 11.4318C1130.36 12.3065 1130.52 13.5789 1131.16 14.2946C1131.55 14.6922 1132.11 14.9307 1132.83 14.9307C1133.22 14.8512 1133.54 15.2488 1133.54 15.6464C1133.54 16.044 1133.22 16.3621 1132.91 16.3621C1132.03 16.4417 1131.47 16.6802 1131 17.2369C1130.52 17.873 1130.44 18.9863 1130.44 19.702Z" fill="black"/>
<path d="M1442.48 15.4874C1442.48 17.1573 1441.93 18.8273 1440.73 20.0201C1439.3 21.4515 1437.24 21.9286 1434.85 21.2924C1433.66 20.9743 1432.46 20.4177 1431.11 19.6225C1431.91 20.8948 1432.46 22.1672 1432.78 23.36C1433.42 25.7456 1432.94 27.8132 1431.51 29.2446C1429.2 31.5507 1424.83 31.5507 1422.52 29.2446C1421.09 27.8132 1420.62 25.7456 1421.25 23.36C1421.57 22.1671 1422.13 20.9743 1422.92 19.6225C1421.65 20.4177 1420.38 20.9743 1419.18 21.2924C1416.8 21.9286 1414.73 21.4515 1413.3 20.0201C1410.99 17.7139 1410.99 13.3403 1413.3 11.0342C1414.73 9.60277 1416.8 9.12564 1419.18 9.76181C1420.38 10.0799 1421.57 10.6365 1422.92 11.4318C1422.13 10.1594 1421.57 8.88707 1421.25 7.69425C1420.62 5.30861 1421.09 3.24105 1422.52 1.80967C1424.83 -0.496453 1429.2 -0.496453 1431.51 1.80967C1432.94 3.24105 1433.42 5.30861 1432.78 7.69425C1432.46 8.88708 1431.91 10.0799 1431.11 11.4318C1432.39 10.6365 1433.66 10.0799 1434.85 9.76181C1437.24 9.12564 1439.3 9.60277 1440.73 11.0342C1441.93 12.1475 1442.48 13.8174 1442.48 15.4874ZM1428.09 15.4874C1430.72 17.873 1433.1 19.3044 1435.17 19.861C1437.08 20.3382 1438.67 20.0201 1439.7 18.9863C1441.45 17.2368 1441.45 13.7379 1439.7 11.9884C1438.67 10.9546 1437.08 10.6365 1435.17 11.1137C1433.1 11.6703 1430.72 13.1812 1428.09 15.4874ZM1427.06 14.4536C1429.44 11.8294 1430.87 9.44372 1431.43 7.37617C1431.91 5.46765 1431.59 3.87722 1430.56 2.84345C1428.81 1.09398 1425.31 1.09398 1423.56 2.84345C1422.52 3.87722 1422.21 5.46765 1422.68 7.37617C1423.24 9.44372 1424.67 11.8294 1427.06 14.4536ZM1422.44 25.348C1422.44 26.5408 1422.84 27.4951 1423.56 28.2108C1425.31 29.9602 1428.81 29.9602 1430.56 28.2108C1431.59 27.177 1431.91 25.5866 1431.43 23.6781C1430.87 21.6105 1429.44 19.2249 1427.06 16.6007C1424.67 19.2249 1423.24 21.6105 1422.68 23.6781C1422.52 24.2347 1422.44 24.7914 1422.44 25.348ZM1412.98 15.4874C1412.98 16.7597 1413.46 18.1116 1414.33 18.9863C1415.37 20.0201 1416.96 20.3382 1418.87 19.861C1420.93 19.3044 1423.32 17.873 1425.94 15.4874C1423.32 13.1017 1420.93 11.6703 1418.87 11.1137C1416.96 10.6365 1415.37 10.9546 1414.33 11.9884C1413.46 12.8631 1412.98 14.215 1412.98 15.4874Z" fill="black"/>
<path d="M1481.45 9.9209L1484.87 9.9209C1485.19 9.9209 1485.51 10.1595 1485.58 10.5571C1485.58 10.6366 1485.98 13.1813 1484.71 14.8512C1484.47 15.0898 1484.31 15.3284 1483.99 15.4874C1484.15 15.6464 1484.31 15.726 1484.47 15.885C1485.98 17.4754 1485.66 20.3382 1485.66 20.4972C1485.58 20.8949 1485.35 21.1334 1484.95 21.1334L1481.45 21.1334C1478.43 21.1334 1476.04 18.7478 1475.8 15.8055C1475.64 15.885 1475.41 15.9645 1475.25 16.1236C1473.26 16.9188 1456.4 16.6007 1453.06 16.5212C1452.66 16.5212 1452.34 16.2031 1452.34 15.8055C1452.34 15.4079 1452.66 15.0898 1453.06 15.0898C1460.69 15.2488 1473.34 15.4079 1474.69 14.8512C1475.57 14.5331 1476.12 13.7379 1476.68 12.8632C1477.63 11.5113 1478.83 9.9209 1481.45 9.9209ZM1484.23 11.3523L1481.45 11.3523C1479.62 11.3523 1478.83 12.4656 1477.95 13.6584C1477.63 14.056 1477.31 14.4536 1477 14.8512C1477.16 15.0103 1477.31 15.1693 1477.31 15.4079C1477.31 17.7935 1479.22 19.6225 1481.53 19.6225L1484.23 19.6225C1484.23 18.7478 1484.07 17.4754 1483.44 16.7597C1482.96 16.4417 1482.48 16.2031 1481.69 16.2031C1481.29 16.2826 1480.97 15.885 1480.97 15.4874C1480.97 15.0898 1481.29 14.7717 1481.61 14.7717C1482.48 14.6922 1483.04 14.4536 1483.52 13.897C1484.15 13.1018 1484.23 11.9885 1484.23 11.3523Z" fill="black"/>
<path d="M1301.25 15.4874C1301.33 14.4536 1301.81 13.4994 1302.76 12.3065C1304.2 10.6366 1305.95 9.36425 1307.77 8.8076C1309.52 8.25095 1311.43 8.72808 1312.47 9.9209C1313.18 10.7161 1313.58 11.9885 1313.34 13.1018C1313.18 13.9765 1312.47 14.8512 1311.99 15.4874C1312.47 16.044 1313.18 16.9983 1313.34 17.873C1313.5 18.9863 1313.18 20.2587 1312.47 21.0539C1311.35 22.2467 1309.44 22.6443 1307.77 22.1672C1306.03 21.6105 1304.28 20.4177 1302.76 18.6683C1301.81 17.555 1301.33 16.5212 1301.25 15.4874C1301.25 15.5669 1301.25 15.5669 1301.25 15.4874ZM1311.99 12.5451C1311.99 11.9885 1311.75 11.3523 1311.43 10.9547C1310.56 10.0799 1309.21 9.9209 1308.17 10.239C1306.66 10.7161 1305.15 11.8294 1303.88 13.2608C1303.16 14.1355 1302.76 14.8512 1302.69 15.4874C1302.76 16.1236 1303.16 16.8393 1303.88 17.714C1305.15 19.2249 1306.66 20.2587 1308.17 20.7358C1309.21 21.0539 1310.56 20.9744 1311.43 20.0201C1311.83 19.543 1312.07 18.7478 1311.99 18.0321C1311.91 17.3959 1311.11 16.4417 1310.64 15.9645C1310.4 15.726 1310.4 15.2488 1310.64 14.9308C1311.11 14.4536 1311.91 13.4198 1311.99 12.8632C1311.99 12.7837 1311.99 12.6246 1311.99 12.5451Z" fill="black"/>
<path d="M1307.62 15.4873L1307.62 15.4078C1307.69 15.0102 1307.85 14.6126 1308.09 14.374C1308.57 13.8969 1309.21 13.7379 1309.84 13.8174C1310.56 13.9764 1311.11 14.5331 1311.51 14.9307L1311.59 15.0102C1311.75 15.1692 1311.83 15.3283 1311.83 15.4873C1311.83 15.6464 1311.75 15.8849 1311.59 15.9645L1311.51 16.044C1311.11 16.4416 1310.56 16.9982 1309.84 17.1573C1309.21 17.3163 1308.57 17.0778 1308.09 16.6006C1307.85 16.2825 1307.62 15.9645 1307.62 15.5668C1307.62 15.5668 1307.62 15.5668 1307.62 15.4873ZM1310.08 15.4873C1309.92 15.3283 1309.76 15.2488 1309.52 15.1692C1309.36 15.1692 1309.21 15.1692 1309.13 15.3283C1309.05 15.4078 1309.05 15.4078 1309.05 15.4873C1309.05 15.5668 1309.13 15.5668 1309.13 15.6464C1309.21 15.7259 1309.36 15.8054 1309.52 15.8054C1309.76 15.7259 1309.92 15.6464 1310.08 15.4873Z" fill="black"/>
<path d="M1309.68 16.2023C1309.68 15.9638 1309.76 15.7252 1310 15.5662C1310.08 15.5662 1310.08 15.4866 1310.16 15.4866C1310.08 15.4866 1310.08 15.4071 1310 15.4071C1309.68 15.1685 1309.6 14.7709 1309.76 14.4529C1310 14.1348 1310.4 14.0552 1310.72 14.2143C1311.11 14.4529 1311.43 14.6914 1311.67 15.089C1311.91 15.3276 1311.91 15.7252 1311.67 16.0433C1311.35 16.3614 1311.03 16.6795 1310.72 16.918C1310.4 17.1566 1309.92 16.9975 1309.76 16.6795C1309.68 16.4409 1309.68 16.3614 1309.68 16.2023Z" fill="black"/>
<path d="M1389.37 14.7715C1393.34 14.7715 1396.6 18.0319 1396.6 22.0079C1396.6 22.4055 1396.28 22.7236 1395.89 22.7236C1395.49 22.7236 1395.17 22.4055 1395.17 22.0079C1395.17 18.8271 1392.55 16.2029 1389.37 16.2029C1388.97 16.2029 1388.65 15.8848 1388.65 15.4872C1388.65 15.0896 1388.97 14.7715 1389.37 14.7715Z" fill="black"/>
<path d="M1395.81 8.25C1396.2 8.25 1396.52 8.56809 1396.52 8.96569C1396.52 12.9418 1393.26 16.2021 1389.29 16.2021C1388.89 16.2021 1388.57 15.8841 1388.57 15.4864C1388.57 15.0888 1388.89 14.7708 1389.29 14.7708C1392.47 14.7708 1395.09 12.1465 1395.09 8.96569C1395.09 8.56809 1395.49 8.25 1395.81 8.25Z" fill="black"/>
<path d="M1328.05 14.7715L1390.48 14.7715C1390.88 14.7715 1391.19 15.0896 1391.19 15.4872C1391.19 15.8848 1390.88 16.2029 1390.48 16.2029L1328.05 16.2029C1327.66 16.2029 1327.34 15.8848 1327.34 15.4872C1327.34 15.0896 1327.66 14.7715 1328.05 14.7715Z" fill="black"/>
<path d="M1396.92 14.7715L1402.33 14.7715C1402.72 14.7715 1403.04 15.0896 1403.04 15.4872C1403.04 15.8848 1402.72 16.2029 1402.33 16.2029L1396.92 16.2029C1396.52 16.2029 1396.2 15.8848 1396.2 15.4872C1396.2 15.0896 1396.52 14.7715 1396.92 14.7715Z" fill="black"/>
<path d="M1226.11 16.2031C1222.13 16.2031 1218.87 12.9427 1218.87 8.96667C1218.87 8.56906 1219.19 8.25098 1219.59 8.25098C1219.98 8.25098 1220.3 8.56906 1220.3 8.96667C1220.3 12.1475 1222.93 14.7717 1226.11 14.7717C1226.5 14.7717 1226.82 15.0898 1226.82 15.4874C1226.82 15.885 1226.5 16.2031 1226.11 16.2031Z" fill="black"/>
<path d="M1219.67 22.7246C1219.27 22.7246 1218.95 22.4065 1218.95 22.0089C1218.95 18.0328 1222.21 14.7725 1226.19 14.7725C1226.58 14.7725 1226.9 15.0905 1226.9 15.4882C1226.9 15.8858 1226.58 16.2038 1226.19 16.2038C1223.01 16.2038 1220.38 18.8281 1220.38 22.0089C1220.38 22.4065 1220.06 22.7246 1219.67 22.7246Z" fill="black"/>
<path d="M1287.42 16.2029L1224.99 16.2029C1224.6 16.2029 1224.28 15.8848 1224.28 15.4872C1224.28 15.0896 1224.6 14.7715 1224.99 14.7715L1287.42 14.7715C1287.82 14.7715 1288.13 15.0896 1288.13 15.4872C1288.13 15.8848 1287.82 16.2029 1287.42 16.2029Z" fill="black"/>
<path d="M1218.55 16.2029L1213.14 16.2029C1212.75 16.2029 1212.43 15.8848 1212.43 15.4872C1212.43 15.0896 1212.75 14.7715 1213.14 14.7715L1218.55 14.7715C1218.95 14.7715 1219.27 15.0896 1219.27 15.4872C1219.27 15.8848 1218.95 16.2029 1218.55 16.2029Z" fill="black"/>
</svg>
