<svg width="223" height="43" viewBox="0 0 223 43" fill="none" xmlns="http://www.w3.org/2000/svg">
<path fill-rule="evenodd" clip-rule="evenodd" d="M99.7591 21.8908C98.8764 21.2729 97.8172 20.8315 96.9346 20.3019C96.4932 20.0371 96.0519 19.8606 95.6105 19.5958C95.5223 18.8897 95.434 18.2718 95.3457 17.6539C94.7279 14.2998 93.1391 11.4752 90.0497 9.88643C88.0196 8.91549 85.9894 8.03282 83.871 7.06188C83.6945 6.97362 83.4297 7.06188 83.3414 7.15015C83.2532 7.32669 83.1649 7.67975 83.2532 7.85629C84.4889 10.3278 85.6364 12.7992 86.8721 15.2707C87.2252 15.9769 87.7548 16.683 88.1961 17.3891C88.3727 17.6539 88.6375 17.9187 88.3727 18.2718C88.1961 18.2718 88.0196 18.3601 87.843 18.3601C84.3124 17.9187 80.8699 17.9187 77.3393 18.0953C76.8097 18.0953 76.1918 18.0953 75.7505 18.0953C75.5739 17.8305 75.4857 17.7422 75.4857 17.6539C74.2499 13.5054 71.6019 10.5926 67.8947 8.38589C64.1875 6.17921 60.392 3.97254 56.5082 2.03066C56.0669 1.76586 55.6256 1.58933 55.096 1.41279C54.6546 1.23626 54.2133 1.05972 53.6837 0.794922C53.5954 1.32452 53.4189 1.76586 53.4189 2.2072C53.4189 6.44401 54.3898 10.3278 57.2144 13.5936C58.8032 15.5355 60.8333 17.0361 63.04 18.2718C63.4813 18.5366 63.9227 18.8014 64.364 19.0662C64.1875 19.2427 64.0992 19.331 64.0109 19.4193C59.068 20.2137 54.2133 21.1846 49.2703 22.0673C49.0055 22.1556 48.6525 22.1556 48.2994 22.1556C47.9463 21.626 47.505 21.0963 47.2402 20.5667C45.2983 16.8595 42.2972 14.3881 38.4135 12.9758C35.1476 11.8283 31.8817 10.7691 28.6158 9.7099C27.1153 9.18029 25.5265 8.82723 24.2025 7.94455C23.9377 7.76802 23.5846 7.85629 23.3198 7.76802C22.7902 8.65069 23.1433 9.35683 23.3198 10.063C24.6438 14.5646 27.3801 18.007 31.6169 20.1254C34.3532 21.5377 37.266 22.5086 40.2671 23.1265C40.6202 23.2148 41.0615 23.0382 41.0615 23.7444C38.0604 24.5388 35.0593 25.3332 31.97 26.0393C31.1756 26.2158 30.3812 26.1276 29.5868 25.7745C27.9097 25.0684 26.1444 24.4505 24.379 23.7444C22.6137 23.0382 20.8483 22.7734 18.9065 22.7734C17.0529 22.7734 15.1992 23.0382 13.4339 23.4796C10.168 24.3622 6.81388 24.8036 3.37146 24.1857C2.66533 24.0974 1.95919 23.8326 1.34132 23.8326C0.899985 23.7444 0.546916 23.9209 0.105581 23.9209C-0.0709533 25.598 -0.0709533 25.598 0.458649 26.4806C1.25305 27.8046 2.13572 29.0404 3.01839 30.2761C3.98933 31.5119 5.22507 32.3945 6.72561 32.9241C11.2272 34.6895 15.9054 35.1308 20.6718 34.0716C22.1723 33.7185 23.5846 33.1889 24.9969 32.4828C27.7332 31.1588 30.3812 29.8348 33.0292 28.3342C34.2649 27.6281 35.5889 27.0985 36.9129 26.8337C37.6191 26.6572 38.4135 26.3924 39.1196 26.2158C41.0615 25.7745 42.9151 25.2449 45.1218 24.9801C44.857 25.3332 44.6805 25.5097 44.5039 25.6862C43.6212 26.3041 42.6503 26.8337 41.7676 27.4516C40.4436 28.246 39.3844 29.2169 38.7666 30.6292C37.266 33.9833 35.0593 36.8962 32.4996 39.5442C32.1465 39.8972 31.8817 40.162 31.6169 40.5151C31.3521 40.8682 31.0873 41.2212 31.3521 41.7508C31.5287 42.1922 31.97 42.3687 32.4113 42.3687C32.8527 42.3687 33.294 42.3687 33.7353 42.3687C39.7375 41.9274 45.1218 40.0738 49.7117 36.1017C50.8591 35.1308 51.7418 33.9833 52.2714 32.5711C52.6245 31.6001 52.9776 30.6292 53.4189 29.7465C53.9485 28.5108 54.3016 27.1868 54.4781 25.8628C54.5664 24.9801 54.5664 24.0974 55.0077 23.2148C55.1842 23.1265 55.3608 23.0382 55.5373 23.0382C58.7149 22.5086 61.9808 21.8908 65.1584 21.4494C68.4243 21.0081 71.7784 20.8315 75.0443 20.5667C75.0443 20.5667 75.0443 20.5667 75.1326 20.5667C75.3974 20.5667 75.7505 20.5667 76.0153 20.5667V20.655C75.7505 20.655 75.3974 20.5667 75.1326 20.5667C75.1326 21.0963 74.6913 21.0963 74.3382 21.1846C71.2488 21.979 68.6008 23.6561 66.3941 25.951C64.8053 27.6281 63.1283 29.3052 61.4512 31.0705C61.1864 31.4236 60.8333 31.7767 60.6568 32.1297C60.392 32.4828 60.6568 33.1007 61.0099 33.2772C61.2747 33.3655 61.5395 33.4537 61.716 33.4537C67.8947 34.3364 73.8086 33.2772 79.3694 30.3644C81.1348 29.4817 82.6353 28.0694 83.6945 26.3924C84.842 24.627 86.0777 22.8617 86.3425 20.8315C87.0486 20.3019 87.6665 20.3019 88.2844 20.3902C90.138 20.655 91.9916 20.9198 93.7569 21.2729C94.7279 21.4494 95.6988 21.979 96.5815 22.3321C97.8172 22.95 98.7882 23.8326 99.6708 24.8918C100.2 25.5097 99.8474 26.3924 99.053 26.4806C98.1703 26.5689 97.1994 26.8337 96.3167 25.951C95.7871 25.4214 95.1692 25.598 94.5513 25.951C94.0217 26.3041 94.11 26.8337 94.11 27.3633C94.11 29.3052 97.1994 31.0705 99.053 30.0113C100.465 29.2169 101.26 27.8929 101.878 26.4806C102.319 25.2449 102.142 24.1857 101.348 23.2148C100.907 22.7734 100.377 22.3321 99.7591 21.8908ZM6.46081 26.3041C9.19709 26.3041 11.9334 25.951 14.5814 25.2449C17.759 24.3622 20.9366 24.4505 23.9377 25.6862C24.8204 26.0393 25.8796 26.2158 26.8505 26.8337C26.5857 27.0102 26.4092 27.1868 26.3209 27.1868C21.3779 28.0694 16.3467 28.6873 11.2272 28.0694C9.37362 27.8929 7.60828 27.4516 5.93121 26.7454C6.01947 26.3041 6.28428 26.3041 6.46081 26.3041ZM27.8214 29.57C25.35 30.8057 22.7902 31.8649 20.1422 32.4828C15.7289 33.4537 11.4038 33.0124 7.16695 31.3353C5.1368 30.5409 3.72453 29.0404 3.01839 26.922C3.37146 27.0985 3.8128 27.275 4.16587 27.4516C7.43175 29.2169 10.9624 30.0113 14.6696 30.0996C18.8182 30.1879 22.9668 29.8348 27.027 29.1287C27.4684 29.0404 27.9097 29.0404 28.7041 28.8639C28.2628 29.3052 28.0862 29.4817 27.8214 29.57ZM42.562 21.8908C38.9431 21.1846 35.5007 20.1254 32.2348 18.4483C29.322 16.9478 27.1153 14.7411 25.703 11.6518C31.5287 15.359 37.7074 18.1835 43.6212 21.5377C43.7095 21.6259 43.7095 21.7142 43.7978 21.979C43.3564 21.8908 42.9151 21.979 42.562 21.8908ZM28.6158 11.74C28.9689 11.74 29.2337 11.74 29.4102 11.8283C31.5287 12.5344 33.6471 13.1523 35.7655 13.8584C37.7074 14.4763 39.561 15.359 41.238 16.5065C42.562 17.3891 43.6212 18.4483 44.5039 19.6841C44.5922 19.8606 44.5922 20.0371 44.7687 20.4785C40.0023 18.3601 30.2929 13.064 28.6158 11.74ZM37.4426 36.6314C38.5018 35.1308 39.3844 33.542 40.0906 31.7767C40.5319 30.7175 41.238 29.9231 42.1207 29.3052C43.9743 27.9812 45.8279 26.5689 47.6815 25.3332C48.9173 24.4505 49.0055 24.4505 50.4178 24.274C50.6826 24.5388 50.4178 24.7153 50.2413 24.8918C48.829 26.0393 47.7698 27.4516 46.7106 28.8639C45.6514 30.4527 44.4156 31.8649 43.0916 33.3655C41.4146 35.2191 39.2962 36.4548 36.7364 37.8671C37.1777 37.161 37.266 36.8962 37.4426 36.6314ZM52.1832 27.8929C51.6535 29.3052 51.1239 30.7175 50.5061 32.1297C50.153 33.0124 49.6234 33.8068 48.829 34.4247C45.4749 37.4258 41.5911 39.3676 37.1777 40.162C37.0895 40.162 37.0895 40.162 36.7364 40.0738C37.4426 39.2794 38.3252 38.7498 39.1196 38.2202C43.0916 36.0135 46.0045 32.7476 48.4759 29.0404C49.4469 27.5398 50.7709 26.3041 52.1832 25.2449C52.2714 25.1566 52.448 25.2449 52.6245 25.1566C52.801 26.3041 52.448 27.0985 52.1832 27.8929ZM62.4221 15.8003C58.6266 13.3288 56.1552 9.88643 55.2725 5.03174C55.7138 5.29654 55.9786 5.47308 56.1552 5.64961C56.773 6.26748 57.3026 6.88535 57.8322 7.50322C60.5685 10.3278 63.4813 12.7992 66.9238 14.7411C68.5126 15.6238 69.9248 16.683 71.4254 17.6539C71.6019 17.7422 71.7784 18.007 71.955 18.1835C69.4835 18.9779 65.9528 18.0953 62.4221 15.8003ZM72.6611 16.3299C72.3963 16.2417 72.1315 16.1534 71.8667 15.9769C69.9248 14.7411 67.983 13.5054 66.0411 12.2696C62.6869 10.1512 59.8624 7.32668 57.2144 4.41387C57.3026 4.23734 57.3909 4.14907 57.3909 4.0608C58.6266 4.76694 59.9507 5.47308 61.1864 6.26748C63.3048 7.50322 65.3349 8.73896 67.4534 10.063C69.4835 11.387 71.2488 13.064 72.4846 15.2707C72.6611 15.5355 72.7494 15.8886 72.8376 16.1534C72.8376 16.0651 72.7494 16.1534 72.6611 16.3299ZM65.5115 29.6583C68.2478 25.951 71.6019 23.1265 76.2801 22.3321C77.4275 22.1556 78.575 21.7142 79.899 21.6259C79.8107 21.8025 79.8107 21.979 79.7225 22.0673C75.2209 24.627 70.631 27.275 66.0411 29.8348C65.8645 29.9231 65.688 29.9231 65.5115 29.9231C65.5115 29.7465 65.4232 29.6583 65.5115 29.6583ZM84.1358 22.1556C83.3414 23.3913 82.6353 24.627 81.8409 25.8628C81.1348 27.0102 80.1638 27.9812 78.9281 28.5991C75.1326 30.6292 71.0723 31.9532 66.7472 31.9532C66.5707 31.9532 66.3941 31.9532 66.2176 31.9532C66.1293 31.9532 66.1293 31.9532 65.688 31.7767C72.0432 28.1577 78.1337 24.7153 84.1358 21.3612C84.5772 21.626 84.3124 21.979 84.1358 22.1556ZM90.7559 17.7422C89.3436 16.3299 88.1961 14.3881 87.7548 12.3579C90.138 14.5646 91.9916 17.1243 92.5212 18.8014C91.6385 18.8014 91.1972 18.2718 90.7559 17.7422ZM92.3447 15.359C92.2564 15.359 92.2564 15.359 92.1681 15.2707C91.1089 14.035 90.0497 12.7992 88.9905 11.4752C90.7559 12.2696 91.8151 13.5054 92.4329 15.0942C92.4329 15.2707 92.4329 15.359 92.3447 15.359Z" fill="white"/>
<path fill-rule="evenodd" clip-rule="evenodd" d="M222.362 24.0086C222.009 24.0086 221.568 23.832 221.126 23.9203C220.42 24.0086 219.714 24.1851 219.096 24.2734C215.654 24.8912 212.3 24.4499 209.034 23.5672C207.268 23.1259 205.415 22.7728 203.561 22.8611C201.707 22.8611 199.854 23.1259 198.089 23.832C196.411 24.5382 194.646 25.156 192.881 25.8622C192.086 26.2152 191.292 26.3035 190.498 26.127C187.496 25.3326 184.407 24.5382 181.406 23.832C181.406 23.1259 181.936 23.3024 182.2 23.2142C185.29 22.6846 188.114 21.6253 190.851 20.2131C195.087 18.0064 197.824 14.6523 199.148 10.1506C199.324 9.44449 199.677 8.73836 199.148 7.85569C198.883 7.94395 198.53 7.85569 198.265 8.03222C196.853 8.91489 195.352 9.26796 193.852 9.79756C190.586 10.8568 187.232 11.8277 184.054 13.0634C180.17 14.4757 177.169 16.9472 175.227 20.6544C174.963 21.184 174.521 21.7136 174.168 22.2432C173.815 22.2432 173.462 22.155 173.197 22.155C168.343 21.2723 163.4 20.3013 158.545 19.3304C158.457 19.3304 158.368 19.1539 158.192 18.9773C158.633 18.7125 159.075 18.4477 159.516 18.1829C161.723 16.9472 163.664 15.4467 165.341 13.5048C168.078 10.2389 169.137 6.26688 169.137 2.11833C169.137 1.67699 168.96 1.23566 168.872 0.706055C168.343 0.970856 167.901 1.05912 167.46 1.32392C166.842 1.50046 166.401 1.76526 165.959 1.94179C162.076 3.88367 158.28 6.00208 154.573 8.29702C150.954 10.5037 148.218 13.4165 146.982 17.5651C146.982 17.6533 146.894 17.7416 146.717 18.0064C146.276 18.0064 145.658 18.0947 145.128 18.0064C141.598 17.8299 138.067 17.8299 134.625 18.2712C134.448 18.2712 134.271 18.1829 134.095 18.1829C133.83 17.8299 134.095 17.5651 134.271 17.3003C134.713 16.5941 135.154 15.888 135.595 15.1819C136.831 12.7104 138.067 10.2389 139.214 7.76742C139.303 7.59089 139.214 7.32608 139.126 7.06128C139.038 7.06128 138.773 7.06128 138.597 7.06128C136.566 7.94395 134.448 8.82662 132.506 9.88583C129.417 11.5629 127.828 14.2992 127.21 17.6533C127.122 18.2712 127.034 18.8891 126.945 19.5952C126.504 19.7717 126.063 20.0365 125.621 20.3013C124.65 20.8309 123.679 21.2723 122.797 21.8902C122.179 22.2432 121.649 22.7728 121.208 23.3024C120.414 24.2734 120.237 25.3326 120.678 26.5683C121.296 28.0688 122.091 29.3046 123.503 30.099C125.356 31.2465 128.446 29.3929 128.446 27.451C128.446 26.9214 128.534 26.3918 128.004 26.0387C127.387 25.6856 126.769 25.5091 126.239 26.0387C125.445 26.9214 124.474 26.6566 123.503 26.5683C122.708 26.48 122.355 25.6856 122.885 24.9795C123.679 23.9203 124.739 23.0376 125.974 22.4198C126.857 21.9784 127.828 21.5371 128.799 21.3605C130.564 21.0075 132.418 20.7427 134.271 20.4779C134.889 20.3896 135.595 20.3896 136.213 20.9192C136.478 22.9494 137.714 24.6264 138.861 26.48C139.921 28.2454 141.333 29.5694 143.186 30.4521C148.747 33.2766 154.661 34.3358 160.84 33.5414C161.105 33.5414 161.369 33.4531 161.546 33.3649C161.987 33.1883 162.164 32.5705 161.899 32.2174C161.634 31.8643 161.369 31.5113 161.105 31.1582C159.428 29.4811 157.75 27.804 156.162 26.0387C153.955 23.7438 151.395 22.0667 148.218 21.2723C147.865 21.184 147.423 21.184 147.423 20.6544C147.158 20.6544 146.805 20.7427 146.541 20.7427V20.6544C146.805 20.6544 147.158 20.6544 147.423 20.6544C147.423 20.6544 147.423 20.6544 147.512 20.6544C150.777 20.9192 154.132 21.184 157.397 21.5371C160.663 21.9784 163.841 22.5963 167.019 23.1259C167.195 23.1259 167.372 23.2142 167.548 23.3024C167.989 24.0968 167.901 25.0678 168.078 25.9504C168.254 27.2744 168.607 28.5984 169.137 29.8342C169.578 30.8051 169.931 31.7761 170.284 32.6587C170.814 34.071 171.697 35.2185 172.844 36.1894C177.434 40.1614 182.818 42.015 188.82 42.4564C189.262 42.4564 189.703 42.4564 190.145 42.4564C190.586 42.4564 191.027 42.2798 191.204 41.8385C191.38 41.3972 191.204 40.9558 190.939 40.6028C190.674 40.2497 190.409 39.8966 190.056 39.6318C187.496 36.9838 185.29 34.071 183.789 30.7169C183.171 29.3046 182.112 28.3336 180.788 27.5392C179.817 27.0096 178.935 26.3918 178.052 25.7739C177.875 25.6856 177.699 25.4208 177.434 25.0678C179.641 25.3326 181.583 25.8622 183.436 26.3035C184.142 26.48 184.937 26.7448 185.643 26.9214C187.055 27.2744 188.291 27.804 189.527 28.4219C192.175 29.8342 194.823 31.2465 197.559 32.5705C198.971 33.1883 200.383 33.8062 201.884 34.1593C206.65 35.2185 211.329 34.7771 215.83 33.0118C217.243 32.4822 218.566 31.5995 219.537 30.3638C220.508 29.1281 221.303 27.8923 222.097 26.5683C222.627 25.5974 222.539 25.5974 222.362 24.0086ZM133.477 11.5629C132.418 12.7986 131.359 14.0344 130.299 15.3584C130.299 15.3584 130.211 15.4467 130.123 15.4467C130.035 15.4467 130.035 15.3584 129.946 15.2701C130.653 13.593 131.712 12.3573 133.477 11.5629ZM130.035 18.8008C130.564 17.1237 132.506 14.564 134.801 12.3573C134.271 14.3874 133.212 16.3293 131.8 17.7416C131.359 18.2712 130.917 18.8008 130.035 18.8008ZM156.426 31.9526C156.25 31.9526 156.073 31.9526 155.897 31.9526C151.484 31.9526 147.512 30.6286 143.716 28.5984C142.48 27.9806 141.509 27.0096 140.803 25.8622C140.009 24.6264 139.214 23.3907 138.508 22.155C138.332 21.8902 138.155 21.6253 138.597 21.2723C144.599 24.7147 150.689 28.1571 157.044 31.6878C156.515 31.8643 156.426 31.9526 156.426 31.9526ZM157.044 29.6577C157.044 29.6577 157.044 29.7459 156.956 29.8342C156.78 29.8342 156.603 29.8342 156.426 29.7459C151.837 27.1862 147.335 24.5382 142.745 21.9784C142.657 21.8902 142.657 21.8019 142.569 21.5371C143.804 21.6253 144.952 22.0667 146.188 22.2432C150.954 23.1259 154.308 25.9504 157.044 29.6577ZM149.718 16.0645C149.806 15.7997 149.895 15.4467 150.071 15.1819C151.219 12.9752 152.984 11.2981 155.102 9.9741C157.133 8.65009 159.251 7.41435 161.369 6.17861C162.605 5.47248 163.929 4.76634 165.165 3.97194C165.253 4.0602 165.341 4.23674 165.43 4.325C162.782 7.23782 159.957 10.0624 156.603 12.1808C154.661 13.4165 152.719 14.6523 150.777 15.888C150.513 16.0645 150.248 16.1528 149.983 16.2411C149.806 16.1528 149.718 16.0645 149.718 16.0645ZM150.513 18.1829C150.689 18.0064 150.866 17.7416 151.042 17.6533C152.543 16.6824 153.955 15.6232 155.544 14.7405C158.986 12.7986 161.987 10.3272 164.635 7.50262C165.165 6.88475 165.783 6.26688 166.312 5.64901C166.489 5.47248 166.754 5.38421 167.195 5.03114C166.312 9.88583 163.929 13.3282 160.045 15.7997C156.603 18.0947 153.072 18.9773 150.513 18.1829ZM185.378 40.338C180.965 39.4553 177.081 37.6017 173.727 34.6006C173.021 33.9827 172.491 33.1883 172.05 32.3057C171.52 30.8934 170.902 29.4811 170.373 28.0688C170.108 27.2744 169.755 26.3918 169.931 25.5091C170.108 25.5091 170.284 25.5091 170.373 25.5974C171.785 26.6566 173.109 27.8923 174.08 29.3929C176.551 33.1001 179.464 36.366 183.436 38.5726C184.231 39.014 185.025 39.5436 185.819 40.4262C185.466 40.2497 185.466 40.338 185.378 40.338ZM180.435 29.3046C181.318 29.9225 182.024 30.8051 182.465 31.7761C183.171 33.4531 184.142 35.0419 185.113 36.6307C185.29 36.8955 185.378 37.1604 185.731 37.7782C183.171 36.3659 181.053 35.1302 179.376 33.2766C178.14 31.8643 176.904 30.3638 175.757 28.775C174.698 27.2744 173.639 25.8622 172.226 24.803C172.05 24.6264 171.785 24.5382 172.05 24.1851C173.462 24.3616 173.55 24.3616 174.786 25.2443C176.728 26.6566 178.582 27.9806 180.435 29.3046ZM177.964 19.5952C178.846 18.3595 179.906 17.212 181.23 16.4176C182.907 15.2701 184.76 14.3875 186.702 13.7696C188.821 13.0634 190.939 12.4456 193.057 11.7394C193.234 11.6512 193.499 11.7394 193.852 11.6512C192.175 13.0634 182.465 18.2712 177.699 20.3013C177.875 19.9483 177.875 19.7717 177.964 19.5952ZM178.758 21.8902C178.846 21.7136 178.846 21.5371 178.935 21.4488C184.848 18.0947 191.115 15.2701 196.853 11.5629C195.441 14.6523 193.234 16.8589 190.321 18.3595C187.055 20.0365 183.613 21.0957 179.994 21.8019C179.641 21.9784 179.199 21.8902 178.758 21.8902ZM198.53 25.6856C201.619 24.3616 204.709 24.3616 207.886 25.2443C210.534 25.9504 213.27 26.3918 216.007 26.3035C216.272 26.3035 216.536 26.2152 216.448 26.7448C214.771 27.451 213.006 27.8923 211.152 28.0688C206.121 28.5984 201.09 28.0688 196.058 27.1862C195.882 27.1862 195.794 27.0096 195.529 26.8331C196.588 26.3035 197.559 26.127 198.53 25.6856ZM215.301 31.3347C211.152 33.0118 206.739 33.4531 202.325 32.4822C199.677 31.8643 197.118 30.8051 194.646 29.5694C194.381 29.4811 194.205 29.2163 193.763 28.775C194.558 28.8632 194.999 28.9515 195.441 29.0398C199.501 29.7459 203.649 30.099 207.798 30.0107C211.505 29.9225 215.036 29.128 218.302 27.3627C218.655 27.1862 219.096 27.0096 219.449 26.8331C218.743 29.128 217.331 30.5403 215.301 31.3347Z" fill="white"/>
<path fill-rule="evenodd" clip-rule="evenodd" d="M111.234 0C110.528 0 108.498 5.38429 107.35 7.41443C105.85 10.1507 105.055 13.0635 106.203 16.2411C106.997 18.4478 107.792 20.6545 108.586 22.9494C109.116 24.5382 110.263 28.422 111.146 28.422C112.028 28.422 113.176 24.5382 113.705 22.9494C114.5 20.7428 115.206 18.4478 116.089 16.2411C117.236 13.0635 116.53 10.1507 114.941 7.41443C113.97 5.38429 112.028 0 111.234 0ZM110.175 21.5372C109.822 21.6254 109.733 21.2724 109.645 21.0958C108.939 19.154 108.233 17.1238 107.615 15.0937C106.909 12.9753 107.438 11.0334 108.321 9.17977C108.851 8.12057 109.469 7.14963 110.086 6.00216C110.263 6.26696 110.44 6.35523 110.44 6.4435C110.44 11.2982 110.44 16.1529 110.44 21.0076C110.351 21.1841 110.263 21.3606 110.175 21.5372ZM114.941 15.0937C114.323 17.1238 113.617 19.0657 112.911 21.0958C112.823 21.2724 112.734 21.6254 112.381 21.5372C112.293 21.3606 112.205 21.1841 112.205 21.0958C112.205 16.2411 112.205 11.3865 112.205 6.53176C112.205 6.4435 112.381 6.35523 112.558 6.09043C113.176 7.2379 113.794 8.20884 114.323 9.26804C115.118 11.1216 115.647 13.0635 114.941 15.0937Z" fill="white"/>
</svg>
