<svg width="159" height="159" viewBox="0 0 159 159" fill="none" xmlns="http://www.w3.org/2000/svg">
<g filter="url(#filter0_d)">
<circle cx="79.5" cy="79.5" r="29.5" transform="rotate(90 79.5 79.5)" fill="white"/>
<path d="M68.2929 78.2929C67.9024 78.6834 67.9024 79.3166 68.2929 79.7071L74.6569 86.0711C75.0474 86.4616 75.6805 86.4616 76.0711 86.0711C76.4616 85.6805 76.4616 85.0474 76.0711 84.6569L70.4142 79L76.0711 73.3431C76.4616 72.9526 76.4616 72.3195 76.0711 71.9289C75.6805 71.5384 75.0474 71.5384 74.6569 71.9289L68.2929 78.2929ZM90 78L69 78L69 80L90 80L90 78Z" fill="#547D9B"/>
</g>
<defs>
<filter id="filter0_d" x="0" y="0" width="159" height="159" filterUnits="userSpaceOnUse" color-interpolation-filters="sRGB">
<feFlood flood-opacity="0" result="BackgroundImageFix"/>
<feColorMatrix in="SourceAlpha" type="matrix" values="0 0 0 0 0 0 0 0 0 0 0 0 0 0 0 0 0 0 127 0"/>
<feOffset/>
<feGaussianBlur stdDeviation="25"/>
<feColorMatrix type="matrix" values="0 0 0 0 0 0 0 0 0 0 0 0 0 0 0 0 0 0 0.2 0"/>
<feBlend mode="normal" in2="BackgroundImageFix" result="effect1_dropShadow"/>
<feBlend mode="normal" in="SourceGraphic" in2="effect1_dropShadow" result="shape"/>
</filter>
</defs>
</svg>
