<svg width="61" height="64" viewBox="0 0 61 64" fill="none" xmlns="http://www.w3.org/2000/svg">
<path d="M60.4766 38.0672C59.9131 36.6272 58.473 35.6254 56.9704 35.6254H50.8345V7.07499C50.8345 3.19314 47.704 0 43.8221 0H16.8996C13.0177 0 9.88722 3.13053 9.88722 7.07499V35.6254H3.75138C2.18612 35.6254 0.808688 36.6272 0.245193 38.0672C-0.318302 39.5073 0.119972 41.1977 1.24696 42.1995L22.5346 60.9827C24.7259 62.9236 27.4808 63.9254 30.4235 63.9254C33.3036 63.9254 36.121 62.861 38.3124 60.9827L59.6 42.1995C60.6018 41.1977 60.9774 39.5073 60.4766 38.0672ZM24.9764 58.1026L3.87661 39.4447H11.7655C12.8299 39.4447 13.7065 38.5681 13.7065 37.5037V7.07499C13.7065 6.19844 14.0195 5.38451 14.6456 4.82101C15.2717 4.19491 16.0857 3.88186 16.8996 3.88186H43.7595C45.5752 3.88186 46.9527 5.3219 46.9527 7.07499V37.5037C46.9527 38.5681 47.8292 39.4447 48.8936 39.4447H56.7825L35.6828 58.1026C34.1801 59.4174 32.3018 60.1061 30.3609 60.1061C28.3573 60.1061 26.4164 59.4174 24.9764 58.1026Z" fill="#67983F"/>
<path d="M38.8129 38.5059C39.3764 38.0676 39.6894 37.5041 39.6894 36.7528C39.6894 36.1893 39.5642 35.751 39.2511 35.3754C38.9381 34.9371 38.4998 34.7492 38.0615 34.7492C37.8111 34.7492 37.5607 34.8119 37.3728 34.8745C37.185 34.9371 36.9346 35.1249 36.6215 35.3127C35.745 35.8762 34.9936 36.3145 34.4301 36.565C33.8666 36.8154 33.2405 36.9406 32.677 36.9406C31.6127 36.9406 30.7987 36.6276 30.1726 36.0015C29.6091 35.438 29.1708 34.4988 28.9204 33.3092H32.4266C32.9275 33.3092 33.3031 33.184 33.6162 32.8709C33.9292 32.5579 34.0545 32.1822 34.0545 31.7439C34.0545 31.3057 33.8666 30.93 33.5536 30.6169C33.2405 30.3039 32.8649 30.1787 32.364 30.1787H28.5447C28.5447 29.9908 28.5447 29.7404 28.5447 29.4274C28.5447 29.1143 28.5447 28.8639 28.5447 28.676H32.364C32.8023 28.676 33.2405 28.5508 33.5536 28.2378C33.8666 27.9247 34.0545 27.549 34.0545 27.1108C34.0545 26.6725 33.9292 26.2968 33.6162 25.9838C33.3031 25.6707 32.9275 25.5455 32.4266 25.5455H28.9204C29.1708 24.3559 29.6091 23.4793 30.1726 22.9159C30.7987 22.2897 31.6127 21.9767 32.677 21.9767C33.3031 21.9767 33.9292 22.1019 34.4927 22.3524C35.1188 22.6028 35.8076 23.0411 36.6215 23.6672C36.9346 23.855 37.1224 23.9802 37.3728 24.1055C37.5607 24.1681 37.8111 24.2307 38.0615 24.2307C38.5624 24.2307 38.9381 24.0428 39.2511 23.6046C39.5642 23.2289 39.6894 22.728 39.6894 22.2271C39.6894 21.8515 39.6268 21.5384 39.5016 21.2254C39.3764 20.9749 39.1259 20.7245 38.8755 20.474C37.9363 19.7227 36.9346 19.0966 35.8076 18.6583C34.6806 18.2201 33.6162 18.0322 32.4892 18.0322C30.2978 18.0322 28.4821 18.7209 27.0421 20.0984C25.6647 21.4132 24.7255 23.2289 24.2246 25.5455H22.5341C22.0958 25.5455 21.7202 25.6707 21.4071 25.9838C21.0941 26.2968 20.9062 26.6725 20.9062 27.1108C20.9062 27.549 21.0941 27.9247 21.4071 28.2378C21.7202 28.5508 22.0958 28.676 22.5341 28.676H23.8489C23.8489 28.8639 23.8489 29.1143 23.8489 29.4274C23.8489 29.7404 23.8489 29.9908 23.8489 30.1787H22.5341C22.0958 30.1787 21.7202 30.3039 21.4071 30.6169C21.0941 30.93 20.9062 31.3057 20.9062 31.7439C20.9062 32.1822 21.0941 32.5579 21.4071 32.8709C21.7202 33.184 22.0958 33.3092 22.5341 33.3092H24.2246C24.7255 35.6258 25.6647 37.5041 27.0421 38.8189C28.4821 40.1964 30.2978 40.8851 32.4892 40.8851C33.6162 40.8851 34.6806 40.6973 35.8076 40.259C36.8719 39.8833 37.8737 39.3198 38.8129 38.5059Z" fill="#67983F"/>
</svg>
