<svg width="60" height="67" viewBox="0 0 60 67" fill="none" xmlns="http://www.w3.org/2000/svg">
<path d="M1.69053 66.6176C0.813983 66.6176 0 65.8037 0 64.9272V9.20376C0 4.1323 4.13234 0 9.2038 0H49.8381C54.9095 0 59.0418 4.1323 59.0418 9.20376V34.8115C59.0418 35.688 58.2279 36.5019 57.3513 36.5019H44.0153V64.9272C44.0153 65.8037 43.2013 66.6176 42.3248 66.6176H1.69053ZM9.2038 3.38099C5.94805 3.38099 3.38099 5.94801 3.38099 9.20376V63.2367H40.6343V9.20376C40.6343 7.45066 41.1352 5.69755 42.0743 4.25751L42.6379 3.38099H9.2038ZM49.8381 3.38099C46.5823 3.38099 44.0153 5.94801 44.0153 9.20376V33.121H55.6608V9.20376C55.6608 5.94801 53.0938 3.38099 49.8381 3.38099ZM9.07853 55.2851C8.20198 55.2851 7.38808 54.5338 7.38808 53.6573C7.38808 53.219 7.51327 52.7807 7.82632 52.4676C8.13937 52.1546 8.57768 51.9041 8.95334 51.9041H9.01594H9.07853H19.6597C20.5363 51.9041 21.4129 52.7181 21.4129 53.5947C21.4129 54.4712 20.5989 55.2851 19.7223 55.2851H9.1412H9.07853ZM9.07853 44.7666C8.20198 44.7666 7.38808 44.0152 7.38808 43.1387C7.38808 42.7004 7.51327 42.2622 7.82632 41.9491C8.13937 41.5735 8.57768 41.3856 8.95334 41.3856H9.01594H9.07853H34.6863C35.5628 41.3856 36.4394 42.1995 36.4394 43.0761C36.4394 43.9526 35.6254 44.7666 34.7489 44.7666H9.1412H9.07853ZM9.07853 34.248C8.20198 34.248 7.38808 33.4967 7.38808 32.6201C7.38808 32.1819 7.51327 31.7436 7.82632 31.4305C8.13937 31.0548 8.57768 30.867 8.95334 30.867H9.01594H9.07853H34.6863C35.5628 30.867 36.4394 31.681 36.4394 32.5575C36.4394 33.4341 35.6254 34.248 34.7489 34.248H9.1412H9.07853ZM9.07853 23.6668C8.20198 23.6668 7.38808 22.9155 7.38808 22.0389C7.38808 21.6007 7.51327 21.1624 7.82632 20.8493C8.13937 20.4736 8.57768 20.2858 8.95334 20.2858H9.01594H9.07853H34.6863C35.5628 20.2858 36.4394 21.0998 36.4394 21.9763C36.4394 22.8529 35.6254 23.6668 34.7489 23.6668H9.1412H9.07853Z" fill="#67983F"/>
</svg>
