<svg width="69" height="69" viewBox="0 0 69 69" fill="none" xmlns="http://www.w3.org/2000/svg">
<path d="M1.54781 36.7499L0.045159 43.8875C-0.205283 45.2024 0.608654 46.4546 1.92348 46.7676L9.49936 48.3329C9.93763 48.3955 10.4385 48.3329 10.8142 48.0824L13.256 46.5172C13.6317 46.2667 13.8821 45.8911 13.9447 45.4528L14.696 41.884L16.7622 42.3223C18.5153 42.6979 20.2684 41.5709 20.644 39.8178L21.0823 37.7517L24.6511 38.4404C25.0894 38.503 25.5903 38.4404 25.9659 38.19L28.3451 36.6247C29.5973 37.376 30.8496 37.9395 32.227 38.3152C33.0409 38.5656 33.9175 38.6908 34.794 38.7535C34.9819 39.1917 35.1697 39.63 35.4201 40.0683L23.5867 56.9105C23.1485 57.474 23.0232 58.2253 23.1485 58.9767L24.4007 66.1769C24.5885 67.3039 25.5903 68.1804 26.7799 68.1804C26.9051 68.1804 27.0303 68.1804 27.2181 68.1178L34.794 66.7404C35.2323 66.6778 35.6706 66.4273 35.921 66.0517L37.6115 63.6725C37.8619 63.2968 37.9872 62.8585 37.9245 62.3576L37.2984 58.7262L39.3646 58.3506C41.1177 58.0375 42.3073 56.347 41.9942 54.5939L41.6186 52.5278L45.1874 51.8391C45.6257 51.7765 46.0013 51.526 46.3144 51.1504L47.9422 48.8338C56.3321 50.1486 64.4714 45.3276 67.2263 37.3134C68.9168 32.6802 68.4785 27.6088 66.1619 23.3513C65.7236 22.4747 64.6593 22.1617 63.7827 22.6625C62.9062 23.1008 62.5931 24.1652 63.094 25.0417C64.9723 28.4853 65.2854 32.4924 63.9705 36.1864C61.654 43.011 54.579 46.9554 47.5666 45.3276C46.8779 45.1397 46.1265 45.4528 45.7509 46.0163L43.8726 48.7085L39.7403 49.4599C38.5507 49.6477 37.7367 50.7747 37.9872 51.9643L38.5507 55.0948L35.4201 55.5957C34.2305 55.7835 33.4166 56.9105 33.667 58.1001L34.3557 62.295L33.4792 63.422L27.6564 64.4238L26.6546 58.601L38.9889 41.0701C39.4272 40.5066 39.4272 39.6926 39.0515 39.1291C34.8566 32.6176 36.7349 23.9774 43.2464 19.8451C47.504 17.0902 52.9511 16.9024 57.3964 19.2816L54.7042 22.7252C51.8867 21.8486 48.8814 23.4139 48.0049 26.2313C47.1283 29.0488 48.6936 32.0541 51.511 32.9307C52.0119 33.1185 52.5754 33.1811 53.0763 33.1811C53.3893 33.1811 53.7024 33.1811 54.0155 33.1185C56.8955 32.6176 58.8991 29.9254 58.3982 26.9827C58.273 26.1687 57.9599 25.4174 57.459 24.7287L62.5931 18.2172C66.4124 13.2084 65.4106 6.13336 60.4643 2.31412C56.0816 -1.00424 49.8832 -0.753798 45.8761 3.06545L43.4969 5.1942C34.481 1.75062 24.4007 6.3212 20.9571 15.3371C19.9553 18.0294 19.5796 20.9095 19.9553 23.7269L2.73741 34.9968C2.17391 35.3725 1.73564 35.9986 1.54781 36.7499ZM54.579 28.861C54.0155 29.6749 52.8259 29.9254 52.0119 29.2993C51.198 28.7358 50.9475 27.5462 51.5736 26.7322C52.1371 25.9183 53.3267 25.6679 54.1407 26.294C54.5163 26.607 54.8294 26.9827 54.892 27.4836C54.9546 27.9218 54.892 28.4227 54.579 28.861ZM48.1927 5.50726C51.3232 2.50195 56.332 2.68978 59.3373 5.82031C62.0296 8.63778 62.2174 12.9579 59.8382 16.0258L59.5252 16.4015C57.5842 15.2745 55.4555 14.5232 53.2015 14.2101C51.8241 11.2048 49.5701 8.63779 46.8152 6.82208L48.1927 5.50726ZM4.92878 37.7517L22.8354 25.9809C23.4615 25.6052 23.712 24.8539 23.5867 24.1652C22.0841 16.5893 27.0303 9.26389 34.6062 7.76124C40.3037 6.63425 46.1265 9.20128 49.1945 14.1475C48.6936 14.2101 48.2553 14.2727 47.7544 14.3353C38.2376 15.9632 31.9139 25.0417 33.5418 34.5586C33.5418 34.6838 33.6044 34.8716 33.6044 34.9968C33.4792 34.9968 33.354 34.9342 33.2288 34.9342C31.8513 34.4959 30.5365 33.8698 29.2843 33.0559C28.7208 32.6802 27.9069 32.6802 27.3434 33.0559L24.5885 34.809L20.4562 33.9951C19.2666 33.7446 18.1396 34.4959 17.8892 35.6855L17.2631 38.8161L14.1325 38.1274C12.9429 37.8769 11.8159 38.6282 11.5655 39.8178L10.689 43.9501L9.49936 44.7641L3.67656 43.5745L4.92878 37.7517Z" fill="#EE942F"/>
</svg>
