<svg width="67" height="52" viewBox="0 0 67 52" fill="none" xmlns="http://www.w3.org/2000/svg">
<path d="M16.4666 0.0278269C15.5274 0.153048 14.7761 0.966985 14.8387 1.90614V4.66102H5.57236C2.50444 4.66102 0 7.16542 0 10.2333V46.297C0 49.3649 2.50444 51.8694 5.57236 51.8694H61.0453C64.1132 51.8694 66.6177 49.3649 66.6177 46.297V10.2333C66.6177 7.16542 64.1132 4.66102 61.0453 4.66102H51.779V1.90614C51.779 0.904375 50.965 0.0278269 49.9633 0.0278269C49.9006 0.0278269 49.7754 0.0278269 49.7128 0.0278269C48.7736 0.153048 48.0223 0.966985 48.0849 1.90614V4.66102H18.5327V1.90614C18.5327 0.904375 17.7188 0.0278269 16.7171 0.0278269C16.6545 -0.0347836 16.5292 0.0278269 16.4666 0.0278269ZM5.57236 8.35502H14.8387V11.1099C14.8387 12.1117 15.6526 12.9882 16.6544 12.9882C17.6562 12.9882 18.5327 12.1743 18.5327 11.1725V11.1099V8.35502H48.0849V11.1099C48.0849 12.1117 48.8989 12.9882 49.9007 12.9882C50.9024 12.9882 51.779 12.1743 51.779 11.1725V11.1099V8.35502H61.0453C62.1097 8.35502 62.9236 9.16896 62.9236 10.2333V15.8057H3.75663V10.2333C3.75663 9.16896 4.50798 8.35502 5.57236 8.35502ZM3.75663 19.4371H62.9236V46.2344C62.9236 47.2988 62.1097 48.1127 61.0453 48.1127H5.57236C4.50798 48.1127 3.69404 47.2988 3.69404 46.2344V19.4371H3.75663ZM22.2267 24.0703C20.1606 24.0703 18.5327 25.6981 18.5327 27.7643C18.5327 29.8304 20.1606 31.4583 22.2267 31.4583C24.2929 31.4583 25.9208 29.8304 25.9208 27.7643C25.9208 25.6981 24.2303 24.0703 22.2267 24.0703ZM33.3089 24.0703C31.2427 24.0703 29.6148 25.6981 29.6148 27.7643C29.6148 29.8304 31.2427 31.4583 33.3089 31.4583C35.375 31.4583 37.0028 29.8304 37.0028 27.7643C37.0028 25.6981 35.375 24.0703 33.3089 24.0703ZM44.3909 24.0703C42.3248 24.0703 40.6969 25.6981 40.6969 27.7643C40.6969 29.8304 42.3248 31.4583 44.3909 31.4583C46.4571 31.4583 48.0849 29.8304 48.0849 27.7643C48.0849 25.6981 46.4571 24.0703 44.3909 24.0703ZM55.4729 24.0703C53.4068 24.0703 51.779 25.6981 51.779 27.7643C51.779 29.8304 53.4068 31.4583 55.4729 31.4583C57.5391 31.4583 59.167 29.8304 59.167 27.7643C59.167 25.6981 57.5391 24.0703 55.4729 24.0703ZM11.1447 36.0915C9.07856 36.0915 7.45067 37.7194 7.45067 39.7856C7.45067 41.8517 9.07856 43.4795 11.1447 43.4795C13.2109 43.4795 14.8387 41.8517 14.8387 39.7856C14.8387 37.7194 13.1482 36.0915 11.1447 36.0915ZM22.2267 36.0915C20.1606 36.0915 18.5327 37.7194 18.5327 39.7856C18.5327 41.8517 20.1606 43.4795 22.2267 43.4795C24.2929 43.4795 25.9208 41.8517 25.9208 39.7856C25.9208 37.7194 24.2303 36.0915 22.2267 36.0915ZM33.3089 36.0915C31.2427 36.0915 29.6148 37.7194 29.6148 39.7856C29.6148 41.8517 31.2427 43.4795 33.3089 43.4795C35.375 43.4795 37.0028 41.8517 37.0028 39.7856C37.0028 37.7194 35.375 36.0915 33.3089 36.0915ZM44.3909 36.0915C42.3248 36.0915 40.6969 37.7194 40.6969 39.7856C40.6969 41.8517 42.3248 43.4795 44.3909 43.4795C46.4571 43.4795 48.0849 41.8517 48.0849 39.7856C48.0849 37.7194 46.4571 36.0915 44.3909 36.0915Z" fill="#EE942F"/>
</svg>
