<svg width="42" height="65" viewBox="0 0 42 65" fill="none" xmlns="http://www.w3.org/2000/svg">
<path d="M10.769 63.0488C7.70111 62.0471 5.13408 60.4192 3.06793 58.1026C1.00178 55.786 0 52.8433 0 49.2119C0 46.0814 1.12699 43.0761 3.44358 40.0708C5.76017 37.1281 8.45245 34.6862 11.6456 32.8705V32.8079C8.01417 30.4913 5.32191 27.9243 3.56881 25.1068C1.81571 22.2267 0.939158 19.5345 0.939158 16.8422C0.939158 13.2108 1.94092 10.0803 3.94446 7.57588C5.948 5.07146 8.45244 3.13053 11.5204 1.87832C14.5883 0.626106 17.7188 0 20.9745 0C24.1051 0 27.0478 0.563496 29.8652 1.7531C32.6827 2.9427 34.8741 4.63318 36.6272 6.88716C38.3177 9.14114 39.1942 11.8334 39.1942 14.9639C39.1942 17.7188 38.1925 20.3484 36.1263 22.9155C34.0602 25.4199 31.6183 27.6113 28.7383 29.3644V29.427C37.5037 34.7489 41.8865 40.9473 41.8865 47.9597C41.8865 53.3442 39.8203 57.4765 35.6254 60.294C31.4305 63.1114 26.2965 64.5515 20.098 64.5515C16.9049 64.5515 13.8369 64.0506 10.769 63.0488ZM26.7973 55.9738C28.4252 54.346 29.2391 52.3424 29.2391 49.838C29.2391 47.4588 28.3626 45.017 26.5469 42.6378C24.7312 40.2586 21.8511 38.0672 17.7814 36.0637C15.4648 37.8168 13.7743 39.9455 12.5847 42.3247C11.3951 44.7665 10.8316 46.8953 10.8316 48.8362C10.8316 51.5285 11.7082 53.7825 13.5239 55.5982C15.3396 57.4139 17.5936 58.353 20.3484 58.353C23.0407 58.353 25.1694 57.6017 26.7973 55.9738ZM27.6739 20.7241C28.9261 18.7206 29.6148 16.9049 29.6774 15.3396C29.8026 12.5221 29.1139 10.2681 27.5486 8.64026C26.046 7.01238 24.1051 6.19844 21.7259 6.19844C19.2841 6.19844 17.2179 7.01238 15.7153 8.57765C14.15 10.1429 13.3987 12.0838 13.3987 14.4004C13.3987 16.6544 14.3378 18.8458 16.1535 20.9745C18.0318 23.1033 20.2858 24.7312 22.9781 25.8582C24.8564 24.4181 26.4217 22.7276 27.6739 20.7241Z" fill="#547D9B"/>
</svg>
