<svg width="85" height="54" viewBox="0 0 85 54" fill="none" xmlns="http://www.w3.org/2000/svg">
<path d="M33.7473 11.2699C36.8594 11.2699 39.3822 8.74705 39.3822 5.63495C39.3822 2.52285 36.8594 0 33.7473 0C30.6352 0 28.1123 2.52285 28.1123 5.63495C28.1123 8.74705 30.6352 11.2699 33.7473 11.2699Z" fill="#67983F"/>
<path d="M50.6525 11.2699C53.7646 11.2699 56.2875 8.74705 56.2875 5.63495C56.2875 2.52285 53.7646 0 50.6525 0C47.5404 0 45.0176 2.52285 45.0176 5.63495C45.0176 8.74705 47.5404 11.2699 50.6525 11.2699Z" fill="#67983F"/>
<path d="M0 53.4065H16.8423C16.8423 48.7733 13.0856 44.9541 8.38983 44.9541C3.81926 44.9541 0 48.7733 0 53.4065Z" fill="#67983F"/>
<path d="M33.7471 53.4065H50.5893C50.5893 48.7733 46.8327 44.9541 42.1369 44.9541C37.4411 44.9541 33.7471 48.7733 33.7471 53.4065Z" fill="#67983F"/>
<path d="M81.519 39.3192C81.519 36.6895 79.7032 34.4982 77.324 33.8721V23.8544H43.577V19.6595H59.0418C59.0418 15.0263 55.2851 11.207 50.5893 11.207C46.3944 11.207 42.9508 14.2749 42.2621 18.2194H42.0117C41.323 14.2123 37.8794 11.207 33.6845 11.207C29.0513 11.207 25.2321 14.9637 25.2321 19.6595H40.6969V23.8544H6.9498V33.8721C4.50799 34.4982 2.75488 36.6895 2.75488 39.3192C2.75488 42.4497 5.25931 44.9541 8.38983 44.9541C11.5204 44.9541 14.0248 42.4497 14.0248 39.3192C14.0248 36.6895 12.2091 34.4982 9.82987 33.8721V27.1101H40.7595V33.9347C38.3177 34.5608 36.5646 36.7521 36.5646 39.3818C36.5646 42.5123 39.069 45.0167 42.1995 45.0167C45.3301 45.0167 47.8345 42.5123 47.8345 39.3818C47.8345 36.7521 46.0188 34.5608 43.6396 33.9347V27.1101H74.5692V33.9347C72.1274 34.5608 70.3743 36.7521 70.3743 39.3818C70.3743 42.5123 72.8787 45.0167 76.0092 45.0167C79.0145 44.9541 81.519 42.4497 81.519 39.3192Z" fill="#67983F"/>
<path d="M75.8841 44.9541C71.2509 44.9541 67.4316 48.7107 67.4316 53.4065H84.3365C84.3365 48.7733 80.5799 44.9541 75.8841 44.9541Z" fill="#67983F"/>
</svg>
