<svg width="71" height="62" viewBox="0 0 71 62" fill="none" xmlns="http://www.w3.org/2000/svg">
<path d="M26.5634 30.5538C26.3756 30.5538 26.2504 30.4912 26.0625 30.4286L16.6084 24.2302L7.52983 30.4286C7.4046 30.4912 7.27939 30.5538 7.15417 30.5538C6.90373 30.5538 6.71589 30.4286 6.59067 30.2408C6.52806 30.1156 6.40284 29.9277 6.46545 29.6773L9.59598 18.9083L0.329611 11.9585C-0.108663 11.7081 0.0165582 11.2698 0.0165582 11.2072C0.0791687 10.9567 0.329615 10.7063 0.705278 10.7063H12.3508L15.9823 0.500774C16.1075 0.187722 16.4205 0.0625 16.671 0.0625C16.9214 0.0625 17.2971 0.187721 17.3597 0.438164L21.1789 10.7063H32.4488C32.9497 10.7063 33.1376 11.082 33.1376 11.2072C33.2002 11.4576 33.2002 11.7707 32.9497 11.9585L24.2468 19.0335L27.1896 29.6147C27.2522 29.8651 27.2522 30.1156 27.1269 30.3034C26.9391 30.4286 26.7513 30.5538 26.5634 30.5538ZM16.984 20.7866C17.2971 20.7866 17.6101 20.8492 17.7353 20.9744L22.3685 24.1676L20.8659 18.9709C20.8033 18.5952 20.7407 17.7813 21.3668 17.2804L25.6869 13.962H20.1772C19.5511 13.962 18.9249 13.4612 18.7997 12.8351V12.7724L17.1092 7.70099L14.73 12.7098V12.7724C14.6048 13.3985 13.9787 13.8994 13.3526 13.8994H8.15593L12.3508 17.03H12.4135C12.8517 17.2178 13.1022 18.157 12.9769 18.6578L11.5369 23.9797L16.1075 20.8492C16.2953 20.8492 16.6084 20.7866 16.984 20.7866Z" fill="#547D9B"/>
<path d="M64.0048 30.554C63.817 30.554 63.6918 30.4913 63.504 30.4287L54.0498 24.2303L44.9712 30.3661C44.846 30.4287 44.7208 30.4913 44.5956 30.4913C44.3451 30.4913 44.1573 30.3661 44.0321 30.1783C43.9695 30.0531 43.8442 29.8652 43.9068 29.6148L47.0374 18.8458L37.771 11.896C37.3327 11.6456 37.458 11.2073 37.458 11.1447C37.5206 10.8942 37.771 10.6438 38.1467 10.6438H49.7923L53.4237 0.438274C53.5489 0.125222 53.8619 0 54.1124 0C54.3628 0 54.7385 0.125221 54.8011 0.375664L58.6203 10.6438H69.8902C70.3911 10.6438 70.5789 11.0195 70.5789 11.1447C70.6416 11.3951 70.6416 11.7082 70.3911 11.896L61.6883 18.971L64.6309 29.5522C64.6936 29.8026 64.6936 30.0531 64.5683 30.2409C64.4431 30.4287 64.2553 30.554 64.0048 30.554ZM54.4254 20.7867C54.7385 20.7867 55.0515 20.8493 55.1767 20.9745L59.8099 24.1677L58.3073 18.971C58.2447 18.5953 58.1821 17.7814 58.8082 17.2805L63.1283 13.9622H57.6186C56.9925 13.9622 56.3664 13.4613 56.2411 12.8352V12.7726L54.5506 7.7011L52.1714 12.7099V12.7726C52.0462 13.3987 51.4201 13.8995 50.794 13.8995H45.5973L49.7923 17.0301H49.8548C50.2931 17.2179 50.5436 18.1571 50.4184 18.6579L48.9783 23.9798L53.5489 20.8493C53.7367 20.8493 54.1124 20.7867 54.4254 20.7867Z" fill="#547D9B"/>
<path d="M26.5634 61.8594C26.3756 61.8594 26.2504 61.7968 26.0625 61.7342L16.6084 55.5357L7.52983 61.7342C7.4046 61.7968 7.27939 61.8594 7.15417 61.8594C6.90373 61.8594 6.71589 61.7342 6.59067 61.5463C6.52806 61.4211 6.40284 61.2333 6.46545 60.9829L9.59598 50.2138L0.329611 43.3267C-0.108663 43.0762 0.0165582 42.638 0.0165582 42.5753C0.0791687 42.3249 0.329615 42.0745 0.705278 42.0745H12.3508L15.9823 31.8689C16.1075 31.5559 16.4205 31.4307 16.671 31.4307C16.9214 31.4307 17.2971 31.5559 17.3597 31.8063L21.1789 42.0745H32.4488C32.9497 42.0745 33.1376 42.4501 33.1376 42.5753C33.2002 42.8258 33.2002 43.1388 32.9497 43.3267L24.2468 50.4017L27.1896 60.9829C27.2522 61.2333 27.2522 61.4837 27.1269 61.6716C26.9391 61.7342 26.7513 61.8594 26.5634 61.8594ZM16.984 51.9043C17.2971 51.9043 17.6101 51.9669 17.7353 52.0921L22.3685 55.2853L20.8659 50.0886C20.8033 49.7129 20.7407 48.899 21.3668 48.3981L25.6869 45.0798H20.1772C19.5511 45.0798 18.9249 44.5789 18.7997 43.9528V43.8902L17.1092 38.8187L14.73 43.8276V43.8902C14.6048 44.5163 13.9787 45.0172 13.3526 45.0172H8.15593L12.3508 48.1477H12.4135C12.8517 48.3355 13.1022 49.2747 12.9769 49.7756L11.5369 55.0975L16.1075 51.9669C16.2953 51.9669 16.6084 51.9043 16.984 51.9043Z" fill="#547D9B"/>
<path d="M64.0048 61.8594C63.817 61.8594 63.6918 61.7968 63.504 61.7342L54.0498 55.5357L44.9712 61.7342C44.846 61.7968 44.7208 61.8594 44.5956 61.8594C44.3451 61.8594 44.1573 61.7342 44.0321 61.5463C43.9695 61.4211 43.8442 61.2333 43.9068 60.9829L47.0374 50.2138L37.771 43.3267C37.3327 43.0762 37.458 42.638 37.458 42.5753C37.5206 42.3249 37.771 42.0745 38.1467 42.0745H49.7923L53.4237 31.8689C53.5489 31.5559 53.8619 31.4307 54.1124 31.4307C54.3628 31.4307 54.7385 31.5559 54.8011 31.8063L58.6203 42.0745H69.8902C70.3911 42.0745 70.5789 42.4501 70.5789 42.5753C70.6416 42.8258 70.6416 43.1388 70.3911 43.3267L61.6883 50.4017L64.6309 60.9829C64.6936 61.2333 64.6936 61.4837 64.5683 61.6716C64.4431 61.7342 64.2553 61.8594 64.0048 61.8594ZM54.4254 51.9043C54.7385 51.9043 55.0515 51.9669 55.1767 52.0921L59.8099 55.2853L58.3073 50.0886C58.2447 49.7129 58.1821 48.899 58.8082 48.3981L63.1283 45.0798H57.6186C56.9925 45.0798 56.3664 44.5789 56.2411 43.9528V43.8902L54.5506 38.8187L52.1714 43.8276V43.8902C52.0462 44.5163 51.4201 45.0172 50.794 45.0172H45.5973L49.7923 48.1477H49.8548C50.2931 48.3355 50.5436 49.2747 50.4184 49.7756L48.9783 55.0975L53.5489 51.9669C53.7367 51.9669 54.1124 51.9043 54.4254 51.9043Z" fill="#547D9B"/>
</svg>
