<svg width="96" height="22" viewBox="0 0 96 22" fill="none" xmlns="http://www.w3.org/2000/svg">
<path d="M3.24555 0V6.17126C3.82685 5.61861 4.4808 5.18109 5.15898 4.90477C5.83715 4.62844 6.58799 4.49028 7.36305 4.49028C9.05848 4.49028 10.5117 5.11201 11.6985 6.33245C12.8853 7.55288 13.4908 9.11872 13.4908 11.053C13.4908 12.8952 12.8853 14.438 11.6501 15.6814C10.4148 16.9249 8.9616 17.5466 7.26616 17.5466C6.51533 17.5466 5.81293 17.4085 5.15898 17.1552C4.50502 16.9019 3.87529 16.4874 3.22133 15.9117V17.2243H0V0H3.24555ZM6.68487 7.34564C5.64339 7.34564 4.79567 7.69104 4.11749 8.35883C3.43932 9.02661 3.10023 9.90164 3.10023 10.9839C3.10023 12.0892 3.43932 12.9873 4.11749 13.6551C4.79567 14.3228 5.64339 14.6682 6.68487 14.6682C7.67791 14.6682 8.52563 14.3228 9.20381 13.632C9.88198 12.9412 10.2211 12.0662 10.2211 10.9839C10.2211 9.92467 9.88198 9.04964 9.20381 8.35883C8.57407 7.69104 7.72635 7.34564 6.68487 7.34564Z" fill="white"/>
<path d="M15.4521 4.78967H18.2617V6.35551C18.5766 5.73378 18.9641 5.27324 19.4727 4.95086C19.9814 4.62848 20.5384 4.46729 21.1197 4.46729C21.5557 4.46729 21.9917 4.58242 22.4518 4.78967L21.4346 7.46081C21.0471 7.2766 20.7322 7.18449 20.49 7.18449C19.9814 7.18449 19.5696 7.48384 19.2063 8.08255C18.8672 8.68125 18.6735 9.83261 18.6735 11.5827V12.1814V17.2013H15.4521V4.78967Z" fill="white"/>
<path d="M33.7141 4.78967H36.9838V17.2013H33.7141V15.8888C33.0844 16.4644 32.4304 16.8789 31.8007 17.1322C31.171 17.3855 30.4686 17.5237 29.7178 17.5237C28.0223 17.5237 26.5691 16.9019 25.3339 15.6585C24.0987 14.415 23.4932 12.8722 23.4932 11.03C23.4932 9.11877 24.0987 7.55292 25.2855 6.30946C26.4723 5.08902 27.9255 4.46729 29.6209 4.46729C30.3959 4.46729 31.1468 4.60545 31.8249 4.88177C32.5031 5.1581 33.157 5.59562 33.7383 6.14827V4.78967H33.7141ZM30.2748 7.34568C29.2576 7.34568 28.4099 7.69109 27.7559 8.35887C27.0778 9.04969 26.7629 9.90169 26.7629 10.984C26.7629 12.0662 27.102 12.9413 27.7801 13.6321C28.4583 14.3229 29.306 14.6683 30.299 14.6683C31.3163 14.6683 32.1882 14.3229 32.8664 13.6551C33.5446 12.9873 33.8836 12.0893 33.8836 10.984C33.8836 9.90169 33.5446 9.02666 32.8664 8.35887C32.164 7.69109 31.3163 7.34568 30.2748 7.34568Z" fill="white"/>
<path d="M40.3027 4.78967H43.5967V6.05616C44.3476 5.45745 45.0015 5.04296 45.607 4.81269C46.2125 4.58242 46.818 4.46729 47.4478 4.46729C48.7315 4.46729 49.8456 4.9048 50.7418 5.75681C51.4926 6.49367 51.8801 7.57595 51.8801 9.00363V17.2013H48.6346V11.7669C48.6346 10.2932 48.5619 9.30299 48.4166 8.81942C48.2713 8.33585 48.0291 7.96741 47.69 7.71411C47.3509 7.46081 46.9149 7.32265 46.4063 7.32265C45.7523 7.32265 45.1711 7.5299 44.7109 7.94438C44.2265 8.35887 43.9116 8.95758 43.7178 9.69445C43.6209 10.0859 43.5725 10.9149 43.5725 12.2044V17.1783H40.3027V4.78967V4.78967Z" fill="white"/>
<path d="M64.6937 0.000488281H67.9634V17.2017H64.6937V15.8892C64.064 16.4649 63.41 16.8794 62.7803 17.1326C62.1505 17.3859 61.4481 17.5241 60.6973 17.5241C59.0019 17.5241 57.5487 16.9024 56.3134 15.6589C55.0782 14.4155 54.4727 12.8726 54.4727 11.0305C54.4727 9.11922 55.0782 7.55338 56.265 6.30991C57.4518 5.08948 58.905 4.46774 60.6004 4.46774C61.3755 4.46774 62.1263 4.60591 62.8045 4.88223C63.4827 5.15856 64.1366 5.59607 64.7179 6.14872V0.000488281H64.6937ZM61.2544 7.34613C60.2371 7.34613 59.3894 7.69154 58.7355 8.35932C58.0573 9.05014 57.7424 9.90214 57.7424 10.9844C57.7424 12.0667 58.0815 12.9417 58.7597 13.6325C59.4378 14.3233 60.2856 14.6687 61.2786 14.6687C62.2959 14.6687 63.1678 14.3233 63.846 13.6556C64.5241 12.9878 64.8632 12.0897 64.8632 10.9844C64.8632 9.90214 64.5241 9.02711 63.846 8.35932C63.1436 7.69154 62.2959 7.34613 61.2544 7.34613Z" fill="white"/>
<path d="M70.918 0.000488281H74.1876V17.2017H70.918V0.000488281Z" fill="white"/>
<path d="M75.7383 4.78857H79.0807L82.4716 12.5717L86.2258 4.78857H89.5924L81.4059 21.7365H78.015L80.7035 16.2791L75.7383 4.78857Z" fill="white"/>
<path d="M93.2251 13.9556C93.7338 13.9556 94.1939 14.1398 94.5572 14.4852C94.9206 14.8306 95.1143 15.2451 95.1143 15.7517C95.1143 16.2583 94.9206 16.6728 94.5572 17.0182C94.1939 17.3636 93.7338 17.5478 93.2251 17.5478C92.7165 17.5478 92.2563 17.3636 91.893 17.0182C91.5297 16.6728 91.3359 16.2352 91.3359 15.7517C91.3359 15.2681 91.5297 14.8306 91.893 14.4852C92.2563 14.1398 92.7165 13.9556 93.2251 13.9556Z" fill="white"/>
</svg>
