<svg width="186" height="39" viewBox="0 0 186 39" fill="none" xmlns="http://www.w3.org/2000/svg">
<path d="M39.1127 28.0468C38.8127 28.0468 38.6127 27.9468 38.3127 27.7468C37.8127 27.3468 37.7127 26.5468 38.1127 26.0468L45.5127 16.5468L36.0127 9.14682C35.5127 8.74682 35.4127 7.94682 35.8127 7.44682C36.2127 6.94682 37.0127 6.84682 37.5127 7.24682L48.0127 15.3468C48.5127 15.7468 48.6127 16.5468 48.2127 17.0468L40.1127 27.5468C39.8127 27.8468 39.4127 28.0468 39.1127 28.0468Z" fill="white"/>
<path d="M27.6127 29.5472C27.3127 29.5472 27.1127 29.4472 26.8127 29.2472C26.3127 28.8472 26.2127 28.0472 26.6127 27.5472L34.0127 17.9472L24.5127 10.5472C24.0127 10.1472 23.9127 9.34721 24.3127 8.84721C24.7127 8.34721 25.5127 8.24721 26.0127 8.64721L36.5127 16.7472C37.0127 17.1472 37.1127 17.9472 36.7127 18.4472L28.6127 28.9472C28.4127 29.3472 28.0127 29.5472 27.6127 29.5472Z" fill="white"/>
<path d="M16.2127 30.9472C15.9127 30.9472 15.7127 30.8472 15.4127 30.6472C14.9127 30.2472 14.8127 29.4472 15.2127 28.9472L22.6127 19.4472L13.0127 12.0472C12.5127 11.6472 12.4127 10.8472 12.8127 10.3472C13.2127 9.84721 14.0127 9.74721 14.5127 10.1472L25.0127 18.2472C25.5127 18.6472 25.6127 19.4472 25.2127 19.9472L17.1127 30.4472C16.9127 30.8472 16.6127 30.9472 16.2127 30.9472Z" fill="white"/>
<path d="M1.21281 23.7466C0.612806 23.7466 0.112806 23.3466 0.0128056 22.7466C-0.0871944 22.0466 0.412806 21.4466 1.01281 21.3466L52.0128 13.1466C52.7128 13.0466 53.3128 13.5466 53.4128 14.1466C53.5128 14.8466 53.0128 15.4466 52.4128 15.5466L1.41281 23.7466C1.41281 23.7466 1.31281 23.7466 1.21281 23.7466Z" fill="white"/>
<path d="M146.513 28.0468C146.113 28.0468 145.813 27.8468 145.513 27.5468L137.413 17.0468C136.913 16.5468 137.013 15.7468 137.613 15.3468L148.113 7.24682C148.613 6.84682 149.413 6.94682 149.813 7.44682C150.213 7.94682 150.113 8.74682 149.613 9.14682L140.113 16.5468L147.513 26.0468C147.913 26.5468 147.813 27.3468 147.313 27.7468C147.013 27.9468 146.713 28.0468 146.513 28.0468Z" fill="white"/>
<path d="M157.913 29.5468C157.513 29.5468 157.213 29.3468 156.913 29.0468L148.813 18.5468C148.413 18.0468 148.513 17.2468 149.013 16.8468L159.513 8.74682C160.013 8.34682 160.813 8.44682 161.213 8.94682C161.613 9.44682 161.513 10.2468 161.013 10.6468L151.513 17.9468L158.913 27.4468C159.313 27.9468 159.213 28.7468 158.713 29.1468C158.413 29.4468 158.213 29.5468 157.913 29.5468Z" fill="white"/>
<path d="M169.313 30.9472C168.913 30.9472 168.613 30.7472 168.313 30.4472L160.213 19.9472C159.813 19.4472 159.913 18.6472 160.413 18.2472L171.013 10.1472C171.513 9.74721 172.313 9.84721 172.713 10.3472C173.113 10.8472 173.013 11.6472 172.513 12.0472L163.013 19.4472L170.413 28.9472C170.813 29.4472 170.713 30.2472 170.213 30.6472C169.913 30.8472 169.613 30.9472 169.313 30.9472Z" fill="white"/>
<path d="M184.313 23.7465C184.213 23.7465 184.213 23.7465 184.113 23.7465L133.013 15.4465C132.413 15.3465 131.913 14.7465 132.013 14.0465C132.113 13.3465 132.713 12.9465 133.413 13.0465L184.413 21.2465C185.113 21.3465 185.513 21.9465 185.413 22.6465C185.413 23.3465 184.913 23.7465 184.313 23.7465Z" fill="white"/>
<path d="M92.475 38.875C90.375 38.875 88.275 38.175 86.775 36.675C84.975 34.875 84.375 32.275 85.175 29.275C85.575 27.775 86.275 26.275 87.275 24.575C85.675 25.575 84.075 26.275 82.575 26.675C79.575 27.475 76.975 26.875 75.175 25.075C72.275 22.175 72.275 16.675 75.175 13.775C77.075 11.975 79.675 11.375 82.675 12.175C84.175 12.575 85.675 13.275 87.375 14.275C86.375 12.675 85.675 11.075 85.275 9.575C84.475 6.575 85.075 3.975 86.875 2.175C89.775 -0.725 95.275 -0.725 98.175 2.175C99.975 3.975 100.575 6.575 99.775 9.575C99.375 11.075 98.675 12.575 97.675 14.275C99.275 13.275 100.875 12.575 102.375 12.175C105.375 11.375 107.975 11.975 109.775 13.775C112.675 16.675 112.675 22.175 109.775 25.075C107.975 26.875 105.375 27.475 102.375 26.675C100.875 26.275 99.375 25.575 97.675 24.575C98.675 26.175 99.375 27.775 99.775 29.275C100.575 32.275 99.975 34.875 98.175 36.675C96.675 38.075 94.575 38.875 92.475 38.875ZM92.475 20.775C89.475 24.075 87.675 27.075 86.975 29.675C86.375 32.075 86.775 34.075 88.075 35.375C90.275 37.575 94.675 37.575 96.875 35.375C98.175 34.075 98.575 32.075 97.975 29.675C97.275 27.075 95.475 24.075 92.475 20.775ZM93.875 19.375C97.175 22.375 100.175 24.175 102.775 24.875C105.175 25.475 107.175 25.075 108.475 23.775C110.675 21.575 110.675 17.175 108.475 14.975C107.175 13.675 105.175 13.275 102.775 13.875C100.175 14.575 97.175 16.475 93.875 19.375ZM80.175 13.575C78.675 13.575 77.475 14.075 76.575 14.975C74.375 17.175 74.375 21.575 76.575 23.775C77.875 25.075 79.875 25.475 82.275 24.875C84.875 24.175 87.875 22.375 91.175 19.375C87.875 16.375 84.875 14.575 82.275 13.875C81.475 13.675 80.775 13.575 80.175 13.575ZM92.475 1.775C90.875 1.775 89.175 2.375 88.075 3.475C86.775 4.775 86.375 6.775 86.975 9.175C87.675 11.775 89.475 14.775 92.475 18.075C95.475 14.775 97.275 11.775 97.975 9.175C98.575 6.775 98.175 4.775 96.875 3.475C95.775 2.275 94.175 1.775 92.475 1.775Z" fill="white"/>
</svg>
