<svg width="136" height="26" viewBox="0 0 136 26" fill="none" xmlns="http://www.w3.org/2000/svg">
<g clip-path="url(#clip0)">
<path fill-rule="evenodd" clip-rule="evenodd" d="M60.9598 13.4052C60.4203 13.0269 59.7729 12.7566 59.2335 12.4323C58.9637 12.2701 58.694 12.162 58.4243 11.9998C58.3703 11.5674 58.3164 11.189 58.2624 10.8107C57.8848 8.7566 56.9138 7.02687 55.0256 6.0539C53.7848 5.4593 52.5441 4.91876 51.2493 4.32417C51.1414 4.27011 50.9796 4.32417 50.9257 4.37822C50.8717 4.48633 50.8178 4.70254 50.8717 4.81065C51.627 6.32417 52.3283 7.83768 53.0835 9.35119C53.2993 9.78362 53.623 10.2161 53.8927 10.6485C54.0006 10.8107 54.1625 10.9728 54.0006 11.189C53.8927 11.189 53.7848 11.2431 53.6769 11.2431C51.5191 10.9728 49.4151 10.9728 47.2573 11.0809C46.9336 11.0809 46.556 11.0809 46.2862 11.0809C46.1783 10.9188 46.1244 10.8647 46.1244 10.8107C45.3691 8.27011 43.7507 6.48633 41.485 5.13498C39.2192 3.78363 36.8995 2.43227 34.5258 1.24308C34.2561 1.08092 33.9864 0.972815 33.6627 0.864707C33.3929 0.756598 33.1232 0.64849 32.7995 0.486328C32.7456 0.810652 32.6377 1.08092 32.6377 1.35119C32.6377 3.94579 33.2311 6.32417 34.9574 8.32417C35.9284 9.51335 37.1692 10.4323 38.5179 11.189C38.7876 11.3512 39.0574 11.5134 39.3271 11.6755C39.2192 11.7836 39.1652 11.8377 39.1113 11.8917C36.0903 12.3782 33.1232 12.9728 30.1022 13.5134C29.9403 13.5674 29.7245 13.5674 29.5088 13.5674C29.293 13.2431 29.0232 12.9188 28.8614 12.5944C27.6746 10.3242 25.8404 8.81065 23.4667 7.94579C21.4707 7.24308 19.4746 6.59444 17.4786 5.94579C16.5615 5.62146 15.5905 5.40525 14.7813 4.86471C14.6194 4.7566 14.4036 4.81065 14.2418 4.7566C13.9181 5.29714 14.1339 5.72957 14.2418 6.162C15.051 8.91876 16.7234 11.0269 19.3128 12.3242C20.9852 13.189 22.7654 13.7836 24.5996 14.162C24.8154 14.2161 25.0851 14.1079 25.0851 14.5404C23.2509 15.0269 21.4167 15.5134 19.5286 15.9458C19.0431 16.0539 18.5576 15.9998 18.072 15.7836C17.047 15.3512 15.9681 14.9728 14.8892 14.5404C13.8102 14.1079 12.7313 13.9458 11.5445 13.9458C10.4116 13.9458 9.2787 14.1079 8.19976 14.3782C6.20373 14.9188 4.15375 15.189 2.04982 14.8107C1.61824 14.7566 1.18667 14.5944 0.809042 14.5944C0.539308 14.5404 0.323521 14.6485 0.0537865 14.6485C-0.0541072 15.6755 -0.0541072 15.6755 0.269574 16.2161C0.755095 17.0269 1.29456 17.7836 1.83403 18.5404C2.42745 19.2971 3.1827 19.8377 4.0998 20.162C6.85109 21.2431 9.71027 21.5134 12.6234 20.8647C13.5405 20.6485 14.4036 20.3242 15.2668 19.8917C16.9391 19.0809 18.5576 18.2701 20.176 17.3512C20.9312 16.9188 21.7404 16.5944 22.5496 16.4323C22.9812 16.3242 23.4667 16.162 23.8983 16.0539C25.0851 15.7836 26.218 15.4593 27.5667 15.2971C27.4048 15.5134 27.2969 15.6215 27.189 15.7296C26.6496 16.1079 26.0562 16.4323 25.5167 16.8107C24.7075 17.2971 24.0601 17.8917 23.6825 18.7566C22.7654 20.8107 21.4167 22.5944 19.8523 24.2161C19.6365 24.4323 19.4746 24.5944 19.3128 24.8107C19.151 25.0269 18.9891 25.2431 19.151 25.5674C19.2589 25.8377 19.5286 25.9458 19.7983 25.9458C20.0681 25.9458 20.3378 25.9458 20.6075 25.9458C24.2759 25.6755 27.5667 24.5404 30.3719 22.1079C31.0732 21.5134 31.6127 20.8107 31.9364 19.9458C32.1522 19.3512 32.3679 18.7566 32.6377 18.2161C32.9614 17.4593 33.1771 16.6485 33.285 15.8377C33.339 15.2971 33.339 14.7566 33.6087 14.2161C33.7166 14.162 33.8245 14.1079 33.9324 14.1079C35.8745 13.7836 37.8705 13.4052 39.8126 13.135C41.8086 12.8647 43.8586 12.7566 45.8547 12.5944C45.8547 12.5944 45.8547 12.5944 45.9086 12.5944C46.0704 12.5944 46.2862 12.5944 46.4481 12.5944V12.6485C46.2862 12.6485 46.0704 12.5944 45.9086 12.5944C45.9086 12.9188 45.6389 12.9188 45.4231 12.9728C43.5349 13.4593 41.9165 14.4863 40.5679 15.8917C39.5968 16.9188 38.5718 17.9458 37.5468 19.0269C37.385 19.2431 37.1692 19.4593 37.0613 19.6755C36.8995 19.8917 37.0613 20.2701 37.2771 20.3782C37.4389 20.4323 37.6008 20.4863 37.7087 20.4863C41.485 21.0269 45.0994 20.3782 48.4981 18.5944C49.577 18.0539 50.4941 17.189 51.1414 16.162C51.8428 15.0809 52.598 13.9998 52.7599 12.7566C53.1914 12.4323 53.5691 12.4323 53.9467 12.4863C55.0796 12.6485 56.2124 12.8107 57.2914 13.0269C57.8848 13.135 58.4782 13.4593 59.0177 13.6755C59.7729 14.0539 60.3664 14.5944 60.9058 15.2431C61.2295 15.6215 61.0137 16.162 60.5282 16.2161C59.9887 16.2701 59.3953 16.4323 58.8558 15.8917C58.5322 15.5674 58.1545 15.6755 57.7769 15.8917C57.4532 16.1079 57.5072 16.4323 57.5072 16.7566C57.5072 17.9458 59.3953 19.0269 60.5282 18.3782C61.3913 17.8917 61.8769 17.0809 62.2545 16.2161C62.5242 15.4593 62.4163 14.8107 61.9308 14.2161C61.6611 13.9458 61.3374 13.6755 60.9598 13.4052ZM3.93796 16.1079C5.61031 16.1079 7.28266 15.8917 8.90107 15.4593C10.8432 14.9188 12.7852 14.9728 14.6194 15.7296C15.1589 15.9458 15.8063 16.0539 16.3997 16.4323C16.2378 16.5404 16.1299 16.6485 16.076 16.6485C13.055 17.189 9.98001 17.5674 6.85109 17.189C5.7182 17.0809 4.63927 16.8107 3.61428 16.3782C3.66822 16.1079 3.83007 16.1079 3.93796 16.1079ZM16.9931 18.1079C15.4826 18.8647 13.9181 19.5134 12.2997 19.8917C9.60238 20.4863 6.95898 20.2161 4.36953 19.189C3.12876 18.7025 2.26561 17.7836 1.83403 16.4863C2.04982 16.5944 2.31955 16.7025 2.53534 16.8107C4.53137 17.8917 6.68925 18.3782 8.95502 18.4323C11.4905 18.4863 14.026 18.2701 16.5076 17.8377C16.7773 17.7836 17.047 17.7836 17.5326 17.6755C17.2628 17.9458 17.1549 18.0539 16.9931 18.1079ZM26.0022 13.4052C23.7904 12.9728 21.6865 12.3242 19.6904 11.2971C17.9102 10.3782 16.5615 9.02687 15.6984 7.13498C19.2589 9.40525 23.0351 11.135 26.6496 13.189C26.7035 13.2431 26.7035 13.2971 26.7575 13.4593C26.4877 13.4052 26.218 13.4593 26.0022 13.4052ZM17.4786 7.18903C17.6944 7.18903 17.8562 7.18903 17.9641 7.24308C19.2589 7.67552 20.5536 8.0539 21.8483 8.48633C23.0351 8.86471 24.168 9.40525 25.193 10.108C26.0022 10.6485 26.6496 11.2971 27.189 12.0539C27.243 12.162 27.243 12.2701 27.3509 12.5404C24.4378 11.2431 18.5036 7.99984 17.4786 7.18903ZM22.8733 22.4323C23.5207 21.5134 24.0601 20.5404 24.4917 19.4593C24.7614 18.8106 25.193 18.3242 25.7325 17.9458C26.8654 17.135 27.9982 16.2701 29.1311 15.5134C29.8864 14.9728 29.9403 14.9728 30.8035 14.8647C30.9653 15.0269 30.8035 15.135 30.6956 15.2431C29.8324 15.9458 29.1851 16.8107 28.5377 17.6755C27.8904 18.6485 27.1351 19.5134 26.3259 20.4323C25.3009 21.5674 24.0062 22.3242 22.4417 23.189C22.7115 22.7566 22.7654 22.5944 22.8733 22.4323ZM31.8824 17.0809C31.5587 17.9458 31.2351 18.8107 30.8574 19.6755C30.6416 20.2161 30.318 20.7025 29.8324 21.0809C27.7825 22.9188 25.4088 24.1079 22.7115 24.5944C22.6575 24.5944 22.6575 24.5944 22.4417 24.5404C22.8733 24.0539 23.4128 23.7296 23.8983 23.4052C26.3259 22.0539 28.1061 20.0539 29.6167 17.7836C30.2101 16.8647 31.0193 16.1079 31.8824 15.4593C31.9364 15.4052 32.0443 15.4593 32.1522 15.4052C32.26 16.1079 32.0443 16.5944 31.8824 17.0809ZM38.1403 9.67552C35.8205 8.162 34.31 6.0539 33.7706 3.08092C34.0403 3.24308 34.2021 3.35119 34.31 3.4593C34.6877 3.83768 35.0113 4.21606 35.335 4.59444C37.0074 6.32417 38.7876 7.83768 40.8915 9.02687C41.8626 9.56741 42.7257 10.2161 43.6428 10.8107C43.7507 10.8647 43.8586 11.0269 43.9665 11.135C42.456 11.6215 40.2981 11.0809 38.1403 9.67552ZM44.3981 9.99984C44.2363 9.94579 44.0744 9.89173 43.9126 9.78363C42.7257 9.02687 41.5389 8.27011 40.3521 7.51335C38.3021 6.21606 36.5758 4.48633 34.9574 2.70254C35.0113 2.59444 35.0653 2.54038 35.0653 2.48633C35.8205 2.91876 36.6297 3.35119 37.385 3.83768C38.6797 4.59444 39.9205 5.35119 41.2152 6.162C42.456 6.97281 43.5349 7.99984 44.2902 9.35119C44.3981 9.51335 44.452 9.72957 44.506 9.89173C44.506 9.83768 44.452 9.89173 44.3981 9.99984ZM40.0284 18.162C41.7007 15.8917 43.7507 14.162 46.6099 13.6755C47.3112 13.5674 48.0125 13.2971 48.8217 13.2431C48.7678 13.3512 48.7678 13.4593 48.7138 13.5134C45.9626 15.0809 43.1573 16.7025 40.3521 18.2701C40.2442 18.3242 40.1363 18.3242 40.0284 18.3242C40.0284 18.2161 39.9744 18.162 40.0284 18.162ZM51.4112 13.5674C50.9257 14.3242 50.4941 15.0809 50.0086 15.8377C49.577 16.5404 48.9836 17.135 48.2283 17.5134C45.9086 18.7566 43.427 19.5674 40.7836 19.5674C40.6758 19.5674 40.5679 19.5674 40.46 19.5674C40.406 19.5674 40.406 19.5674 40.1363 19.4593C44.0205 17.2431 47.7428 15.135 51.4112 13.0809C51.6809 13.2431 51.5191 13.4593 51.4112 13.5674ZM55.4572 10.8647C54.594 9.99984 53.8927 8.81065 53.623 7.56741C55.0796 8.91876 56.2124 10.4863 56.5361 11.5134C55.9967 11.5134 55.7269 11.189 55.4572 10.8647ZM56.4282 9.40525C56.3743 9.40525 56.3743 9.40525 56.3203 9.35119C55.673 8.59444 55.0256 7.83768 54.3783 7.02687C55.4572 7.51336 56.1046 8.27011 56.4822 9.24308C56.4822 9.35119 56.4822 9.40525 56.4282 9.40525Z" fill="#547D9B"/>
<path fill-rule="evenodd" clip-rule="evenodd" d="M135.892 14.7029C135.676 14.7029 135.406 14.5948 135.137 14.6488C134.705 14.7029 134.273 14.811 133.896 14.8651C131.792 15.2434 129.742 14.9732 127.746 14.4326C126.667 14.1623 125.534 13.9461 124.401 14.0002C123.268 14.0002 122.135 14.1623 121.056 14.5948C120.031 15.0272 118.953 15.4056 117.874 15.838C117.388 16.0542 116.903 16.1083 116.417 16.0002C114.583 15.5137 112.695 15.0272 110.861 14.5948C110.861 14.1623 111.184 14.2705 111.346 14.2164C113.234 13.8921 114.96 13.2434 116.633 12.3786C119.222 11.0272 120.895 8.97316 121.704 6.2164C121.812 5.78397 122.028 5.35154 121.704 4.811C121.542 4.86505 121.326 4.811 121.164 4.9191C120.301 5.45964 119.384 5.67586 118.467 6.00019C116.471 6.64883 114.421 7.24343 112.479 8.00019C110.105 8.86505 108.271 10.3786 107.084 12.6488C106.922 12.9732 106.653 13.2975 106.437 13.6218C106.221 13.6218 106.005 13.5678 105.843 13.5678C102.876 13.0272 99.8554 12.4326 96.8883 11.838C96.8343 11.838 96.7804 11.7299 96.6725 11.6218C96.9422 11.4596 97.212 11.2975 97.4817 11.1353C98.8304 10.3786 100.017 9.45965 101.042 8.27046C102.715 6.27046 103.362 3.83802 103.362 1.29748C103.362 1.02721 103.254 0.756942 103.2 0.432617C102.876 0.594779 102.607 0.648833 102.337 0.810996C101.959 0.919104 101.69 1.08127 101.42 1.18937C99.0462 2.37856 96.7264 3.67586 94.4607 5.08127C92.2489 6.43262 90.5765 8.2164 89.8212 10.7569C89.8212 10.811 89.7673 10.8651 89.6594 11.0272C89.3897 11.0272 89.012 11.0813 88.6884 11.0272C86.5305 10.9191 84.3726 10.9191 82.2687 11.1894C82.1608 11.1894 82.0529 11.1353 81.945 11.1353C81.7832 10.9191 81.945 10.7569 82.0529 10.5948C82.3226 10.1623 82.5924 9.72992 82.8621 9.29748C83.6174 7.78397 84.3726 6.27046 85.0739 4.75694C85.1279 4.64883 85.0739 4.48667 85.02 4.32451C84.966 4.32451 84.8042 4.32451 84.6963 4.32451C83.4555 4.86505 82.1608 5.40559 80.974 6.05424C79.0858 7.08127 78.1148 8.75694 77.7372 10.811C77.6832 11.1894 77.6293 11.5678 77.5753 12.0002C77.3056 12.1083 77.0358 12.2705 76.7661 12.4326C76.1727 12.7569 75.5793 13.0272 75.0398 13.4056C74.6622 13.6218 74.3385 13.9461 74.0688 14.2705C73.5832 14.8651 73.4754 15.5137 73.7451 16.2705C74.1227 17.1894 74.6082 17.9461 75.4714 18.4326C76.6043 19.1353 78.4924 18.0002 78.4924 16.811C78.4924 16.4867 78.5464 16.1623 78.2227 15.9461C77.845 15.7299 77.4674 15.6218 77.1437 15.9461C76.6582 16.4867 76.0648 16.3245 75.4714 16.2705C74.9859 16.2164 74.7701 15.7299 75.0938 15.2975C75.5793 14.6488 76.2266 14.1083 76.9819 13.7299C77.5214 13.4596 78.1148 13.1894 78.7082 13.0813C79.7871 12.8651 80.92 12.7029 82.0529 12.5407C82.4305 12.4867 82.8621 12.4867 83.2397 12.811C83.4016 14.0542 84.1568 15.0813 84.8581 16.2164C85.5055 17.2975 86.3686 18.1083 87.5015 18.6488C90.9002 20.3786 94.5146 21.0272 98.2909 20.5407C98.4527 20.5407 98.6146 20.4867 98.7225 20.4326C98.9922 20.3245 99.1001 19.9461 98.9383 19.7299C98.7764 19.5137 98.6146 19.2975 98.4527 19.0813C97.4278 18.0542 96.4028 17.0272 95.4317 15.9461C94.083 14.5407 92.5186 13.5137 90.5765 13.0272C90.3607 12.9732 90.091 12.9732 90.091 12.6488C89.9291 12.6488 89.7134 12.7029 89.5515 12.7029V12.6488C89.7134 12.6488 89.9291 12.6488 90.091 12.6488C90.091 12.6488 90.091 12.6488 90.1449 12.6488C92.141 12.811 94.1909 12.9732 96.187 13.1894C98.183 13.4596 100.125 13.838 102.067 14.1623C102.175 14.1623 102.283 14.2164 102.391 14.2705C102.661 14.7569 102.607 15.3515 102.715 15.8921C102.822 16.7029 103.038 17.5137 103.362 18.2705C103.632 18.8651 103.847 19.4596 104.063 20.0002C104.387 20.8651 104.926 21.5678 105.628 22.1623C108.433 24.5948 111.724 25.7299 115.392 26.0002C115.662 26.0002 115.932 26.0002 116.201 26.0002C116.471 26.0002 116.741 25.8921 116.849 25.6218C116.957 25.3515 116.849 25.0813 116.687 24.8651C116.525 24.6488 116.363 24.4326 116.147 24.2705C114.583 22.6488 113.234 20.8651 112.317 18.811C111.939 17.9461 111.292 17.3515 110.483 16.8651C109.889 16.5407 109.35 16.1623 108.811 15.784C108.703 15.7299 108.595 15.5678 108.433 15.3515C109.782 15.5137 110.968 15.838 112.101 16.1083C112.533 16.2164 113.018 16.3786 113.45 16.4867C114.313 16.7029 115.068 17.0272 115.824 17.4056C117.442 18.2705 119.06 19.1353 120.733 19.9461C121.596 20.3245 122.459 20.7029 123.376 20.9191C126.289 21.5678 129.149 21.2975 131.9 20.2164C132.763 19.8921 133.572 19.3515 134.166 18.5948C134.759 17.838 135.244 17.0813 135.73 16.2705C136.054 15.6759 136 15.6759 135.892 14.7029ZM81.5674 7.08127C80.92 7.83802 80.2727 8.59478 79.6253 9.40559C79.6253 9.40559 79.5713 9.45965 79.5174 9.45965C79.4635 9.45965 79.4635 9.40559 79.4095 9.35154C79.8411 8.32451 80.4884 7.56775 81.5674 7.08127ZM79.4635 11.5137C79.7871 10.4867 80.974 8.9191 82.3766 7.56775C82.0529 8.811 81.4055 10.0002 80.5424 10.8651C80.2727 11.1894 80.0029 11.5137 79.4635 11.5137ZM95.5936 19.5678C95.4857 19.5678 95.3778 19.5678 95.2699 19.5678C92.5725 19.5678 90.1449 18.7569 87.8252 17.5137C87.07 17.1353 86.4765 16.5407 86.045 15.838C85.5594 15.0813 85.0739 14.3245 84.6423 13.5678C84.5345 13.4056 84.4266 13.2434 84.6963 13.0272C88.3647 15.1353 92.087 17.2434 95.9712 19.4056C95.6475 19.5137 95.5936 19.5678 95.5936 19.5678ZM95.9712 18.1623C95.9712 18.1623 95.9712 18.2164 95.9172 18.2705C95.8094 18.2705 95.7015 18.2705 95.5936 18.2164C92.7883 16.6488 90.037 15.0272 87.2318 13.4596C87.1779 13.4056 87.1779 13.3515 87.1239 13.1894C87.8792 13.2434 88.5805 13.5137 89.3357 13.6218C92.2489 14.1623 94.2988 15.8921 95.9712 18.1623ZM91.4936 9.83802C91.5476 9.67586 91.6015 9.45965 91.7094 9.29748C92.4107 7.94613 93.4896 6.9191 94.7844 6.10829C96.0251 5.29748 97.3199 4.54073 98.6146 3.78397C99.3698 3.35154 100.179 2.9191 100.934 2.43262C100.988 2.48667 101.042 2.59478 101.096 2.64883C99.4777 4.43262 97.7514 6.16235 95.7015 7.45964C94.5146 8.2164 93.3278 8.97316 92.141 9.72992C91.9791 9.83802 91.8173 9.89208 91.6554 9.94613C91.5475 9.89208 91.4936 9.83802 91.4936 9.83802ZM91.9791 11.1353C92.087 11.0272 92.1949 10.8651 92.3028 10.811C93.2199 10.2164 94.083 9.56775 95.0541 9.02721C97.158 7.83802 98.9922 6.32451 100.611 4.59478C100.934 4.2164 101.312 3.83802 101.636 3.45964C101.744 3.35154 101.905 3.29748 102.175 3.08127C101.636 6.05424 100.179 8.16235 97.8054 9.67586C95.7015 11.0813 93.5436 11.6218 91.9791 11.1353ZM113.288 24.7029C110.591 24.1623 108.217 23.0272 106.167 21.1894C105.736 20.811 105.412 20.3245 105.142 19.784C104.818 18.9191 104.441 18.0542 104.117 17.1894C103.955 16.7029 103.74 16.1623 103.847 15.6218C103.955 15.6218 104.063 15.6218 104.117 15.6759C104.98 16.3245 105.79 17.0813 106.383 18.0002C107.893 20.2705 109.674 22.2705 112.101 23.6218C112.587 23.8921 113.072 24.2164 113.558 24.7569C113.342 24.6488 113.342 24.7029 113.288 24.7029ZM110.267 17.9461C110.807 18.3245 111.238 18.8651 111.508 19.4596C111.939 20.4867 112.533 21.4596 113.126 22.4326C113.234 22.5948 113.288 22.7569 113.504 23.1353C111.939 22.2705 110.645 21.5137 109.62 20.3786C108.864 19.5137 108.109 18.5948 107.408 17.6218C106.761 16.7029 106.113 15.838 105.25 15.1894C105.142 15.0813 104.98 15.0272 105.142 14.811C106.005 14.9191 106.059 14.9191 106.815 15.4596C108.001 16.3245 109.134 17.1353 110.267 17.9461ZM108.757 12.0002C109.296 11.2434 109.943 10.5407 110.753 10.0542C111.778 9.35154 112.91 8.811 114.097 8.43262C115.392 8.00019 116.687 7.62181 117.982 7.18937C118.089 7.13532 118.251 7.18937 118.467 7.13532C117.442 8.00019 111.508 11.1894 108.595 12.4326C108.703 12.2164 108.703 12.1083 108.757 12.0002ZM109.242 13.4056C109.296 13.2975 109.296 13.1894 109.35 13.1353C112.964 11.0813 116.795 9.35154 120.301 7.08127C119.438 8.97316 118.089 10.3245 116.309 11.2434C114.313 12.2705 112.209 12.9191 109.997 13.3515C109.782 13.4596 109.512 13.4056 109.242 13.4056ZM121.326 15.7299C123.214 14.9191 125.102 14.9191 127.045 15.4596C128.663 15.8921 130.335 16.1623 132.008 16.1083C132.17 16.1083 132.331 16.0542 132.277 16.3786C131.252 16.811 130.173 17.0813 129.041 17.1894C125.966 17.5137 122.891 17.1894 119.816 16.6488C119.708 16.6488 119.654 16.5407 119.492 16.4326C120.139 16.1083 120.733 16.0002 121.326 15.7299ZM131.576 19.1894C129.041 20.2164 126.343 20.4867 123.646 19.8921C122.028 19.5137 120.463 18.8651 118.953 18.1083C118.791 18.0542 118.683 17.8921 118.413 17.6218C118.899 17.6759 119.168 17.7299 119.438 17.784C121.92 18.2164 124.455 18.4326 126.991 18.3786C129.256 18.3245 131.414 17.838 133.41 16.7569C133.626 16.6488 133.896 16.5407 134.112 16.4326C133.68 17.838 132.817 18.7029 131.576 19.1894Z" fill="#547D9B"/>
<path fill-rule="evenodd" clip-rule="evenodd" d="M67.9729 0C67.5413 0 66.3005 3.2973 65.5992 4.54054C64.6821 6.21622 64.1966 8 64.8979 9.94595C65.3834 11.2973 65.8689 12.6486 66.3545 14.0541C66.6782 15.027 67.3795 17.4054 67.9189 17.4054C68.4584 17.4054 69.1597 15.027 69.4834 14.0541C69.9689 12.7027 70.4005 11.2973 70.9399 9.94595C71.6413 8 71.2097 6.21622 70.2386 4.54054C69.6452 3.2973 68.4584 0 67.9729 0ZM67.3255 13.1892C67.1097 13.2432 67.0558 13.027 67.0018 12.9189C66.5703 11.7297 66.1387 10.4865 65.7611 9.24324C65.3295 7.94595 65.6532 6.75676 66.1926 5.62162C66.5163 4.97297 66.8939 4.37838 67.2716 3.67568C67.3795 3.83784 67.4874 3.89189 67.4874 3.94595C67.4874 6.91892 67.4874 9.89189 67.4874 12.8649C67.4334 12.973 67.3795 13.0811 67.3255 13.1892ZM70.2386 9.24324C69.861 10.4865 69.4294 11.6757 68.9979 12.9189C68.9439 13.027 68.89 13.2432 68.6742 13.1892C68.6202 13.0811 68.5663 12.973 68.5663 12.9189C68.5663 9.94595 68.5663 6.97297 68.5663 4C68.5663 3.94595 68.6742 3.89189 68.7821 3.72973C69.1597 4.43243 69.5373 5.02703 69.861 5.67568C70.3465 6.81081 70.6702 8 70.2386 9.24324Z" fill="#547D9B"/>
</g>
<defs>
<clipPath id="clip0">
<rect width="136" height="26" fill="white"/>
</clipPath>
</defs>
</svg>
