<svg width="243" height="49" viewBox="0 0 243 49" fill="none" xmlns="http://www.w3.org/2000/svg">
<path fill-rule="evenodd" clip-rule="evenodd" d="M242.558 34.2658C242.47 34.0002 242.293 33.7346 242.027 33.4689C241.674 33.0262 241.32 32.6721 240.966 32.2293C238.491 28.8647 235.131 26.7397 231.329 25.3231C230.799 25.146 230.357 24.9689 229.826 24.7033C229.915 24.172 230.268 24.3491 230.533 24.2606C233.893 23.9949 237.165 23.4637 240.348 22.4012C240.701 22.3126 241.055 22.2241 241.409 22.047C241.585 21.9585 241.762 21.6928 241.762 21.5157C241.762 21.3387 241.585 21.073 241.497 20.8959C241.409 20.8074 241.143 20.7189 241.055 20.6303C238.491 20.0991 235.927 19.4793 233.363 19.1251C229.207 18.5053 225.229 19.0366 221.427 20.8959C221.338 20.9845 221.161 20.9845 220.985 21.073C219.393 20.3647 217.625 19.6564 215.945 19.0366C215.945 18.5053 216.299 18.5939 216.564 18.5053C219.57 17.8855 222.399 16.9116 225.052 15.3178C226.024 14.698 226.997 14.0782 227.881 13.3699C228.5 12.8386 229.03 12.1303 229.561 11.4219C229.649 11.2449 229.649 10.8907 229.561 10.8021C229.472 10.6251 229.119 10.5365 228.942 10.5365C228.588 10.5365 228.235 10.6251 227.881 10.7136C226.29 11.0678 224.698 11.4219 223.107 11.6876C220.808 12.1303 218.509 12.7501 216.299 13.724C214.088 14.7865 211.966 15.849 210.286 17.797C209.756 17.797 209.137 17.797 208.606 17.797C208.164 17.797 207.722 17.7084 206.927 17.7084C207.457 17.1772 207.811 16.823 208.164 16.5574C209.933 15.0522 211.524 13.4584 213.027 11.599C214.265 9.91672 215.238 8.14588 215.768 6.10941C215.945 5.48961 216.122 4.86982 215.857 4.16148C215.591 4.25002 215.414 4.25002 215.326 4.33857C211.966 6.81775 208.695 9.29693 205.954 12.3959C204.009 14.5209 202.948 16.1147 201.71 18.5053C199.234 19.3022 196.847 20.0991 194.46 20.8074C194.46 20.8074 194.372 20.7189 194.195 20.6303C194.372 20.3647 194.46 20.0991 194.637 19.922C198.085 15.4063 199.323 10.0938 199.677 4.51565C199.765 3.3646 199.677 2.21355 199.323 1.06251C199.234 0.885422 199.058 0.619795 198.881 0.354169C198.527 0.619795 198.262 0.885422 198.085 1.15105C194.548 6.64066 191.984 12.6615 189.951 18.8595C189.597 20.0105 189.244 21.1616 188.978 22.4012C188.801 23.198 188.359 23.6408 187.652 23.9949C186.061 24.7918 184.557 25.6772 182.966 26.4741C182.701 26.6512 182.347 26.7397 181.817 26.9168C182.259 25.3231 182.701 23.9064 183.143 22.5783C183.585 21.1616 183.85 19.7449 184.292 18.3282C184.734 16.9116 185.176 15.5834 185.707 14.1667C186.237 12.8386 186.856 11.5105 187.298 10.0938C187.74 8.67713 188.713 7.52608 188.978 6.19795C188.536 5.84378 188.359 6.19795 188.183 6.37504C185.884 8.58859 183.85 10.9792 181.993 13.547C181.64 14.0782 181.286 14.698 180.844 15.2293C178.545 18.3282 177.396 21.8699 177.131 25.7658C177.042 27.0054 176.865 28.1564 176.777 29.396C175.539 30.37 171.737 32.0523 169.173 32.8491C168.908 32.5835 169.262 32.4064 169.35 32.3179C171.914 29.7502 173.152 26.5626 173.771 23.1095C174.124 20.8959 174.213 18.7709 173.859 16.5574C173.682 15.5834 173.682 14.5209 173.506 13.4584C173.506 13.2813 173.24 13.0157 173.064 13.0157C172.887 13.0157 172.621 13.1042 172.445 13.2813C172.268 13.3699 172.268 13.547 172.179 13.724C170.588 17.2657 168.908 20.6303 167.759 24.3491C166.963 26.7397 166.344 29.1304 166.167 31.6096C166.079 33.3804 165.195 34.3544 163.515 34.8856C156.795 36.8335 150.076 38.0731 143.091 38.2502C142.207 38.2502 141.411 38.2502 140.527 38.2502C140.35 38.2502 140.085 38.1617 139.908 38.0731C139.908 37.4533 140.438 37.2762 140.704 37.0992C142.295 36.1252 143.71 34.7971 145.036 33.5575C146.362 32.3179 147.246 30.8127 147.688 29.0418C147.865 28.2449 148.042 27.5366 148.219 26.7397C148.661 24.7918 148.13 23.1095 147.069 21.6043C146.716 21.073 146.185 20.6303 145.655 20.1876C144.152 19.0366 140.704 18.5053 138.316 20.2762C135.841 22.1355 136.99 25.7658 139.112 26.6512C139.554 26.8283 140.085 26.9168 140.527 26.8283C142.118 26.7397 142.826 25.3231 141.941 23.9064C141.499 23.198 140.969 23.021 140.085 23.3751C139.908 23.4637 139.643 23.5522 139.466 23.6408C138.935 22.9324 139.112 22.4012 139.554 21.9585C141.057 20.4532 144.329 20.6303 145.655 22.3126C146.185 23.021 146.362 23.8178 146.362 24.7033C146.274 26.9168 145.743 28.9533 144.329 30.6356C140.792 34.7085 136.636 37.719 131.243 38.6929C129.74 38.9586 128.237 38.87 126.734 38.87C126.38 38.87 126.027 38.7815 125.673 38.6044C124.966 38.2502 124.258 37.896 123.639 37.4533C123.639 37.3648 123.728 37.3648 123.728 37.3648C124.081 36.8335 124.524 36.3908 124.789 35.8596C126.557 32.9377 127.441 29.9273 126.822 26.4741C126.469 24.5262 125.408 23.021 124.347 21.5157C123.905 20.8074 123.109 20.5418 122.313 20.3647C122.136 20.2762 121.959 20.2762 121.694 20.3647C121.517 20.3647 121.341 20.3647 121.075 20.3647C120.28 20.5418 119.484 20.8074 119.042 21.5157C117.981 23.021 116.92 24.5262 116.566 26.4741C115.947 29.9273 116.743 32.9377 118.6 35.8596C118.953 36.3908 119.307 36.8335 119.661 37.3648C119.661 37.4533 119.749 37.4533 119.749 37.4533C119.13 37.896 118.423 38.2502 117.716 38.6044C117.362 38.7815 117.008 38.87 116.655 38.87C115.152 38.87 113.56 38.9586 112.145 38.6929C106.752 37.719 102.508 34.7085 99.0599 30.6356C97.6453 28.9533 97.1148 26.9168 97.0264 24.7033C97.0264 23.8178 97.2032 23.021 97.7337 22.3126C99.0599 20.6303 102.243 20.4532 103.834 21.9585C104.276 22.4012 104.453 23.021 103.923 23.6408C103.658 23.5522 103.481 23.4637 103.304 23.3751C102.42 23.021 101.889 23.198 101.447 23.9064C100.563 25.2345 101.27 26.6512 102.862 26.8283C103.304 26.8283 103.834 26.8283 104.276 26.6512C106.398 25.7658 107.548 22.1355 105.072 20.2762C102.685 18.5053 99.2368 18.948 97.7337 20.1876C97.2032 20.6303 96.6727 21.073 96.3191 21.6043C95.2581 23.198 94.6392 24.8803 95.1697 26.7397C95.3465 27.5366 95.4349 28.3335 95.7002 29.0418C96.2306 30.8127 97.0264 32.3179 98.3526 33.5575C99.7673 34.8856 101.093 36.1252 102.685 37.0992C103.039 37.2762 103.481 37.4533 103.481 38.0731C103.304 38.1617 103.039 38.2502 102.862 38.2502C101.978 38.2502 101.182 38.3388 100.298 38.2502C93.3129 38.0731 86.505 36.8335 79.8738 34.8856C78.1939 34.3544 77.3982 33.3804 77.2214 31.6096C77.0445 29.1304 76.4256 26.6512 75.6299 24.3491C74.4805 20.7189 72.8006 17.2657 71.2091 13.724C71.1207 13.547 71.0323 13.3699 70.9439 13.2813C70.325 12.8386 70.0597 12.6615 69.8829 12.6615C69.7061 12.6615 69.4408 12.9272 69.4408 13.1042C69.264 14.1667 69.264 15.1407 69.0872 16.2032C68.7335 18.4168 68.7335 20.5418 69.1756 22.7553C69.7945 26.2085 70.9439 29.4845 73.5963 31.9637C73.7732 32.1408 74.0384 32.2293 73.7732 32.495C71.2091 31.6981 67.4073 29.9272 66.1695 29.0418C66.081 27.8908 65.9042 26.6512 65.8158 25.4116C65.4621 21.6043 64.4011 18.0626 62.1023 14.8751C61.7487 14.3438 61.395 13.724 60.953 13.1928C59.0962 10.6251 57.0627 8.23442 54.7639 6.02087C54.5871 5.84378 54.4102 5.48961 53.9681 5.84378C54.3218 7.26046 55.206 8.41151 55.648 9.73964C56.0901 11.1563 56.709 12.4844 57.2395 13.8126C57.77 15.1407 58.2121 16.5574 58.6542 17.9741C59.0962 19.3907 59.4499 20.8074 59.8036 22.2241C60.1572 23.6408 60.5993 24.9689 61.1298 26.5626C60.5993 26.3856 60.2456 26.297 59.9804 26.1199C58.3889 25.3231 56.8858 24.4376 55.2944 23.6408C54.5871 23.2866 54.145 22.7553 53.9681 22.047C53.7029 20.896 53.3492 19.6564 52.9956 18.5053C50.962 12.3074 48.398 6.37504 44.8614 0.79688C44.6845 0.531253 44.4193 0.354169 44.0656 0C43.8888 0.354169 43.712 0.531253 43.6236 0.708337C43.2699 1.85939 43.1815 3.01043 43.2699 4.16148C43.6236 9.73964 44.9498 14.9636 48.3096 19.5678C48.4864 19.7449 48.5748 20.0105 48.7516 20.2762C48.5748 20.6303 48.4864 20.6303 48.4864 20.6303C46.0992 19.8334 43.6236 19.1251 41.2363 18.3282C39.9985 15.9376 38.9375 14.3438 36.9924 12.2188C34.1631 9.11984 30.8918 6.64066 27.6204 4.16148C27.532 4.07294 27.2667 4.07294 27.0899 3.9844C26.9131 4.69273 27.0015 5.31253 27.1783 5.93233C27.7088 7.96879 28.6814 9.82818 29.9192 11.4219C31.3338 13.2813 33.0137 14.8751 34.782 16.3803C35.1357 16.6459 35.4009 17.0001 36.0198 17.5313C35.3125 17.6199 34.782 17.6199 34.34 17.6199C33.8095 17.6199 33.279 17.6199 32.6601 17.6199C31.0686 15.672 28.8582 14.5209 26.6478 13.547C24.4374 12.573 22.2271 11.9532 19.8398 11.5105C18.2484 11.1563 16.6569 10.8021 15.0654 10.5365C14.7118 10.448 14.3581 10.3594 14.0044 10.3594C13.8276 10.3594 13.4739 10.448 13.3855 10.6251C13.2971 10.8021 13.2971 11.1563 13.3855 11.2449C13.916 11.9532 14.3581 12.6615 15.0654 13.1928C15.9496 13.9011 16.9221 14.6095 17.8947 15.1407C20.5472 16.7345 23.3765 17.7084 26.3826 18.3282C26.6478 18.4168 27.0015 18.3282 27.0015 18.8595C25.3216 19.5678 23.5533 20.2762 21.9618 20.8959C21.6966 20.8074 21.6082 20.8074 21.5197 20.7189C17.7179 18.948 13.7392 18.3282 9.58367 18.948C7.01963 19.3022 4.45559 19.922 1.89155 20.4532C1.71471 20.4532 1.53788 20.5418 1.44947 20.7189C1.09581 21.073 0.918977 21.3387 0.918977 21.5157C0.918977 21.6928 1.09581 21.9585 1.27264 22.047C1.6263 22.2241 1.97996 22.3126 2.33362 22.4012C5.51657 23.4637 8.78794 23.9949 12.1477 24.2606C12.413 24.2606 12.7666 24.172 12.855 24.7033C12.3245 24.8803 11.8825 25.146 11.352 25.3231C7.46171 26.7397 4.19034 28.8647 1.71472 32.2293C1.36105 32.6721 1.00739 33.1148 0.653732 33.4689C0.476901 33.7346 0.300071 34.0002 0.12324 34.2658C-0.0535905 34.62 -0.0535906 34.9742 0.211655 35.2398C0.388486 35.4169 0.742147 35.5054 1.00739 35.5054C1.27264 35.5054 1.44947 35.4169 1.71472 35.3283C3.74827 34.7085 5.6934 33.8231 7.55012 32.6721C9.84892 31.2554 12.1477 29.9272 14.4465 28.5991C14.5349 28.5106 14.6233 28.5991 14.8886 28.5991C14.7118 28.9533 14.6233 29.3075 14.5349 29.5731C13.5624 31.6096 12.5898 33.646 11.6172 35.6825C11.352 36.2137 11.1751 36.6565 10.9099 37.1877C10.8215 37.5419 10.6447 37.896 10.6447 38.2502C10.6447 38.5158 10.7331 38.87 10.9983 39.0471C11.1751 39.1356 11.5288 39.1356 11.7941 39.0471C12.0593 38.9585 12.3245 38.6929 12.5014 38.5158C13.3855 37.719 14.3581 36.9221 15.2423 36.1252C17.0106 34.5314 18.4252 32.5835 19.3094 30.37C20.2819 27.9793 21.1661 25.5887 21.2545 23.1095C22.846 21.6043 24.7027 21.1616 27.0899 20.8074C26.471 21.4272 26.1173 21.6928 25.7637 22.047C24.5259 23.021 23.5533 24.3491 22.9344 25.7658C21.9618 27.9793 21.1661 30.1929 20.3703 32.4064C20.3703 32.495 20.2819 32.6721 20.2819 32.7606C20.1935 33.1148 20.2819 33.5575 20.724 33.646C20.9892 33.7346 21.3429 33.7346 21.5197 33.646C23.4649 32.3179 25.3216 31.0783 26.6478 29.0418C27.3551 27.9793 28.0625 26.9168 28.8582 25.9429C29.8308 24.6147 30.4497 23.198 30.6265 21.6043C30.7149 20.9845 30.8033 20.2762 31.2454 19.7449C32.8369 19.3022 33.8095 19.2136 36.6387 19.3907C37.3461 19.3907 38.0534 19.4793 38.6723 19.8334C38.5839 20.0105 38.4955 20.1876 38.4071 20.1876C36.4619 21.3387 34.9589 23.021 33.721 24.9689C31.9527 27.6252 30.0076 30.1043 27.8856 32.495C27.6204 32.7606 27.4436 33.1148 27.2667 33.3804C27.0899 33.7346 27.532 34.2658 27.9741 34.2658C28.2393 34.2658 28.4161 34.1773 28.6814 34.0887C30.0076 33.5575 31.4222 33.0262 32.7485 32.4064C35.3125 31.1668 37.4345 29.3075 39.026 26.9168C39.9101 25.5887 40.529 24.172 40.6174 22.4897C40.6174 21.6928 40.529 20.896 41.0595 20.1876C43.4467 20.6303 46.8949 21.7814 49.5474 23.1095C49.8126 23.198 50.1663 23.2866 50.1663 23.8178C49.7242 23.9949 49.1937 24.172 48.6632 24.2606C46.7181 24.6147 45.1266 25.5887 43.8004 26.9168C41.7668 28.8647 39.3796 30.37 36.904 31.6096C36.3735 31.8752 35.9314 32.1408 35.4893 32.4064C35.1357 32.5835 34.9589 32.9377 35.0473 33.2919C35.1357 33.7346 35.4009 33.9116 35.843 34.0002C37.2577 34.2658 38.5839 34.3544 39.9985 34.0002C45.1266 32.7606 49.6358 30.37 53.2608 26.3856C53.5261 26.1199 53.7029 25.8543 53.9681 25.5001C54.4986 25.6772 54.9407 25.6772 55.3828 25.9429C57.5932 27.0939 59.7151 28.3335 61.9255 29.5731C61.9255 29.6616 61.8371 29.7502 61.8371 29.9272C59.9804 30.2814 58.1237 30.7241 56.3554 30.9898C52.2883 31.6981 48.398 33.1148 44.773 35.2398C44.3309 35.5054 43.8888 35.8596 43.4467 36.2137C43.1815 36.4794 43.3583 37.0106 43.712 37.0992C43.9772 37.1877 44.154 37.1877 44.4193 37.1877C46.0108 37.1877 47.6022 37.1877 49.1937 37.0992C52.8187 36.9221 56.2669 36.0367 59.4499 34.1773C60.7761 33.3804 62.1024 32.6721 63.3402 31.8752C63.7822 31.6096 64.3127 31.3439 64.8432 31.0783C67.3189 32.2293 69.7945 33.4689 72.2701 34.62C72.3585 34.62 72.3585 34.7085 72.3585 34.7971C72.3585 34.8856 72.3585 34.8856 72.3585 35.0627C71.6512 35.0627 70.9439 35.0627 70.2366 35.0627C69.1756 35.1512 68.203 35.1512 67.142 35.3283C64.0475 35.8596 61.1298 36.745 58.3005 38.0731C57.0627 38.6929 55.7365 39.1356 54.3218 39.2242C53.5261 39.2242 53.2608 39.4898 53.1724 39.9325C53.084 40.3752 53.5261 40.6409 54.4102 40.6409C56.4438 40.6409 58.3889 40.7294 60.4225 40.6409C64.6664 40.4638 68.7335 39.6669 72.7122 38.1617C73.5963 37.8075 74.5689 37.3648 75.2762 36.8335C76.072 36.2137 76.7793 36.2137 77.6634 36.4794C81.1116 37.6304 84.5598 38.5158 88.0964 39.1356C88.4501 39.2242 88.8038 39.3127 89.2458 39.4898C88.7154 40.0211 88.2733 40.3752 87.8312 40.8179C86.5934 41.969 86.1513 43.4742 86.1513 45.1565C86.1513 46.4846 86.7702 47.4586 87.9196 48.1669C89.2458 48.9638 90.6605 49.2294 92.1635 48.7867C93.1361 48.5211 94.0203 48.1669 94.9044 47.8128C96.0538 47.2815 96.6727 46.3961 96.938 45.1565C97.0264 44.8909 97.0264 44.5367 96.938 44.2711C96.5843 43.12 93.6666 42.1461 92.694 42.8544C92.1636 43.2086 91.8099 43.9169 92.5172 44.5367C93.1361 44.9794 93.6666 45.4221 93.6666 46.3961C93.1361 46.5732 92.5172 46.8388 91.9867 47.0159C91.1026 47.2815 90.3068 47.1044 89.5111 46.8388C88.7153 46.4846 88.2733 45.8648 88.3617 44.9794C88.3617 44.0055 88.6269 43.2086 89.2458 42.5002C90.3068 41.2606 91.6331 40.4638 93.3129 40.3752C94.3739 40.2867 95.5233 40.3752 96.5843 40.3752C99.7673 40.4638 103.039 40.5523 106.222 40.6409C107.283 40.6409 108.255 40.7294 109.228 41.0836C111.35 41.8804 113.472 42.0575 115.682 41.7034C117.892 41.3492 119.926 40.7294 121.606 39.4898C123.286 40.8179 125.319 41.4377 127.53 41.7034C129.74 42.0575 131.862 41.7919 133.984 41.0836C134.957 40.7294 136.018 40.6409 136.99 40.6409C140.173 40.5523 143.444 40.4638 146.627 40.3752C147.688 40.3752 148.838 40.2867 149.899 40.3752C151.579 40.4638 152.905 41.2606 153.966 42.5002C154.585 43.2086 154.85 44.094 154.85 44.9794C154.85 45.8648 154.496 46.4846 153.701 46.8388C152.905 47.193 152.021 47.2815 151.225 47.0159C150.694 46.8388 150.076 46.5732 149.545 46.3961C149.633 45.5107 150.164 45.068 150.694 44.5367C151.49 43.9169 151.048 43.2086 150.518 42.8544C149.457 42.1461 146.627 43.12 146.274 44.2711C146.185 44.5367 146.185 44.8909 146.274 45.1565C146.539 46.3961 147.158 47.2815 148.307 47.8128C149.191 48.1669 150.076 48.6096 151.048 48.7867C152.551 49.1409 153.966 48.8753 155.292 48.1669C156.441 47.4586 157.06 46.4846 157.06 45.1565C157.06 43.4742 156.618 42.0575 155.38 40.8179C154.938 40.3752 154.496 40.0211 153.966 39.4898C154.408 39.3127 154.762 39.2242 155.115 39.1356C158.652 38.4273 162.1 37.6304 165.548 36.4794C166.432 36.2137 167.14 36.2137 167.935 36.8335C168.643 37.4533 169.615 37.8075 170.499 38.1617C174.478 39.6669 178.545 40.4638 182.789 40.6409C184.823 40.7294 186.768 40.6409 188.801 40.6409C189.686 40.6409 190.128 40.3752 190.039 39.9325C189.951 39.4898 189.686 39.2242 188.89 39.2242C187.475 39.1356 186.149 38.6929 184.911 38.0731C182.082 36.745 179.076 35.8596 176.07 35.3283C175.097 35.1512 174.036 35.0627 172.975 35.0627C172.268 35.0627 171.56 35.0627 170.853 35.0627C170.853 34.9742 170.853 34.8856 170.853 34.7971C170.853 34.7085 170.942 34.7085 170.942 34.62C173.417 33.4689 175.893 32.2293 178.368 31.0783C178.899 31.3439 179.341 31.6096 179.871 31.8752C181.198 32.6721 182.524 33.3804 183.762 34.1773C186.945 36.1252 190.393 36.9221 194.018 37.0992C195.609 37.1877 197.201 37.1877 198.792 37.1877C199.058 37.1877 199.234 37.1877 199.5 37.0992C199.853 37.0106 200.03 36.3908 199.765 36.2137C199.323 35.8596 198.881 35.5054 198.439 35.2398C194.814 33.2033 190.923 31.7866 186.856 30.9898C185 30.6356 183.143 30.2814 181.375 29.9272C181.375 29.8387 181.286 29.7502 181.286 29.5731C183.408 28.3335 185.618 27.1824 187.829 25.9429C188.271 25.6772 188.713 25.6772 189.244 25.5001C189.509 25.8543 189.686 26.1199 189.951 26.3856C193.576 30.37 197.997 32.7606 203.213 34.0002C204.628 34.3544 205.954 34.2658 207.369 34.0002C207.722 33.9116 208.076 33.7346 208.164 33.2919C208.253 32.9377 208.076 32.5835 207.722 32.4064C207.28 32.1408 206.75 31.8752 206.308 31.6096C203.744 30.37 201.445 28.8647 199.411 26.9168C197.997 25.5887 196.405 24.6147 194.548 24.2606C194.018 24.172 193.576 23.9064 193.045 23.8178C193.045 23.2866 193.399 23.2866 193.664 23.1095C196.317 21.7814 199.765 20.6303 202.152 20.1876C202.594 20.896 202.506 21.6928 202.594 22.4897C202.683 24.172 203.302 25.5887 204.186 26.9168C205.777 29.3075 207.899 31.0783 210.463 32.4064C211.789 33.0262 213.116 33.5575 214.53 34.0887C214.707 34.1773 214.972 34.2658 215.238 34.2658C215.68 34.2658 216.033 33.7346 215.945 33.3804C215.768 33.0262 215.591 32.7606 215.326 32.495C213.204 30.1043 211.259 27.6252 209.491 24.9689C208.253 23.1095 206.75 21.4272 204.805 20.1876C204.716 20.0991 204.716 20.0105 204.539 19.8334C205.158 19.4793 205.866 19.4793 206.573 19.3907C209.402 19.2136 210.463 19.3022 211.966 19.7449C212.408 20.2762 212.497 20.896 212.585 21.6043C212.762 23.198 213.381 24.6147 214.353 25.9429C215.149 26.9168 215.857 27.9793 216.564 29.0418C217.89 31.0783 219.835 32.3179 221.692 33.646C221.869 33.8231 222.311 33.8231 222.488 33.646C222.841 33.4689 222.93 33.1148 222.93 32.7606C222.93 32.6721 222.841 32.495 222.841 32.4064C221.957 30.1929 221.161 27.9793 220.277 25.7658C219.658 24.2606 218.686 23.021 217.448 22.047C217.094 21.7814 216.741 21.4272 216.122 20.8074C218.421 21.1616 220.366 21.6928 221.957 23.1095C222.046 25.6772 222.93 28.0679 223.902 30.37C224.875 32.5835 226.201 34.5314 227.969 36.1252C228.854 36.9221 229.826 37.719 230.71 38.5158C230.976 38.6929 231.152 38.9585 231.418 39.0471C231.683 39.1356 232.037 39.2242 232.213 39.0471C232.39 38.87 232.567 38.5158 232.567 38.2502C232.567 37.896 232.479 37.5419 232.302 37.1877C232.125 36.6565 231.86 36.2137 231.594 35.6825C230.622 33.646 229.649 31.6096 228.677 29.5731C228.5 29.3075 228.411 28.9533 228.323 28.5991C228.588 28.5991 228.677 28.5991 228.765 28.5991C231.064 29.9272 233.363 31.3439 235.662 32.6721C237.518 33.7346 239.375 34.7085 241.497 35.3283C241.762 35.4169 241.939 35.5054 242.204 35.5054C242.47 35.5054 242.823 35.4169 243 35.2398C242.735 34.9742 242.735 34.5314 242.558 34.2658ZM12.5014 23.1095C10.3794 22.8439 8.16903 22.4897 6.04706 22.1355C5.6934 22.047 5.42816 21.8699 4.72083 21.6043C8.87635 20.2762 12.7666 19.922 16.5685 20.7189C17.6295 20.896 18.8673 20.9845 19.7514 21.9585C19.4862 22.1355 19.3094 22.3126 19.0441 22.3126C17.0106 22.9324 14.8002 23.3751 12.5014 23.1095ZM14.6233 26.6512C14.0929 27.0939 13.6508 27.5366 13.0319 27.8908C10.6447 29.3075 8.25745 30.7241 5.78182 32.0523C5.0745 32.4064 4.45559 32.8491 3.39461 33.1148C5.6934 29.6616 11.352 26.2085 14.977 25.8543C14.8886 26.2085 14.8002 26.4741 14.6233 26.6512ZM14.0929 35.594C13.916 35.771 13.7392 35.8596 13.2971 36.0367C13.3855 35.594 13.3855 35.4169 13.4739 35.2398C13.8276 34.4429 14.2697 33.646 14.7118 32.7606C15.5075 30.9898 16.3916 29.2189 17.1874 27.5366C17.541 26.9168 17.8063 26.2085 18.16 25.5887C18.5136 25.0574 18.9557 24.5262 19.663 24.2606C19.7514 24.4376 19.8398 24.6147 19.8398 24.7918C18.9557 28.9533 17.4526 32.7606 14.0929 35.594ZM28.593 23.9949C27.4436 25.7658 26.1173 27.4481 24.8795 29.1304C24.4374 29.6616 23.9069 30.1929 23.0228 30.7241C24.0838 26.6512 25.5868 23.2866 29.2119 21.2501C29.3003 21.4272 29.3887 21.6043 29.3887 21.6928C29.1235 22.4897 28.9466 23.3751 28.593 23.9949ZM29.1235 17.4428C28.4161 17.4428 27.6204 17.4428 26.9131 17.2657C23.0228 16.4688 19.3094 15.0522 16.038 12.8386C15.7727 12.6615 15.5959 12.4844 15.3307 12.3074C15.4191 12.2188 15.4191 12.1303 15.4191 12.0417C17.7179 12.573 20.0167 13.0157 22.3155 13.547C24.6143 14.1667 26.7362 15.2293 28.7698 16.4688C29.035 16.6459 29.3003 16.9116 29.5655 17.0886C29.5655 17.5313 29.3003 17.4428 29.1235 17.4428ZM28.9466 6.99483C32.8369 9.82818 36.2851 13.0157 38.7607 17.4428C35.7546 16.3803 30.2729 10.5365 28.9466 6.99483ZM31.8643 31.1668C31.5107 30.9898 31.7759 30.7241 31.8643 30.547C33.4558 28.2449 35.1357 25.9429 36.8156 23.7293C37.5229 22.8439 38.4071 22.1355 39.2912 21.3387C39.3796 21.2501 39.5565 21.3387 39.6449 21.3387C39.9985 24.9689 35.4893 29.9273 31.8643 31.1668ZM48.8401 17.7084C46.0108 13.3699 44.5077 7.43754 44.5961 3.54169C46.9833 6.99483 51.3157 17.6199 51.8462 20.9845C50.962 20.7189 50.1663 19.8334 48.8401 17.7084ZM51.8462 25.7658C50.1663 27.5366 48.3096 29.1304 46.0992 30.1929C44.2425 31.0783 42.3857 32.0523 40.3522 32.495C39.7333 32.6721 39.2028 32.8491 38.1418 32.5835C38.7607 32.2293 39.1144 31.9637 39.468 31.7866C41.3248 30.8127 43.0046 29.6616 44.5077 28.1564C46.4528 26.1199 49.0169 25.146 51.5809 24.2606C51.7578 24.172 51.9346 24.2606 52.1114 24.2606C52.1998 24.2606 52.2883 24.3491 52.3767 24.4376C52.5535 25.0574 52.1998 25.4116 51.8462 25.7658ZM46.8949 35.8596C46.9833 35.6825 47.0718 35.5054 47.2486 35.4169C51.0504 33.3804 55.1175 32.495 59.2731 31.4325C59.9804 31.2554 60.7761 31.0783 61.5719 31.1668C58.4773 34.2658 51.5809 36.4794 46.8949 35.8596ZM63.517 27.5366C62.8981 26.1199 62.2792 24.7918 61.8371 23.3751C61.3066 21.7814 60.953 20.0991 60.4225 18.5053C59.9804 17.0001 59.3615 15.4949 58.831 14.0782C58.7426 13.8126 58.4773 13.547 58.3005 13.3699C58.3005 13.2813 58.3889 13.1928 58.3889 13.0157C58.3889 13.1042 58.3005 13.1928 58.3005 13.3699C58.4773 13.3699 58.831 13.2813 58.9194 13.3699C60.5993 15.7605 62.456 18.1511 63.2518 21.073C63.8707 23.3751 64.1359 25.6772 64.3127 28.0679C63.8707 28.0679 63.6938 27.8022 63.517 27.5366ZM72.2701 36.8335C70.325 37.6304 68.3798 38.2502 66.3463 38.5158C64.1359 38.87 61.9255 39.3127 59.7151 39.1356C61.1298 38.0731 65.1085 36.8335 68.1146 36.3023C69.7061 36.0367 71.2975 36.0367 72.9774 36.4794C72.5354 36.6565 72.3585 36.745 72.2701 36.8335ZM74.3921 31.0783C73.4195 30.1929 72.6238 29.0418 72.0933 27.8022C71.0323 25.3231 70.325 22.7553 70.2366 20.0105C70.2366 18.948 70.1481 17.9741 70.1481 16.9116C70.1481 16.5574 70.2366 16.2032 70.325 15.849C72.5354 18.1511 75.3646 27.4481 75.1878 31.4325C74.8342 31.3439 74.5689 31.2554 74.3921 31.0783ZM118.6 27.5366C118.688 25.2345 119.661 23.3751 121.341 21.8699C123.02 23.3751 123.993 25.3231 124.081 27.5366C124.17 31.4325 124.435 31.8752 121.606 35.2398C121.517 35.3283 121.429 35.4169 121.341 35.5054C121.252 35.4169 121.164 35.3283 121.075 35.2398C118.334 31.8752 118.511 31.521 118.6 27.5366ZM167.582 31.521C167.405 27.5366 170.234 18.2397 172.445 15.9376C172.533 16.3803 172.621 16.7345 172.621 17.0001C172.621 18.0626 172.621 19.0366 172.533 20.0991C172.445 22.8439 171.737 25.4116 170.676 27.8908C170.146 29.1304 169.35 30.1929 168.378 31.1668C168.201 31.2554 167.935 31.3439 167.582 31.521ZM174.655 36.3908C177.661 36.9221 181.64 38.1617 183.054 39.2242C180.844 39.3127 178.634 38.9585 176.423 38.6044C174.39 38.2502 172.445 37.719 170.499 36.9221C170.323 36.8335 170.234 36.8335 169.881 36.6565C171.472 36.1252 173.064 36.1252 174.655 36.3908ZM183.497 31.4325C187.564 32.495 191.719 33.3804 195.521 35.4169C195.698 35.5054 195.698 35.6825 195.875 35.8596C191.277 36.4794 184.381 34.3544 181.198 31.1668C181.993 30.9898 182.789 31.2554 183.497 31.4325ZM179.164 27.5366C179.076 27.8022 178.899 28.0679 178.368 27.9793C178.545 25.6772 178.722 23.2866 179.429 20.9845C180.225 18.0626 182.082 15.672 183.762 13.2813C183.85 13.1928 184.204 13.2813 184.381 13.2813C184.381 13.1928 184.292 13.1042 184.292 12.9272C184.381 13.0157 184.381 13.1042 184.381 13.2813C184.204 13.547 184.027 13.724 183.85 13.9897C183.32 15.4949 182.701 16.9116 182.259 18.4168C181.728 20.0105 181.375 21.6928 180.844 23.2866C180.402 24.7918 179.783 26.1199 179.164 27.5366ZM198.173 28.2449C199.588 29.7502 201.356 30.9012 203.213 31.8752C203.567 32.0523 203.92 32.3179 204.539 32.6721C203.567 32.9377 202.948 32.7606 202.329 32.5835C200.295 32.0523 198.439 31.1668 196.582 30.2814C194.372 29.2189 192.515 27.6252 190.835 25.8543C190.481 25.5001 190.128 25.146 190.216 24.6147C190.305 24.5262 190.393 24.4376 190.481 24.4376C190.658 24.4376 190.835 24.3491 191.012 24.4376C193.664 25.146 196.228 26.1199 198.173 28.2449ZM190.923 21.073C191.365 17.6199 195.698 7.08337 198.173 3.63023C198.35 7.52608 196.847 13.4584 193.93 17.797C192.515 19.8334 191.808 20.7189 190.923 21.073ZM205.954 23.7293C207.634 25.9429 209.225 28.2449 210.905 30.547C210.994 30.7241 211.259 30.9012 210.905 31.1668C207.28 29.9273 202.771 24.9689 203.125 21.3387C203.213 21.3387 203.39 21.3387 203.478 21.3387C204.274 22.1355 205.247 22.8439 205.954 23.7293ZM204.009 17.4428C206.484 13.1042 210.021 9.91672 213.823 6.99483C212.497 10.5365 206.927 16.3803 204.009 17.4428ZM219.747 30.7241C218.774 30.1929 218.244 29.6616 217.89 29.1304C216.652 27.4481 215.326 25.7658 214.177 23.9949C213.735 23.3751 213.646 22.5783 213.381 21.7814C213.381 21.6928 213.469 21.5157 213.558 21.3387C217.183 23.2866 218.686 26.6512 219.747 30.7241ZM213.646 17.4428C213.469 17.4428 213.116 17.5313 213.116 17.0886C213.381 16.9116 213.558 16.6459 213.911 16.4688C215.945 15.2293 218.067 14.1667 220.366 13.547C222.664 13.0157 224.963 12.573 227.262 12.0417C227.262 12.1303 227.351 12.2188 227.351 12.3074C227.085 12.4844 226.908 12.7501 226.643 12.8386C223.372 15.1407 219.658 16.4688 215.768 17.2657C215.149 17.4428 214.353 17.4428 213.646 17.4428ZM226.113 20.7189C230.003 19.922 233.805 20.2762 237.96 21.6043C237.253 21.8699 236.988 22.047 236.634 22.1355C234.512 22.4897 232.302 22.7553 230.18 23.1095C227.881 23.4637 225.759 23.021 223.549 22.4012C223.372 22.3126 223.107 22.1355 222.841 22.047C223.814 20.9845 225.052 20.9845 226.113 20.7189ZM228.058 32.7606C228.411 33.5575 228.854 34.3544 229.296 35.2398C229.384 35.4169 229.384 35.6825 229.472 36.0367C229.119 35.8596 228.854 35.771 228.765 35.594C225.405 32.7606 223.902 28.9533 223.018 24.7918C223.018 24.7033 223.107 24.5262 223.195 24.2606C223.902 24.5262 224.344 24.9689 224.698 25.5887C225.052 26.2085 225.405 26.8283 225.671 27.5366C226.466 29.3075 227.262 31.0783 228.058 32.7606ZM236.899 32.0523C234.512 30.6356 232.037 29.3075 229.649 27.8908C229.119 27.5366 228.588 27.0939 228.058 26.6512C227.881 26.4741 227.793 26.2085 227.704 25.8543C231.329 26.1199 237.076 29.6616 239.287 33.1148C238.226 32.8491 237.607 32.4064 236.899 32.0523Z" fill="white"/>
</svg>
