<svg width="24" height="23" viewBox="0 0 24 23" fill="none" xmlns="http://www.w3.org/2000/svg">
<path d="M17.4317 22.0457C17.3173 22.0181 17.203 22.0181 17.0886 21.9905H17.0314C16.7455 21.9354 16.4596 21.9079 16.1737 21.8528C14.6298 21.4945 13.1431 20.8883 11.7708 20.1167C9.5979 18.9593 7.65375 17.4987 5.96691 15.7351C3.73685 13.3652 2.13579 10.9953 1.16371 8.48758C0.763447 7.49552 0.506133 6.44835 0.448952 5.37363C0.363181 4.32646 0.763447 3.27929 1.5068 2.50769C1.64975 2.36991 1.7927 2.20457 1.93566 2.06678C2.45028 1.59831 2.93632 1.10228 3.47954 0.66137C3.99417 0.220457 4.53739 0 5.1092 0C5.681 0 6.22422 0.248014 6.73885 0.688927C7.76811 1.62587 8.79736 2.61792 9.8838 3.74776C10.6557 4.54692 10.6557 5.78698 9.8838 6.58614C9.51212 6.97194 9.14045 7.35774 8.74018 7.71598L8.71159 7.74354C8.54005 7.90888 8.33992 8.10178 8.16837 8.26712C8.13978 8.29468 8.11119 8.32223 8.0826 8.34979L7.96824 8.43246L8.02542 8.51513C9.51212 11.0779 11.7136 13.1998 14.4011 14.6328L14.4869 14.6604L15.8306 13.3376C16.1737 12.9518 16.574 12.6487 17.06 12.4558C17.3173 12.4007 17.6032 12.3456 17.8891 12.3456C18.4323 12.3456 18.9184 12.5385 19.3186 12.8967C20.4623 13.9439 21.5773 15.0186 22.6351 16.1209C23.4071 16.92 23.4357 18.1326 22.6923 18.9317C21.949 19.786 21.1198 20.5576 20.4909 21.1638C19.9476 21.6323 19.2329 21.9354 18.5181 22.0181C18.4609 22.0181 18.4038 22.0457 18.3752 22.0732L17.4317 22.0457ZM17.8034 20.6954H17.9177C18.6325 20.6954 19.3186 20.4198 19.8047 19.9238C20.1478 19.5655 20.4909 19.2348 20.8339 18.9041L21.3486 18.4081C21.4058 18.353 21.4915 18.2703 21.5487 18.2152C21.7202 18.0499 21.806 17.8294 21.806 17.5814C21.806 17.3334 21.7202 17.1129 21.5487 16.9476L21.5201 16.92C21.2342 16.6169 20.8911 16.3138 20.6052 16.0107L19.7761 15.2115C19.3758 14.8257 18.9756 14.4399 18.5467 14.0541C18.3752 13.8612 18.1179 13.751 17.8605 13.751C17.6318 13.751 17.4317 13.8336 17.2601 13.9714L17.2315 13.999C17.1744 14.0541 17.0886 14.1092 17.0314 14.1643L16.4024 14.7706C16.0593 15.1013 15.7163 15.432 15.3732 15.7626C15.173 15.9831 14.8871 16.1209 14.5726 16.1209C14.4011 16.1209 14.201 16.0658 14.058 15.9831C13.7149 15.8178 13.4004 15.6524 13.0859 15.4871C11.685 14.6604 10.3984 13.6407 9.31199 12.4282C8.28274 11.4086 7.45361 10.2512 6.79603 8.9836C6.48154 8.29468 6.53872 7.93644 7.11053 7.41285L7.25348 7.27507C7.76811 6.77904 8.31133 6.28301 8.82595 5.75943C8.9975 5.62164 9.11186 5.40119 9.11186 5.18073C9.11186 4.96027 9.05468 4.73982 8.88313 4.57447C8.88313 4.54692 8.85454 4.54692 8.82595 4.51936C8.76877 4.43669 8.683 4.38157 8.62582 4.2989L5.93832 1.70854C5.65241 1.43297 5.3951 1.29518 5.1092 1.29518C4.85188 1.29518 4.56598 1.43297 4.30866 1.70854C4.16571 1.84632 3.99417 1.98411 3.85122 2.12189L3.82263 2.14945C3.42236 2.53525 3.05068 2.86594 2.67901 3.27929C2.42169 3.5273 2.22156 3.83043 2.07861 4.16112C1.84988 4.8776 1.84988 5.59408 2.05002 6.31057C2.30733 7.41285 2.7076 8.46002 3.25082 9.45207C4.16571 11.2157 5.33792 12.8416 6.71026 14.3021C9.08327 16.8925 12.0853 18.9041 15.4303 20.1167C16.1451 20.4749 16.9456 20.6402 17.8034 20.6954Z" fill="#67983F"/>
</svg>
