<svg width="26" height="17" viewBox="0 0 26 17" fill="none" xmlns="http://www.w3.org/2000/svg">
<path d="M2.77128 16.92C1.39894 16.92 0.3125 15.8178 0.3125 14.4675V2.45259C0.3125 1.10229 1.42753 0 2.77128 0H22.5844C23.9568 0 25.0432 1.10229 25.0432 2.45259V14.4675C25.0432 15.8178 23.9282 16.92 22.5844 16.92H2.77128ZM2.91423 15.6249H22.4701L16.0944 9.45207L14.3218 11.0779C13.8929 11.4637 13.3211 11.6842 12.7207 11.6842C12.1203 11.6842 11.5485 11.4637 11.1197 11.0779L9.34707 9.45207L2.91423 15.6249ZM17.0379 8.57026L23.6995 15.0186V2.48014L17.0379 8.57026ZM1.65625 15.0186L8.34641 8.59781L1.65625 2.45259V15.0186ZM12.006 10.141C12.2061 10.3339 12.4348 10.4441 12.6922 10.4441C12.9495 10.4441 13.1496 10.3339 13.3783 10.141L23.0419 1.29519H2.34242L12.006 10.141Z" fill="#67983F"/>
</svg>
