<svg width="20" height="24" viewBox="0 0 20 24" fill="none" xmlns="http://www.w3.org/2000/svg">
<path d="M19.0402 8.53969C19.0402 3.82178 14.7689 0 9.53229 0C4.26639 0 0.0244141 3.82178 0.0244141 8.53969C0.0244141 10.2793 0.609514 11.887 1.57493 13.2313L1.63344 13.284C1.63344 13.284 1.63344 13.3103 1.66269 13.3103L4.3249 16.8685L6.54828 19.8205L7.42593 20.9802L9.56154 23.8004L11.6972 20.9802L13.5402 18.529L14.5934 17.1321L14.7982 16.8422L17.4604 13.3103C17.4604 13.3103 17.4604 13.284 17.4896 13.284L17.5189 13.2313C18.4551 11.887 19.0402 10.2793 19.0402 8.53969ZM16.0854 12.3878C16.0854 12.4142 16.0562 12.4142 16.0562 12.4405L13.4232 15.9724C13.4232 15.9987 13.3939 15.9987 13.3939 16.0251L13.1892 16.2887L12.136 17.6856L10.2929 20.1368L9.53229 21.1384L8.77166 20.1368L7.89401 18.9771L5.67063 16.0251L2.97917 12.4405C2.97917 12.4142 2.94991 12.4142 2.94991 12.3878C2.10152 11.2281 1.66269 9.91026 1.66269 8.53969C1.66269 4.63885 5.17329 1.476 9.50303 1.476C13.8328 1.476 17.3434 4.63885 17.3434 8.53969C17.3726 9.91026 16.9338 11.2545 16.0854 12.3878Z" fill="#67983F"/>
<path d="M9.56396 3.26855C6.72623 3.26855 4.44434 5.35077 4.44434 7.88106C4.44434 10.4377 6.75548 12.4936 9.56396 12.4936C12.3724 12.4936 14.6836 10.4113 14.6836 7.88106C14.6836 5.35077 12.4017 3.26855 9.56396 3.26855ZM9.56396 11.0176C7.63313 11.0176 6.08262 9.62063 6.08262 7.88106C6.08262 6.16784 7.63313 4.74456 9.56396 4.74456C11.4948 4.74456 13.0453 6.14149 13.0453 7.88106C13.0453 9.62063 11.4948 11.0176 9.56396 11.0176Z" fill="#67983F"/>
</svg>
