<svg width="39" height="449" viewBox="0 0 39 449" fill="none" xmlns="http://www.w3.org/2000/svg">
<path d="M19.475 394.235C17.375 394.235 15.275 393.535 13.775 392.035C11.975 390.235 11.375 387.635 12.175 384.635C12.575 383.135 13.275 381.635 14.275 379.935C12.675 380.935 11.075 381.635 9.575 382.035C6.575 382.835 3.975 382.235 2.175 380.435C-0.725 377.535 -0.725 372.035 2.175 369.135C3.975 367.335 6.575 366.735 9.575 367.535C11.075 367.935 12.575 368.635 14.275 369.635C13.275 368.035 12.575 366.435 12.175 364.935C11.375 361.935 11.975 359.335 13.775 357.535C16.675 354.635 22.175 354.635 25.075 357.535C26.875 359.335 27.475 361.935 26.675 364.935C26.275 366.435 25.575 367.935 24.575 369.635C26.175 368.635 27.775 367.935 29.275 367.535C32.275 366.735 34.875 367.335 36.675 369.135C39.575 372.035 39.575 377.535 36.675 380.435C34.875 382.235 32.275 382.835 29.275 382.035C27.775 381.635 26.275 380.935 24.575 379.935C25.575 381.535 26.275 383.135 26.675 384.635C27.475 387.635 26.875 390.235 25.075 392.035C23.675 393.535 21.575 394.235 19.475 394.235ZM19.475 376.135C16.475 379.435 14.675 382.435 13.975 385.035C13.375 387.435 13.775 389.435 15.075 390.735C17.275 392.935 21.675 392.935 23.875 390.735C25.175 389.435 25.575 387.435 24.975 385.035C24.275 382.435 22.475 379.435 19.475 376.135ZM20.875 374.835C24.175 377.835 27.175 379.635 29.775 380.335C32.175 380.935 34.175 380.535 35.475 379.235C37.675 377.035 37.675 372.635 35.475 370.435C34.175 369.135 32.175 368.735 29.775 369.335C27.175 370.035 24.175 371.835 20.875 374.835ZM7.175 369.035C5.675 369.035 4.475 369.535 3.575 370.435C1.375 372.635 1.375 377.035 3.575 379.235C4.875 380.535 6.875 380.935 9.275 380.335C11.875 379.635 14.875 377.835 18.175 374.835C14.875 371.835 11.875 370.035 9.275 369.335C8.475 369.135 7.775 369.035 7.175 369.035ZM19.475 357.135C17.875 357.135 16.175 357.735 15.075 358.835C13.775 360.135 13.375 362.135 13.975 364.535C14.675 367.135 16.475 370.135 19.475 373.435C22.475 370.135 24.275 367.135 24.975 364.535C25.575 362.135 25.175 360.135 23.875 358.835C22.775 357.735 21.175 357.135 19.475 357.135Z" fill="white"/>
<path d="M26.575 443.235V447.635C26.575 448.035 26.275 448.435 25.775 448.535C25.675 448.535 22.475 449.035 20.375 447.435C20.075 447.135 19.775 446.935 19.575 446.535C19.375 446.735 19.275 446.935 19.075 447.135C17.075 449.035 13.475 448.635 13.275 448.635C12.775 448.535 12.475 448.235 12.475 447.735V443.335C12.475 439.535 15.475 436.535 19.175 436.235C19.075 436.035 18.975 435.735 18.775 435.535C17.775 433.035 18.175 411.835 18.275 407.635C18.275 407.135 18.675 406.735 19.175 406.735C19.675 406.735 20.075 407.135 20.075 407.635C19.875 417.235 19.675 433.135 20.375 434.835C20.775 435.935 21.775 436.635 22.875 437.335C24.575 438.435 26.575 439.935 26.575 443.235ZM24.775 446.735V443.235C24.775 440.935 23.375 439.935 21.875 438.835C21.375 438.435 20.875 438.035 20.375 437.635C20.175 437.835 19.975 438.035 19.675 438.035C16.675 438.035 14.375 440.435 14.375 443.335V446.835C15.475 446.835 17.075 446.635 17.975 445.835C18.475 445.335 18.775 444.635 18.775 443.735C18.675 443.235 19.175 442.835 19.675 442.835C20.175 442.835 20.575 443.235 20.575 443.635C20.675 444.735 20.975 445.435 21.675 446.035C22.475 446.635 23.875 446.735 24.775 446.735Z" fill="white"/>
<path d="M19.475 54.3352C21.575 54.3352 23.675 55.0352 25.175 56.5352C26.975 58.3352 27.575 60.9352 26.775 63.9352C26.375 65.4352 25.675 66.9352 24.675 68.6352C26.275 67.6352 27.875 66.9352 29.375 66.5352C32.375 65.7352 34.975 66.3352 36.775 68.1352C39.675 71.0352 39.675 76.5352 36.775 79.4352C34.975 81.2352 32.375 81.8352 29.375 81.0352C27.875 80.6352 26.375 79.9352 24.675 78.9352C25.675 80.5352 26.375 82.1352 26.775 83.6352C27.575 86.6352 26.975 89.2352 25.175 91.0352C22.275 93.9352 16.775 93.9352 13.875 91.0352C12.075 89.2352 11.475 86.6352 12.275 83.6352C12.675 82.1352 13.375 80.6352 14.375 78.9352C12.775 79.9352 11.175 80.6352 9.67501 81.0352C6.67501 81.8352 4.07501 81.2352 2.27501 79.4352C-0.624994 76.5352 -0.624994 71.0352 2.27501 68.1352C4.07501 66.3352 6.67501 65.7352 9.67501 66.5352C11.175 66.9352 12.675 67.6352 14.375 68.6352C13.375 67.0352 12.675 65.4352 12.275 63.9352C11.475 60.9352 12.075 58.3352 13.875 56.5352C15.275 55.0352 17.375 54.3352 19.475 54.3352ZM19.475 72.4352C22.475 69.1352 24.275 66.1352 24.975 63.5352C25.575 61.1352 25.175 59.1352 23.875 57.8352C21.675 55.6352 17.275 55.6352 15.075 57.8352C13.775 59.1352 13.375 61.1352 13.975 63.5352C14.675 66.1352 16.575 69.1352 19.475 72.4352ZM18.175 73.7352C14.875 70.7352 11.875 68.9352 9.27501 68.2352C6.87501 67.6352 4.87501 68.0352 3.57501 69.3352C1.37501 71.5352 1.37501 75.9352 3.57501 78.1352C4.87501 79.4352 6.87501 79.8352 9.27501 79.2352C11.875 78.5352 14.875 76.7352 18.175 73.7352ZM31.875 79.5352C33.375 79.5352 34.575 79.0352 35.475 78.1352C37.675 75.9352 37.675 71.5352 35.475 69.3352C34.175 68.0352 32.175 67.6352 29.775 68.2352C27.175 68.9352 24.175 70.7352 20.875 73.7352C24.175 76.7352 27.175 78.5352 29.775 79.2352C30.475 79.4352 31.175 79.5352 31.875 79.5352ZM19.475 91.4352C21.075 91.4352 22.775 90.8352 23.875 89.7352C25.175 88.4352 25.575 86.4352 24.975 84.0352C24.275 81.4352 22.475 78.4352 19.475 75.1352C16.475 78.4352 14.675 81.4352 13.975 84.0352C13.375 86.4352 13.775 88.4352 15.075 89.7352C16.175 90.8352 17.875 91.4352 19.475 91.4352Z" fill="white"/>
<path d="M12.475 5.33512V1.03512C12.475 0.635117 12.775 0.235117 13.275 0.135117C13.375 0.135117 16.575 -0.364883 18.675 1.23512C18.975 1.53512 19.275 1.73512 19.475 2.13512C19.675 1.93512 19.775 1.73512 19.975 1.53512C21.975 -0.364883 25.575 0.0351166 25.775 0.0351166C26.275 0.135117 26.575 0.435117 26.575 0.935117V5.33512C26.575 9.13512 23.575 12.1351 19.875 12.4351C19.975 12.6351 20.075 12.9351 20.275 13.1351C21.275 15.6351 20.875 36.8351 20.775 41.0351C20.775 41.5351 20.375 41.9351 19.875 41.9351C19.375 41.9351 18.975 41.5351 18.975 41.0351C19.175 31.4351 19.375 15.5351 18.675 13.8351C18.275 12.7351 17.275 12.0351 16.175 11.3351C14.475 10.1351 12.475 8.63512 12.475 5.33512ZM14.275 1.83512V5.33512C14.275 7.63512 15.675 8.63512 17.175 9.73512C17.675 10.1351 18.175 10.5351 18.675 10.9351C18.875 10.7351 19.075 10.5351 19.375 10.5351C22.375 10.5351 24.675 8.13512 24.675 5.23512V1.83512C23.575 1.83512 21.975 2.03512 21.075 2.83512C20.675 3.43512 20.375 4.03512 20.375 5.03512C20.475 5.53512 19.975 5.93512 19.475 5.93512C18.975 5.93512 18.575 5.53512 18.575 5.13512C18.475 4.03512 18.175 3.33512 17.475 2.73512C16.475 1.93512 15.075 1.83512 14.275 1.83512Z" fill="white"/>
<path d="M19.475 231.935C18.175 231.835 16.975 231.235 15.475 230.035C13.375 228.235 11.775 226.035 11.075 223.735C10.375 221.535 10.975 219.135 12.475 217.835C13.475 216.935 15.075 216.435 16.475 216.735C17.575 216.935 18.675 217.835 19.475 218.435C20.175 217.835 21.375 216.935 22.475 216.735C23.875 216.535 25.475 216.935 26.475 217.835C27.975 219.235 28.475 221.635 27.875 223.735C27.175 225.935 25.675 228.135 23.475 230.035C22.075 231.235 20.775 231.835 19.475 231.935C19.575 231.935 19.575 231.935 19.475 231.935ZM15.775 218.435C15.075 218.435 14.275 218.735 13.775 219.135C12.675 220.235 12.475 221.935 12.875 223.235C13.475 225.135 14.875 227.035 16.675 228.635C17.775 229.535 18.675 230.035 19.475 230.135C20.275 230.035 21.175 229.535 22.275 228.635C24.175 227.035 25.475 225.135 26.075 223.235C26.475 221.935 26.375 220.235 25.175 219.135C24.575 218.635 23.575 218.335 22.675 218.435C21.875 218.535 20.675 219.535 20.075 220.135C19.775 220.435 19.175 220.435 18.775 220.135C18.175 219.535 16.875 218.535 16.175 218.435C16.075 218.435 15.875 218.435 15.775 218.435Z" fill="white"/>
<path d="M19.475 223.935H19.375C18.875 223.835 18.375 223.635 18.075 223.335C17.475 222.735 17.275 221.935 17.375 221.135C17.575 220.235 18.275 219.535 18.775 219.035L18.875 218.935C19.075 218.735 19.275 218.635 19.475 218.635C19.675 218.635 19.975 218.735 20.075 218.935L20.175 219.035C20.675 219.535 21.375 220.235 21.575 221.135C21.775 221.935 21.475 222.735 20.875 223.335C20.475 223.635 20.075 223.935 19.575 223.935C19.575 223.935 19.575 223.935 19.475 223.935ZM19.475 220.835C19.275 221.035 19.175 221.235 19.075 221.535C19.075 221.735 19.075 221.935 19.275 222.035C19.375 222.135 19.375 222.135 19.475 222.135C19.575 222.135 19.575 222.035 19.675 222.035C19.775 221.935 19.875 221.735 19.875 221.535C19.775 221.235 19.675 221.035 19.475 220.835Z" fill="white"/>
<path d="M20.375 221.335C20.075 221.335 19.775 221.235 19.575 220.935C19.575 220.835 19.475 220.835 19.475 220.735C19.475 220.835 19.375 220.835 19.375 220.935C19.075 221.335 18.575 221.435 18.175 221.235C17.775 220.935 17.675 220.435 17.875 220.035C18.175 219.535 18.475 219.135 18.975 218.835C19.275 218.535 19.775 218.535 20.175 218.835C20.575 219.235 20.975 219.635 21.275 220.035C21.575 220.435 21.375 221.035 20.975 221.235C20.675 221.335 20.575 221.335 20.375 221.335Z" fill="white"/>
<path d="M18.575 121.135C18.575 116.135 22.675 112.035 27.675 112.035C28.175 112.035 28.575 112.435 28.575 112.935C28.575 113.435 28.175 113.835 27.675 113.835C23.675 113.835 20.375 117.135 20.375 121.135C20.375 121.635 19.975 122.035 19.475 122.035C18.975 122.035 18.575 121.635 18.575 121.135Z" fill="white"/>
<path d="M10.375 113.035C10.375 112.535 10.775 112.135 11.275 112.135C16.275 112.135 20.375 116.235 20.375 121.235C20.375 121.735 19.975 122.135 19.475 122.135C18.975 122.135 18.575 121.735 18.575 121.235C18.575 117.235 15.275 113.935 11.275 113.935C10.775 113.935 10.375 113.435 10.375 113.035Z" fill="white"/>
<path d="M18.575 198.235V119.735C18.575 119.235 18.975 118.835 19.475 118.835C19.975 118.835 20.375 119.235 20.375 119.735V198.235C20.375 198.735 19.975 199.135 19.475 199.135C18.975 199.135 18.575 198.735 18.575 198.235Z" fill="white"/>
<path d="M18.575 111.635V104.835C18.575 104.335 18.975 103.935 19.475 103.935C19.975 103.935 20.375 104.335 20.375 104.835V111.635C20.375 112.135 19.975 112.535 19.475 112.535C18.975 112.535 18.575 112.135 18.575 111.635Z" fill="white"/>
<path d="M20.375 326.435C20.375 331.435 16.275 335.535 11.275 335.535C10.775 335.535 10.375 335.135 10.375 334.635C10.375 334.135 10.775 333.735 11.275 333.735C15.275 333.735 18.575 330.435 18.575 326.435C18.575 325.935 18.975 325.535 19.475 325.535C19.975 325.535 20.375 325.935 20.375 326.435Z" fill="white"/>
<path d="M28.575 334.535C28.575 335.035 28.175 335.435 27.675 335.435C22.675 335.435 18.575 331.335 18.575 326.335C18.575 325.835 18.975 325.435 19.475 325.435C19.975 325.435 20.375 325.835 20.375 326.335C20.375 330.335 23.675 333.635 27.675 333.635C28.175 333.635 28.575 334.035 28.575 334.535Z" fill="white"/>
<path d="M20.375 249.335V327.835C20.375 328.335 19.975 328.735 19.475 328.735C18.975 328.735 18.575 328.335 18.575 327.835V249.335C18.575 248.835 18.975 248.435 19.475 248.435C19.975 248.435 20.375 248.835 20.375 249.335Z" fill="white"/>
<path d="M20.375 335.935V342.735C20.375 343.235 19.975 343.635 19.475 343.635C18.975 343.635 18.575 343.235 18.575 342.735V335.935C18.575 335.435 18.975 335.035 19.475 335.035C19.975 335.035 20.375 335.435 20.375 335.935Z" fill="white"/>
</svg>
