<svg width="450" height="34" viewBox="0 0 450 34" fill="none" xmlns="http://www.w3.org/2000/svg">
<path d="M54.901 17.0761C54.901 15.2688 55.6025 13.4615 57.1058 12.1705C58.9098 10.6214 61.5154 10.105 64.522 10.7935C66.0253 11.1378 67.5286 11.7402 69.2323 12.6008C68.2301 11.2238 67.5286 9.84684 67.1277 8.55591C66.326 5.97403 66.9273 3.73641 68.7312 2.18729C71.6376 -0.308524 77.1496 -0.308524 80.056 2.18729C81.8599 3.73641 82.4612 5.97403 81.6595 8.55591C81.2586 9.84684 80.5571 11.1378 79.5549 12.6008C81.1584 11.7402 82.7619 11.1378 84.2652 10.7935C87.2718 10.105 89.8775 10.6214 91.6814 12.1705C94.5878 14.6663 94.5878 19.3998 91.6814 21.8956C89.8775 23.4447 87.2718 23.9611 84.2652 23.2726C82.7619 22.9283 81.2586 22.3259 79.5549 21.4653C80.5571 22.8423 81.2586 24.2193 81.6595 25.5102C82.4612 28.0921 81.8599 30.3297 80.056 31.8788C77.1496 34.3746 71.6376 34.3746 68.7312 31.8788C66.9273 30.3297 66.326 28.0921 67.1277 25.5102C67.5286 24.2193 68.2301 22.9283 69.2323 21.4653C67.6288 22.3259 66.0253 22.9283 64.522 23.2726C61.5154 23.9611 58.9098 23.4447 57.1058 21.8956C55.6025 20.6907 54.901 18.8834 54.901 17.0761ZM73.0406 17.0761C69.7334 14.4942 66.7268 12.9451 64.1211 12.3427C61.7159 11.8263 59.7115 12.1705 58.4086 13.2893C56.2038 15.1827 56.2038 18.9695 58.4086 20.8628C59.7115 21.9816 61.7159 22.3259 64.1211 21.8095C66.7268 21.2071 69.7334 19.658 73.0406 17.0761ZM74.3435 18.281C71.3369 21.121 69.533 23.7029 68.8315 25.9405C68.2301 28.006 68.631 29.7273 69.9338 30.8461C72.1387 32.7395 76.5483 32.7395 78.7531 30.8461C80.056 29.7273 80.4569 28.006 79.8556 25.9405C79.154 23.7029 77.3501 21.121 74.3435 18.281ZM80.1562 6.49041C80.1562 5.19947 79.6551 4.16672 78.7531 3.39216C76.5483 1.49879 72.1387 1.49879 69.9338 3.39216C68.631 4.51097 68.2301 6.23222 68.8315 8.29772C69.533 10.5353 71.3369 13.1172 74.3435 15.9573C77.3501 13.1172 79.154 10.5353 79.8556 8.29772C80.056 7.60922 80.1562 7.00678 80.1562 6.49041ZM92.0823 17.0761C92.0823 15.6991 91.481 14.236 90.3786 13.2893C89.0757 12.1705 87.0713 11.8263 84.6661 12.3427C82.0604 12.9451 79.0538 14.4942 75.7466 17.0761C79.0538 19.658 82.0604 21.2071 84.6661 21.8095C87.0713 22.3259 89.0757 21.9816 90.3786 20.8628C91.481 19.9161 92.0823 18.5392 92.0823 17.0761Z" fill="#C77111"/>
<path d="M5.79325 23.1856L1.38362 23.1856C0.982738 23.1856 0.58187 22.9274 0.481651 22.4971C0.481651 22.411 -0.0194401 19.657 1.58407 17.8497C1.88472 17.5915 2.08516 17.3333 2.48603 17.1612C2.28559 16.9891 2.08515 16.903 1.88471 16.7309C-0.0194513 15.0097 0.381424 11.9114 0.381424 11.7393C0.481644 11.309 0.782295 11.0508 1.28339 11.0508L5.69306 11.0508C9.50138 11.0508 12.5079 13.6327 12.8086 16.817C13.009 16.7309 13.3097 16.6448 13.5101 16.4727C16.0156 15.6121 37.2621 15.9563 41.4713 16.0424C41.9724 16.0424 42.3732 16.3867 42.3732 16.817C42.3732 17.2473 41.9724 17.5915 41.4713 17.5915C31.8502 17.4194 15.9154 17.2473 14.2117 17.8497C13.1093 18.194 12.4077 19.0546 11.7062 20.0013C10.6038 21.4643 9.10048 23.1856 5.79325 23.1856ZM2.28558 21.6365L5.79325 21.6365C8.09829 21.6365 9.10051 20.4316 10.2029 19.1406C10.6038 18.7103 11.0047 18.28 11.4055 17.8497C11.2051 17.6776 11.0047 17.5055 11.0047 17.2473C11.0047 14.6654 8.59941 12.686 5.69306 12.686L2.18539 12.686C2.18539 13.6327 2.38583 15.0097 3.18758 15.7842C3.68867 16.2145 4.39018 16.4727 5.29216 16.4727C5.79325 16.3867 6.19415 16.817 6.19415 17.2473C6.19415 17.6776 5.79326 18.0218 5.39238 18.0218C4.28997 18.1079 3.58844 18.3661 2.98713 18.9685C2.38581 19.657 2.28558 20.8619 2.28558 21.6365Z" fill="#C77111"/>
<path d="M395.546 17.076C395.546 18.8833 394.844 20.6906 393.341 21.9815C391.537 23.5306 388.931 24.047 385.925 23.3585C384.421 23.0143 382.918 22.4118 381.214 21.5512C382.217 22.9282 382.918 24.3052 383.319 25.5961C384.121 28.178 383.519 30.4156 381.715 31.9648C378.809 34.4606 373.297 34.4606 370.391 31.9648C368.587 30.4156 367.985 28.178 368.787 25.5961C369.188 24.3052 369.89 23.0143 370.892 21.5512C369.288 22.4118 367.685 23.0143 366.182 23.3585C363.175 24.047 360.569 23.5306 358.765 21.9815C355.859 19.4857 355.859 14.7523 358.765 12.2565C360.569 10.7073 363.175 10.191 366.182 10.8795C367.685 11.2237 369.188 11.8262 370.892 12.6868C369.89 11.3098 369.188 9.93278 368.787 8.64184C367.985 6.05997 368.587 3.82235 370.391 2.27322C373.297 -0.222586 378.809 -0.222586 381.715 2.27322C383.519 3.82235 384.121 6.05997 383.319 8.64185C382.918 9.93278 382.217 11.2237 381.214 12.6868C382.818 11.8262 384.421 11.2237 385.925 10.8795C388.931 10.191 391.537 10.7073 393.341 12.2565C394.844 13.4613 395.546 15.2687 395.546 17.076ZM377.406 17.076C380.713 19.6578 383.72 21.207 386.326 21.8094C388.731 22.3258 390.735 21.9815 392.038 20.8627C394.243 18.9693 394.243 15.1826 392.038 13.2892C390.735 12.1704 388.731 11.8262 386.326 12.3425C383.72 12.945 380.713 14.5802 377.406 17.076ZM376.103 15.9572C379.11 13.1171 380.914 10.5352 381.615 8.29759C382.217 6.2321 381.816 4.51085 380.513 3.39204C378.308 1.49866 373.898 1.49866 371.694 3.39204C370.391 4.51085 369.99 6.2321 370.591 8.29759C371.293 10.5352 373.097 13.1171 376.103 15.9572ZM370.29 27.7477C370.29 29.0386 370.792 30.0714 371.694 30.846C373.898 32.7393 378.308 32.7393 380.513 30.846C381.816 29.7271 382.217 28.0059 381.615 25.9404C380.914 23.7028 379.11 21.1209 376.103 18.2808C373.097 21.1209 371.293 23.7028 370.591 25.9404C370.391 26.5428 370.29 27.1453 370.29 27.7477ZM358.364 17.076C358.364 18.453 358.966 19.916 360.068 20.8627C361.371 21.9815 363.375 22.3258 365.781 21.8094C368.386 21.207 371.393 19.6578 374.7 17.076C371.393 14.4941 368.386 12.945 365.781 12.3425C363.375 11.8262 361.371 12.1704 360.068 13.2892C358.966 14.2359 358.364 15.699 358.364 17.076Z" fill="#C77111"/>
<path d="M444.653 11.0508L448.963 11.0508C449.363 11.0508 449.764 11.309 449.865 11.7393C449.865 11.8253 450.366 14.5793 448.762 16.3867C448.462 16.6448 448.261 16.903 447.86 17.0752C448.061 17.2473 448.261 17.3333 448.462 17.5055C450.366 19.2267 449.965 22.325 449.965 22.4971C449.865 22.9274 449.564 23.1856 449.063 23.1856L444.653 23.1856C440.845 23.1856 437.838 20.6037 437.538 17.4194C437.337 17.5055 437.037 17.5915 436.836 17.7637C434.331 18.6243 413.084 18.28 408.875 18.194C408.374 18.194 407.973 17.8497 407.973 17.4194C407.973 16.9891 408.374 16.6448 408.875 16.6448C418.496 16.817 434.431 16.9891 436.135 16.3867C437.237 16.0424 437.939 15.1818 438.64 14.2351C439.843 12.772 441.346 11.0508 444.653 11.0508ZM448.161 12.5999L444.653 12.5999C442.348 12.5999 441.346 13.8048 440.244 15.0957C439.843 15.526 439.442 15.9563 439.041 16.3867C439.241 16.5588 439.442 16.7309 439.442 16.9891C439.442 19.571 441.847 21.5504 444.753 21.5504L448.161 21.5504C448.161 20.6037 447.96 19.2267 447.159 18.4521C446.557 18.1079 445.956 17.8497 444.954 17.8497C444.453 17.9358 444.052 17.5055 444.052 17.0752C444.052 16.6448 444.453 16.3006 444.854 16.3006C445.956 16.2145 446.658 15.9563 447.259 15.3539C448.061 14.4933 448.161 13.2884 448.161 12.5999Z" fill="#C77111"/>
<path d="M217.556 17.0764C217.656 15.9576 218.257 14.9248 219.46 13.6339C221.264 11.8266 223.469 10.4496 225.774 9.84715C227.979 9.24471 230.384 9.76108 231.687 11.052C232.589 11.9126 233.09 13.2896 232.789 14.4945C232.589 15.4412 231.687 16.3879 231.085 17.0764C231.687 17.6788 232.589 18.7116 232.789 19.6583C232.99 20.8631 232.589 22.2401 231.687 23.1008C230.284 24.3917 227.878 24.822 225.774 24.3056C223.569 23.7032 221.364 22.4123 219.46 20.5189C218.257 19.314 217.656 18.1952 217.556 17.0764C217.556 17.1625 217.556 17.1625 217.556 17.0764ZM231.085 13.8921C231.085 13.2896 230.785 12.6011 230.384 12.1708C229.281 11.2241 227.578 11.052 226.275 11.3963C224.371 11.9126 222.467 13.1175 220.863 14.6666C219.961 15.6133 219.46 16.3879 219.36 17.0764C219.46 17.7649 219.961 18.5395 220.863 19.4861C222.467 21.1213 224.371 22.2401 226.275 22.7565C227.578 23.1008 229.281 23.0147 230.384 21.9819C230.885 21.4656 231.186 20.6049 231.085 19.8304C230.985 19.1419 229.983 18.1091 229.382 17.5928C229.081 17.3346 229.081 16.8182 229.382 16.474C229.983 15.9576 230.985 14.8388 231.085 14.2363C231.085 14.1503 231.085 13.9781 231.085 13.8921Z" fill="#C77111"/>
<path d="M225.573 17.0755L225.573 16.9895C225.673 16.5591 225.874 16.1288 226.174 15.8706C226.776 15.3543 227.577 15.1821 228.379 15.2682C229.281 15.4403 229.983 16.0428 230.484 16.4731L230.584 16.5591C230.784 16.7313 230.884 16.9034 230.884 17.0755C230.884 17.2476 230.784 17.5058 230.584 17.5919L230.484 17.678C229.983 18.1083 229.281 18.7107 228.379 18.8828C227.577 19.055 226.776 18.7968 226.174 18.2804C225.874 17.9361 225.573 17.5919 225.573 17.1616C225.573 17.1616 225.573 17.1616 225.573 17.0755ZM228.68 17.0755C228.479 16.9034 228.279 16.8173 227.978 16.7313C227.778 16.7313 227.577 16.7313 227.477 16.9034C227.377 16.9895 227.377 16.9895 227.377 17.0755C227.377 17.1616 227.477 17.1616 227.477 17.2476C227.577 17.3337 227.778 17.4198 227.978 17.4198C228.279 17.3337 228.479 17.2476 228.68 17.0755Z" fill="#C77111"/>
<path d="M228.18 17.8499C228.18 17.5917 228.28 17.3336 228.581 17.1614C228.681 17.1614 228.681 17.0754 228.782 17.0754C228.681 17.0754 228.681 16.9893 228.581 16.9893C228.18 16.7311 228.08 16.3008 228.28 15.9566C228.581 15.6123 229.082 15.5262 229.483 15.6984C229.984 15.9566 230.385 16.2147 230.686 16.6451C230.986 16.9032 230.986 17.3336 230.686 17.6778C230.285 18.0221 229.884 18.3663 229.483 18.6245C229.082 18.8827 228.481 18.7106 228.28 18.3663C228.18 18.1081 228.18 18.0221 228.18 17.8499Z" fill="#C77111"/>
<path d="M328.6 16.2998C333.611 16.2998 337.72 19.8284 337.72 24.1315C337.72 24.5618 337.319 24.906 336.818 24.906C336.317 24.906 335.916 24.5618 335.916 24.1315C335.916 20.689 332.609 17.8489 328.6 17.8489C328.099 17.8489 327.698 17.5047 327.698 17.0744C327.698 16.6441 328.099 16.2998 328.6 16.2998Z" fill="#C77111"/>
<path d="M336.718 9.24316C337.219 9.24316 337.62 9.58741 337.62 10.0177C337.62 14.3208 333.511 17.8494 328.5 17.8494C327.999 17.8494 327.598 17.5052 327.598 17.0748C327.598 16.6445 327.999 16.3003 328.5 16.3003C332.509 16.3003 335.816 13.4602 335.816 10.0177C335.816 9.58741 336.317 9.24316 336.718 9.24316Z" fill="#C77111"/>
<path d="M251.33 16.3008L330.002 16.3008C330.503 16.3008 330.904 16.645 330.904 17.0753C330.904 17.5057 330.503 17.8499 330.002 17.8499L251.33 17.8499C250.829 17.8499 250.428 17.5057 250.428 17.0753C250.428 16.645 250.829 16.3008 251.33 16.3008Z" fill="#C77111"/>
<path d="M338.12 16.3008L344.935 16.3008C345.436 16.3008 345.837 16.645 345.837 17.0753C345.837 17.5057 345.436 17.8499 344.935 17.8499L338.12 17.8499C337.619 17.8499 337.218 17.5057 337.218 17.0753C337.218 16.645 337.619 16.3008 338.12 16.3008Z" fill="#C77111"/>
<path d="M122.848 17.8494C117.837 17.8494 113.728 14.3208 113.728 10.0177C113.728 9.58741 114.129 9.24316 114.63 9.24316C115.132 9.24316 115.532 9.58741 115.532 10.0177C115.532 13.4602 118.84 16.3003 122.848 16.3003C123.35 16.3003 123.75 16.6445 123.75 17.0748C123.75 17.5052 123.35 17.8494 122.848 17.8494Z" fill="#C77111"/>
<path d="M114.73 24.906C114.229 24.906 113.828 24.5618 113.828 24.1315C113.828 19.8284 117.937 16.2998 122.948 16.2998C123.449 16.2998 123.85 16.6441 123.85 17.0744C123.85 17.5047 123.449 17.8489 122.948 17.8489C118.939 17.8489 115.632 20.689 115.632 24.1315C115.632 24.5618 115.231 24.906 114.73 24.906Z" fill="#C77111"/>
<path d="M200.118 17.8499L121.446 17.8499C120.945 17.8499 120.544 17.5057 120.544 17.0753C120.544 16.645 120.945 16.3008 121.446 16.3008L200.118 16.3008C200.619 16.3008 201.02 16.645 201.02 17.0753C201.02 17.5057 200.619 17.8499 200.118 17.8499Z" fill="#C77111"/>
<path d="M113.327 17.8499L106.512 17.8499C106.011 17.8499 105.61 17.5057 105.61 17.0753C105.61 16.645 106.011 16.3008 106.512 16.3008L113.327 16.3008C113.828 16.3008 114.229 16.645 114.229 17.0753C114.229 17.5057 113.828 17.8499 113.327 17.8499Z" fill="#C77111"/>
</svg>
