<svg width="45" height="32" viewBox="0 0 45 32" fill="none" xmlns="http://www.w3.org/2000/svg">
<path d="M4.405 31.4497C1.9464 31.4497 0 29.4008 0 26.891V4.55868C0 2.04885 1.99762 0 4.405 0H39.9011C42.3597 0 44.3061 2.04885 44.3061 4.55868V26.891C44.3061 29.4008 42.3085 31.4497 39.9011 31.4497H4.405ZM4.66111 29.0423H39.6962L28.274 17.5688L25.0983 20.5908C24.33 21.3079 23.3055 21.7177 22.2299 21.7177C21.1543 21.7177 20.1298 21.3079 19.3615 20.5908L16.1858 17.5688L4.66111 29.0423ZM29.9643 15.9297L41.8988 27.9154V4.60989L29.9643 15.9297ZM2.40739 27.9154L14.3931 15.9809L2.40739 4.55868V27.9154ZM20.9494 18.8493C21.3079 19.2079 21.7177 19.4128 22.1787 19.4128C22.6397 19.4128 22.9982 19.2079 23.408 18.8493L40.7207 2.40739H3.63669L20.9494 18.8493Z" fill="#67983F"/>
</svg>
