<svg width="267" height="160" viewBox="0 0 267 160" fill="none" xmlns="http://www.w3.org/2000/svg">
<path d="M33.4 143.1C31.4 143.1 29.6 142.8 28 142.2C26.4 141.6 25 140.8 23.8 139.9C22.6 139 21.5 137.9 20.7 136.8C19.8 135.7 19.1 134.5 18.5 133.4C17.9 132.3 17.4 131.2 17 130.2C16.7 129.4 16.5 128.7 16.3 128.1C16 128.1 15.7 128.2 15.5 128.2C15.1 128.2 14.7 128.2 14.4 128.2C14 128.2 13.6 128.2 13.3 128.2H13.2C13.2 129 13.3 129.8 13.3 130.7C13.4 131.8 13.4 132.8 13.5 133.8C13.6 134.8 13.7 135.7 13.8 136.5C13.9 137.3 14.1 137.8 14.2 138.2C14.5 138.8 14.8 139.3 15.3 139.6C15.8 140 16.2 140.3 16.7 140.5C17.2 140.7 17.6 140.9 17.9 141C18.1 141.1 18.7 141.3 18.7 141.9C18.7 142.1 18.6 142.7 17.5 142.7C17 142.7 16.4 142.6 15.8 142.5L13.9 142C13.2 141.8 12.5 141.7 11.7 141.5C11 141.4 10.2 141.3 9.4 141.3C8.6 141.3 7.8 141.3 7 141.4C6.1 141.5 5.3 141.5 4.6 141.5C3.6 141.5 2.8 141.4 2.4 141.3C1.6 141 1.4 140.5 1.4 140.2C1.4 139.9 1.5 139.6 1.7 139.4C1.9 139.2 2.3 139.1 2.7 139.1C3.1 139.1 3.4 139.1 3.8 139.1C4.1 139.1 4.4 139.1 4.7 139.1C5.4 139.1 6 139.1 6.5 139C6.9 138.9 7.3 138.7 7.5 138.5C7.8 138.2 8 137.9 8.1 137.4C8.2 136.9 8.3 136.1 8.3 135.2C8.3 134.8 8.3 134.2 8.3 133.3C8.3 132.4 8.2 131.4 8.1 130.2C8 129 7.9 127.8 7.8 126.4C7.7 125.1 7.6 123.8 7.4 122.5C7.3 121.2 7.1 120 6.9 118.9C6.7 117.8 6.5 116.9 6.2 116.2C6 115.5 5.7 115 5.3 114.7C5 114.3 4.6 114.1 4.2 113.9C3.8 113.7 3.3 113.6 2.8 113.5C2.3 113.4 1.7 113.4 1.1 113.3C0.8 113.3 0.5 113.2 0.3 113.1C0.3 112.8 0 112.6 0 112C0 111.7 0.1 111.4 0.3 111.2C0.5 111 0.9 110.9 1.4 110.8C1.8 110.8 2.2 110.8 2.6 110.8H4.9C5.3 110.8 5.7 110.8 6.2 110.8C6.7 110.8 7.2 110.7 7.7 110.7C8.3 110.6 8.9 110.6 9.7 110.5C10.7 110.4 11.5 110.2 12.3 110C13.1 109.8 13.9 109.6 14.6 109.4C15.4 109.2 16.1 109 16.8 108.8C17.5 108.6 18.3 108.6 19.2 108.6C21 108.6 22.6 108.9 23.8 109.4C25 109.9 26 110.6 26.7 111.5C27.4 112.3 27.9 113.3 28.2 114.3C28.5 115.3 28.6 116.3 28.6 117.2C28.6 118.1 28.5 119.1 28.3 120C28.1 120.9 27.7 121.8 27.3 122.7C26.8 123.5 26.3 124.3 25.6 124.9C24.9 125.6 24.1 126.1 23.3 126.5L22.8 126.7C23.5 128.6 24.3 130.3 25.2 131.8C26.2 133.3 27.2 134.6 28.4 135.6C29.5 136.6 30.7 137.3 31.9 137.7C33.1 138.2 34.3 138.4 35.5 138.4C36.2 138.4 36.8 138.3 37.3 138.1C37.8 137.9 38.3 137.7 38.7 137.3C39.1 137 39.4 136.6 39.6 136.1C39.8 135.6 39.9 135.1 39.9 134.4C39.9 133.9 39.9 133.5 39.8 133.1C39.7 132.8 39.7 132.5 39.6 132.3C39.5 132.1 39.5 131.9 39.4 131.8C39.3 131.6 39.3 131.4 39.3 131.2C39.3 131 39.3 130.9 39.4 130.8C39.5 130.6 39.7 130.5 40 130.5C40.4 130.5 40.7 130.8 40.9 131C41.1 131.3 41.3 131.6 41.5 132C41.7 132.5 41.9 133.1 42.1 133.7C42.2 134 42.2 134.3 42.2 134.5C42.2 135.8 42.1 137 41.7 138.1C41.4 139.1 40.8 140 40.1 140.8C39.4 141.6 38.5 142.2 37.4 142.6C36.1 142.9 34.9 143.1 33.4 143.1ZM17.6 110.8C17 110.8 16.5 110.9 16.1 111.1C15.7 111.3 15.3 111.6 14.9 111.9C14.6 112.3 14.3 112.7 14.1 113.2C13.9 113.7 13.7 114.3 13.6 115C13.4 116.4 13.2 117.8 13.2 119.2C13.1 120.6 13.1 122 13.1 123.3V126C14.5 125.9 15.8 125.7 16.9 125.3C18.1 124.9 19 124.2 19.8 123.5C20.5 122.7 21.1 121.8 21.5 120.8C21.9 119.7 22 118.6 22 117.3C22 115.1 21.6 113.5 20.8 112.4C20.1 111.3 19 110.8 17.6 110.8Z" fill="white"/>
<path d="M52 137.8C50.5 137.8 49.0999 137.6 47.7999 137.1C46.3999 136.6 45.2 135.9 44.2 135C43.2 134.1 42.3 132.9 41.7 131.5C41.1 130.1 40.7 128.6 40.7 126.9C40.7 125.2 41 123.6 41.5 122.2C42 120.8 42.7999 119.6 43.7999 118.6C44.7999 117.6 46 116.8 47.4 116.3C48.8 115.8 50.3999 115.5 52.0999 115.5C53.5999 115.5 55.1 115.8 56.4 116.3C57.7 116.8 58.7999 117.6 59.7999 118.5C60.7999 119.5 61.5 120.6 62 122C62.5 123.4 62.7999 124.9 62.7999 126.6C62.7999 128.6 62.5 130.3 61.7999 131.7C61.0999 133.1 60.3 134.3 59.2 135.2C58.2 136.1 57 136.8 55.7 137.2C54.5 137.5 53.2 137.8 52 137.8ZM51.7999 117.2C50.9999 117.2 50.4 117.4 49.9 117.7C49.4 118.1 48.9 118.6 48.5 119.2C48.1 119.9 47.8 120.7 47.7 121.6C47.5 122.5 47.4 123.5 47.4 124.5C47.4 125.4 47.4999 126.2 47.5999 127.1C47.6999 128 47.8999 128.8 48.0999 129.6C48.2999 130.4 48.6 131.2 48.9 131.8C49.2 132.5 49.6 133.1 50 133.6C50.4 134.1 50.9 134.5 51.4 134.7C51.9 135 52.4999 135.1 53.0999 135.1C53.8999 135.1 54.5999 134.9 55.0999 134.6C55.5999 134.2 56.1 133.8 56.4 133.2C56.7 132.6 56.9999 131.9 57.0999 131.1C57.1999 130.3 57.2999 129.5 57.2999 128.7C57.2999 126.7 57.2 124.9 56.9 123.4C56.6 121.9 56.2 120.7 55.7 119.8C55.2 118.9 54.6 118.2 54 117.7C53.2 117.4 52.4999 117.2 51.7999 117.2Z" fill="white"/>
<path d="M65.4 140.5C64.9 140.5 64.6 140.4 64.4 140.3C64.2 140.1 64 139.8 64 139.5C64 139.1 64.1 138.7 64.4 138.3C66.1 135.6 67.5 133.2 68.8 131.1C70.1 128.9 71.2 127 72.2 125.3C73.2 123.6 74 122 74.7 120.7C75.2 119.7 75.7 118.8 76.1 118C75.9 118 75.7 118 75.6 117.9C75.2 117.8 74.7 117.8 74.3 117.8C73.8 117.8 73.4 117.7 72.9 117.7C72.4 117.7 72 117.7 71.6 117.7C71.2 117.7 70.9 117.7 70.6 117.7C70.3 117.7 70 117.8 69.8 117.8C69.3 117.9 69 118 68.7 118.3C68.4 118.6 68.1 118.9 67.8 119.4C67.5 119.9 67.3 120.4 67.1 121.1C66.9 121.8 66.7 122.5 66.5 123.3L66.3 124.4C66.2 124.8 66.1 125.1 66.1 125.4C66 125.7 65.9 126 65.8 126.2C65.6 126.6 65.2 126.7 65 126.7C64.8 126.7 64.6 126.6 64.3 126.3C64.2 126.1 64.1 125.8 64.1 125.4C64.1 125.3 64.1 125 64.1 124.6C64.1 124.2 64.2 123.8 64.2 123.3C64.2 122.8 64.3 122.3 64.3 121.9C64.3 121.4 64.4 121 64.4 120.7L64.6 116.2C64.6 115.6 64.8 115.1 65 114.9C65.3 114.6 65.6 114.5 66.1 114.5C66.5 114.5 66.9 114.6 67.4 114.7C67.9 114.8 68.5 114.9 69.1 115.1C69.7 115.2 70.5 115.4 71.3 115.5C72.1 115.6 72.9 115.7 73.9 115.8C74.8 115.9 75.6 115.9 76.3 116C77 116 77.6 116 78.1 116C78.6 116 79.1 116 79.5 116C80 116 80.4 116 80.9 116C81.4 116 81.8 116.1 82 116.3C82.2 116.5 82.4 116.8 82.4 117.2C82.4 117.4 82.4 117.7 82.3 117.9L82.1 118.3C82 118.4 80.6 121.4 80.6 121.4C80.2 122.3 79.7 123.2 79.2 124.3C78.7 125.4 78.2 126.5 77.6 127.7C77.1 128.8 76.5 130 76 131.1C75.5 132.2 75 133.2 74.6 134.1C74.2 135 73.8 135.8 73.6 136.4C73.2 137.2 73.1 137.4 73.1 137.4V137.5C73.2 137.5 73.4 137.5 73.5 137.5C73.9 137.5 74.5 137.5 75.1 137.4C75.8 137.3 76.4 137.3 77.1 137.2C77.8 137.1 78.4 137 79.1 136.9C79.7 136.8 80.2 136.7 80.5 136.6C80.9 136.4 81.3 136.2 81.6 136C81.9 135.7 82.1 135.4 82.3 135.1C82.5 134.8 82.6 134.4 82.7 134.1C82.8 133.7 82.9 133.4 83 133C83 132.8 83.1 132.6 83.1 132.3C83.1 132 83.2 131.8 83.3 131.5C83.4 131.2 83.5 131 83.6 130.8C83.8 130.4 84.2 130.3 84.3 130.3C84.6 130.3 85 130.4 85.1 131.3C85.1 131.7 85.1 132 85.1 132.5C85.1 132.7 85.1 133 85.1 133.5V134.9C85.1 135.4 85.1 135.9 85.1 136.3C85.1 136.8 85.1 137.1 85 137.4C85 138.1 84.8 138.6 84.7 139C84.5 139.5 84 139.8 83.4 139.8C82.6 139.8 81.7 139.8 80.7 139.7C79.7 139.7 78.7 139.6 77.6 139.6C77 139.6 76.4 139.6 75.8 139.6C75.2 139.6 74.5 139.6 73.8 139.7C72.6 139.8 71.6 139.9 70.7 140C69.8 140.1 69.1 140.2 68.4 140.3C67.8 140.4 67.2 140.5 66.7 140.6C66.3 140.4 65.8 140.5 65.4 140.5Z" fill="white"/>
<path d="M96.7 159.8C96.3 159.8 95.7 159.7 94.9 159.6L92.6 159.2C91.8 159.1 90.9 158.9 90.1 158.8C89.3 158.7 88.6 158.6 88 158.6C87.4 158.6 86.8 158.6 86.4 158.7C85.9 158.8 85.4 158.8 84.9 158.8C84.2 158.8 83.7 158.8 83.4 158.6C82.8 158.4 82.7 158.1 82.7 157.8C82.7 157.4 82.9 157.2 83.3 157C83.5 156.9 83.7 156.9 84 156.9C84.2 156.9 84.5 156.8 84.8 156.7C85.1 156.6 85.4 156.5 85.7 156.3C86 156.1 86.2 155.8 86.4 155.5C86.6 155.2 86.7 154.8 86.9 154.4C87 154 87.1 153.5 87.1 153C87.1 152.5 87.2 152 87.2 151.6C87.2 151.2 87.3 150.7 87.3 149.9C87.3 149.1 87.4 148.2 87.4 147.2C87.4 146.2 87.5 145.1 87.5 143.9C87.5 142.7 87.6 141.5 87.6 140.2L87.7 136.4C87.7 135.1 87.8 133.9 87.8 132.8C87.8 131.7 87.8 130.6 87.8 129.6C87.8 128.6 87.8 127.8 87.8 127.2C87.8 126.3 87.8 125.5 87.7 124.9C87.7 124.3 87.6 123.9 87.5 123.5C87.4 123.2 87.3 123 87.2 123C87.1 122.9 87 122.9 86.8 122.9C86.6 122.9 86.5 122.9 86.3 123C86.1 123.1 85.8 123.2 85.6 123.3C85.4 123.4 85.1 123.5 84.9 123.6C84.6 123.7 84.4 123.8 84.2 123.8C83.7 123.8 83.3 123.4 83.3 122.9C83.3 122.7 83.4 122.5 83.5 122.3C83.6 122.1 83.9 121.9 84.4 121.7C84.6 121.6 84.9 121.4 85.3 121.3C85.6 121.2 86 121 86.3 120.8C86.7 120.6 87 120.4 87.4 120.2C87.8 120 88.2 119.7 88.5 119.3C89 118.8 89.4 118.4 89.8 118C90.1 117.6 90.4 117.3 90.6 117C90.8 116.7 91 116.5 91.1 116.4C91.3 116.1 91.6 116 91.8 116C92.2 116 92.5 116.2 92.5 116.6C92.5 116.8 92.6 117 92.6 117.3C92.6 117.5 92.6 117.9 92.6 118.3C92.6 118.8 92.6 119.3 92.6 119.9C92.6 120.2 92.6 120.5 92.6 120.7C92.6 120.9 92.6 121.1 92.6 121.3C92.6 121.4 92.6 121.5 92.6 121.7C92.9 121.4 93.1 121.2 93.4 120.9C93.7 120.7 94 120.4 94.3 120.2C94.7 120 95 119.8 95.5 119.6C95.9 119.4 96.4 119.3 96.8 119.2C97.3 119.1 97.8 119 98.3 119C99.4 119 100.5 119.2 101.4 119.6C102.3 120 103.1 120.6 103.7 121.4C104.3 122.1 104.8 123 105.1 124C105.4 125 105.6 126.1 105.6 127.3C105.6 129.1 105.4 130.7 104.9 132.1C104.4 133.5 103.8 134.8 102.9 135.8C102.1 136.8 101.1 137.6 100 138.2C98.9 138.8 97.7 139 96.4 139C95.9 139 95.5 139 95.1 138.9C94.7 138.8 94.3 138.7 94 138.6C93.6 138.5 93.3 138.3 93 138.2C93 138.5 93 138.7 93 139C93 139.5 93 139.9 93 140.4V143.4C93 144.4 93 145.5 93 146.7C93 147.9 93.1 149.1 93.2 150.3C93.3 151.4 93.4 152.5 93.5 153.5C93.6 154.4 93.8 155.1 94.1 155.5C94.3 155.9 94.6 156.2 94.9 156.4C95.2 156.6 95.6 156.8 95.9 157C96.4 157.2 96.8 157.4 97.2 157.7C97.7 158 98 158.4 98 158.8C98 159.1 97.9 159.4 97.7 159.6C97.4 159.7 97.1 159.8 96.7 159.8ZM96.4 122.2C95.9 122.2 95.4 122.3 95 122.6C94.6 122.9 94.2 123.2 94 123.6C93.7 124 93.5 124.6 93.3 125.1C93.1 125.7 93 126.3 92.8 127C92.7 127.6 92.6 128.3 92.6 128.9C92.6 129.5 92.5 130.1 92.5 130.6C92.5 131.4 92.6 132.1 92.7 132.9C92.8 133.6 93 134.3 93.3 134.9C93.6 135.5 93.9 135.9 94.3 136.3C94.7 136.6 95.2 136.8 95.9 136.8C96.4 136.8 96.9 136.7 97.4 136.4C97.9 136.1 98.3 135.7 98.7 135.1C99.1 134.5 99.4 133.6 99.7 132.5C99.9 131.4 100.1 130.1 100.1 128.5C100.1 127.6 100 126.7 99.9 125.9C99.8 125.1 99.5 124.5 99.2 123.9C98.9 123.4 98.5 123 98.1 122.7C97.6 122.3 97.1 122.2 96.4 122.2Z" fill="white"/>
<path d="M106.2 140.6C105.8 140.6 105.4 140.5 105.2 140.2C105 140 104.9 139.7 104.9 139.5C104.9 139.1 105.1 138.8 105.5 138.6C105.7 138.5 106 138.4 106.3 138.3C106.6 138.2 106.9 138.1 107.2 138.1C107.5 138 107.9 137.9 108.4 137.7C108.8 137.5 109 137.3 109.2 137.1C109.3 136.9 109.4 136.5 109.4 135.7C109.4 135.5 109.4 135.1 109.4 134.6C109.4 134.1 109.3 133.4 109.3 132.7C109.2 132 109.2 131.2 109.1 130.3C109 129.4 109 128.5 108.9 127.6C108.8 126.7 108.7 125.8 108.7 124.9C108.6 124 108.5 123.1 108.5 122.3C108.4 121.5 108.4 120.8 108.3 120.2C108.2 119.6 108.2 119.1 108.1 118.7C108 118.3 108 118 107.9 117.8C107.8 117.6 107.7 117.5 107.6 117.4C107.5 117.3 107.4 117.3 107.3 117.3C107.1 117.3 106.9 117.3 106.7 117.3H105.8C105.7 117.3 105.6 117.3 105.5 117.3C105.3 117.3 105.2 117.3 105 117.2C104.8 117.1 104.7 117 104.5 116.9C104.3 116.7 104.3 116.5 104.3 116.3C104.3 116 104.5 115.7 104.8 115.5C105 115.4 105.2 115.3 105.5 115.3C106.2 115.2 106.9 115.1 107.5 114.9C108 114.8 108.6 114.5 109.1 114.1C109.4 113.9 109.8 113.5 110.1 113.1C110.5 112.7 110.8 112.2 111 111.7C111.3 111.1 111.6 110.9 112 110.9C112.4 110.9 112.7 111.1 112.8 111.5C112.9 111.7 112.9 111.9 112.9 112.1C112.9 112.3 112.9 112.5 112.9 112.9C112.9 113.2 112.9 113.5 112.9 113.9C112.9 114.3 112.9 114.8 113 115.2C113 115.6 113.1 116 113.2 116.4C113.3 116.2 113.4 115.9 113.5 115.6C113.7 114.9 114 114.2 114.4 113.4C114.8 112.6 115.2 111.9 115.8 111.2C116.4 110.5 117.1 109.9 117.9 109.5C118.7 109 119.7 108.8 120.8 108.8C121.8 108.8 122.7 109 123.4 109.3C124.1 109.7 124.7 110.1 125.1 110.7C125.5 111.2 125.8 111.8 126 112.5C126.2 113.1 126.3 113.7 126.3 114.3C126.3 115.1 126.2 115.9 126 116.5C125.8 117.1 125.5 117.7 125.1 118.1C124.7 118.5 124.2 118.9 123.7 119.1C123.2 119.3 122.7 119.4 122.1 119.4C121.1 119.4 120.3 119.2 119.7 118.7C119 118.2 118.7 117.5 118.7 116.5C118.7 116 118.8 115.6 118.9 115.3C119 114.9 119.2 114.6 119.4 114.4C119.6 114.2 119.9 113.9 120.2 113.8C120.5 113.6 120.8 113.5 121.2 113.4C121.9 113.2 122.1 113 122.3 112.9C122.5 112.7 122.5 112.5 122.5 112.2C122.5 112 122.5 111.9 122.4 111.7C122.3 111.6 122.3 111.4 122.1 111.3C122 111.2 121.8 111.1 121.6 111C121.4 110.9 121.1 110.9 120.7 110.9C120 110.9 119.3 111.1 118.7 111.4C118.1 111.8 117.6 112.2 117.2 112.9C116.8 113.5 116.4 114.2 116.1 115.1C115.8 115.9 115.5 116.8 115.4 117.7C115.2 118.6 115.1 119.6 115 120.5C114.9 121.4 114.9 122.3 114.9 123.1C114.9 123.8 114.9 124.7 115 125.5C115.1 126.4 115.1 127.3 115.2 128.1C115.3 129 115.4 129.9 115.5 130.7C115.6 131.5 115.7 132.3 115.8 133C115.9 133.7 116 134.3 116.1 134.8C116.2 135.3 116.3 135.6 116.3 135.8C116.4 136.3 116.6 136.7 116.9 136.9C117.2 137.1 117.5 137.2 118 137.2C118.2 137.2 118.5 137.2 118.8 137.2C119.1 137.2 119.3 137.2 119.4 137.2C120.2 137.2 120.5 137.7 120.5 138.2C120.5 138.7 120.3 139 119.8 139.1C119.6 139.2 119.2 139.2 118.7 139.3C118.2 139.3 117.7 139.3 117.1 139.3C116.5 139.3 115.9 139.3 115.2 139.4C114.5 139.4 113.8 139.5 113.2 139.6C112.5 139.7 111.8 139.8 111.1 140C110.4 140.2 109.8 140.3 109.2 140.4C108.6 140.5 108.1 140.7 107.7 140.8C106.9 140.6 106.5 140.6 106.2 140.6Z" fill="white"/>
<path d="M146.1 145.6C145.3 145.6 144.6 145.5 144.1 145.3C143.5 145.1 143 144.8 142.6 144.4C142.2 144.1 141.9 143.7 141.6 143.3C141.3 142.9 141.1 142.6 141 142.2C140.6 141.4 140.2 140.4 140 139.4C139.9 138.9 139.8 138.3 139.7 137.8C139.6 137.9 139.5 138.1 139.4 138.2C138.9 138.8 138.3 139.3 137.6 139.9C136.9 140.4 136.1 140.9 135.2 141.3C134.3 141.7 133.2 141.9 132.1 141.9C130.9 141.9 129.8 141.7 128.9 141.4C128 141 127.2 140.5 126.7 139.9C126.1 139.3 125.7 138.5 125.4 137.7C125.1 136.9 125 136 125 135.1C125 134.1 125.2 133.1 125.5 132.1C125.9 131.1 126.5 130.2 127.3 129.4C128.1 128.6 129.2 127.9 130.5 127.4C131.8 126.9 133.4 126.7 135.3 126.7C135.7 126.7 136.2 126.7 136.6 126.8C137 126.8 137.4 126.9 137.7 126.9C138 126.9 138.2 127 138.4 127C138.3 125.9 138.2 124.9 138.1 123.8L137.9 122.1C137.8 121.5 137.8 120.9 137.7 120.3C137.6 119.7 137.5 119.1 137.5 118.5C137.4 117.9 137.3 117.4 137.2 116.9C137 115.9 136.6 115 135.9 114.4C135.3 113.8 134.6 113.5 133.6 113.5C133.1 113.5 132.7 113.6 132.3 113.8C131.9 114 131.6 114.2 131.3 114.5C131 114.8 130.8 115.1 130.7 115.4C130.6 115.8 130.5 116.1 130.5 116.4C130.5 116.7 130.6 117 130.7 117.2C130.9 117.4 131.1 117.7 131.4 117.9C131.7 118.1 132 118.3 132.3 118.5C132.7 118.7 133 119 133.4 119.2C133.7 119.5 134 119.9 134.3 120.3C134.6 120.7 134.7 121.3 134.7 121.9C134.7 122.8 134.4 123.5 133.8 124C133.2 124.5 132.5 124.8 131.6 124.8C131 124.8 130.4 124.7 129.8 124.4C129.2 124.2 128.8 123.8 128.4 123.3C128 122.8 127.7 122.3 127.5 121.6C127.3 120.9 127.2 120.1 127.2 119.2C127.2 118.2 127.3 117.3 127.6 116.3C127.9 115.4 128.3 114.5 128.9 113.8C129.5 113.1 130.3 112.4 131.2 112C132.1 111.6 133.2 111.3 134.5 111.3C135.5 111.3 136.5 111.4 137.3 111.7C138.1 112 138.8 112.4 139.5 112.8C140.1 113.3 140.7 113.8 141.1 114.4C141.5 115 141.9 115.6 142.2 116.3C142.5 117 142.7 117.6 142.9 118.3C143.1 119 143.3 119.6 143.4 120.2C143.5 120.5 143.6 121 143.7 121.6C143.8 122.2 143.9 122.9 144.1 123.7C144.2 124.5 144.4 125.3 144.5 126.2C144.6 127.1 144.8 128 144.9 128.9L145.3 131.6C145.4 132.5 145.9 135.3 146 135.8C146.1 136.3 146.1 136.6 146.2 136.8C146.3 137.3 146.4 137.7 146.5 138.2C146.6 138.6 146.7 139.1 146.9 139.4C147 139.7 147.2 140 147.4 140.2C147.6 140.4 147.7 140.4 148 140.4C148.1 140.4 148.2 140.4 148.3 140.3C148.4 140.2 148.5 140.2 148.5 140.1C148.6 140 148.6 139.8 148.7 139.6C148.7 139.4 148.8 139.2 148.8 139C148.8 138.7 148.8 138.4 148.8 138.2C148.8 137.9 148.8 137.6 148.8 137.4C148.8 137.1 148.8 136.9 148.9 136.6C149 136.2 149.3 136 149.7 136C149.9 136 150.3 136.1 150.5 136.6C150.6 136.8 150.7 137.1 150.8 137.4C150.9 137.7 150.9 137.9 150.9 138.2C150.9 138.5 150.9 138.7 150.9 138.8C150.9 139.3 150.9 140 150.8 140.6C150.7 141.3 150.5 142 150.2 142.6C149.9 143.3 149.4 143.9 148.7 144.4C147.9 145.3 147 145.6 146.1 145.6ZM135.2 128.8C134.5 128.8 133.8 128.9 133.2 129.1C132.6 129.3 132.1 129.6 131.6 130C131.2 130.4 130.8 130.9 130.6 131.5C130.3 132.1 130.2 132.8 130.2 133.6C130.2 134.3 130.3 134.9 130.5 135.3C130.7 135.7 131 136.1 131.4 136.3C131.8 136.6 132.1 136.7 132.6 136.8C133.1 136.9 133.5 137 133.9 137C134.6 137 135.3 136.9 135.9 136.7C136.6 136.5 137.1 136.2 137.6 135.9C138.1 135.6 138.5 135.3 138.8 135C139 134.8 139.1 134.7 139.2 134.6C139.1 133.7 139 132.9 138.9 132.1C138.9 131.7 138.8 131.4 138.8 131.1C138.8 130.8 138.7 130.4 138.7 130.1C138.7 129.8 138.6 129.6 138.6 129.3V129.2C138.5 129.2 138.5 129.2 138.4 129.1C138.1 129 137.9 129 137.5 128.9C137.2 128.8 136.8 128.8 136.4 128.7C136 128.8 135.6 128.8 135.2 128.8ZM135.2 110.8C134.7 110.8 134.5 110.5 134.5 110.4C134.4 110.3 134.4 110.1 134.4 109.8C134.4 109.5 134.5 109.1 134.6 108.6C134.8 108.1 135 107.5 135.2 106.8C135.5 106.1 135.8 105.4 136.1 104.7C136.5 104 136.8 103.3 137.2 102.7C137.6 102.1 138 101.6 138.5 101.2C139 100.7 139.5 100.5 140.1 100.5C140.7 100.5 141 100.7 141.2 101C141.4 101.3 141.5 101.6 141.5 102C141.5 102.3 141.4 102.7 141.2 103.2C141 103.6 140.8 104.1 140.5 104.6C140.2 105.1 139.9 105.6 139.6 106.1C139.3 106.6 138.9 107.1 138.6 107.6C138 108.5 137.4 109.2 136.8 109.8C136.1 110.5 135.6 110.8 135.2 110.8Z" fill="white"/>
<path d="M160.6 142.2C160.2 142.2 159.9 141.9 159.5 141.2C159.2 140.7 158.8 140 158.3 139.1C157.9 138.3 157.4 137.3 156.8 136.2C156.3 135.1 155.7 133.9 155.2 132.7C154.6 131.5 154.1 130.3 153.5 129.1C152.9 127.9 152.4 126.7 151.9 125.6C151.4 124.5 151 123.6 150.6 122.7L149.7 120.7C149.5 120.4 149.4 120.1 149.2 119.9C149 119.7 148.9 119.5 148.7 119.4C148.6 119.3 148.4 119.2 148.3 119.2C148.1 119.2 148 119.1 147.8 119.1C147.6 119.1 147.4 119.1 147.2 119.2C147 119.3 146.7 119.3 146.5 119.4C146.3 119.5 146 119.6 145.8 119.7C145.5 119.8 145.3 119.8 145.1 119.8C144.9 119.8 144.7 119.7 144.5 119.6C144.2 119.4 144.1 119.2 144.1 118.8C144.1 118.6 144.2 118.2 144.7 117.9C144.9 117.8 145.3 117.6 145.8 117.5L147.4 116.9C148 116.7 148.6 116.5 149.3 116.2C149.9 116 150.6 115.7 151.1 115.4C151.8 115.1 152.4 114.8 153 114.5C153.5 114.2 154 113.9 154.4 113.7C154.8 113.5 155.2 113.3 155.5 113.1C155.9 112.9 156.2 112.9 156.5 112.9C156.9 112.9 157.1 113.1 157.3 113.2C157.5 113.4 157.5 113.6 157.5 113.8C157.5 114.1 157.4 114.4 157.1 114.6C157 114.7 156.8 114.8 156.6 115C156.3 115.2 156.1 115.4 155.9 115.6C155.8 115.8 155.7 116 155.7 116.3C155.7 116.6 155.8 117.2 155.9 117.8C156.1 118.5 156.3 119.2 156.5 120.1C156.8 121 157.1 121.9 157.4 122.8C157.7 123.8 158.1 124.7 158.4 125.7C158.8 126.7 159.1 127.6 159.5 128.5C159.9 129.4 160.2 130.2 160.5 130.9C160.8 131.6 161 132.2 161.3 132.7C161.5 133.2 161.6 133.5 161.7 133.6C161.8 133.7 161.8 133.8 161.8 133.9C161.8 133.8 161.9 133.5 162.1 133C162.3 132.5 162.4 131.9 162.6 131.1C162.8 130.4 163 129.5 163.3 128.7C163.5 127.8 163.8 127 163.9 126.2C164.1 125.4 164.2 124.6 164.4 123.9C164.5 123.2 164.6 122.7 164.6 122.3C164.6 122.1 164.6 121.9 164.5 121.9C164.5 121.8 164.4 121.8 164.4 121.7C164.3 121.6 164.3 121.6 164.2 121.6C164.1 121.6 164 121.5 163.9 121.5C163.7 121.5 163.5 121.4 163.3 121.4C163 121.4 162.7 121.3 162.4 121.3C162.1 121.2 161.8 121.2 161.6 121.1C161.2 120.9 161 120.6 161 120.2C161 119.8 161.3 119.4 161.7 119.3C161.9 119.2 162.2 119.2 162.5 119.2C162.8 119.2 163.2 119.2 163.8 119.3C164.4 119.4 165.2 119.4 166.2 119.4C166.5 119.4 166.8 119.4 167.2 119.3C167.6 119.2 168 119.2 168.4 119.1C168.8 119 169.2 119 169.6 118.9C170 118.8 170.3 118.8 170.6 118.8C170.9 118.8 171.1 118.8 171.3 118.9C171.7 119 171.9 119.3 171.9 119.7C171.9 119.9 171.8 120.2 171.5 120.4C171.3 120.5 171.1 120.6 170.9 120.7C170.7 120.8 170.4 120.8 170.1 120.9C169.8 120.9 169.6 121 169.3 121.1C169 121.2 168.8 121.2 168.6 121.3C168.4 121.4 168.3 121.5 168.2 121.6C168.1 121.7 168 121.9 167.9 122C167.8 122.2 167.7 122.4 167.6 122.6C167.4 123.1 167.2 123.6 167 124.2C166.8 124.8 166.6 125.4 166.4 126.1C166.2 126.8 165.2 130.1 165.2 130.1L164.7 131.8C164.6 132.1 164.5 132.5 164.3 133.1C164.1 133.7 163.9 134.3 163.7 135C163.5 135.7 163.2 136.5 163 137.2C162.7 138 162.5 138.7 162.2 139.3C161.9 139.9 161.7 140.5 161.5 140.9C161.3 141.8 161 142.2 160.6 142.2Z" fill="white"/>
<path d="M169.7 146.6C169.3 146.6 169 146.5 168.7 146.3C168.5 146.1 168.4 145.8 168.4 145.5C168.4 145.3 168.5 144.5 169.7 144.5C170.3 144.5 170.8 144.5 171.2 144.4C171.6 144.3 172 144.2 172.3 144.1C172.9 143.9 173.3 143.6 173.6 143.2C173.9 142.8 174.2 142.3 174.3 141.7C174.5 141.1 174.5 140.5 174.6 139.9C174.6 139.2 174.6 138.6 174.6 138C174.6 137.1 174.6 136.2 174.6 135.2C174.6 134.2 174.6 133.1 174.6 132C174.6 130.9 174.6 129.8 174.5 128.6C174.5 127.5 174.5 126.4 174.4 125.3C174.4 124.3 174.3 120.6 174.3 120C174.3 119.1 174.3 118.2 174.3 117.2C174.3 116.2 174.3 115.2 174.2 114.1L174.1 111C174.1 110 174 109 174 108.1C174 107.2 173.9 106.4 173.9 105.7C173.9 105 173.8 104.4 173.7 104C173.6 103.5 173.5 103 173.3 102.7C173.1 102.4 172.9 102.2 172.7 102C172.5 101.8 172.2 101.7 171.9 101.7C171.6 101.6 171.3 101.6 170.9 101.6C170.4 101.6 169.9 101.6 169.3 101.7C168.7 101.8 168.1 101.8 167.6 101.8C167.1 101.8 166.8 101.7 166.5 101.6C166.2 101.4 166 101.1 166 100.7C166 100.4 166.1 100.1 166.4 99.9C166.6 99.8 166.8 99.6 167.1 99.6C167.9 99.4 168.6 99.3 169.2 99.1C169.8 98.9 170.4 98.8 171 98.6C171.5 98.4 172 98.2 172.5 98C173 97.8 173.4 97.5 173.9 97.2C174.4 96.9 174.8 96.6 175.1 96.2C175.5 95.8 175.8 95.5 176 95.3C176.3 95 176.5 94.8 176.7 94.6C177 94.3 177.3 94.2 177.6 94.2C178 94.2 178.4 94.4 178.5 94.8C178.6 95.1 178.6 95.3 178.6 95.6C178.6 95.8 178.6 96.2 178.6 96.6C178.6 97 178.6 97.4 178.6 97.9V99.3C178.6 99.8 178.6 100.2 178.6 100.5C178.6 101.1 178.6 101.9 178.6 102.9C178.6 103.9 178.7 105.1 178.7 106.3C178.7 107.6 178.8 108.9 178.8 110.4C178.8 111.8 178.9 113.3 178.9 114.7C179 116.1 179 117.5 179.1 118.9C179.2 120.3 179.2 121.5 179.3 122.6C179.4 123.7 179.4 124.6 179.4 125.4C179.4 125.5 179.4 125.7 179.4 125.8C179.7 125.5 180 125.2 180.2 125C180.6 124.6 181.1 124.1 181.5 123.7C181.9 123.3 182.3 122.9 182.6 122.4C183 122 183.4 121.5 183.8 120.9C184 120.6 184.2 120.3 184.3 120.1C184.4 119.9 184.4 119.7 184.4 119.5C184.4 119.2 184.3 118.9 183.7 118.6L181.9 117.7C181.3 117.4 181.2 116.9 181.2 116.6C181.2 116.3 181.3 116.1 181.4 115.9C181.5 115.7 181.8 115.5 182.2 115.5C182.5 115.5 182.7 115.6 183 115.7C183.2 115.8 183.5 116 183.8 116.1C184.1 116.3 184.6 116.4 185.1 116.6C185.6 116.8 186.2 116.9 186.9 117.1C187.2 117.2 187.5 117.2 187.9 117.2C188.3 117.2 188.7 117.3 189.1 117.3C189.5 117.3 189.9 117.4 190.3 117.4C190.7 117.4 191 117.4 191.3 117.4C191.7 117.4 192 117.5 192.2 117.6C192.6 117.8 192.8 118.1 192.8 118.5C192.8 118.8 192.6 119.1 192.3 119.3C192 119.5 191.7 119.6 191.2 119.6C190.8 119.6 190.5 119.6 190.1 119.6C189.7 119.6 189.4 119.7 189.1 119.8C188.8 119.9 188.4 120 188.1 120.2C187.8 120.4 187.4 120.6 187 120.9C186.8 121.1 186.5 121.3 186.2 121.6C185.9 121.9 185.6 122.2 185.3 122.5C185 122.8 184.7 123.2 184.4 123.5C184.2 123.8 184 124 183.8 124.3C183.9 124.6 183.9 125.1 184.1 125.6C184.3 126.3 184.5 127.1 184.8 128C185.1 128.9 185.5 129.8 185.9 130.7C186.3 131.6 186.8 132.5 187.4 133.2C187.9 133.9 188.5 134.6 189.2 135C189.8 135.5 190.5 135.7 191.2 135.7C191.8 135.7 192.3 135.5 192.7 135C193.1 134.5 193.3 133.9 193.3 133.1C193.3 132.7 193.3 132.4 193.2 132.1C193.1 131.8 193 131.4 192.8 131.1C192.7 130.8 192.5 130.5 192.3 130.2C192.1 129.9 191.9 129.7 191.7 129.5C191.5 129.3 191.4 129.2 191.2 129.1C191 128.9 190.7 128.7 190.7 128.4C190.7 128.1 190.9 127.7 191.4 127.7C191.7 127.7 192 127.8 192.4 128C192.7 128.2 193.1 128.4 193.4 128.7C193.7 128.9 194 129.3 194.3 129.6C194.6 130 194.9 130.4 195.1 130.8C195.3 131.3 195.5 131.8 195.7 132.3C195.8 132.9 195.9 133.5 195.9 134.2C195.9 134.7 195.8 135.3 195.7 135.9C195.5 136.6 195.3 137.2 194.9 137.9C194.5 138.5 193.9 139.1 193.2 139.5C192.5 139.9 191.5 140.2 190.4 140.2C188.9 140.2 187.6 139.8 186.4 139.2C185.3 138.5 184.3 137.6 183.4 136.4C182.6 135.3 181.8 133.9 181.2 132.4C180.7 131.2 180.3 129.9 179.9 128.5L179.7 128.7C179.7 129.4 179.8 130.1 179.8 130.8C179.9 131.6 179.9 132.5 180 133.3C180.1 134.2 180.1 135 180.2 135.8C180.3 136.6 180.3 137.4 180.4 138.1C180.5 138.8 180.5 139.4 180.6 139.9C180.7 140.5 180.7 140.8 180.7 140.9C180.8 141.4 180.9 141.8 181 142.1C181.1 142.4 181.3 142.7 181.5 142.9C181.7 143.1 181.9 143.3 182.2 143.4C182.5 143.5 182.9 143.6 183.4 143.6C183.6 143.6 183.9 143.6 184.2 143.6C184.5 143.6 184.8 143.6 185.1 143.6C185.3 143.6 185.5 143.6 185.7 143.6C185.9 143.6 186.2 143.7 186.3 143.8C186.5 143.9 186.7 144 186.9 144.2C187 144.3 187.2 144.6 187.2 145C187.2 145.3 187.1 145.7 186.6 146.1C186.2 146.4 185.6 146.5 184.7 146.5C184.3 146.5 183.8 146.5 183.4 146.4C183 146.4 182.5 146.3 182 146.3C181.5 146.2 180.9 146.2 180.2 146.2C179.5 146.2 178.7 146.1 177.7 146.1C177 146.1 176.2 146.1 175.4 146.2C174.6 146.3 173.9 146.3 173.2 146.4C172.5 146.5 171.8 146.6 171.2 146.6C170.6 146.5 170.1 146.6 169.7 146.6Z" fill="white"/>
<path d="M207.6 137.8C206.1 137.8 204.7 137.6 203.4 137.1C202 136.6 200.8 135.9 199.8 135C198.8 134.1 197.9 132.9 197.3 131.5C196.7 130.1 196.3 128.6 196.3 126.9C196.3 125.2 196.6 123.6 197.1 122.2C197.6 120.8 198.4 119.6 199.4 118.6C200.4 117.6 201.6 116.8 203 116.3C204.4 115.8 206 115.5 207.7 115.5C209.2 115.5 210.7 115.8 212 116.3C213.3 116.8 214.4 117.6 215.4 118.5C216.4 119.5 217.1 120.6 217.6 122C218.1 123.4 218.4 124.9 218.4 126.6C218.4 128.6 218.1 130.3 217.4 131.7C216.7 133.1 215.9 134.3 214.8 135.2C213.8 136.1 212.6 136.8 211.3 137.2C210.1 137.5 208.8 137.8 207.6 137.8ZM207.4 117.2C206.6 117.2 206 117.4 205.5 117.7C205 118.1 204.5 118.6 204.1 119.2C203.7 119.9 203.4 120.7 203.3 121.6C203.1 122.5 203 123.5 203 124.5C203 125.4 203.1 126.2 203.2 127.1C203.3 128 203.5 128.8 203.7 129.6C203.9 130.4 204.2 131.2 204.5 131.8C204.8 132.5 205.2 133.1 205.6 133.6C206 134.1 206.5 134.5 207 134.7C207.5 135 208.1 135.1 208.7 135.1C209.5 135.1 210.2 134.9 210.7 134.6C211.2 134.2 211.7 133.8 212 133.2C212.3 132.6 212.6 131.9 212.7 131.1C212.8 130.3 212.9 129.5 212.9 128.7C212.9 126.7 212.8 124.9 212.5 123.4C212.2 121.9 211.8 120.7 211.3 119.8C210.8 118.9 210.2 118.2 209.6 117.7C208.8 117.4 208.1 117.2 207.4 117.2Z" fill="white"/>
<path d="M234.1 142.2C233.7 142.2 233.4 141.9 233 141.2C232.7 140.7 232.3 140 231.8 139.1C231.4 138.3 230.9 137.3 230.3 136.2C229.8 135.1 229.2 133.9 228.7 132.7C228.1 131.5 227.6 130.3 227 129.1C226.4 127.9 225.9 126.7 225.4 125.6C224.9 124.5 224.5 123.6 224.1 122.7L223.2 120.7C223 120.4 222.9 120.1 222.7 119.9C222.5 119.7 222.4 119.5 222.2 119.4C222.1 119.3 221.9 119.2 221.8 119.2C221.6 119.2 221.5 119.1 221.3 119.1C221.1 119.1 220.9 119.1 220.7 119.2C220.5 119.3 220.2 119.3 220 119.4C219.8 119.5 219.5 119.6 219.3 119.7C219 119.8 218.8 119.8 218.6 119.8C218.4 119.8 218.2 119.7 218 119.6C217.7 119.4 217.6 119.2 217.6 118.8C217.6 118.6 217.7 118.2 218.2 117.9C218.4 117.8 218.8 117.6 219.3 117.5L220.9 116.9C221.5 116.7 222.1 116.5 222.8 116.2C223.4 116 224.1 115.7 224.6 115.4C225.3 115.1 225.9 114.8 226.5 114.5C227 114.2 227.5 113.9 227.9 113.7C228.3 113.5 228.7 113.3 229 113.1C229.4 112.9 229.7 112.9 230 112.9C230.4 112.9 230.6 113.1 230.8 113.2C231 113.4 231 113.6 231 113.8C231 114.1 230.9 114.4 230.6 114.6C230.5 114.7 230.3 114.8 230.1 115C229.8 115.2 229.6 115.4 229.4 115.6C229.3 115.8 229.2 116 229.2 116.3C229.2 116.6 229.3 117.2 229.4 117.8C229.6 118.5 229.8 119.2 230 120.1C230.3 121 230.6 121.9 230.9 122.8C231.2 123.8 231.6 124.7 231.9 125.7C232.3 126.7 232.6 127.6 233 128.5C233.4 129.4 233.7 130.2 234 130.9C234.3 131.6 234.5 132.2 234.8 132.7C235 133.2 235.1 133.5 235.2 133.6C235.3 133.7 235.3 133.8 235.3 133.9C235.3 133.8 235.4 133.5 235.6 133C235.8 132.5 235.9 131.9 236.1 131.1C236.3 130.4 236.5 129.5 236.8 128.7C237 127.8 237.3 127 237.4 126.2C237.6 125.4 237.7 124.6 237.9 123.9C238 123.2 238.1 122.7 238.1 122.3C238.1 122.1 238.1 121.9 238 121.9C238 121.8 237.9 121.8 237.9 121.7C237.8 121.6 237.8 121.6 237.7 121.6C237.6 121.6 237.5 121.5 237.4 121.5C237.2 121.5 237 121.4 236.8 121.4C236.5 121.4 236.2 121.3 235.9 121.3C235.6 121.2 235.3 121.2 235.1 121.1C234.7 120.9 234.5 120.6 234.5 120.2C234.5 119.8 234.8 119.4 235.2 119.3C235.4 119.2 235.7 119.2 236 119.2C236.3 119.2 236.7 119.2 237.3 119.3C237.9 119.4 238.7 119.4 239.7 119.4C240 119.4 240.3 119.4 240.7 119.3C241.1 119.2 241.5 119.2 241.9 119.1C242.3 119 242.7 119 243.1 118.9C243.5 118.8 243.8 118.8 244.1 118.8C244.4 118.8 244.6 118.8 244.8 118.9C245.2 119 245.4 119.3 245.4 119.7C245.4 119.9 245.3 120.2 245 120.4C244.8 120.5 244.6 120.6 244.4 120.7C244.2 120.8 243.9 120.8 243.6 120.9C243.3 120.9 243.1 121 242.8 121.1C242.5 121.2 242.3 121.2 242.1 121.3C241.9 121.4 241.8 121.5 241.7 121.6C241.6 121.7 241.5 121.9 241.4 122C241.3 122.2 241.2 122.4 241.1 122.6C240.9 123.1 240.7 123.6 240.5 124.2C240.3 124.8 240.1 125.4 239.9 126.1C239.7 126.8 238.7 130.1 238.7 130.1L238.2 131.8C238.1 132.1 238 132.5 237.8 133.1C237.6 133.7 237.4 134.3 237.2 135C237 135.7 236.7 136.5 236.5 137.2C236.2 138 236 138.7 235.7 139.3C235.4 139.9 235.2 140.5 235 140.9C234.9 141.8 234.6 142.2 234.1 142.2Z" fill="white"/>
<path d="M256.2 137.8C254.7 137.8 253.3 137.6 252 137.1C250.6 136.6 249.4 135.9 248.4 135C247.4 134.1 246.5 132.9 245.9 131.5C245.3 130.1 244.9 128.6 244.9 126.9C244.9 125.2 245.2 123.6 245.7 122.2C246.2 120.8 247 119.6 248 118.6C249 117.6 250.2 116.8 251.6 116.3C253 115.8 254.6 115.5 256.3 115.5C257.8 115.5 259.3 115.8 260.6 116.3C261.9 116.8 263 117.6 264 118.5C265 119.5 265.7 120.6 266.2 122C266.7 123.4 267 124.9 267 126.6C267 128.6 266.7 130.3 266 131.7C265.3 133.1 264.5 134.3 263.4 135.2C262.4 136.1 261.2 136.8 259.9 137.2C258.7 137.5 257.4 137.8 256.2 137.8ZM256 117.2C255.2 117.2 254.6 117.4 254.1 117.7C253.6 118.1 253.1 118.6 252.7 119.2C252.3 119.9 252 120.7 251.9 121.6C251.7 122.5 251.6 123.5 251.6 124.5C251.6 125.4 251.7 126.2 251.8 127.1C251.9 128 252.1 128.8 252.3 129.6C252.5 130.4 252.8 131.2 253.1 131.8C253.4 132.5 253.8 133.1 254.2 133.6C254.6 134.1 255.1 134.5 255.6 134.7C256.1 135 256.7 135.1 257.3 135.1C258.1 135.1 258.8 134.9 259.3 134.6C259.8 134.2 260.3 133.8 260.6 133.2C260.9 132.6 261.2 131.9 261.3 131.1C261.4 130.3 261.5 129.5 261.5 128.7C261.5 126.7 261.4 124.9 261.1 123.4C260.8 121.9 260.4 120.7 259.9 119.8C259.4 118.9 258.8 118.2 258.2 117.7C257.4 117.4 256.8 117.2 256 117.2Z" fill="white"/>
<path d="M115.9 64.1C116.5 64 117 63.8 117.4 63.5C117.8 63.2 118.1 62.7 118.4 62C118.7 61.3 119 55.7 119 54.4C119 53.9 119.1 53 119.1 51.7C119.1 50.5 119.2 49 119.2 47.3C119.2 45.6 119.2 43.8 119.2 41.9C119.2 40 119.1 38.1 119.1 36.3C119 34.5 118.9 32.8 118.7 31.2C118.5 29.6 118.3 28.3 118 27.3C117.7 26.3 117.4 25.6 116.9 25C116.5 24.5 116 24 115.4 23.7C114.8 23.4 114.2 23.1 113.5 23C112.7 22.8 112 22.7 111.1 22.5C110.6 22.4 110.3 22.3 110 22.1C109.8 21.9 109.4 21.6 109.4 20.8C109.4 20.4 109.6 20 109.9 19.7C110.2 19.4 110.7 19.3 111.4 19.3C112 19.3 112.6 19.3 113 19.4L116.2 19.6C116.8 19.6 117.4 19.7 118 19.7C118.7 19.7 119.4 19.7 120.2 19.7C121 19.7 122 19.7 123 19.6C124.4 19.6 125.6 19.4 126.8 19.2C128 19 129.1 18.8 130.1 18.5C131.2 18.3 132.2 18.1 133.3 17.9C134.4 17.7 135.5 17.7 136.7 17.8C139.3 18 141.5 18.5 143.1 19.4C144.8 20.3 146.1 21.4 147 22.7C147.9 24 148.5 25.4 148.8 26.9C149.1 28.3 149.2 29.7 149.1 31.1C149 32.4 148.7 33.7 148.3 35C147.9 36.3 147.3 37.5 146.6 38.7C145.9 39.8 145 40.8 144 41.7C143 42.6 141.8 43.2 140.5 43.7L139.8 43.9C140.6 46.7 144.5 53.5 145.6 55.6C146.8 57.8 148.2 59.7 149.7 61.2C151.2 62.7 152.8 63.8 154.4 64.6C156.1 65.4 157.8 65.8 159.5 65.9C160.5 66 161.3 65.9 162.1 65.7C162.9 65.5 163.6 65.2 164.1 64.8C164.7 64.4 165.1 63.8 165.5 63.2C165.8 62.5 166.1 61.8 166.1 60.8C166.2 60.1 166.2 59.5 166.1 59C166.1 58.5 166 58.1 165.9 57.8C165.8 57.5 165.8 57.3 165.7 57.1C165.6 56.8 165.6 56.5 165.6 56.3C165.6 56.1 165.7 55.9 165.8 55.7C166 55.4 166.3 55.3 166.7 55.3C167.2 55.3 167.6 55.8 167.9 56.1C168.2 56.5 168.5 57 168.7 57.5C168.9 58.1 169.1 58.7 169.2 59.4C169.3 60.1 169.4 60.8 169.3 61.6C169.2 63.3 168.8 64.8 168.2 66.2C167.6 67.6 166.7 68.9 165.6 69.9C164.5 70.9 163.1 71.7 161.5 72.2C159.9 72.7 158.1 72.9 156.1 72.7C153.3 72.5 150.8 71.9 148.6 70.9C146.4 69.9 144.5 68.7 142.9 67.2C141.3 65.8 139.9 64.2 138.8 62.4C137.7 60.7 135.3 57.8 133.1 53C132.3 51.3 131.8 49.7 131.4 48.3C131.1 47.1 130.8 46.1 130.6 45.3C130.2 45.3 129.8 45.3 129.4 45.3C128.8 45.3 128.3 45.3 127.8 45.2C127.2 45.2 126.7 45.1 126.3 45.1C126.2 45.1 126.2 45.1 126.1 45.1C126.1 46.2 126 47.4 126 48.6C126 50.1 126 51.6 126 53C126 54.4 126 60.2 126.1 61.3C126.2 62.4 126.4 63.2 126.5 63.8C126.8 64.7 127.3 65.4 127.8 66L115.9 64.1ZM134.6 20.9C133.8 20.8 133 20.9 132.4 21.2C131.8 21.4 131.2 21.8 130.7 22.3C130.2 22.8 129.7 23.4 129.4 24.1C129 24.8 128.7 25.7 128.5 26.6C128 28.6 127.7 30.5 127.5 32.5C127.3 34.5 127.1 36.4 127 38.2L126.8 42C128.9 42.1 130.7 41.9 132.2 41.4C133.9 40.9 135.3 40.1 136.5 39.1C137.6 38.1 138.5 36.9 139.1 35.4C139.7 33.9 140.1 32.3 140.2 30.6C140.4 27.5 140 25.1 139 23.5C138 21.9 136.6 21.1 134.6 20.9Z" fill="white"/>
<path d="M163.9 0.199997C147.9 -1.6 135.5 10.3 135.5 10.3C135.5 10.3 128.5 4.9 119.6 2.9C109 0.499997 96.5 1.8 88 10.4C77.1 21.4 82.5 35.8 93 45.8C93.8 46.6 94.9 47.6 96.2 48.7C97.7 50 99.4 51.5 101.2 53.1C111.4 61.8 126.5 74.1 132.9 78.7C139.8 72.5 146.9 65.7 153.4 59.4L153.6 59.2L158.1 54.9L158.4 54.6C160.2 52.8 162 51.1 163.8 49.4C174.8 38.9 182.5 31.2 184.5 24.2C187 14.9 181.6 2.2 163.9 0.199997ZM171.2 27.2C169.6 29.4 165.6 34.4 160.5 39.4C157.4 42.4 153.9 45.7 150.3 49L145.4 53.4L144.8 54C139.4 58.9 134.2 63.7 130.3 67.7L110.8 50.6L110.6 50.4C110.3 50.1 109.9 49.8 109.6 49.5C108.8 48.8 108.1 48.2 107.3 47.5C106.3 46.6 105.3 45.6 104.3 44.7C102.4 42.8 100.6 40.8 99.3 38.9C93.5 30.5 88.7 22.4 99.2 15C107.4 9.3 116.9 9.9 133.8 19.2L134.5 19.6L135 19.3C140.5 15.7 146.3 10.4 158.7 11.5C171.4 12.6 176.4 20.1 171.2 27.2Z" fill="white"/>
</svg>
