<svg width="253" height="49" viewBox="0 0 253 49" fill="none" xmlns="http://www.w3.org/2000/svg">
<path fill-rule="evenodd" clip-rule="evenodd" d="M113.02 24.7999C112.02 24.0999 110.82 23.5999 109.82 22.9999C109.32 22.6999 108.82 22.4999 108.32 22.1999C108.22 21.3999 108.12 20.6999 108.02 19.9999C107.32 16.1999 105.52 12.9999 102.02 11.1999C99.7196 10.0999 97.4196 9.0999 95.0196 7.9999C94.8196 7.8999 94.5196 7.9999 94.4196 8.0999C94.3196 8.2999 94.2196 8.6999 94.3196 8.8999C95.7196 11.6999 97.0196 14.4999 98.4196 17.2999C98.8196 18.0999 99.4196 18.8999 99.9196 19.6999C100.12 19.9999 100.42 20.2999 100.12 20.6999C99.9196 20.6999 99.7196 20.7999 99.5196 20.7999C95.5196 20.2999 91.6196 20.2999 87.6196 20.4999C87.0196 20.4999 86.3196 20.4999 85.8196 20.4999C85.6196 20.1999 85.5196 20.0999 85.5196 19.9999C84.1196 15.2999 81.1196 11.9999 76.9196 9.4999C72.7196 6.9999 68.4196 4.4999 64.0196 2.2999C63.5196 1.9999 63.0196 1.7999 62.4196 1.5999C61.9196 1.3999 61.4196 1.1999 60.8196 0.899902C60.7196 1.4999 60.5196 1.9999 60.5196 2.4999C60.5196 7.2999 61.6196 11.6999 64.8196 15.3999C66.6196 17.5999 68.9196 19.2999 71.4196 20.6999C71.9196 20.9999 72.4196 21.2999 72.9196 21.5999C72.7196 21.7999 72.6196 21.8999 72.5196 21.9999C66.9196 22.8999 61.4196 23.9999 55.8196 24.9999C55.5196 25.0999 55.1196 25.0999 54.7196 25.0999C54.3196 24.4999 53.8196 23.8999 53.5196 23.2999C51.3196 19.0999 47.9196 16.2999 43.5196 14.6999C39.8196 13.3999 36.1196 12.1999 32.4196 10.9999C30.7196 10.3999 28.9196 9.9999 27.4196 8.9999C27.1196 8.7999 26.7196 8.8999 26.4196 8.7999C25.8196 9.7999 26.2196 10.5999 26.4196 11.3999C27.9196 16.4999 31.0196 20.3999 35.8196 22.7999C38.9196 24.3999 42.2196 25.4999 45.6196 26.1999C46.0196 26.2999 46.5196 26.0999 46.5196 26.8999C43.1196 27.7999 39.7196 28.6999 36.2196 29.4999C35.3196 29.6999 34.4196 29.5999 33.5196 29.1999C31.6196 28.3999 29.6196 27.6999 27.6196 26.8999C25.6196 26.0999 23.6196 25.7999 21.4196 25.7999C19.3196 25.7999 17.2196 26.0999 15.2196 26.5999C11.5196 27.5999 7.71961 28.0999 3.81962 27.3999C3.01962 27.2999 2.21962 26.9999 1.51962 26.9999C1.01962 26.8999 0.619615 27.0999 0.119615 27.0999C-0.0803848 28.9999 -0.0803848 28.9999 0.519615 29.9999C1.41962 31.4999 2.41962 32.8999 3.41962 34.2999C4.51962 35.6999 5.91961 36.6999 7.61962 37.2999C12.7196 39.2999 18.0196 39.7999 23.4196 38.5999C25.1196 38.1999 26.7196 37.5999 28.3196 36.7999C31.4196 35.2999 34.4196 33.7999 37.4196 32.0999C38.8196 31.2999 40.3196 30.6999 41.8196 30.3999C42.6196 30.1999 43.5196 29.8999 44.3196 29.6999C46.5196 29.1999 48.6196 28.5999 51.1196 28.2999C50.8196 28.6999 50.6196 28.8999 50.4196 29.0999C49.4196 29.7999 48.3196 30.3999 47.3196 31.0999C45.8196 31.9999 44.6196 33.0999 43.9196 34.6999C42.2196 38.4999 39.7196 41.7999 36.8196 44.7999C36.4196 45.1999 36.1196 45.4999 35.8196 45.8999C35.5196 46.2999 35.2196 46.6999 35.5196 47.2999C35.7196 47.7999 36.2196 47.9999 36.7196 47.9999C37.2196 47.9999 37.7196 47.9999 38.2196 47.9999C45.0196 47.4999 51.1196 45.3999 56.3196 40.8999C57.6196 39.7999 58.6196 38.4999 59.2196 36.8999C59.6196 35.7999 60.0196 34.6999 60.5196 33.6999C61.1196 32.2999 61.5196 30.7999 61.7196 29.2999C61.8196 28.2999 61.8196 27.2999 62.3196 26.2999C62.5196 26.1999 62.7196 26.0999 62.9196 26.0999C66.5196 25.4999 70.2196 24.7999 73.8196 24.2999C77.5196 23.7999 81.3196 23.5999 85.0196 23.2999C85.0196 23.2999 85.0196 23.2999 85.1196 23.2999C85.4196 23.2999 85.8196 23.2999 86.1196 23.2999V23.3999C85.8196 23.3999 85.4196 23.2999 85.1196 23.2999C85.1196 23.8999 84.6196 23.8999 84.2196 23.9999C80.7196 24.8999 77.7196 26.7999 75.2196 29.3999C73.4196 31.2999 71.5196 33.1999 69.6196 35.1999C69.3196 35.5999 68.9196 35.9999 68.7196 36.3999C68.4196 36.7999 68.7196 37.4999 69.1196 37.6999C69.4196 37.7999 69.7196 37.8999 69.9196 37.8999C76.9196 38.8999 83.6196 37.6999 89.9196 34.3999C91.9196 33.3999 93.6196 31.7999 94.8196 29.8999C96.1196 27.8999 97.5196 25.8999 97.8196 23.5999C98.6196 22.9999 99.3196 22.9999 100.02 23.0999C102.12 23.3999 104.22 23.6999 106.22 24.0999C107.32 24.2999 108.42 24.8999 109.42 25.2999C110.82 25.9999 111.92 26.9999 112.92 28.1999C113.52 28.8999 113.12 29.8999 112.22 29.9999C111.22 30.0999 110.12 30.3999 109.12 29.3999C108.52 28.7999 107.82 28.9999 107.12 29.3999C106.52 29.7999 106.62 30.3999 106.62 30.9999C106.62 33.1999 110.12 35.1999 112.22 33.9999C113.82 33.0999 114.72 31.5999 115.42 29.9999C115.92 28.5999 115.72 27.3999 114.82 26.2999C114.32 25.7999 113.72 25.2999 113.02 24.7999ZM7.31962 29.7999C10.4196 29.7999 13.5196 29.3999 16.5196 28.5999C20.1196 27.5999 23.7196 27.6999 27.1196 29.0999C28.1196 29.4999 29.3196 29.6999 30.4196 30.3999C30.1196 30.5999 29.9196 30.7999 29.8196 30.7999C24.2196 31.7999 18.5196 32.4999 12.7196 31.7999C10.6196 31.5999 8.61961 31.0999 6.71961 30.2999C6.81961 29.7999 7.11962 29.7999 7.31962 29.7999ZM31.5196 33.4999C28.7196 34.8999 25.8196 36.0999 22.8196 36.7999C17.8196 37.8999 12.9196 37.3999 8.11962 35.4999C5.81962 34.5999 4.21962 32.8999 3.41962 30.4999C3.81962 30.6999 4.31961 30.8999 4.71961 31.0999C8.41961 33.0999 12.4196 33.9999 16.6196 34.0999C21.3196 34.1999 26.0196 33.7999 30.6196 32.9999C31.1196 32.8999 31.6196 32.8999 32.5196 32.6999C32.0196 33.1999 31.8196 33.3999 31.5196 33.4999ZM48.2196 24.7999C44.1196 23.9999 40.2196 22.7999 36.5196 20.8999C33.2196 19.1999 30.7196 16.6999 29.1196 13.1999C35.7196 17.3999 42.7196 20.5999 49.4196 24.3999C49.5196 24.4999 49.5196 24.5999 49.6196 24.8999C49.1196 24.7999 48.6196 24.8999 48.2196 24.7999ZM32.4196 13.2999C32.8196 13.2999 33.1196 13.2999 33.3196 13.3999C35.7196 14.1999 38.1196 14.8999 40.5196 15.6999C42.7196 16.3999 44.8196 17.3999 46.7196 18.6999C48.2196 19.6999 49.4196 20.8999 50.4196 22.2999C50.5196 22.4999 50.5196 22.6999 50.7196 23.1999C45.3196 20.7999 34.3196 14.7999 32.4196 13.2999ZM42.4196 41.4999C43.6196 39.7999 44.6196 37.9999 45.4196 35.9999C45.9196 34.7999 46.7196 33.8999 47.7196 33.1999C49.8196 31.6999 51.9196 30.0999 54.0196 28.6999C55.4196 27.6999 55.5196 27.6999 57.1196 27.4999C57.4196 27.7999 57.1196 27.9999 56.9196 28.1999C55.3196 29.4999 54.1196 31.0999 52.9196 32.6999C51.7196 34.4999 50.3196 36.0999 48.8196 37.7999C46.9196 39.8999 44.5196 41.2999 41.6196 42.8999C42.1196 42.0999 42.2196 41.7999 42.4196 41.4999ZM59.1196 31.5999C58.5196 33.1999 57.9196 34.7999 57.2196 36.3999C56.8196 37.3999 56.2196 38.2999 55.3196 38.9999C51.5196 42.3999 47.1196 44.5999 42.1196 45.4999C42.0196 45.4999 42.0196 45.4999 41.6196 45.3999C42.4196 44.4999 43.4196 43.8999 44.3196 43.2999C48.8196 40.7999 52.1196 37.0999 54.9196 32.8999C56.0196 31.1999 57.5196 29.7999 59.1196 28.5999C59.2196 28.4999 59.4196 28.5999 59.6196 28.4999C59.8196 29.7999 59.4196 30.6999 59.1196 31.5999ZM70.7196 17.8999C66.4196 15.0999 63.6196 11.1999 62.6196 5.6999C63.1196 5.9999 63.4196 6.1999 63.6196 6.3999C64.3196 7.0999 64.9196 7.7999 65.5196 8.4999C68.6196 11.6999 71.9196 14.4999 75.8196 16.6999C77.6196 17.6999 79.2196 18.8999 80.9196 19.9999C81.1196 20.0999 81.3196 20.3999 81.5196 20.5999C78.7196 21.4999 74.7196 20.4999 70.7196 17.8999ZM82.3196 18.4999C82.0196 18.3999 81.7196 18.2999 81.4196 18.0999C79.2196 16.6999 77.0196 15.2999 74.8196 13.8999C71.0196 11.4999 67.8196 8.2999 64.8196 4.9999C64.9196 4.7999 65.0196 4.6999 65.0196 4.5999C66.4196 5.3999 67.9196 6.1999 69.3196 7.0999C71.7196 8.4999 74.0196 9.8999 76.4196 11.3999C78.7196 12.8999 80.7196 14.7999 82.1196 17.2999C82.3196 17.5999 82.4196 17.9999 82.5196 18.2999C82.5196 18.1999 82.4196 18.2999 82.3196 18.4999ZM74.2196 33.5999C77.3196 29.3999 81.1196 26.1999 86.4196 25.2999C87.7196 25.0999 89.0196 24.5999 90.5196 24.4999C90.4196 24.6999 90.4196 24.8999 90.3196 24.9999C85.2196 27.8999 80.0196 30.8999 74.8196 33.7999C74.6196 33.8999 74.4196 33.8999 74.2196 33.8999C74.2196 33.6999 74.1196 33.5999 74.2196 33.5999ZM95.3196 25.0999C94.4196 26.4999 93.6196 27.8999 92.7196 29.2999C91.9196 30.5999 90.8196 31.6999 89.4196 32.3999C85.1196 34.6999 80.5196 36.1999 75.6196 36.1999C75.4196 36.1999 75.2196 36.1999 75.0196 36.1999C74.9196 36.1999 74.9196 36.1999 74.4196 35.9999C81.6196 31.8999 88.5196 27.9999 95.3196 24.1999C95.8196 24.4999 95.5196 24.8999 95.3196 25.0999ZM102.82 20.0999C101.22 18.4999 99.9196 16.2999 99.4196 13.9999C102.12 16.4999 104.22 19.3999 104.82 21.2999C103.82 21.2999 103.32 20.6999 102.82 20.0999ZM104.62 17.3999C104.52 17.3999 104.52 17.3999 104.42 17.2999C103.22 15.8999 102.02 14.4999 100.82 12.9999C102.82 13.8999 104.02 15.2999 104.72 17.0999C104.72 17.2999 104.72 17.3999 104.62 17.3999Z" fill="white"/>
<path fill-rule="evenodd" clip-rule="evenodd" d="M251.92 27.2001C251.52 27.2001 251.02 27 250.52 27.1C249.72 27.2001 248.92 27.4 248.22 27.5C244.32 28.2001 240.52 27.7001 236.82 26.7001C234.82 26.2001 232.72 25.8 230.62 25.9C228.52 25.9 226.42 26.2001 224.42 27C222.52 27.8 220.52 28.5 218.52 29.3C217.62 29.7 216.72 29.8001 215.82 29.6C212.42 28.7001 208.92 27.8 205.52 27C205.52 26.2001 206.12 26.4 206.42 26.3C209.92 25.7 213.12 24.5 216.22 22.9C221.02 20.4 224.12 16.6 225.62 11.5C225.82 10.7 226.22 9.90005 225.62 8.90005C225.32 9.00005 224.92 8.90005 224.62 9.10005C223.02 10.1 221.32 10.5 219.62 11.1C215.92 12.3 212.12 13.4 208.52 14.8C204.12 16.4 200.72 19.2001 198.52 23.4C198.22 24 197.72 24.6 197.32 25.2001C196.92 25.2001 196.52 25.1 196.22 25.1C190.72 24.1 185.12 23 179.62 21.9C179.52 21.9 179.42 21.7001 179.22 21.5C179.72 21.2001 180.22 20.9 180.72 20.6C183.22 19.2001 185.42 17.5 187.32 15.3C190.42 11.6 191.62 7.10005 191.62 2.40005C191.62 1.90005 191.42 1.40005 191.32 0.800049C190.72 1.10005 190.22 1.20005 189.72 1.50005C189.02 1.70005 188.52 2.00005 188.02 2.20005C183.62 4.40005 179.32 6.80005 175.12 9.40005C171.02 11.9 167.92 15.2 166.52 19.9C166.52 20 166.42 20.1 166.22 20.4C165.72 20.4 165.02 20.5 164.42 20.4C160.42 20.2 156.42 20.2001 152.52 20.7001C152.32 20.7001 152.12 20.6 151.92 20.6C151.62 20.2001 151.92 19.9 152.12 19.6C152.62 18.8001 153.12 18 153.62 17.2001C155.02 14.4001 156.42 11.6 157.72 8.80005C157.82 8.60005 157.72 8.30005 157.62 8.00005C157.52 8.00005 157.22 8.00005 157.02 8.00005C154.72 9.00005 152.32 10 150.12 11.2C146.62 13.1 144.82 16.2 144.12 20C144.02 20.7001 143.92 21.4001 143.82 22.2001C143.32 22.4001 142.82 22.7001 142.32 23C141.22 23.6 140.12 24.1 139.12 24.8C138.42 25.2 137.82 25.8 137.32 26.4C136.42 27.5 136.22 28.7001 136.72 30.1C137.42 31.8001 138.32 33.2 139.92 34.1C142.02 35.4 145.52 33.3 145.52 31.1C145.52 30.5 145.62 29.9 145.02 29.5C144.32 29.1 143.62 28.9 143.02 29.5C142.12 30.5 141.02 30.2001 139.92 30.1C139.02 30 138.62 29.1 139.22 28.3C140.12 27.1 141.32 26.1 142.72 25.4C143.72 24.9 144.82 24.4001 145.92 24.2001C147.92 23.8001 150.02 23.5 152.12 23.2001C152.82 23.1 153.62 23.1 154.32 23.7001C154.62 26 156.02 27.9 157.32 30C158.52 32 160.12 33.5 162.22 34.5C168.52 37.7001 175.22 38.9001 182.22 38C182.52 38 182.82 37.9 183.02 37.8C183.52 37.6 183.72 36.9001 183.42 36.5C183.12 36.1 182.82 35.7001 182.52 35.3C180.62 33.4 178.72 31.5 176.92 29.5C174.42 26.9 171.52 25 167.92 24.1C167.52 24 167.02 24 167.02 23.4C166.72 23.4 166.32 23.5 166.02 23.5V23.4C166.32 23.4 166.72 23.4 167.02 23.4C167.02 23.4 167.02 23.4 167.12 23.4C170.82 23.7 174.62 24 178.32 24.4C182.02 24.9 185.62 25.6 189.22 26.2001C189.42 26.2001 189.62 26.3 189.82 26.4C190.32 27.3 190.22 28.4 190.42 29.4C190.62 30.9 191.02 32.4 191.62 33.8C192.12 34.9 192.52 36 192.92 37C193.52 38.6 194.52 39.9001 195.82 41C201.02 45.5 207.12 47.6 213.92 48.1C214.42 48.1 214.92 48.1 215.42 48.1C215.92 48.1 216.42 47.9001 216.62 47.4001C216.82 46.9001 216.62 46.4001 216.32 46C216.02 45.6 215.72 45.2001 215.32 44.9001C212.42 41.9001 209.92 38.6 208.22 34.8C207.52 33.2001 206.32 32.1 204.82 31.2001C203.72 30.6 202.72 29.9001 201.72 29.2001C201.52 29.1 201.32 28.8 201.02 28.4C203.52 28.7 205.72 29.3 207.82 29.8C208.62 30 209.52 30.3 210.32 30.5C211.92 30.9 213.32 31.5 214.72 32.2001C217.72 33.8 220.72 35.4001 223.82 36.9001C225.42 37.6001 227.02 38.3 228.72 38.7001C234.12 39.9001 239.42 39.4001 244.52 37.4001C246.12 36.8001 247.62 35.8001 248.72 34.4001C249.82 33 250.72 31.6 251.62 30.1C252.22 29 252.12 29 251.92 27.2001ZM151.22 13.1C150.02 14.5 148.82 15.9 147.62 17.4C147.62 17.4 147.52 17.5 147.42 17.5C147.32 17.5 147.32 17.4 147.22 17.3C148.02 15.4 149.22 14 151.22 13.1ZM147.32 21.3C147.92 19.4 150.12 16.5 152.72 14C152.12 16.3 150.92 18.5 149.32 20.1C148.82 20.7001 148.32 21.3 147.32 21.3ZM177.22 36.2001C177.02 36.2001 176.82 36.2001 176.62 36.2001C171.62 36.2001 167.12 34.7001 162.82 32.4001C161.42 31.7001 160.32 30.6 159.52 29.3C158.62 27.9 157.72 26.5 156.92 25.1C156.72 24.8001 156.52 24.5 157.02 24.1C163.82 28 170.72 31.9001 177.92 35.9001C177.32 36.1001 177.22 36.2001 177.22 36.2001ZM177.92 33.6C177.92 33.6 177.92 33.7001 177.82 33.8C177.62 33.8 177.42 33.8 177.22 33.7001C172.02 30.8001 166.92 27.8 161.72 24.9C161.62 24.8 161.62 24.7 161.52 24.4C162.92 24.5 164.22 25 165.62 25.2001C171.02 26.2001 174.82 29.4 177.92 33.6ZM169.62 18.2001C169.72 17.9001 169.82 17.5 170.02 17.2001C171.32 14.7001 173.32 12.8 175.72 11.3C178.02 9.80005 180.42 8.40005 182.82 7.00005C184.22 6.20005 185.72 5.40005 187.12 4.50005C187.22 4.60005 187.32 4.80005 187.42 4.90005C184.42 8.20005 181.22 11.4 177.42 13.8C175.22 15.2 173.02 16.6 170.82 18C170.52 18.2001 170.22 18.3 169.92 18.4C169.72 18.3 169.62 18.2001 169.62 18.2001ZM170.52 20.6C170.72 20.4 170.92 20.1 171.12 20C172.82 18.9 174.42 17.7001 176.22 16.7C180.12 14.5 183.52 11.7 186.52 8.50005C187.12 7.80005 187.82 7.10005 188.42 6.40005C188.62 6.20005 188.92 6.10005 189.42 5.70005C188.42 11.2 185.72 15.1 181.32 17.9C177.42 20.5 173.42 21.5 170.52 20.6ZM210.02 45.7001C205.02 44.7001 200.62 42.6001 196.82 39.2001C196.02 38.5 195.42 37.6 194.92 36.6C194.32 35 193.62 33.4 193.02 31.8C192.72 30.9 192.32 29.9 192.52 28.9C192.72 28.9 192.92 28.9 193.02 29C194.62 30.2001 196.12 31.6 197.22 33.3C200.02 37.5 203.32 41.2001 207.82 43.7001C208.72 44.2001 209.62 44.8 210.52 45.8C210.12 45.6 210.12 45.7001 210.02 45.7001ZM204.42 33.2001C205.42 33.9001 206.22 34.9001 206.72 36C207.52 37.9001 208.62 39.7001 209.72 41.5C209.92 41.8 210.02 42.1 210.42 42.8C207.52 41.2001 205.12 39.8 203.22 37.7001C201.82 36.1001 200.42 34.4 199.12 32.6C197.92 30.9 196.72 29.3001 195.12 28.1C194.92 27.9 194.62 27.8 194.92 27.4C196.52 27.6 196.62 27.6 198.02 28.6C200.22 30.2001 202.32 31.7001 204.42 33.2001ZM201.62 22.2001C202.62 20.8001 203.82 19.5 205.32 18.6C207.22 17.3001 209.32 16.3 211.52 15.6C213.92 14.8 216.32 14.1 218.72 13.3C218.92 13.2 219.22 13.3 219.62 13.2C217.72 14.8 206.72 20.7001 201.32 23C201.52 22.6 201.52 22.4001 201.62 22.2001ZM202.52 24.8C202.62 24.6 202.62 24.4 202.72 24.3C209.42 20.5 216.52 17.3 223.02 13.1C221.42 16.6 218.92 19.1 215.62 20.8C211.92 22.7 208.02 23.9001 203.92 24.7001C203.52 24.9001 203.02 24.8 202.52 24.8ZM224.92 29.1C228.42 27.6 231.92 27.6 235.52 28.6C238.52 29.4 241.62 29.9 244.72 29.8C245.02 29.8 245.32 29.7 245.22 30.3C243.32 31.1 241.32 31.6 239.22 31.8C233.52 32.4 227.82 31.8 222.12 30.8C221.92 30.8 221.82 30.6 221.52 30.4C222.72 29.8 223.82 29.6 224.92 29.1ZM243.92 35.5C239.22 37.4001 234.22 37.9 229.22 36.8C226.22 36.1 223.32 34.9001 220.52 33.5C220.22 33.4001 220.02 33.1 219.52 32.6C220.42 32.7 220.92 32.8001 221.42 32.9001C226.02 33.7001 230.72 34.1 235.42 34C239.62 33.9001 243.62 33 247.32 31C247.72 30.8 248.22 30.6 248.62 30.4C247.82 33 246.22 34.6 243.92 35.5Z" fill="white"/>
<path fill-rule="evenodd" clip-rule="evenodd" d="M126.02 0C125.22 0 122.92 6.1 121.62 8.4C119.92 11.5 119.02 14.8 120.32 18.4C121.22 20.9 122.12 23.4 123.02 26C123.62 27.8 124.92 32.2 125.92 32.2C126.92 32.2 128.22 27.8 128.82 26C129.72 23.5 130.52 20.9 131.52 18.4C132.82 14.8 132.02 11.5 130.22 8.4C129.12 6.1 126.92 0 126.02 0ZM124.82 24.4C124.42 24.5 124.32 24.1 124.22 23.9C123.42 21.7 122.62 19.4 121.92 17.1C121.12 14.7 121.72 12.5 122.72 10.4C123.32 9.2 124.02 8.1 124.72 6.8C124.92 7.1 125.12 7.2 125.12 7.3C125.12 12.8 125.12 18.3 125.12 23.8C125.02 24 124.92 24.2 124.82 24.4ZM130.22 17.1C129.52 19.4 128.72 21.6 127.92 23.9C127.82 24.1 127.72 24.5 127.32 24.4C127.22 24.2 127.12 24 127.12 23.9C127.12 18.4 127.12 12.9 127.12 7.4C127.12 7.3 127.32 7.2 127.52 6.9C128.22 8.2 128.92 9.3 129.52 10.5C130.42 12.6 131.02 14.8 130.22 17.1Z" fill="white"/>
</svg>
