<svg width="327" height="39" viewBox="0 0 327 39" fill="none" xmlns="http://www.w3.org/2000/svg">
<path d="M163.3 38.9004C161.2 38.9004 159.1 38.2004 157.6 36.7004C155.8 34.9004 155.2 32.3004 156 29.3004C156.4 27.8004 157.1 26.3004 158.1 24.6004C156.5 25.6004 154.9 26.3004 153.4 26.7004C150.4 27.5004 147.8 26.9004 146 25.1004C143.1 22.2004 143.1 16.7004 146 13.8004C147.8 12.0004 150.4 11.4004 153.4 12.2004C154.9 12.6004 156.4 13.3004 158.1 14.3004C157.1 12.7004 156.4 11.1004 156 9.60039C155.2 6.60039 155.8 4.00039 157.6 2.20039C160.5 -0.699609 166 -0.699609 168.9 2.20039C170.7 4.00039 171.3 6.60039 170.5 9.60039C170.1 11.1004 169.4 12.6004 168.4 14.3004C170 13.3004 171.6 12.6004 173.1 12.2004C176.1 11.4004 178.7 12.0004 180.5 13.8004C183.4 16.7004 183.4 22.2004 180.5 25.1004C178.7 26.9004 176.1 27.5004 173.1 26.7004C171.6 26.3004 170.1 25.6004 168.4 24.6004C169.4 26.2004 170.1 27.8004 170.5 29.3004C171.3 32.3004 170.7 34.9004 168.9 36.7004C167.5 38.1004 165.4 38.9004 163.3 38.9004ZM163.3 20.8004C160.3 24.1004 158.5 27.1004 157.8 29.7004C157.2 32.1004 157.6 34.1004 158.9 35.4004C161.1 37.6004 165.5 37.6004 167.7 35.4004C169 34.1004 169.4 32.1004 168.8 29.7004C168.1 27.1004 166.2 24.1004 163.3 20.8004ZM164.6 19.4004C167.9 22.4004 170.9 24.2004 173.5 24.9004C175.9 25.5004 177.9 25.1004 179.2 23.8004C181.4 21.6004 181.4 17.2004 179.2 15.0004C177.9 13.7004 175.9 13.3004 173.5 13.9004C170.9 14.6004 167.9 16.5004 164.6 19.4004ZM150.9 13.6004C149.4 13.6004 148.2 14.1004 147.3 15.0004C145.1 17.2004 145.1 21.6004 147.3 23.8004C148.6 25.1004 150.6 25.5004 153 24.9004C155.6 24.2004 158.6 22.4004 161.9 19.4004C158.6 16.4004 155.6 14.6004 153 13.9004C152.2 13.7004 151.5 13.6004 150.9 13.6004ZM163.3 1.80039C161.7 1.80039 160 2.40039 158.9 3.50039C157.6 4.80039 157.2 6.80039 157.8 9.20039C158.5 11.8004 160.3 14.8004 163.3 18.1004C166.3 14.8004 168.1 11.8004 168.8 9.20039C169.4 6.80039 169 4.80039 167.7 3.50039C166.5 2.30039 164.9 1.80039 163.3 1.80039Z" fill="#EE942F"/>
<path d="M25.2 26.5004C18.6 26.5004 13.4 20.3004 13.1 20.0004C12.8 19.7004 12.8 19.2004 13.1 18.9004C13.3 18.6004 18.5 12.4004 25.2 12.4004C31.9 12.4004 37 18.6004 37.3 18.9004C37.6 19.2004 37.6 19.7004 37.3 20.0004C37.1 20.3004 31.8 26.5004 25.2 26.5004ZM15.1 19.4004C16.5 20.9004 20.6 24.6004 25.3 24.6004C30 24.6004 34 20.8004 35.5 19.4004C34.1 17.9004 30 14.2004 25.3 14.2004C20.6 14.2004 16.5 18.0004 15.1 19.4004Z" fill="#EE942F"/>
<path d="M132.9 20.3H29.9C29.4 20.3 29 19.9 29 19.4C29 18.9 29.4 18.5 29.9 18.5H132.9C133.4 18.5 133.8 18.9 133.8 19.4C133.8 19.9 133.4 20.3 132.9 20.3Z" fill="#EE942F"/>
<path d="M7.6 20.3H0.9C0.4 20.3 0 19.9 0 19.4C0 18.9 0.4 18.5 0.9 18.5H7.6C8.1 18.5 8.5 18.9 8.5 19.4C8.5 19.9 8.1 20.3 7.6 20.3Z" fill="#EE942F"/>
<path d="M301.301 12.4004C307.901 12.4004 313.101 18.6004 313.401 18.9004C313.701 19.2004 313.701 19.7004 313.401 20.0004C313.201 20.3004 308.001 26.5004 301.301 26.5004C294.601 26.5004 289.501 20.3004 289.201 20.0004C288.901 19.7004 288.901 19.2004 289.201 18.9004C289.501 18.6004 294.701 12.4004 301.301 12.4004ZM311.501 19.4004C310.101 17.9004 306.001 14.2004 301.301 14.2004C296.601 14.2004 292.601 18.0004 291.101 19.4004C292.501 20.9004 296.601 24.6004 301.301 24.6004C306.001 24.7004 310.101 20.9004 311.501 19.4004Z" fill="#EE942F"/>
<path d="M193.6 18.5H296.6C297.1 18.5 297.5 18.9 297.5 19.4C297.5 19.9 297.1 20.3 296.6 20.3H193.6C193.1 20.3 192.7 19.9 192.7 19.4C192.7 18.9 193.1 18.5 193.6 18.5Z" fill="#EE942F"/>
<path d="M319.001 18.5H325.701C326.201 18.5 326.601 18.9 326.601 19.4C326.601 19.9 326.201 20.3 325.701 20.3H319.001C318.501 20.3 318.101 19.9 318.101 19.4C318.101 18.9 318.501 18.5 319.001 18.5Z" fill="#EE942F"/>
</svg>
