<svg width="355" height="79" viewBox="0 0 355 79" fill="none" xmlns="http://www.w3.org/2000/svg">
<path fill-rule="evenodd" clip-rule="evenodd" d="M103.055 51.9C102.155 51.3 101.055 50.8 100.055 50.3C99.5548 50.1 99.1548 49.8 98.6548 49.6C98.5548 48.9 98.4548 48.2 98.3548 47.6C97.6548 44.1 96.0548 41.2 92.8548 39.5C90.8548 38.4 88.6548 37.5 86.5548 36.6C86.4548 36.5 86.0548 36.6 86.0548 36.7C85.9548 36.9 85.8548 37.2 85.9548 37.4C87.1548 40 88.4548 42.5 89.7548 45C90.1548 45.8 90.6548 46.5 91.0548 47.2C91.2548 47.5 91.4548 47.7 91.2548 48.1C91.0548 48.1 90.8548 48.2 90.6548 48.2C87.0548 47.8 83.3548 47.7 79.7548 48C79.1548 48 78.5548 48 78.1548 48C77.9548 47.8 77.8548 47.6 77.8548 47.5C76.5548 43.2 73.8548 40.2 70.0548 37.9C66.1548 35.6 62.2548 33.4 58.2548 31.3C57.9548 31 57.4548 30.8 56.9548 30.6C56.4548 30.4 56.0548 30.2 55.4548 30C55.3548 30.6 55.1548 31 55.1548 31.5C55.1548 35.9 56.1548 39.9 59.0548 43.3C60.7548 45.3 62.7548 46.9 65.0548 48.1C65.4548 48.3 65.9548 48.6 66.4548 48.9C66.2548 49.1 66.1548 49.2 66.0548 49.2C60.9548 50.2 55.9548 51.1 50.8548 52.1C50.5548 52.2 50.2548 52.2 49.8548 52.2C49.4548 51.6 49.0548 51.1 48.7548 50.5C46.7548 46.7 43.6548 44.1 39.6548 42.7C36.3548 41.5 32.8548 40.4 29.4548 39.3C27.9548 38.8 26.3548 38.4 24.9548 37.5C24.7548 37.3 24.3548 37.4 24.0548 37.3C23.5548 38.2 23.8548 38.9 24.0548 39.7C25.4548 44.4 28.2548 47.9 32.6548 50.1C35.4548 51.6 38.4548 52.6 41.6548 53.2C41.9548 53.3 42.4548 53.1 42.4548 53.8C39.3548 54.6 36.2548 55.4 33.0548 56.2C32.1548 56.4 31.4548 56.3 30.5548 56C28.7548 55.2 26.9548 54.6 25.2548 53.9C23.4548 53.2 21.5548 52.9 19.6548 52.9C17.7548 52.9 15.8548 53.2 13.9548 53.7C10.5548 54.6 7.05485 55 3.55485 54.4C2.85485 54.3 2.15485 54.1 1.45485 54C0.954845 53.9 0.554845 54 0.154845 54C-0.0451546 55.6 -0.145155 55.7 0.454845 56.6C1.25485 57.9 2.15485 59.3 3.15485 60.5C4.15485 61.8 5.45485 62.7 6.95485 63.3C11.6548 65.1 16.4548 65.6 21.3548 64.5C22.8548 64.1 24.3548 63.6 25.8548 62.9C28.6548 61.6 31.4548 60.1 34.1548 58.7C35.4548 58 36.7548 57.5 38.1548 57.1C38.9548 56.9 39.6548 56.7 40.4548 56.5C42.4548 56.1 44.4548 55.5 46.6548 55.3C46.3548 55.7 46.2548 55.9 46.0548 56C45.1548 56.6 44.1548 57.2 43.1548 57.8C41.8548 58.6 40.6548 59.6 40.0548 61C38.4548 64.5 36.2548 67.5 33.5548 70.2C33.2548 70.5 32.9548 70.9 32.6548 71.2C32.3548 71.6 32.1548 72 32.3548 72.5C32.5548 73 32.9548 73.1 33.4548 73.2C33.9548 73.2 34.3548 73.2 34.8548 73.2C41.0548 72.8 46.6548 70.8 51.3548 66.7C52.5548 65.7 53.4548 64.5 54.0548 63.1C54.4548 62.1 54.8548 61.1 55.2548 60.2C55.7548 58.9 56.1548 57.6 56.3548 56.2C56.4548 55.3 56.4548 54.4 56.8548 53.5C57.0548 53.4 57.2548 53.3 57.4548 53.3C60.7548 52.7 64.0548 52.1 67.4548 51.7C70.8548 51.3 74.2548 51.1 77.6548 50.8C77.6548 50.8 77.6548 50.8 77.7548 50.8C78.0548 50.8 78.3548 50.8 78.6548 50.8V50.9C78.3548 50.9 78.0548 50.8 77.7548 50.8C77.7548 51.3 77.2548 51.3 76.8548 51.4C73.6548 52.2 70.9548 54 68.6548 56.4C66.9548 58.2 65.2548 59.9 63.5548 61.7C63.2548 62 62.9548 62.4 62.6548 62.8C62.4548 63.2 62.6548 63.8 63.0548 64C63.2548 64.1 63.5548 64.2 63.8548 64.2C70.2548 65.1 76.3548 64 82.1548 61C84.0548 60 85.5548 58.7 86.6548 56.9C87.7548 55.1 89.0548 53.3 89.3548 51.2C90.0548 50.6 90.7548 50.7 91.3548 50.8C93.2548 51.1 95.1548 51.3 97.0548 51.7C98.0548 51.9 99.0548 52.4 99.9548 52.8C101.255 53.4 102.255 54.3 103.155 55.4C103.655 56.1 103.355 56.9 102.455 57C101.455 57.1 100.555 57.4 99.6548 56.5C99.1548 55.9 98.4548 56.2 97.8548 56.5C97.2548 56.8 97.4548 57.4 97.4548 57.9C97.4548 59.9 100.655 61.8 102.555 60.6C103.955 59.7 104.855 58.4 105.455 56.9C105.955 55.7 105.755 54.5 104.955 53.6C104.255 52.8 103.655 52.3 103.055 51.9ZM6.65485 56.5C9.55485 56.5 12.2548 56.1 15.0548 55.4C18.3548 54.5 21.5548 54.6 24.7548 55.9C25.6548 56.3 26.7548 56.5 27.7548 57.1C27.4548 57.3 27.3548 57.5 27.1548 57.5C22.0548 58.5 16.8548 59 11.5548 58.4C9.65485 58.2 7.85485 57.7 6.05485 57C6.15485 56.4 6.45485 56.5 6.65485 56.5ZM28.7548 59.8C26.2548 61.1 23.5548 62.2 20.8548 62.8C16.2548 63.8 11.7548 63.3 7.45485 61.6C5.35485 60.8 3.85485 59.3 3.15485 57C3.55485 57.2 3.95485 57.4 4.35485 57.6C7.75485 59.4 11.3548 60.2 15.1548 60.3C19.4548 60.4 23.7548 60 27.9548 59.3C28.3548 59.2 28.8548 59.2 29.6548 59.1C29.1548 59.5 28.9548 59.7 28.7548 59.8ZM43.8548 51.8C40.1548 51 36.5548 50 33.1548 48.2C30.1548 46.6 27.8548 44.3 26.3548 41.2C32.3548 45 38.7548 48 44.9548 51.4C45.0548 51.4 45.0548 51.6 45.1548 51.8C44.7548 51.8 44.3548 51.9 43.8548 51.8ZM29.5548 41.3C29.9548 41.3 30.1548 41.3 30.3548 41.4C32.5548 42.1 34.7548 42.8 36.9548 43.5C38.9548 44.2 40.8548 45.1 42.6548 46.2C43.9548 47.1 45.0548 48.2 46.0548 49.5C46.1548 49.6 46.1548 49.9 46.3548 50.3C41.3548 48.2 31.2548 42.8 29.5548 41.3ZM38.6548 67.1C39.7548 65.5 40.6548 63.9 41.4548 62.1C41.8548 61 42.6548 60.2 43.5548 59.5C45.4548 58.1 47.3548 56.7 49.3548 55.4C50.6548 54.5 50.7548 54.5 52.2548 54.3C52.4548 54.6 52.2548 54.8 52.0548 54.9C50.5548 56.1 49.4548 57.5 48.4548 59C47.3548 60.6 46.0548 62.1 44.7548 63.6C43.0548 65.5 40.8548 66.8 38.2548 68.3C38.3548 67.6 38.4548 67.4 38.6548 67.1ZM53.8548 58.1C53.3548 59.6 52.7548 61.1 52.1548 62.5C51.7548 63.4 51.2548 64.2 50.4548 64.9C46.9548 68 42.9548 70 38.3548 70.9C38.2548 70.9 38.2548 70.9 37.9548 70.8C38.7548 69.9 39.5548 69.4 40.4548 68.9C44.5548 66.6 47.5548 63.3 50.0548 59.4C51.0548 57.8 52.4548 56.6 53.8548 55.5C53.9548 55.4 54.0548 55.5 54.2548 55.5C54.4548 56.4 54.1548 57.3 53.8548 58.1ZM64.4548 45.6C60.4548 43 57.9548 39.5 57.0548 34.5C57.4548 34.8 57.7548 34.9 57.9548 35.1C58.5548 35.7 59.1548 36.4 59.7548 37C62.5548 39.9 65.6548 42.5 69.1548 44.5C70.7548 45.4 72.2548 46.5 73.8548 47.5C74.0548 47.6 74.1548 47.8 74.3548 48C71.7548 48.9 68.1548 47.9 64.4548 45.6ZM75.0548 46.1C74.7548 46 74.5548 45.9 74.2548 45.7C72.2548 44.4 70.2548 43.2 68.2548 41.9C64.7548 39.7 61.8548 36.8 59.1548 33.8C59.2548 33.7 59.3548 33.6 59.3548 33.4C60.6548 34.1 61.9548 34.9 63.2548 35.6C65.4548 36.9 67.5548 38.2 69.6548 39.5C71.7548 40.9 73.6548 42.6 74.8548 44.9C75.0548 45.2 75.0548 45.5 75.1548 45.8C75.2548 45.9 75.1548 45.9 75.0548 46.1ZM67.6548 59.9C70.4548 56.1 73.9548 53.2 78.8548 52.3C80.0548 52.1 81.2548 51.6 82.5548 51.5C82.4548 51.7 82.4548 51.9 82.3548 51.9C77.6548 54.6 72.9548 57.3 68.2548 59.9C68.1548 60 67.9548 60 67.7548 60C67.6548 60 67.5548 59.9 67.6548 59.9ZM86.9548 52.2C86.1548 53.5 85.3548 54.8 84.5548 56.1C83.7548 57.3 82.7548 58.2 81.5548 58.9C77.6548 61 73.4548 62.4 68.9548 62.4C68.7548 62.4 68.5548 62.4 68.3548 62.4C68.2548 62.4 68.2548 62.4 67.8548 62.2C74.3548 58.5 80.6548 54.9 86.9548 51.4C87.3548 51.6 87.1548 51.9 86.9548 52.2ZM93.7548 47.6C92.2548 46.1 91.1548 44.1 90.6548 42C93.0548 44.3 95.0548 46.9 95.5548 48.6C94.6548 48.7 94.2548 48.1 93.7548 47.6ZM95.4548 45.1C95.4548 45.1 95.3548 45.1 95.2548 45C94.1548 43.7 93.0548 42.4 92.0548 41.1C93.8548 41.9 94.9548 43.2 95.6548 44.9C95.4548 45.1 95.4548 45.1 95.4548 45.1Z" fill="white"/>
<path fill-rule="evenodd" clip-rule="evenodd" d="M354.373 54C353.973 54 353.573 53.8 353.073 53.9C352.373 54 351.673 54.2 350.973 54.3C347.473 54.9 343.973 54.5 340.573 53.6C338.673 53.1 336.873 52.8 334.873 52.8C332.973 52.8 331.073 53.1 329.273 53.8C327.473 54.5 325.673 55.1 323.973 55.9C323.173 56.3 322.373 56.4 321.473 56.1C318.373 55.3 315.173 54.5 312.073 53.7C312.073 53 312.573 53.1 312.873 53.1C315.973 52.5 318.973 51.5 321.873 50C326.173 47.8 329.073 44.2 330.473 39.6C330.673 38.9 331.073 38.1 330.473 37.2C330.173 37.3 329.873 37.2 329.573 37.4C328.173 38.3 326.573 38.7 324.973 39.2C321.573 40.3 318.173 41.3 314.773 42.6C310.773 44.1 307.673 46.6 305.673 50.4C305.373 51 304.973 51.5 304.573 52.1C304.173 52.1 303.873 52 303.573 52C298.473 51 293.473 50.1 288.373 49.1C288.273 49.1 288.173 49 287.973 48.8C288.473 48.5 288.873 48.3 289.373 48C291.673 46.8 293.673 45.2 295.373 43.2C298.273 39.8 299.273 35.8 299.273 31.4C299.273 31 299.073 30.6 298.973 30C298.373 30.2 297.973 30.4 297.473 30.6C296.973 30.8 296.473 31 296.073 31.3C292.073 33.3 288.173 35.5 284.273 37.9C280.473 40.2 277.673 43.2 276.473 47.5C276.473 47.6 276.373 47.7 276.173 48C275.673 48 275.073 48.1 274.573 48C270.973 47.8 267.273 47.8 263.673 48.2C263.473 48.2 263.273 48.1 263.173 48.1C262.973 47.7 263.173 47.5 263.373 47.2C263.773 46.5 264.273 45.8 264.673 45C265.973 42.5 267.173 39.9 268.473 37.4C268.573 37.2 268.473 36.9 268.373 36.7C268.273 36.6 267.973 36.5 267.873 36.6C265.773 37.6 263.673 38.4 261.573 39.5C258.373 41.2 256.773 44.1 256.073 47.6C255.973 48.2 255.873 48.9 255.773 49.6C255.373 49.8 254.873 50.1 254.373 50.3C253.373 50.8 252.373 51.3 251.373 51.9C250.773 52.3 250.273 52.8 249.773 53.4C248.973 54.4 248.773 55.5 249.273 56.7C249.873 58.2 250.673 59.5 252.173 60.4C254.073 61.6 257.273 59.7 257.273 57.7C257.273 57.2 257.373 56.6 256.873 56.3C256.273 55.9 255.573 55.7 255.073 56.3C254.273 57.2 253.273 56.9 252.273 56.8C251.373 56.7 251.073 55.9 251.573 55.2C252.473 54.1 253.473 53.2 254.773 52.6C255.773 52.1 256.673 51.7 257.673 51.5C259.573 51.1 261.473 50.8 263.373 50.6C263.973 50.5 264.673 50.5 265.373 51C265.673 53.1 266.973 54.9 268.073 56.7C269.173 58.5 270.673 59.9 272.573 60.8C278.373 63.8 284.373 64.9 290.873 64C291.173 64 291.373 63.9 291.673 63.8C292.073 63.6 292.373 63 292.073 62.6C291.873 62.2 291.573 61.9 291.173 61.5C289.473 59.7 287.773 58 286.073 56.2C283.773 53.8 281.073 52.1 277.873 51.2C277.473 51.1 277.073 51.1 276.973 50.6C276.673 50.6 276.373 50.7 276.073 50.7V50.6C276.373 50.6 276.673 50.6 276.973 50.6C276.973 50.6 276.973 50.6 277.073 50.6C280.473 50.9 283.873 51.1 287.273 51.5C290.573 51.9 293.973 52.6 297.273 53.1C297.473 53.1 297.673 53.2 297.873 53.3C298.273 54.1 298.273 55.1 298.373 56C298.573 57.4 298.873 58.7 299.473 60C299.873 61 300.273 62 300.673 62.9C301.273 64.3 302.173 65.5 303.373 66.5C308.073 70.6 313.673 72.6 319.873 73C320.373 73 320.773 73 321.273 73C321.773 73 322.173 72.8 322.373 72.3C322.573 71.8 322.373 71.4 322.073 71C321.773 70.6 321.473 70.3 321.173 70C318.573 67.3 316.273 64.3 314.673 60.8C314.073 59.4 312.873 58.4 311.573 57.6C310.573 57 309.673 56.4 308.673 55.8C308.473 55.7 308.373 55.5 308.073 55.1C310.373 55.3 312.273 55.9 314.273 56.3C315.073 56.5 315.773 56.7 316.573 56.9C317.973 57.2 319.273 57.8 320.573 58.5C323.273 60 326.073 61.4 328.873 62.7C330.273 63.4 331.773 63.9 333.373 64.3C338.273 65.4 343.073 64.9 347.773 63.1C349.273 62.5 350.573 61.6 351.573 60.3C352.573 59.1 353.473 57.7 354.273 56.4C354.673 55.7 354.573 55.7 354.373 54ZM262.473 41.2C261.373 42.5 260.273 43.8 259.273 45.1C259.273 45.1 259.173 45.2 259.073 45.2C258.973 45.2 258.973 45.1 258.873 45C259.573 43.3 260.673 42 262.473 41.2ZM258.873 48.7C259.473 46.9 261.373 44.3 263.773 42.1C263.273 44.2 262.073 46.2 260.673 47.7C260.273 48.1 259.773 48.7 258.873 48.7ZM286.173 62.3C285.973 62.3 285.773 62.3 285.573 62.3C281.073 62.3 276.873 60.9 272.973 58.8C271.773 58.1 270.773 57.2 269.973 56C269.173 54.7 268.373 53.4 267.573 52.1C267.373 51.8 267.173 51.5 267.673 51.2C273.873 54.7 280.173 58.3 286.773 62C286.273 62.2 286.173 62.2 286.173 62.3ZM286.873 59.9C286.873 59.9 286.873 60 286.773 60.1C286.573 60.1 286.373 60.1 286.273 60C281.573 57.3 276.873 54.7 272.173 52C272.073 52 272.073 51.8 271.973 51.6C273.273 51.7 274.473 52.1 275.673 52.4C280.473 53.2 283.973 56 286.873 59.9ZM279.273 45.8C279.373 45.5 279.473 45.2 279.573 44.9C280.773 42.6 282.573 40.9 284.773 39.5C286.873 38.2 289.073 36.9 291.173 35.6C292.473 34.8 293.773 34.1 295.073 33.4C295.173 33.5 295.273 33.6 295.273 33.8C292.573 36.8 289.573 39.7 286.173 41.9C284.173 43.2 282.173 44.5 280.173 45.7C279.873 45.9 279.673 46 279.373 46.1C279.273 45.9 279.273 45.9 279.273 45.8ZM280.073 48.1C280.273 47.9 280.473 47.7 280.573 47.6C282.073 46.6 283.673 45.5 285.273 44.6C288.773 42.6 291.873 40 294.673 37.1C295.273 36.5 295.873 35.8 296.473 35.2C296.673 35 296.973 34.9 297.373 34.6C296.473 39.5 293.973 43 289.973 45.6C286.373 47.9 282.673 48.9 280.073 48.1ZM316.073 70.9C311.473 70 307.473 68.1 303.973 64.9C303.273 64.2 302.673 63.4 302.273 62.5C301.673 61 301.073 59.6 300.573 58.1C300.273 57.2 299.973 56.4 300.173 55.4C300.373 55.4 300.473 55.4 300.573 55.4C302.073 56.5 303.373 57.8 304.373 59.3C306.873 63.1 309.873 66.5 313.973 68.8C314.773 69.3 315.673 69.8 316.473 70.7C316.273 70.9 316.173 70.9 316.073 70.9ZM310.973 59.5C311.873 60.2 312.573 61 313.073 62.1C313.773 63.9 314.773 65.5 315.873 67.1C316.073 67.3 316.173 67.6 316.473 68.3C313.873 66.9 311.673 65.6 309.973 63.6C308.673 62.1 307.373 60.6 306.273 59C305.173 57.5 304.073 56 302.673 54.9C302.473 54.8 302.173 54.6 302.473 54.3C303.973 54.5 304.073 54.5 305.373 55.4C307.173 56.8 309.073 58.2 310.973 59.5ZM308.473 49.5C309.373 48.2 310.473 47.1 311.873 46.2C313.673 45 315.573 44.1 317.573 43.5C319.773 42.8 321.973 42.1 324.173 41.4C324.373 41.3 324.573 41.4 324.973 41.3C323.273 42.7 313.173 48.1 308.273 50.3C308.373 49.9 308.373 49.7 308.473 49.5ZM309.273 51.8C309.373 51.6 309.373 51.4 309.473 51.4C315.573 48 321.973 45.1 327.973 41.2C326.573 44.4 324.173 46.6 321.173 48.2C317.773 50 314.173 51 310.473 51.8C310.173 51.9 309.673 51.8 309.273 51.8ZM329.673 55.8C332.873 54.5 336.073 54.4 339.373 55.3C342.173 56 344.873 56.5 347.773 56.4C347.973 56.4 348.273 56.4 348.273 56.9C346.573 57.7 344.673 58.1 342.773 58.3C337.573 58.9 332.373 58.3 327.173 57.4C326.973 57.4 326.873 57.2 326.573 57C327.673 56.4 328.773 56.2 329.673 55.8ZM347.073 61.6C342.773 63.4 338.273 63.8 333.673 62.8C330.873 62.2 328.273 61.1 325.773 59.8C325.573 59.7 325.373 59.4 324.873 59C325.673 59.1 326.173 59.2 326.573 59.2C330.773 60 335.073 60.3 339.373 60.2C343.173 60.1 346.873 59.3 350.173 57.5C350.573 57.3 350.973 57.1 351.373 56.9C350.673 59.3 349.173 60.8 347.073 61.6Z" fill="white"/>
<path d="M159.88 64.0854C160.48 63.9854 160.98 63.7854 161.38 63.4854C161.78 63.1854 162.08 62.6854 162.38 61.9854C162.68 61.2854 162.98 55.6854 162.98 54.3854C162.98 53.8854 163.08 52.9854 163.08 51.6854C163.08 50.4854 163.18 48.9854 163.18 47.2854C163.18 45.5854 163.18 43.7854 163.18 41.8854C163.18 39.9854 163.08 38.0854 163.08 36.2854C162.98 34.4854 162.88 32.7854 162.68 31.1854C162.48 29.5854 162.28 28.2854 161.98 27.2854C161.68 26.2854 161.38 25.5854 160.88 24.9854C160.48 24.4854 159.98 23.9854 159.38 23.6854C158.78 23.3854 158.18 23.0854 157.48 22.9854C156.68 22.7854 155.98 22.6854 155.08 22.4854C154.58 22.3854 154.28 22.2854 153.98 22.0854C153.78 21.8854 153.38 21.5854 153.38 20.7854C153.38 20.3854 153.58 19.9854 153.88 19.6854C154.18 19.3854 154.68 19.2854 155.38 19.2854C155.98 19.2854 156.58 19.2854 156.98 19.3854L160.18 19.5854C160.78 19.5854 161.38 19.6854 161.98 19.6854C162.68 19.6854 163.38 19.6854 164.18 19.6854C164.98 19.6854 165.98 19.6854 166.98 19.5854C168.38 19.5854 169.58 19.3854 170.78 19.1854C171.98 18.9854 173.08 18.7854 174.08 18.4854C175.18 18.2854 176.18 18.0854 177.28 17.8854C178.38 17.6854 179.48 17.6854 180.68 17.7854C183.28 17.9854 185.48 18.4854 187.08 19.3854C188.78 20.2854 190.08 21.3854 190.98 22.6854C191.88 23.9854 192.48 25.3854 192.78 26.8854C193.08 28.2854 193.18 29.6854 193.08 31.0854C192.98 32.3854 192.68 33.6854 192.28 34.9854C191.88 36.2854 191.28 37.4854 190.58 38.6854C189.88 39.7854 188.98 40.7854 187.98 41.6854C186.98 42.5854 185.78 43.1854 184.48 43.6854L183.78 43.8854C184.58 46.6854 188.48 53.4854 189.58 55.5854C190.78 57.7854 192.18 59.6854 193.68 61.1854C195.18 62.6854 196.78 63.7854 198.38 64.5854C200.08 65.3854 201.78 65.7854 203.48 65.8854C204.48 65.9854 205.28 65.8854 206.08 65.6854C206.88 65.4854 207.58 65.1854 208.08 64.7854C208.68 64.3854 209.08 63.7854 209.48 63.1854C209.78 62.4854 210.08 61.7854 210.08 60.7854C210.18 60.0854 210.18 59.4854 210.08 58.9854C210.08 58.4854 209.98 58.0854 209.88 57.7854C209.78 57.4854 209.78 57.2854 209.68 57.0854C209.58 56.7854 209.58 56.4854 209.58 56.2854C209.58 56.0854 209.68 55.8854 209.78 55.6854C209.98 55.3854 210.28 55.2854 210.68 55.2854C211.18 55.2854 211.58 55.7854 211.88 56.0854C212.18 56.4854 212.48 56.9854 212.68 57.4854C212.88 58.0854 213.08 58.6854 213.18 59.3854C213.28 60.0854 213.38 60.7854 213.28 61.5854C213.18 63.2854 212.78 64.7854 212.18 66.1854C211.58 67.5854 210.68 68.8854 209.58 69.8854C208.48 70.8854 207.08 71.6854 205.48 72.1854C203.88 72.6854 202.08 72.8854 200.08 72.6854C197.28 72.4854 194.78 71.8854 192.58 70.8854C190.38 69.8854 188.48 68.6854 186.88 67.1854C185.28 65.7854 183.88 64.1854 182.78 62.3854C181.68 60.6854 179.28 57.7854 177.08 52.9854C176.28 51.2854 175.78 49.6854 175.38 48.2854C175.08 47.0854 174.78 46.0854 174.58 45.2854C174.18 45.2854 173.78 45.2854 173.38 45.2854C172.78 45.2854 172.28 45.2854 171.78 45.1854C171.18 45.1854 170.68 45.0854 170.28 45.0854C170.18 45.0854 170.18 45.0854 170.08 45.0854C170.08 46.1854 169.98 47.3854 169.98 48.5854C169.98 50.0854 169.98 51.5854 169.98 52.9854C169.98 54.3854 169.98 60.1854 170.08 61.2854C170.18 62.3854 170.38 63.1854 170.48 63.7854C170.78 64.6854 171.28 65.3854 171.78 65.9854L159.88 64.0854ZM178.58 20.8854C177.78 20.7854 176.98 20.8854 176.38 21.1854C175.78 21.3854 175.18 21.7854 174.68 22.2854C174.18 22.7854 173.68 23.3854 173.38 24.0854C172.98 24.7854 172.68 25.6854 172.48 26.5854C171.98 28.5854 171.68 30.4854 171.48 32.4854C171.28 34.4854 171.08 36.3854 170.98 38.1854L170.78 41.9854C172.88 42.0854 174.68 41.8854 176.18 41.3854C177.88 40.8854 179.28 40.0854 180.48 39.0854C181.58 38.0854 182.48 36.8854 183.08 35.3854C183.68 33.8854 184.08 32.2854 184.18 30.5854C184.38 27.4854 183.98 25.0854 182.98 23.4854C181.98 21.8854 180.58 21.0854 178.58 20.8854Z" fill="white"/>
<path d="M207.88 0.185394C191.88 -1.61461 179.48 10.2854 179.48 10.2854C179.48 10.2854 172.48 4.88539 163.58 2.88539C152.98 0.485394 140.48 1.78539 131.98 10.3854C121.08 21.3854 126.48 35.7854 136.98 45.7854C137.78 46.5854 138.88 47.5854 140.18 48.6854C141.68 49.9854 143.38 51.4854 145.18 53.0854C155.38 61.7854 170.48 74.0854 176.88 78.6854C183.78 72.4854 190.88 65.6854 197.38 59.3854L197.58 59.1854L202.08 54.8854L202.38 54.5854C204.18 52.7854 205.98 51.0854 207.78 49.3854C218.78 38.8854 226.48 31.1854 228.48 24.1854C230.98 14.8854 225.58 2.18539 207.88 0.185394ZM215.18 27.1854C213.58 29.3854 209.58 34.3854 204.48 39.3854C201.38 42.3854 197.88 45.6854 194.28 48.9854L189.38 53.3854L188.78 53.9854C183.38 58.8854 178.18 63.6854 174.28 67.6854L154.78 50.5854L154.58 50.3854C154.28 50.0854 153.88 49.7854 153.58 49.4854C152.78 48.7854 152.08 48.1854 151.28 47.4854C150.28 46.5854 149.28 45.5854 148.28 44.6854C146.38 42.7854 144.58 40.7854 143.28 38.8854C137.48 30.4854 132.68 22.3854 143.18 14.9854C151.38 9.28539 160.88 9.88539 177.78 19.1854L178.48 19.5854L178.98 19.2854C184.48 15.6854 190.28 10.3854 202.68 11.4854C215.38 12.5854 220.38 20.0854 215.18 27.1854Z" fill="white"/>
</svg>
