<svg width="300" height="26" viewBox="0 0 300 26" fill="none" xmlns="http://www.w3.org/2000/svg">
<path d="M136.711 13.0002C136.711 11.5984 137.178 10.1966 138.179 9.19528C139.381 7.99372 141.116 7.5932 143.119 8.12723C144.12 8.39424 145.122 8.86152 146.256 9.52905C145.589 8.46099 145.122 7.39294 144.855 6.39164C144.321 4.38904 144.721 2.65345 145.923 1.45189C147.859 -0.483963 151.53 -0.483963 153.466 1.45189C154.667 2.65345 155.068 4.38904 154.534 6.39164C154.267 7.39294 153.8 8.39424 153.132 9.52905C154.2 8.86152 155.268 8.39424 156.269 8.12723C158.272 7.5932 160.008 7.99372 161.209 9.19528C163.145 11.1311 163.145 14.8026 161.209 16.7384C160.008 17.94 158.272 18.3405 156.269 17.8065C155.268 17.5395 154.267 17.0722 153.132 16.4047C153.8 17.4727 154.267 18.5408 154.534 19.5421C155.068 21.5447 154.667 23.2803 153.466 24.4818C151.53 26.4177 147.859 26.4177 145.923 24.4818C144.721 23.2803 144.321 21.5447 144.855 19.5421C145.122 18.5408 145.589 17.5395 146.256 16.4047C145.188 17.0722 144.12 17.5395 143.119 17.8065C141.116 18.3405 139.381 17.94 138.179 16.7384C137.245 15.8039 136.711 14.402 136.711 13.0002ZM148.793 13.0002C146.59 10.9976 144.588 9.79606 142.852 9.32879C141.25 8.92827 139.915 9.19528 139.047 10.0631C137.579 11.5317 137.579 14.4688 139.047 15.9374C139.915 16.8052 141.25 17.0722 142.852 16.6717C144.588 16.2044 146.59 15.0028 148.793 13.0002ZM149.728 13.9348C147.725 16.1376 146.523 18.1402 146.056 19.8758C145.656 21.4779 145.923 22.813 146.791 23.6808C148.259 25.1494 151.196 25.1494 152.665 23.6808C153.533 22.813 153.8 21.4779 153.399 19.8758C152.932 18.1402 151.664 16.1376 149.728 13.9348ZM153.533 4.78956C153.533 3.78826 153.199 2.98722 152.598 2.38643C151.129 0.917859 148.192 0.917859 146.724 2.38643C145.856 3.25423 145.589 4.5893 145.989 6.19138C146.457 7.92697 147.658 9.92957 149.661 12.1324C151.664 9.92957 152.865 7.92697 153.332 6.19138C153.466 5.65735 153.533 5.19008 153.533 4.78956ZM161.476 13.0002C161.476 11.9322 161.076 10.7974 160.341 10.0631C159.474 9.19528 158.139 8.92827 156.537 9.32879C154.801 9.79606 152.798 10.9976 150.595 13.0002C152.798 15.0028 154.801 16.2044 156.537 16.6717C158.139 17.0722 159.474 16.8052 160.341 15.9374C161.076 15.2031 161.476 14.135 161.476 13.0002Z" fill="black"/>
<path d="M282.567 8.32715C286.972 8.32715 290.443 12.4659 290.644 12.6661C290.844 12.8664 290.844 13.2001 290.644 13.4004C290.51 13.6007 287.039 17.7394 282.567 17.7394C278.094 17.7394 274.623 13.6007 274.489 13.4004C274.289 13.2001 274.289 12.8664 274.489 12.6661C274.623 12.4659 278.161 8.32715 282.567 8.32715ZM289.309 12.9999C288.374 11.9986 285.637 9.52871 282.5 9.52871C279.362 9.52871 276.692 12.0653 275.758 12.9999C276.692 14.0012 279.429 16.4711 282.567 16.4711C285.704 16.4711 288.374 14.0012 289.309 12.9999Z" fill="black"/>
<path d="M210.673 12.3994L279.429 12.3994C279.763 12.3994 280.03 12.6664 280.03 13.0002C280.03 13.334 279.763 13.601 279.429 13.601L210.673 13.601C210.34 13.601 210.073 13.334 210.073 13.0002C210.073 12.6664 210.34 12.3994 210.673 12.3994Z" fill="black"/>
<path d="M294.315 12.3994L298.788 12.3994C299.122 12.3994 299.389 12.6664 299.389 13.0002C299.389 13.334 299.122 13.601 298.788 13.601L294.315 13.601C293.982 13.601 293.715 13.334 293.715 13.0002C293.715 12.6664 293.982 12.3994 294.315 12.3994Z" fill="black"/>
<path d="M194.652 8.32715L197.589 8.32715C197.856 8.32715 198.123 8.52741 198.19 8.86118C198.19 8.92793 198.524 11.064 197.456 12.4659C197.256 12.6661 197.122 12.8664 196.855 12.9999C196.989 13.1334 197.122 13.2001 197.256 13.3337C198.524 14.6687 198.257 17.0718 198.257 17.2054C198.19 17.5391 197.99 17.7394 197.656 17.7394L194.719 17.7394C192.182 17.7394 190.18 15.7368 189.979 13.2669C189.846 13.3337 189.646 13.4004 189.512 13.5339C187.843 14.2014 173.692 13.9344 170.888 13.8677C170.554 13.8677 170.287 13.6007 170.287 13.2669C170.287 12.9331 170.554 12.6661 170.888 12.6661C177.296 12.7996 187.91 12.9331 189.045 12.4659C189.779 12.1988 190.246 11.5313 190.714 10.797C191.448 9.66222 192.449 8.32715 194.652 8.32715ZM196.989 9.52871L194.652 9.52871C193.117 9.52871 192.449 10.4633 191.715 11.4646C191.448 11.7983 191.181 12.1321 190.914 12.4659C191.047 12.5994 191.181 12.7329 191.181 12.9331C191.181 14.9357 192.783 16.4711 194.719 16.4711L197.055 16.4711C197.055 15.7368 196.922 14.6687 196.388 14.0679C196.054 13.7342 195.587 13.5339 194.986 13.5339C194.652 13.6007 194.385 13.2669 194.385 12.9331C194.385 12.5994 194.652 12.3324 194.919 12.3324C195.653 12.2656 196.121 12.0653 196.521 11.5981C196.922 10.9973 196.989 10.0627 196.989 9.52871Z" fill="black"/>
<path d="M16.8215 17.7394C12.4158 17.7394 8.94458 13.6007 8.74432 13.4004C8.54406 13.2001 8.54406 12.8664 8.74432 12.6661C8.87782 12.4659 12.349 8.32715 16.8215 8.32715C21.294 8.32715 24.6984 12.4659 24.8986 12.6661C25.0989 12.8664 25.0989 13.2001 24.8986 13.4004C24.7651 13.6007 21.2272 17.7394 16.8215 17.7394ZM10.0794 12.9999C11.0139 14.0012 13.7508 16.4711 16.8882 16.4711C20.0256 16.4711 22.6958 13.9344 23.6971 12.9999C22.7625 11.9986 20.0256 9.52871 16.8882 9.52871C13.6841 9.52871 11.0139 12.0653 10.0794 12.9999Z" fill="black"/>
<path d="M88.7147 13.601L19.9586 13.601C19.6249 13.601 19.3579 13.334 19.3579 13.0002C19.3579 12.6664 19.6249 12.3994 19.9586 12.3994L88.7147 12.3994C89.0484 12.3994 89.3154 12.6664 89.3154 13.0002C89.3154 13.334 89.0484 13.601 88.7147 13.601Z" fill="black"/>
<path d="M5.07305 13.601L0.600564 13.601C0.266797 13.601 -0.000212233 13.334 -0.000212219 13.0002C-0.000212204 12.6664 0.266797 12.3994 0.600564 12.3994L5.07305 12.3994C5.40682 12.3994 5.67383 12.6664 5.67383 13.0002C5.67383 13.334 5.40682 13.601 5.07305 13.601Z" fill="black"/>
<path d="M104.802 17.7394L101.865 17.7394C101.598 17.7394 101.331 17.5391 101.264 17.2054C101.264 17.1386 100.93 15.0025 101.998 13.6007C102.199 13.4004 102.332 13.2001 102.599 13.0666C102.466 12.9331 102.332 12.8664 102.199 12.7329C100.93 11.3978 101.197 8.99468 101.197 8.86117C101.264 8.52741 101.464 8.32715 101.798 8.32715L104.735 8.32715C107.272 8.32715 109.274 10.3298 109.475 12.7996C109.608 12.7329 109.809 12.6661 109.942 12.5326C111.611 11.8651 125.763 12.1321 128.566 12.1988C128.9 12.1988 129.167 12.4659 129.167 12.7996C129.167 13.1334 128.9 13.4004 128.566 13.4004C122.158 13.2669 111.544 13.1334 110.409 13.6007C109.675 13.8677 109.208 14.5352 108.74 15.2695C107.939 16.4043 106.938 17.7394 104.802 17.7394ZM102.399 16.5378L104.735 16.5378C106.271 16.5378 106.938 15.6033 107.672 14.602C107.939 14.2682 108.206 13.9344 108.473 13.6007C108.34 13.4672 108.206 13.3337 108.206 13.1334C108.206 11.1308 106.604 9.59546 104.668 9.59546L102.332 9.59546C102.332 10.3298 102.466 11.3978 103 11.9986C103.333 12.3324 103.801 12.5326 104.401 12.5326C104.735 12.4659 105.002 12.7996 105.002 13.1334C105.002 13.4672 104.735 13.7342 104.468 13.7342C103.734 13.8009 103.267 14.0012 102.866 14.4685C102.466 15.0025 102.399 15.937 102.399 16.5378Z" fill="black"/>
</svg>
