<svg width="199" height="218" viewBox="0 0 199 218" fill="none" xmlns="http://www.w3.org/2000/svg">
<g clip-path="url(#clip0)">
<path d="M190.477 110.799C195.435 106.553 197.058 98.4684 196.97 98.5122C193.267 98.9583 189.805 100.585 187.098 103.153C185.542 104.688 184.176 106.404 183.029 108.265C183.997 105.242 184.803 102.17 185.442 99.0608C187.225 98.9604 188.967 98.489 190.557 97.6767C192.148 96.8644 193.551 95.7292 194.678 94.3436C198.835 89.2973 199.065 81.0367 199 81.0915C195.449 82.2082 192.345 84.4249 190.137 87.4214C188.43 89.8889 187.089 92.5898 186.155 95.4406C186.319 94.4971 186.473 93.5427 186.605 92.5883C186.985 89.6044 187.274 86.679 187.471 83.8122H187.592C187.592 83.8122 187.592 83.8122 187.592 83.7573C189.363 83.3373 191.026 82.5499 192.473 81.4463C193.921 80.3427 195.12 78.9474 195.994 77.3507C199.219 71.6243 198.001 63.3966 197.958 63.4624C194.678 65.2129 192.04 67.9594 190.422 71.3061C188.936 74.6228 187.992 78.1561 187.625 81.7717C187.625 81.662 187.625 81.5413 187.625 81.4316C187.866 76.9621 187.848 72.4824 187.57 68.0151C189.203 67.2635 190.664 66.1829 191.861 64.8408C193.057 63.4987 193.964 61.924 194.524 60.2152C196.718 53.9622 193.998 45.954 193.954 46.0417C191.038 48.4044 188.939 51.6243 187.954 55.2457C187.377 57.4836 187.06 59.7806 187.01 62.0911C186.587 58.7058 185.972 55.3471 185.168 52.0315C187.785 49.8964 189.482 46.8368 189.906 43.4857C190.861 36.9035 186.616 29.3231 186.616 29.3889C184.195 32.2993 182.759 35.9017 182.513 39.679C182.425 40.9207 182.425 42.1671 182.513 43.4089C181.644 41.0424 180.648 38.7243 179.53 36.4647C181.43 33.8978 182.338 30.7299 182.085 27.5459C181.712 20.7115 175.965 13.8222 175.932 13.899C174.162 17.3129 173.506 21.1951 174.056 25.0009C174.208 26.1357 174.427 27.2603 174.714 28.3687C173.338 26.3778 171.851 24.466 170.261 22.6423C171.781 19.5758 172.075 16.0449 171.083 12.7691C169.241 5.9456 161.891 -0.0770416 161.869 -0.000250136C160.885 3.84003 161.115 7.89106 162.528 11.5953C163.341 13.7418 164.336 15.8153 165.5 17.7934C164.038 16.4551 162.513 15.1825 160.926 13.9758C160.222 10.3394 158.441 6.99869 155.815 4.38783C151.372 0.306916 144.944 0.0875115 144.944 0.0875115C144.944 0.0875115 145.745 6.4612 150.198 10.5312C152.925 12.8204 156.261 14.2618 159.796 14.6779C162.064 16.3584 164.215 18.191 166.235 20.163C164.026 18.2098 161.4 16.7876 158.557 16.0053C156.808 15.5649 154.983 15.5195 153.215 15.8725C151.447 16.2254 149.779 16.9678 148.334 18.0457C148.41 18.0457 153.621 22.5435 159.226 24.1671C162.617 25.1165 166.22 24.9745 169.526 23.7612V23.6844C171.995 26.5535 174.198 29.6415 176.107 32.9104C176.535 34.0074 176.963 35.0386 177.325 35.8394C175.866 33.6454 173.003 30.113 169.164 28.5113C167.527 27.8155 165.759 27.4817 163.981 27.5328C162.204 27.5839 160.458 28.0188 158.864 28.8075C158.93 28.8075 162.966 33.8977 168.078 36.377C171.239 37.8396 174.771 38.3027 178.202 37.7044C178.202 37.7044 178.202 37.7044 178.257 37.6385H178.378V37.5727C178.432 37.5243 178.483 37.4731 178.531 37.4191C179.745 39.9141 180.811 42.4783 181.723 45.0983C182.272 46.667 182.765 48.2687 183.215 49.9032C181.868 46.8255 179.711 44.1714 176.974 42.2241C175.479 41.2889 173.805 40.6769 172.059 40.4275C170.314 40.1781 168.535 40.2968 166.838 40.776C166.904 40.776 169.8 46.316 174.352 49.5522C177.163 51.4829 180.485 52.533 183.895 52.569C184.64 55.706 185.215 58.8811 185.617 62.0802C184.81 60.1129 183.608 58.3321 182.085 56.8474C180.767 55.6881 179.223 54.8147 177.55 54.2822C175.877 53.7498 174.113 53.5698 172.367 53.7538C173.613 57.3687 175.567 60.6991 178.115 63.5502C180.38 65.7424 183.196 67.2814 186.265 68.0041C186.44 70.6077 186.524 73.2552 186.517 75.9465C186.014 74.4719 185.273 73.0896 184.323 71.8546C183.227 70.4818 181.859 69.3496 180.306 68.5285C178.753 67.7075 177.047 67.2153 175.296 67.0826C175.869 70.832 177.213 74.4217 179.244 77.625C181.044 80.0795 183.442 82.0321 186.21 83.2966C186.045 85.9294 185.782 88.6171 185.442 91.3487C185.223 89.7854 184.737 88.2715 184.005 86.8728C183.148 85.3268 181.985 83.9713 180.588 82.8888C179.191 81.8063 177.588 81.0194 175.877 80.5759C175.817 84.3408 176.542 88.0768 178.005 91.5462C179.432 94.4041 181.589 96.8339 184.257 98.589C183.589 101.89 182.732 105.15 181.69 108.353C182.018 106.06 181.838 103.723 181.164 101.507C180.57 99.824 179.645 98.2771 178.443 96.9581C177.241 95.6391 175.787 94.5747 174.166 93.828C173.463 97.5562 173.549 101.39 174.418 105.083C175.412 108.325 177.27 111.234 179.793 113.498C178.31 117.195 176.569 120.784 174.583 124.237C175.771 121.475 176.217 118.449 175.877 115.461C175.566 113.688 174.909 111.994 173.941 110.477C172.973 108.959 171.715 107.648 170.239 106.619C168.913 110.193 168.349 114.004 168.582 117.809C169.035 121.318 170.451 124.633 172.674 127.386C170.279 131.166 167.583 134.747 164.612 138.093C166.092 135.986 168.177 132.322 168.242 128.406C168.241 124.732 166.781 121.208 164.184 118.61C162.248 121.927 161.022 125.61 160.586 129.426C160.413 133.035 161.249 136.621 162.999 139.782C160.529 142.424 157.891 144.905 155.102 147.209C154.367 147.812 153.621 148.383 152.908 148.953L152.688 149.107C154.575 147.308 157.548 143.918 158.359 139.848C158.691 138.038 158.662 136.181 158.272 134.383C157.882 132.584 157.14 130.881 156.089 129.371C153.571 132.335 151.682 135.78 150.538 139.497C149.683 143.056 149.839 146.783 150.988 150.259C150.988 150.259 150.988 150.259 151.054 150.259C147.303 152.98 143.325 155.373 139.164 157.411C141.456 155.897 144.813 153.144 146.304 149.458C146.985 147.721 147.311 145.865 147.264 144C147.217 142.135 146.797 140.298 146.03 138.597C142.936 141.107 140.371 144.206 138.483 147.714C136.916 151.081 136.331 154.823 136.794 158.508C134.08 159.734 131.3 160.81 128.469 161.734C127.449 162.052 126.418 162.348 125.397 162.633C128.073 161.329 130.392 159.394 132.154 156.994C133.198 155.405 133.906 153.618 134.234 151.745C134.562 149.872 134.504 147.951 134.063 146.101C130.415 148.061 127.17 150.693 124.498 153.857C122.309 156.763 120.938 160.202 120.527 163.818C113.102 165.378 105.487 165.825 97.931 165.145L97.8213 166.385C105.524 167.086 113.288 166.632 120.856 165.036C121.926 166.597 123.304 167.922 124.906 168.93C126.507 169.937 128.299 170.606 130.169 170.894C137.321 172.122 145.218 167.954 145.12 167.943C142.27 165.188 138.592 163.449 134.655 162.995C132.678 162.798 130.687 162.798 128.71 162.995H128.875C131.864 162.027 134.794 160.884 137.65 159.572C140.213 161.992 143.614 163.325 147.138 163.291C154.081 163.291 160.805 157.927 160.718 157.916C157.51 155.758 153.686 154.703 149.825 154.91C148.287 155.011 146.76 155.246 145.262 155.612C147.627 154.227 149.918 152.722 152.129 151.103C154.973 152.948 158.416 153.631 161.749 153.012C168.385 151.827 173.891 145.476 173.815 145.487C170.35 143.931 166.472 143.546 162.769 144.39C161.356 144.742 159.976 145.216 158.645 145.805C160.608 144.05 162.484 142.207 164.261 140.32C167.337 141.623 170.797 141.694 173.924 140.517C180.122 138.224 184.367 131.094 184.29 131.116C180.633 130.213 176.782 130.529 173.321 132.015C171.934 132.625 170.605 133.359 169.35 134.209C170.966 132.118 172.48 129.946 173.891 127.693C177.159 128.479 180.603 127.955 183.489 126.234C189.138 122.943 192.078 115.264 192.012 115.264C188.289 115.034 184.592 116.023 181.482 118.083C180.023 119.074 178.673 120.218 177.456 121.495C178.751 118.983 179.935 116.416 180.988 113.816C182.691 113.968 184.407 113.779 186.036 113.261C187.665 112.743 189.174 111.906 190.477 110.799Z" fill="#547D9B"/>
<path d="M101.08 165.332C93.5197 166.011 85.9008 165.564 78.4724 164.004C78.0673 160.388 76.6956 156.947 74.5016 154.043C71.8318 150.881 68.5907 148.25 64.9476 146.287C64.5113 148.141 64.4605 150.064 64.7982 151.938C65.136 153.812 65.8551 155.596 66.911 157.181C68.6678 159.585 70.9881 161.522 73.668 162.82C72.6369 162.534 71.6167 162.238 70.5966 161.92C67.7615 160.997 64.9785 159.92 62.2602 158.695C62.7235 155.009 62.138 151.268 60.5709 147.9C58.6854 144.394 56.1242 141.295 53.0352 138.784C52.2622 140.483 51.8386 142.319 51.7896 144.185C51.7406 146.051 52.0672 147.907 52.75 149.644C54.2528 153.33 57.6093 156.084 59.8909 157.598C55.7327 155.56 51.7582 153.167 48.0114 150.445C48.0114 150.445 48.0882 150.379 48.0882 150.445C49.2429 146.971 49.4025 143.243 48.5489 139.683C47.3927 135.916 45.4651 132.43 42.8889 129.448C40.7621 132.501 39.9337 136.273 40.5854 139.936C41.3971 144.006 44.3697 147.395 46.2564 149.195L46.037 149.041C45.2911 148.471 44.5342 147.944 43.8432 147.297C41.0517 144.996 38.4135 142.515 35.9455 139.87C37.7234 136.695 38.5711 133.083 38.3916 129.448C37.956 125.634 36.7347 121.951 34.8047 118.632C32.2075 121.23 30.7478 124.754 30.7462 128.428C30.812 132.344 32.8851 136.008 34.3769 138.115C31.4101 134.772 28.7177 131.195 26.3257 127.419C28.5532 124.669 29.9701 121.352 30.4171 117.842C30.651 114.037 30.0869 110.226 28.7608 106.652C27.2869 107.683 26.0311 108.994 25.0654 110.512C24.0997 112.029 23.4433 113.722 23.1337 115.494C22.7896 118.481 23.232 121.507 24.417 124.27C22.4345 120.817 20.6971 117.228 19.2177 113.53C21.7367 111.265 23.591 108.356 24.5816 105.116C25.4507 101.423 25.5367 97.5891 24.8339 93.8609C23.2151 94.6088 21.7627 95.6737 20.5625 96.9927C19.3624 98.3117 18.4389 99.8579 17.8466 101.54C17.1613 103.754 16.9814 106.093 17.3201 108.385C16.2697 105.184 15.4089 101.924 14.7424 98.6219C17.412 96.8647 19.5721 94.4357 21.0057 91.5791C22.4439 88.0744 23.1351 84.3081 23.0349 80.5211C21.3247 80.9663 19.7226 81.7539 18.3255 82.8363C16.9284 83.9186 15.7654 85.2732 14.9069 86.818C14.1798 88.2186 13.6941 89.7317 13.47 91.2938C13.1336 88.5659 12.8776 85.8819 12.7021 83.2417C15.5 81.9913 17.9262 80.0373 19.7442 77.5701C21.7712 74.3638 23.1189 70.7757 23.7041 67.0277C21.9505 67.1596 20.243 67.6514 18.6879 68.4725C17.1329 69.2935 15.7636 70.4261 14.6656 71.7998C13.7341 73.0378 13.0115 74.4201 12.5266 75.8917C12.5266 73.193 12.5924 70.5492 12.7789 67.9492C15.8164 67.2129 18.6007 65.6748 20.8411 63.4953C23.4042 60.6666 25.3769 57.3547 26.6438 53.7538C24.8959 53.5788 23.1308 53.7682 21.4599 54.3101C19.789 54.852 18.2486 55.7347 16.9362 56.9022C15.3615 58.4126 14.1209 60.2363 13.2945 62.2557C13.6936 59.0271 14.2685 55.8227 15.0166 52.6568C18.4267 52.6221 21.7491 51.5718 24.5596 49.6399C27.6108 47.2309 30.1631 44.2498 32.0734 40.8638C30.3758 40.3855 28.5969 40.2682 26.8512 40.5195C25.1055 40.7708 23.4318 41.3851 21.938 42.3228C19.2005 44.2671 17.0462 46.9224 15.7076 50.002C16.161 48.3638 16.6546 46.7621 17.1885 45.197C18.1012 42.577 19.167 40.0129 20.3804 37.5179L20.545 37.6715V37.7373H20.6656L20.7314 37.8031C24.1591 38.4013 27.6876 37.9381 30.8449 36.4757C35.9565 33.9964 39.993 28.9282 40.0698 28.9063C38.4734 28.1187 36.726 27.6845 34.9467 27.6334C33.1674 27.5823 31.3979 27.9154 29.759 28.6101C25.9198 30.2117 23.0679 33.7551 21.609 35.9382C21.96 35.1373 22.3878 34.15 22.8265 33.0091C24.7314 29.7376 26.9346 26.6491 29.4079 23.7832C29.4079 23.7832 29.4628 23.86 29.4079 23.86C32.7135 25.0732 36.3171 25.2152 39.7079 24.2659C45.3021 22.6423 50.5123 18.1554 50.6001 18.1445C49.1524 17.0663 47.483 16.3239 45.7129 15.971C43.9428 15.618 42.1164 15.6635 40.366 16.104C37.5241 16.8889 34.8983 18.3107 32.6877 20.2617C34.7112 18.2897 36.8661 16.4571 39.1375 14.7766C42.71 14.345 46.0755 12.8681 48.8121 10.5312C53.2656 6.4612 54.0663 0.0875115 54.0663 0.0875115C54.0663 0.0875115 47.6385 0.306916 43.185 4.38783C40.5566 7.00481 38.7789 10.3541 38.0844 13.9977C36.483 15.2045 34.9546 16.477 33.4994 17.8154C34.6727 15.8419 35.6676 13.7676 36.472 11.6172C37.8892 7.90637 38.1192 3.84694 37.1301 -0.000250144C37.1301 -0.0770416 29.7699 5.9456 27.9271 12.802C26.9273 16.076 27.2177 19.6085 28.7388 22.6752C27.1481 24.4989 25.6613 26.4107 24.2854 28.4016C24.5759 27.2935 24.7993 26.1688 24.9545 25.0338C25.5006 21.2127 24.829 17.3166 23.0349 13.899C23.0349 13.8222 17.2652 20.7115 16.8923 27.5459C16.6444 30.7363 17.5601 33.9084 19.47 36.4757C18.36 38.7376 17.3678 41.0554 16.4974 43.4198C16.5797 42.1779 16.5797 40.9319 16.4974 39.69C16.2454 35.914 14.8099 32.3134 12.395 29.3999C12.395 29.3341 8.16095 36.8597 9.10429 43.4966C9.52902 46.8478 11.2256 49.9074 13.8429 52.0424C13.0558 55.3583 12.4624 58.7172 12.0659 62.1021C12.0063 59.7917 11.6862 57.4953 11.1116 55.2567C10.124 51.6397 8.02047 48.4265 5.10059 46.0746C5.10059 46.0088 2.38028 53.9951 4.54117 60.2481C5.10158 61.951 6.00755 63.5199 7.20233 64.8564C8.39711 66.1928 9.85496 67.2682 11.4846 68.0151C11.1965 72.4708 11.1672 76.9395 11.3968 81.3987C11.3968 81.5194 11.3968 81.6401 11.3968 81.7497C11.0203 78.1404 10.0686 74.6146 8.57778 71.3061C6.95402 67.9406 4.29866 65.1812 0.998181 63.4295C0.943336 63.3637 -0.263257 71.5913 2.96164 77.3178C3.83277 78.9146 5.03009 80.3102 6.47577 81.4139C7.92146 82.5177 9.58317 83.3049 11.3529 83.7244C11.3546 83.7426 11.3546 83.761 11.3529 83.7792H11.4736C11.6564 86.6534 11.9453 89.5788 12.3401 92.5554C12.4608 93.5098 12.6253 94.4642 12.7789 95.4077C11.8421 92.5667 10.505 89.8739 8.80812 87.4104C6.61565 84.4192 3.53213 82.1994 0 81.0696C0 81.0148 0.164535 89.2753 4.32179 94.3436C5.44177 95.7356 6.83956 96.8789 8.426 97.7006C10.0124 98.5222 11.7527 99.0041 13.5358 99.1156C14.1694 102.226 14.9751 105.299 15.949 108.32C14.7985 106.461 13.4326 104.745 11.8794 103.207C9.1717 100.642 5.71058 99.0147 2.00733 98.5671C1.95249 98.5671 3.54299 106.608 8.51196 110.854C9.80228 111.974 11.3032 112.826 12.9268 113.359C14.5503 113.892 16.264 114.096 17.9673 113.958C19.0642 116.591 20.1611 119.158 21.5103 121.637C20.3109 120.371 18.9839 119.231 17.5504 118.237C14.4399 116.178 10.7433 115.188 7.02017 115.417C6.95436 115.417 9.89406 123.096 15.5321 126.388C18.422 128.109 21.8704 128.633 25.141 127.847C26.5219 130.1 28.0156 132.282 29.6164 134.385C28.3581 133.535 27.0254 132.8 25.6346 132.191C22.1737 130.705 18.3223 130.389 14.6656 131.291C14.5888 131.291 18.8338 138.4 25.0313 140.693C28.1584 141.871 31.6187 141.8 34.695 140.495C36.483 142.404 38.3477 144.247 40.3112 145.98C38.9801 145.39 37.6001 144.916 36.1868 144.565C32.4832 143.726 28.6073 144.111 25.141 145.662C25.0642 145.662 30.5597 152.003 37.2069 153.188C40.5397 153.815 43.9857 153.131 46.8268 151.279C49.0206 152.903 51.3094 154.405 53.6934 155.788C52.1958 155.42 50.6689 155.186 49.1302 155.086C45.27 154.883 41.4481 155.938 38.238 158.091C38.1503 158.091 44.8743 163.456 51.8286 163.467C55.3504 163.503 58.7485 162.17 61.3059 159.748C64.1618 161.059 67.0918 162.202 70.0811 163.171H70.2346C68.2615 162.973 66.2736 162.973 64.3004 163.171C60.3593 163.622 56.6772 165.361 53.825 168.118C53.7372 168.118 61.6349 172.298 68.7758 171.069C70.646 170.781 72.4373 170.113 74.039 169.105C75.6408 168.098 77.019 166.772 78.0885 165.211C85.6566 166.806 93.4208 167.261 101.123 166.56L101.08 165.332Z" fill="#547D9B"/>
<path d="M99.1377 159.145L89.6934 166.089L99.1377 173.033L108.571 166.089L99.1377 159.145Z" fill="#547D9B"/>
<path d="M86.2827 201.248L82.652 191.704L78.9773 201.248L68.7871 201.753L76.7835 208.148L74.1181 218.022L82.6629 212.438L91.2078 218.022L88.5314 208.148L96.5278 201.753L86.2827 201.248ZM75.3137 216.606L82.5423 206.876V211.889L75.3137 216.606ZM77.2771 207.83L70.5531 202.411L82.268 206.47L77.2771 207.83ZM82.5423 193.448V206.031L79.46 201.555L82.5423 193.448ZM88.0268 208.072L90.2974 216.464L83.0249 206.667L88.0268 208.072ZM82.981 206.24L86.0743 201.753L94.7837 202.181L82.981 206.24Z" fill="#547D9B"/>
<path d="M119.99 201.248L116.359 191.704L112.729 201.248L102.527 201.753L110.48 208.148L107.814 218.022L116.359 212.438L124.893 218.022L122.228 208.148L130.18 201.753L119.99 201.248ZM109.021 216.606L116.25 206.876V211.889L109.021 216.606ZM110.973 207.83L104.206 202.455L115.888 206.47L110.973 207.83ZM116.71 206.196L119.804 201.709L128.502 202.137L116.71 206.196ZM121.712 208.072L123.983 216.464L116.71 206.667L121.712 208.072ZM116.228 193.448V206.031L113.134 201.555L116.228 193.448Z" fill="#547D9B"/>
<path d="M153.687 201.248L150.056 191.704L146.426 201.248L136.235 201.753L144.188 208.148L141.511 218.022L150.056 212.438L158.601 218.022L155.936 208.148L163.877 201.753L153.687 201.248ZM142.718 216.606L149.947 206.876V211.889L142.718 216.606ZM144.681 207.83L137.957 202.411L149.65 206.426L144.681 207.83ZM150.385 206.24L153.49 201.753L162.188 202.181L150.385 206.24ZM155.387 208.116L157.669 216.508L150.385 206.711L155.387 208.116ZM149.903 193.492V206.075L146.82 201.599L149.903 193.492Z" fill="#547D9B"/>
<path d="M52.5748 201.248L48.944 191.704L45.3133 201.248L35.123 201.753L43.0756 208.148L40.3991 218.022L48.944 212.438L57.4889 218.022L54.8234 208.148L62.765 201.753L52.5748 201.248ZM41.6057 216.606L48.8343 206.876V211.889L41.6057 216.606ZM43.5692 207.83L36.8452 202.411L48.5382 206.426L43.5692 207.83ZM48.8343 193.448V206.031L45.752 201.555L48.8343 193.448ZM54.3188 208.072L56.5894 216.464L49.317 206.667L54.3188 208.072ZM49.2731 206.24L52.3773 201.753L61.0758 202.181L49.2731 206.24Z" fill="#547D9B"/>
<path d="M132.868 46.4148C115.252 44.4511 101.65 57.5276 101.65 57.5276C96.4036 53.6825 90.451 50.909 84.1324 49.3658C72.5052 46.7658 58.7501 48.1371 49.4154 57.6154C37.4592 69.7375 43.3825 85.4907 54.8999 96.4938C55.8104 97.3495 56.995 98.4246 58.3881 99.6642C59.9786 101.079 61.8543 102.692 63.8726 104.447C75.061 114.002 91.712 127.485 98.6663 132.619C102.878 128.856 107.145 124.874 111.347 120.881C112.968 122.19 114.743 123.295 116.634 124.172C119.241 125.325 122.036 125.998 124.882 126.157C126.892 126.339 128.919 126.149 130.86 125.598C132.512 125.103 134.036 124.253 135.325 123.108C136.546 121.982 137.508 120.605 138.144 119.07C138.81 117.453 139.206 115.737 139.318 113.991C139.373 113.192 139.329 112.388 139.186 111.6C139.058 110.888 138.864 110.19 138.605 109.515C138.391 108.947 138.1 108.412 137.738 107.925C137.593 107.699 137.404 107.506 137.181 107.357C136.958 107.208 136.707 107.106 136.444 107.058C136.252 107.039 136.06 107.071 135.884 107.15C135.709 107.228 135.558 107.352 135.445 107.508C135.321 107.711 135.246 107.94 135.226 108.177C135.212 108.48 135.26 108.783 135.369 109.066C135.455 109.317 135.525 109.573 135.577 109.834C135.66 110.265 135.719 110.701 135.753 111.139C135.807 111.792 135.807 112.449 135.753 113.103C135.713 114.001 135.481 114.88 135.073 115.681C134.711 116.347 134.21 116.927 133.603 117.381C132.946 117.865 132.201 118.216 131.409 118.412C130.46 118.63 129.483 118.7 128.513 118.621C126.587 118.461 124.705 117.964 122.952 117.151C121.317 116.376 119.812 115.355 118.487 114.123C119.442 113.201 120.418 112.28 121.35 111.369L121.581 111.117L126.473 106.411L126.813 106.093L132.725 100.388C144.791 88.7927 153.292 80.3895 155.475 72.6994C158.327 62.6397 152.393 48.5759 132.868 46.4148ZM100.696 69.2109C101.666 69.2315 102.615 69.4954 103.456 69.9784C104.298 70.4614 105.004 71.1481 105.511 71.9754C106.608 73.7306 107.025 76.3635 106.783 79.7533C106.667 81.5784 106.252 83.372 105.555 85.0628C104.91 86.6118 103.924 87.9954 102.67 89.1109C101.308 90.2869 99.7058 91.1517 97.9753 91.645C96.0394 92.1887 94.0266 92.4075 92.0191 92.2922L92.2604 88.1235C92.414 86.094 92.6005 83.9768 92.8418 81.8266C93.0801 79.6531 93.4463 77.4955 93.9387 75.3652C94.1708 74.4295 94.5017 73.5212 94.9259 72.6555C95.2798 71.918 95.767 71.2523 96.3628 70.6919C96.9419 70.1399 97.6348 69.7214 98.3927 69.4655C99.1506 69.2097 99.9554 69.1228 100.75 69.2109H100.696ZM74.2822 101.584C73.8983 101.277 73.5363 100.959 73.1853 100.63C72.3626 99.9165 71.529 99.1705 70.6953 98.4355C69.5984 97.4153 68.5015 96.3731 67.4046 95.309C65.3992 93.3476 63.5644 91.219 61.9201 88.9463C55.58 79.7533 50.2601 70.7687 61.8324 62.6178C70.4979 56.5293 80.6333 57.023 98.0301 66.2599C97.3939 66.3696 96.7468 66.5012 96.0886 66.6329C94.9259 66.8852 93.7083 67.1375 92.425 67.3789C91.064 67.6326 89.6847 67.7757 88.3006 67.8067C87.116 67.8616 86.1068 67.9054 85.1964 67.9164C84.286 67.9274 83.5072 67.9164 82.7832 67.9164C82.0592 67.9164 81.3901 67.9164 80.7539 67.8177L77.2109 67.5654C76.6844 67.5654 76.114 67.5654 75.401 67.5654C74.7969 67.5038 74.1922 67.6766 73.7118 68.048C73.3665 68.3624 73.1578 68.7995 73.1305 69.2657C73.0951 69.5386 73.137 69.8158 73.2515 70.066C73.3659 70.3162 73.5482 70.5292 73.7776 70.6809C74.1496 70.9102 74.5635 71.0631 74.9952 71.1307C75.9093 71.2843 76.7758 71.4488 77.5949 71.6243C78.3244 71.7791 79.0268 72.0416 79.679 72.4032C80.3134 72.7652 80.8661 73.2545 81.3024 73.8403C81.8459 74.5922 82.2406 75.4412 82.4651 76.3415C82.8125 77.7449 83.0617 79.1709 83.211 80.6089C83.4084 82.3422 83.551 84.2291 83.6388 86.2147C83.7265 88.2003 83.7814 90.2956 83.8033 92.369C83.8253 94.4424 83.8033 96.417 83.8033 98.249C83.8033 100.081 83.8033 101.694 83.6936 103.065C83.5839 104.436 83.5949 105.435 83.551 106.038C83.5072 106.641 83.4304 108.067 83.3207 109.592L74.4467 101.803L74.2822 101.584ZM95.9789 120.672L93.7851 118.719C93.1312 118.065 92.6359 117.269 92.3372 116.394C92.0764 115.515 91.9145 114.61 91.8546 113.695C91.7339 112.466 91.7888 106.082 91.7668 104.546C91.7449 103.01 91.7668 101.376 91.7668 99.7081C91.7668 98.3697 91.8326 97.0752 91.8765 95.8466H92.0849C92.5456 95.8466 93.105 95.9563 93.7742 96.0001C94.4433 96.044 94.8711 96.066 95.5182 96.0769C95.9351 96.0769 96.3848 96.0769 96.8345 96.0769C97.0539 96.9875 97.3501 98.0955 97.712 99.368C98.1891 101.158 98.8241 102.902 99.6097 104.579C100.943 107.376 102.517 110.052 104.315 112.576C101.244 115.406 98.3921 118.138 95.9789 120.672ZM140.897 76.1221C137.316 80.8831 133.385 85.3713 129.138 89.5497C125.716 92.8407 121.855 96.4828 117.917 100.092L112.564 104.941L112.092 105.402C110.315 102.22 107.409 96.9546 106.74 94.4314L107.485 94.201C108.896 93.7349 110.198 92.9886 111.314 92.007C112.421 91.0499 113.388 89.9421 114.188 88.7159C115.008 87.4715 115.654 86.1206 116.107 84.7008C116.57 83.3123 116.857 81.8713 116.963 80.4115C117.064 78.8797 116.961 77.3413 116.656 75.8369C116.329 74.197 115.643 72.6498 114.648 71.3062C113.509 69.8019 112.047 68.5723 110.37 67.708C108.168 66.6326 105.766 66.0273 103.317 65.9308C108.802 62.179 115.131 57.7251 127.175 58.8111C141.182 60.0398 146.634 68.3552 140.897 76.0673V76.1221Z" fill="#547D9B"/>
</g>
<defs>
<clipPath id="clip0">
<rect width="199" height="218" fill="white"/>
</clipPath>
</defs>
</svg>
