<svg width="24" height="26" viewBox="0 0 24 26" fill="none" xmlns="http://www.w3.org/2000/svg">
<path d="M8.24496 25.202C7.81276 25.202 7.41381 25.0358 7.08135 24.7698C6.48293 24.2379 6.28345 23.4732 6.54942 22.7086C6.91512 21.7444 7.14785 20.6473 7.21434 19.517V19.384H3.88976C1.72878 19.3507 0 17.622 0 15.461V4.09093C0 1.92995 1.72878 0.201172 3.88976 0.201172H19.7148C21.8425 0.201172 23.6045 1.92995 23.6045 4.09093V15.4942C23.6045 17.622 21.8757 19.384 19.7148 19.384H15.1601L15.1268 19.4505C13.1653 22.0104 11.1706 23.8722 9.17584 25.0025C8.84338 25.1023 8.54417 25.202 8.24496 25.202ZM3.85651 1.9632C2.69291 1.9632 1.72878 2.92733 1.72878 4.09093V15.4942C1.72878 16.6578 2.69291 17.622 3.85651 17.622H8.11197C8.57741 17.622 8.97636 17.9877 8.97636 18.4531C9.04286 19.5835 8.94312 21.3455 8.17846 23.307L8.04548 23.6727L8.37794 23.4732C10.6387 22.1101 12.6999 19.7165 14.0297 17.9544C14.196 17.7549 14.4619 17.622 14.7279 17.622H19.748C20.9116 17.622 21.8757 16.6578 21.8757 15.4942V15.3613H21.8425V4.09093C21.8425 2.92733 20.8784 1.9632 19.7148 1.9632H3.85651Z" fill="#547D9B"/>
<path d="M14.4951 14.364C14.2956 14.364 14.0961 14.2975 13.9299 14.1645L11.5694 12.2363L11.4697 12.3028C9.97365 13.5329 8.67707 14.231 8.64382 14.2643C8.51084 14.364 8.37785 14.3973 8.21163 14.3973C7.91241 14.3973 7.6132 14.1978 7.44697 13.9318C7.21425 13.5329 7.38048 13.0009 7.77943 12.7682L7.81268 12.735C8.90979 12.0701 10.9378 10.7402 12.2676 9.01145L12.4338 8.81197H7.77943C7.28074 8.81197 6.91504 8.41302 6.91504 7.94758C6.91504 7.48214 7.31399 7.08319 7.77943 7.08319H10.8048V5.52064C10.8048 5.0552 11.2037 4.65625 11.6692 4.65625C12.1679 4.65625 12.5336 5.0552 12.5336 5.52064V7.0167H15.5589C16.0576 7.0167 16.4233 7.41565 16.4233 7.88109C16.4233 8.34653 16.0244 8.74548 15.5589 8.74548H14.4286L14.3953 8.81197C13.9964 9.51013 13.4645 10.2415 12.8328 10.9065L12.7331 11.0062L14.9273 12.8015C15.0935 12.9345 15.2265 13.1672 15.2265 13.3999C15.2597 13.6326 15.1932 13.8653 15.027 14.0316C15.027 14.231 14.761 14.364 14.4951 14.364Z" fill="#547D9B"/>
</svg>
