<svg width="85" height="18" viewBox="0 0 85 18" fill="none" xmlns="http://www.w3.org/2000/svg">
<path d="M18.2671 12.7926C18.1303 12.7926 18.039 12.747 17.9022 12.6558C17.6742 12.4733 17.6286 12.1085 17.811 11.8804L21.1861 7.54757L16.8532 4.1725C16.6252 3.99007 16.5795 3.62519 16.762 3.39715C16.9444 3.1691 17.3093 3.12349 17.5373 3.30593L22.3263 7.00026C22.5543 7.1827 22.5999 7.54757 22.4175 7.77562L18.7232 12.5646C18.5863 12.7014 18.4039 12.7926 18.2671 12.7926Z" fill="black"/>
<path d="M13.022 13.4779C12.8851 13.4779 12.7939 13.4323 12.6571 13.341C12.429 13.1586 12.3834 12.7937 12.5659 12.5657L15.9409 8.18722L11.6081 4.81215C11.38 4.62971 11.3344 4.26484 11.5169 4.0368C11.6993 3.80875 12.0642 3.76314 12.2922 3.94558L17.0812 7.63991C17.3092 7.82235 17.3548 8.18722 17.1724 8.41527L13.4781 13.2042C13.3868 13.3867 13.2044 13.4779 13.022 13.4779Z" fill="black"/>
<path d="M7.82246 14.1159C7.68563 14.1159 7.59441 14.0702 7.45759 13.979C7.22954 13.7966 7.18393 13.4317 7.36637 13.2037L10.7414 8.87081L6.36297 5.49574C6.13492 5.31331 6.08931 4.94844 6.27175 4.72039C6.45419 4.49235 6.81906 4.44674 7.0471 4.62917L11.8361 8.32351C12.0641 8.50594 12.1097 8.87081 11.9273 9.09886L8.23294 13.8878C8.14172 14.0702 8.00489 14.1159 7.82246 14.1159Z" fill="black"/>
<path d="M0.980883 10.8306C0.707229 10.8306 0.479184 10.6482 0.433575 10.3745C0.387966 10.0553 0.616011 9.78163 0.889665 9.73602L24.1503 5.99607C24.4695 5.95047 24.7432 6.17851 24.7888 6.45217C24.8344 6.77143 24.6064 7.04508 24.3327 7.09069L1.0721 10.8306C1.0721 10.8306 1.02649 10.8306 0.980883 10.8306Z" fill="black"/>
<path d="M67.2515 12.7926C67.0691 12.7926 66.9323 12.7014 66.7954 12.5646L63.1011 7.77562C62.873 7.54757 62.9187 7.1827 63.1923 7.00026L67.9813 3.30593C68.2093 3.12349 68.5742 3.1691 68.7566 3.39715C68.939 3.62519 68.8934 3.99007 68.6654 4.1725L64.3325 7.54757L67.7076 11.8804C67.89 12.1085 67.8444 12.4733 67.6164 12.6558C67.4796 12.747 67.3427 12.7926 67.2515 12.7926Z" fill="black"/>
<path d="M72.4515 13.4772C72.269 13.4772 72.1322 13.386 71.9954 13.2491L68.301 8.46019C68.1186 8.23214 68.1642 7.86727 68.3923 7.68483L73.1812 3.9905C73.4093 3.80806 73.7741 3.85367 73.9566 4.08172C74.139 4.30976 74.0934 4.67464 73.8654 4.85707L69.5325 8.18653L72.9076 12.5194C73.09 12.7474 73.0444 13.1123 72.8163 13.2947C72.6795 13.4316 72.5883 13.4772 72.4515 13.4772Z" fill="black"/>
<path d="M77.6497 14.1159C77.4673 14.1159 77.3304 14.0246 77.1936 13.8878L73.4993 9.09886C73.3169 8.87081 73.3625 8.50594 73.5905 8.32351L78.4251 4.62917C78.6531 4.44674 79.018 4.49235 79.2004 4.72039C79.3829 4.94844 79.3372 5.31331 79.1092 5.49574L74.7763 8.87081L78.1514 13.2037C78.3338 13.4317 78.2882 13.7966 78.0602 13.979C77.9234 14.0702 77.7865 14.1159 77.6497 14.1159Z" fill="black"/>
<path d="M84.4912 10.8314C84.4456 10.8314 84.4456 10.8314 84.4 10.8314L61.0938 7.04589C60.8201 7.00028 60.5921 6.72663 60.6377 6.40736C60.6833 6.0881 60.9569 5.90566 61.2762 5.95127L84.5368 9.69121C84.8561 9.73682 85.0385 10.0105 84.9929 10.3297C84.9929 10.649 84.7649 10.8314 84.4912 10.8314Z" fill="black"/>
<path d="M42.604 17.7305C41.6463 17.7305 40.6885 17.4113 40.0043 16.7271C39.1834 15.9062 38.9097 14.7203 39.2746 13.352C39.457 12.6679 39.7763 11.9838 40.2324 11.2084C39.5026 11.6645 38.7729 11.9838 38.0887 12.1662C36.7205 12.5311 35.5346 12.2574 34.7137 11.4365C33.391 10.1138 33.391 7.60531 34.7137 6.28265C35.5802 5.46168 36.7661 5.18803 38.1344 5.5529C38.8185 5.73534 39.5026 6.0546 40.278 6.51069C39.8219 5.78095 39.5026 5.0512 39.3202 4.36707C38.9553 2.99879 39.229 1.81296 40.0499 0.991997C41.3726 -0.330665 43.8811 -0.330665 45.2038 0.991997C46.0247 1.81296 46.2984 2.99879 45.9335 4.36707C45.7511 5.0512 45.4318 5.73534 44.9757 6.51069C45.7055 6.0546 46.4352 5.73534 47.1193 5.5529C48.4876 5.18803 49.6734 5.46168 50.4944 6.28265C51.8171 7.60531 51.8171 10.1138 50.4944 11.4365C49.6734 12.2574 48.4876 12.5311 47.1193 12.1662C46.4352 11.9838 45.7511 11.6645 44.9757 11.2084C45.4318 11.9382 45.7511 12.6679 45.9335 13.352C46.2984 14.7203 46.0247 15.9062 45.2038 16.7271C44.5196 17.3656 43.5618 17.7305 42.604 17.7305ZM42.604 9.47528C41.2358 10.9804 40.4148 12.3486 40.0955 13.5345C39.8219 14.6291 40.0043 15.5413 40.5972 16.1342C41.6006 17.1376 43.6074 17.1376 44.6108 16.1342C45.2038 15.5413 45.3862 14.6291 45.1125 13.5345C44.7933 12.3486 43.9723 10.9804 42.604 9.47528ZM43.2426 8.83675C44.7477 10.205 46.1159 11.026 47.3018 11.3452C48.3964 11.6189 49.3086 11.4365 49.9015 10.8435C50.9049 9.84015 50.9049 7.83335 49.9015 6.82995C49.3086 6.23704 48.3964 6.0546 47.3018 6.32825C46.1159 6.64752 44.7477 7.51409 43.2426 8.83675ZM36.9941 6.19143C36.31 6.19143 35.7627 6.41947 35.3522 6.82995C34.3488 7.83335 34.3488 9.84015 35.3522 10.8435C35.9451 11.4365 36.8573 11.6189 37.9519 11.3452C39.1378 11.026 40.506 10.205 42.0111 8.83675C40.506 7.46848 39.1378 6.64752 37.9519 6.32825C37.587 6.23704 37.2678 6.19143 36.9941 6.19143ZM42.604 0.80956C41.8743 0.80956 41.0989 1.08321 40.5972 1.58491C40.0043 2.17783 39.8219 3.09001 40.0955 4.18463C40.4148 5.37046 41.2358 6.73874 42.604 8.24383C43.9723 6.73874 44.7933 5.37046 45.1125 4.18463C45.3862 3.09001 45.2038 2.17783 44.6108 1.58491C44.1091 1.03761 43.3794 0.80956 42.604 0.80956Z" fill="black"/>
</svg>
