<svg width="87" height="62" viewBox="0 0 87 62" fill="none" xmlns="http://www.w3.org/2000/svg">
<path d="M8.6 61.4C3.8 61.4 0 57.4 0 52.5V8.90002C0 4.00002 3.9 0 8.6 0H77.9C82.7 0 86.5 4.00002 86.5 8.90002V52.5C86.5 57.4 82.6 61.4 77.9 61.4H8.6ZM9.1 56.7H77.5L55.2 34.3L49 40.2C47.5 41.6 45.5 42.4 43.4 42.4C41.3 42.4 39.3 41.6 37.8 40.2L31.6 34.3L9.1 56.7ZM58.5 31.1L81.8 54.5V9L58.5 31.1ZM4.7 54.5L28.1 31.2L4.7 8.90002V54.5ZM40.9 36.8C41.6 37.5 42.4 37.9 43.3 37.9C44.2 37.9 44.9 37.5 45.7 36.8L79.5 4.70001H7.1L40.9 36.8Z" fill="white"/>
</svg>
