<svg width="29" height="21" viewBox="0 0 29 21" fill="none" xmlns="http://www.w3.org/2000/svg">
<path d="M2.85914 20.9998C1.26334 20.9998 0 19.67 0 18.041V3.5458C0 1.91675 1.29659 0.586914 2.85914 0.586914H25.8985C27.4943 0.586914 28.7576 1.91675 28.7576 3.5458V18.041C28.7576 19.67 27.461 20.9998 25.8985 20.9998H2.85914ZM3.02537 19.4373H25.7655L18.3517 11.9902L16.2904 13.9517C15.7917 14.4172 15.1268 14.6831 14.4287 14.6831C13.7305 14.6831 13.0656 14.4172 12.5669 13.9517L10.5057 11.9902L3.02537 19.4373ZM19.4488 10.9264L27.1951 18.7059V3.57904L19.4488 10.9264ZM1.56255 18.7059L9.34207 10.9596L1.56255 3.5458V18.7059ZM13.5975 12.8214C13.8302 13.0541 14.0962 13.1871 14.3954 13.1871C14.6946 13.1871 14.9274 13.0541 15.1933 12.8214L26.4304 2.14947H2.36045L13.5975 12.8214Z" fill="#67983F"/>
</svg>
