<svg width="57" height="33" viewBox="0 0 57 33" fill="none" xmlns="http://www.w3.org/2000/svg">
<path d="M38.8672 27.1107C39.2619 27.1759 39.5905 27.0275 39.9354 26.7804L49.6391 17.7417C50.2139 17.33 50.2457 16.5244 49.719 16.0319L40.6803 6.32818C40.2522 5.852 39.4466 5.82022 38.9704 6.2483C38.4942 6.67639 38.4625 7.48199 38.8905 7.95816L47.0568 16.8082L38.2067 24.9744C37.7306 25.4025 37.6988 26.2081 38.1269 26.6843C38.3902 26.9305 38.6699 27.0781 38.8672 27.1107Z" fill="white"/>
<path d="M27.3752 26.7318C27.7699 26.797 28.0985 26.6486 28.4434 26.4015L38.1471 17.3628C38.6233 16.9347 38.655 16.1291 38.227 15.653L29.1883 5.94926C28.7602 5.47309 27.9546 5.4413 27.4784 5.86939C27.0022 6.29747 26.9704 7.10307 27.3985 7.57925L35.5811 16.3306L26.731 24.4968C26.2549 24.9249 26.2231 25.7305 26.6512 26.2067C26.8982 26.5516 27.0792 26.6829 27.3752 26.7318Z" fill="white"/>
<path d="M15.8995 26.2542C16.2942 26.3195 16.6228 26.1711 16.9677 25.924L26.6714 16.8853C27.1475 16.4572 27.1793 15.6516 26.7513 15.1754L17.6139 5.45542C17.1858 4.97924 16.3802 4.94746 15.904 5.37554C15.4279 5.80363 15.3961 6.60923 15.8242 7.0854L23.9904 15.9354L15.1404 24.1016C14.6642 24.5297 14.6324 25.3353 15.0605 25.8115C15.3239 26.0577 15.6035 26.2053 15.8995 26.2542Z" fill="white"/>
<path d="M2.27429 16.7046C2.37295 16.7209 2.37296 16.7209 2.47162 16.7372L54.2411 16.8806C54.8494 16.8798 55.4405 16.3693 55.456 15.6624C55.4715 14.9554 54.9447 14.463 54.2378 14.4475L2.58328 14.2217C1.87634 14.2063 1.38386 14.733 1.36838 15.4399C1.25424 16.1306 1.68233 16.6068 2.27429 16.7046Z" fill="white"/>
</svg>
