<svg width="201" height="38" viewBox="0 0 201 38" fill="none" xmlns="http://www.w3.org/2000/svg">
<path d="M69.6502 28.2644C68.5257 28.2644 67.5137 28.0952 66.6141 27.757C65.7145 27.4187 64.9273 26.9677 64.2526 26.4604C63.578 25.953 62.9595 25.3329 62.5097 24.7127C62.0037 24.0926 61.6101 23.4161 61.2727 22.796C60.9354 22.1759 60.6543 21.5557 60.4294 20.992C60.2607 20.541 60.1483 20.1464 60.0358 19.8081C59.8671 19.8081 59.6985 19.8645 59.586 19.8645C59.3611 19.8645 59.1362 19.8645 58.9676 19.8645C58.7427 19.8645 58.5178 19.8645 58.3491 19.8645H58.2929C58.2929 20.3155 58.3491 20.7665 58.3491 21.2739C58.4053 21.894 58.4053 22.4577 58.4615 23.0215C58.5178 23.5852 58.574 24.0926 58.6302 24.5436C58.6864 24.9946 58.7989 25.2765 58.8551 25.502C59.0238 25.8402 59.1924 26.1221 59.4736 26.2912C59.7547 26.5167 59.9796 26.6859 60.2607 26.7986C60.5418 26.9114 60.7667 27.0241 60.9354 27.0805C61.0479 27.1368 61.3852 27.2496 61.3852 27.5878C61.3852 27.7006 61.329 28.0389 60.7105 28.0389C60.4294 28.0389 60.092 27.9825 59.7547 27.9261L58.6864 27.6442C58.2929 27.5315 57.8993 27.4751 57.4495 27.3623C57.0559 27.306 56.6061 27.2496 56.1563 27.2496C55.7065 27.2496 55.2567 27.2496 54.8069 27.306C54.3009 27.3624 53.8511 27.3623 53.4576 27.3623C52.8953 27.3623 52.4455 27.306 52.2206 27.2496C51.7708 27.0805 51.6584 26.7986 51.6584 26.6295C51.6584 26.4604 51.7146 26.2912 51.8271 26.1785C51.9395 26.0657 52.1644 26.0094 52.3893 26.0094C52.6142 26.0094 52.7829 26.0094 53.0078 26.0094C53.1764 26.0094 53.3451 26.0094 53.5138 26.0094C53.9074 26.0094 54.2447 26.0093 54.5258 25.953C54.7507 25.8966 54.9756 25.7839 55.0881 25.6711C55.2567 25.502 55.3692 25.3329 55.4254 25.051C55.4816 24.7691 55.5379 24.3181 55.5379 23.8107C55.5379 23.5852 55.5379 23.247 55.5379 22.7396C55.5379 22.2322 55.4816 21.6685 55.4254 20.992C55.3692 20.3155 55.313 19.639 55.2567 18.8497C55.2005 18.1169 55.1443 17.384 55.0318 16.6511C54.9756 15.9182 54.8632 15.2417 54.7507 14.6216C54.6383 14.0015 54.5258 13.4941 54.3572 13.0995C54.2447 12.7049 54.076 12.423 53.8511 12.2539C53.6825 12.0284 53.4576 11.9156 53.2327 11.8029C53.0078 11.6901 52.7266 11.6337 52.4455 11.5774C52.1644 11.521 51.8271 11.521 51.4897 11.4646C51.321 11.4646 51.1524 11.4082 51.0399 11.3519C50.9275 11.2955 50.7588 11.1827 50.7588 10.8445C50.7588 10.6754 50.815 10.5062 50.9275 10.3935C51.0399 10.2807 51.2648 10.2244 51.5459 10.168C51.7708 10.168 51.9957 10.168 52.2206 10.168H53.5138C53.7387 10.168 53.9636 10.168 54.2447 10.168C54.5258 10.168 54.8069 10.1116 55.0881 10.1116C55.4254 10.0552 55.7628 10.0552 56.2126 9.99886C56.7748 9.94248 57.2246 9.82973 57.6744 9.71698C58.1242 9.60423 58.574 9.49148 58.9676 9.37873C59.4173 9.26598 59.8109 9.15323 60.2045 9.04048C60.5981 8.92773 61.0479 8.92773 61.5539 8.92773C62.5659 8.92773 63.4655 9.09686 64.1402 9.37873C64.8149 9.66061 65.3771 10.0552 65.7707 10.5626C66.1643 11.0136 66.4454 11.5774 66.6141 12.1411C66.7827 12.7049 66.839 13.2686 66.839 13.776C66.839 14.2834 66.7827 14.8471 66.6703 15.3545C66.5578 15.8619 66.3329 16.3692 66.1081 16.8766C65.8269 17.3276 65.5458 17.7786 65.1522 18.1169C64.7587 18.5115 64.3089 18.7934 63.8591 19.0189L63.578 19.1316C63.9715 20.2027 64.4213 21.1611 64.9273 22.0067C65.4896 22.8524 66.0518 23.5852 66.7265 24.149C67.345 24.7127 68.0197 25.1074 68.6944 25.3329C69.3691 25.6147 70.0438 25.7275 70.7185 25.7275C71.112 25.7275 71.4494 25.6711 71.7305 25.5583C72.0116 25.4456 72.2927 25.3329 72.5176 25.1074C72.7425 24.9382 72.9112 24.7127 73.0237 24.4309C73.1361 24.149 73.1923 23.8671 73.1923 23.4725C73.1923 23.1906 73.1923 22.9651 73.1361 22.7396C73.0799 22.5705 73.0799 22.4014 73.0237 22.2886C72.9674 22.1759 72.9674 22.0631 72.9112 22.0067C72.855 21.894 72.855 21.7812 72.855 21.6685C72.855 21.5557 72.855 21.4994 72.9112 21.443C72.9674 21.3302 73.0799 21.2739 73.2485 21.2739C73.4734 21.2739 73.6421 21.443 73.7546 21.5557C73.867 21.7249 73.9795 21.894 74.0919 22.1195C74.2044 22.4014 74.3168 22.7396 74.4293 23.0779C74.4855 23.247 74.4855 23.4161 74.4855 23.5289C74.4855 24.2617 74.4293 24.9382 74.2044 25.5583C74.0357 26.1221 73.6983 26.6295 73.3048 27.0805C72.9112 27.5315 72.4052 27.8697 71.7867 28.0952C71.1682 28.1516 70.4936 28.2644 69.6502 28.2644ZM60.7667 9.99886C60.4294 9.99886 60.1483 10.0552 59.9234 10.168C59.6985 10.2807 59.4736 10.4499 59.2487 10.619C59.08 10.8445 58.9113 11.07 58.7989 11.3519C58.6864 11.6337 58.574 11.972 58.5178 12.3666C58.4053 13.1559 58.2929 13.9451 58.2929 14.7344C58.2366 15.5236 58.2366 16.3129 58.2366 17.0457V18.5679C59.0238 18.5115 59.7547 18.3987 60.3732 18.1732C61.0479 17.9477 61.5539 17.5531 62.0037 17.1585C62.3972 16.7075 62.7346 16.2001 62.9595 15.6364C63.1844 15.0162 63.2406 14.3961 63.2406 13.6632C63.2406 12.423 63.0157 11.521 62.5659 10.9009C62.1723 10.2807 61.5539 9.99886 60.7667 9.99886Z" fill="#EE942F"/>
<path d="M80.1066 25.2197C79.2632 25.2197 78.476 25.107 77.7451 24.8251C76.9579 24.5432 76.2832 24.1485 75.7209 23.6411C75.1586 23.1337 74.6526 22.4572 74.3152 21.6679C73.9778 20.8786 73.7529 20.033 73.7529 19.0745C73.7529 18.1161 73.9216 17.2141 74.2027 16.4248C74.4839 15.6355 74.9337 14.959 75.496 14.3952C76.0583 13.8314 76.733 13.3804 77.5202 13.0985C78.3073 12.8166 79.207 12.6475 80.1628 12.6475C81.0063 12.6475 81.8497 12.8166 82.5806 13.0985C83.3116 13.3804 83.9301 13.8314 84.4923 14.3388C85.0546 14.9026 85.4482 15.5227 85.7293 16.312C86.0105 17.1013 86.1792 17.947 86.1792 18.9054C86.1792 20.033 86.0105 20.9914 85.6169 21.7807C85.2233 22.57 84.7735 23.2465 84.155 23.7539C83.5927 24.2613 82.918 24.6559 82.187 24.8815C81.5123 25.107 80.7813 25.2197 80.1066 25.2197ZM79.9942 13.6059C79.5443 13.6059 79.207 13.7186 78.9258 13.8878C78.6447 14.1133 78.3636 14.3952 78.1387 14.7334C77.9138 15.1281 77.7451 15.5791 77.6888 16.0865C77.5764 16.5939 77.5202 17.1577 77.5202 17.7215C77.5202 18.2289 77.5764 18.6799 77.6326 19.1873C77.6888 19.6947 77.8013 20.1457 77.9138 20.5967C78.0262 21.0478 78.1949 21.4988 78.3636 21.8371C78.5323 22.2317 78.7572 22.57 78.9821 22.8519C79.207 23.1337 79.4881 23.3593 79.7693 23.472C80.0504 23.6411 80.3878 23.6975 80.7251 23.6975C81.1749 23.6975 81.5685 23.5848 81.8497 23.4156C82.1308 23.1901 82.4119 22.9646 82.5806 22.6263C82.7493 22.2881 82.918 21.8934 82.9742 21.4424C83.0304 20.9914 83.0867 20.5404 83.0867 20.0893C83.0867 18.9618 83.0304 17.947 82.8618 17.1013C82.6931 16.2556 82.4682 15.5791 82.187 15.0717C81.9059 14.5643 81.5685 14.1697 81.2312 13.8878C80.7813 13.775 80.3878 13.6059 79.9942 13.6059Z" fill="#EE942F"/>
<path d="M87.6407 26.7432C87.3596 26.7432 87.1909 26.6868 87.0784 26.6305C86.966 26.5177 86.8535 26.3486 86.8535 26.1794C86.8535 25.9539 86.9097 25.7284 87.0784 25.5029C88.0343 23.9807 88.8215 22.6276 89.5524 21.4437C90.2834 20.2034 90.9019 19.1322 91.4642 18.1738C92.0264 17.2153 92.4762 16.3133 92.8698 15.5804C93.151 15.0166 93.4321 14.5092 93.657 14.0582C93.5446 14.0582 93.4321 14.0582 93.3759 14.0018C93.151 13.9454 92.8698 13.9454 92.6449 13.9454C92.3638 13.9454 92.1389 13.8891 91.8577 13.8891C91.5766 13.8891 91.3517 13.8891 91.1268 13.8891C90.9019 13.8891 90.7332 13.8891 90.5645 13.8891C90.3958 13.8891 90.2272 13.9454 90.1147 13.9454C89.8336 14.0018 89.6649 14.0582 89.4962 14.2273C89.3275 14.3965 89.1588 14.5656 88.9902 14.8475C88.8215 15.1294 88.709 15.4113 88.5966 15.8059C88.4841 16.2005 88.3717 16.5952 88.2592 17.0462L88.1467 17.6664C88.0905 17.8919 88.0343 18.061 88.0343 18.2301C87.9781 18.3993 87.9218 18.5684 87.8656 18.6812C87.7532 18.9067 87.5282 18.9631 87.4158 18.9631C87.3033 18.9631 87.1909 18.9067 87.0222 18.7375C86.966 18.6248 86.9097 18.4557 86.9097 18.2301C86.9097 18.1738 86.9097 18.0046 86.9097 17.7791C86.9097 17.5536 86.966 17.3281 86.966 17.0462C86.966 16.7643 87.0222 16.4824 87.0222 16.2569C87.0222 15.975 87.0784 15.7495 87.0784 15.5804L87.1909 13.0434C87.1909 12.7051 87.3033 12.4232 87.4158 12.3105C87.5845 12.1413 87.7532 12.085 88.0343 12.085C88.2592 12.085 88.4841 12.1413 88.7652 12.1977C89.0464 12.2541 89.3837 12.3105 89.7211 12.4232C90.0585 12.4796 90.5083 12.5924 90.9581 12.6487C91.4079 12.7051 91.8577 12.7615 92.42 12.8179C92.9261 12.8743 93.3759 12.8743 93.7695 12.9306C94.1631 12.9306 94.5004 12.9306 94.7816 12.9306C95.0627 12.9306 95.3438 12.9306 95.5687 12.9306C95.8499 12.9306 96.0748 12.9306 96.3559 12.9306C96.6371 12.9306 96.862 12.987 96.9744 13.0998C97.0869 13.2125 97.1993 13.3817 97.1993 13.6072C97.1993 13.7199 97.1993 13.8891 97.1431 14.0018L97.0307 14.2273C96.9744 14.2837 96.1873 15.975 96.1873 15.975C95.9623 16.4824 95.6812 16.9898 95.4001 17.61C95.1189 18.2301 94.8378 18.8503 94.5004 19.5268C94.2193 20.147 93.8819 20.8235 93.6008 21.4437C93.3197 22.0638 93.0385 22.6276 92.8136 23.135C92.5887 23.6424 92.3638 24.0934 92.1951 24.4317C91.9702 24.8827 91.914 24.9955 91.914 24.9955V25.0519C91.9702 25.0519 92.0827 25.0519 92.1389 25.0519C92.3638 25.0519 92.7012 25.0519 93.0385 24.9955C93.4321 24.9391 93.7695 24.9391 94.1631 24.8827C94.5567 24.8264 94.894 24.77 95.2876 24.7136C95.625 24.6572 95.9061 24.6008 96.0748 24.5445C96.2997 24.4317 96.5246 24.319 96.6933 24.2062C96.862 24.0371 96.9744 23.8679 97.0869 23.6988C97.1993 23.5297 97.2556 23.3042 97.3118 23.135C97.368 22.9095 97.4243 22.7404 97.4805 22.5149C97.4805 22.4021 97.5367 22.2894 97.5367 22.1202C97.5367 21.9511 97.5929 21.8383 97.6492 21.6692C97.7054 21.5001 97.7616 21.3873 97.8178 21.2746C97.9303 21.049 98.1552 20.9927 98.2114 20.9927C98.3801 20.9927 98.605 21.049 98.6612 21.5564C98.6612 21.782 98.6612 21.9511 98.6612 22.233C98.6612 22.3457 98.6612 22.5149 98.6612 22.7968V23.586C98.6612 23.8679 98.6612 24.1498 98.6612 24.3753C98.6612 24.6572 98.6613 24.8264 98.605 24.9955C98.605 25.3901 98.4926 25.672 98.4363 25.8975C98.3239 26.1794 98.0427 26.3486 97.7054 26.3486C97.2556 26.3486 96.7495 26.3486 96.1873 26.2922C95.625 26.2922 95.0627 26.2358 94.4442 26.2358C94.1068 26.2358 93.7695 26.2358 93.4321 26.2358C93.0947 26.2358 92.7012 26.2358 92.3076 26.2922C91.6328 26.3486 91.0706 26.4049 90.5645 26.4613C90.0585 26.5177 89.6649 26.5741 89.2713 26.6305C88.9339 26.6868 88.5966 26.7432 88.3154 26.7996C88.0905 26.7432 87.8656 26.7432 87.6407 26.7432Z" fill="#EE942F"/>
<path d="M105.239 37.6229C105.014 37.6229 104.676 37.5665 104.227 37.5102L102.933 37.2847C102.484 37.2283 101.978 37.1155 101.528 37.0591C101.078 37.0028 100.684 36.9464 100.347 36.9464C100.01 36.9464 99.6724 36.9464 99.4475 37.0028C99.1664 37.0592 98.8853 37.0591 98.6041 37.0591C98.2106 37.0591 97.9294 37.0592 97.7608 36.9464C97.4234 36.8337 97.3672 36.6645 97.3672 36.4954C97.3672 36.2699 97.4796 36.1572 97.7045 36.0444C97.817 35.988 97.9294 35.988 98.0981 35.988C98.2106 35.988 98.3792 35.9317 98.5479 35.8753C98.7166 35.8189 98.8852 35.7625 99.0539 35.6498C99.2226 35.537 99.3351 35.3679 99.4475 35.1988C99.5599 35.0297 99.6162 34.8041 99.7286 34.5786C99.7848 34.3531 99.8411 34.0713 99.8411 33.7894C99.8411 33.5075 99.8973 33.2257 99.8973 33.0002C99.8973 32.7747 99.9535 32.4928 99.9535 32.0418C99.9535 31.5908 100.01 31.0834 100.01 30.5197C100.01 29.9559 100.066 29.3358 100.066 28.6593C100.066 27.9828 100.122 27.3063 100.122 26.5734L100.178 24.4312C100.178 23.6983 100.235 23.0218 100.235 22.4017C100.235 21.7815 100.235 21.1614 100.235 20.5977C100.235 20.0339 100.235 19.5829 100.235 19.2447C100.235 18.7373 100.235 18.2863 100.178 17.948C100.178 17.6098 100.122 17.3843 100.066 17.1588C100.01 16.9897 99.9535 16.8769 99.8973 16.8769C99.8411 16.8205 99.7848 16.8205 99.6724 16.8205C99.5599 16.8205 99.5037 16.8205 99.3913 16.8769C99.2788 16.9333 99.1102 16.9897 98.9977 17.046C98.8853 17.1024 98.7166 17.1588 98.6041 17.2152C98.4355 17.2715 98.323 17.3279 98.2106 17.3279C97.9294 17.3279 97.7045 17.1024 97.7045 16.8205C97.7045 16.7078 97.7608 16.595 97.817 16.4823C97.8732 16.3695 98.0419 16.2568 98.323 16.144C98.4355 16.0877 98.6041 15.9749 98.829 15.9185C98.9977 15.8622 99.2226 15.7494 99.3913 15.6367C99.6162 15.5239 99.7848 15.4112 100.01 15.2984C100.235 15.1857 100.46 15.0165 100.628 14.791C100.909 14.5092 101.134 14.2837 101.359 14.0582C101.528 13.8327 101.696 13.6635 101.809 13.4944C101.921 13.3253 102.034 13.2125 102.09 13.1562C102.202 12.987 102.371 12.9307 102.484 12.9307C102.709 12.9307 102.877 13.0434 102.877 13.2689C102.877 13.3817 102.933 13.4944 102.933 13.6635C102.933 13.7763 102.933 14.0018 102.933 14.2273C102.933 14.5092 102.933 14.791 102.933 15.1293C102.933 15.2984 102.933 15.4675 102.933 15.5803C102.933 15.693 102.933 15.8058 102.933 15.9185C102.933 15.9749 102.933 16.0313 102.933 16.144C103.102 15.9749 103.215 15.8622 103.383 15.693C103.552 15.5803 103.721 15.4112 103.889 15.2984C104.114 15.1857 104.283 15.0729 104.564 14.9602C104.789 14.8474 105.07 14.791 105.295 14.7347C105.576 14.6783 105.857 14.6219 106.138 14.6219C106.757 14.6219 107.375 14.7347 107.881 14.9602C108.387 15.1857 108.837 15.5239 109.174 15.9749C109.512 16.3695 109.793 16.8769 109.961 17.4407C110.13 18.0044 110.243 18.6245 110.243 19.301C110.243 20.3158 110.13 21.2178 109.849 22.007C109.568 22.7963 109.231 23.5292 108.725 24.0929C108.275 24.6567 107.712 25.1077 107.094 25.4459C106.476 25.7842 105.801 25.8969 105.07 25.8969C104.789 25.8969 104.564 25.8969 104.339 25.8405C104.114 25.7842 103.889 25.7278 103.721 25.6714C103.496 25.615 103.327 25.5023 103.158 25.4459C103.158 25.615 103.158 25.7278 103.158 25.8969C103.158 26.1788 103.158 26.4043 103.158 26.6862V28.3774C103.158 28.9412 103.158 29.5613 103.158 30.2378C103.158 30.9143 103.215 31.5908 103.271 32.2673C103.327 32.8874 103.383 33.5075 103.439 34.0713C103.496 34.5787 103.608 34.9733 103.777 35.1988C103.889 35.4243 104.058 35.5934 104.227 35.7062C104.395 35.8189 104.62 35.9317 104.789 36.0444C105.07 36.1572 105.295 36.2699 105.52 36.439C105.801 36.6082 105.97 36.8337 105.97 37.0591C105.97 37.2283 105.913 37.3974 105.801 37.5102C105.632 37.5665 105.464 37.6229 105.239 37.6229ZM105.07 16.4259C104.789 16.4259 104.508 16.4823 104.283 16.6514C104.058 16.8205 103.833 16.9897 103.721 17.2152C103.552 17.4407 103.439 17.7789 103.327 18.0608C103.215 18.399 103.158 18.7373 103.046 19.1319C102.99 19.4702 102.933 19.8648 102.933 20.203C102.933 20.5413 102.877 20.8795 102.877 21.1614C102.877 21.6124 102.933 22.007 102.99 22.458C103.046 22.8527 103.158 23.2473 103.327 23.5855C103.496 23.9238 103.664 24.1493 103.889 24.3748C104.114 24.5439 104.395 24.6567 104.789 24.6567C105.07 24.6567 105.351 24.6003 105.632 24.4312C105.913 24.262 106.138 24.0365 106.363 23.6983C106.588 23.36 106.757 22.8527 106.925 22.2325C107.038 21.6124 107.15 20.8795 107.15 19.9775C107.15 19.4702 107.094 18.9628 107.038 18.5118C106.982 18.0608 106.813 17.7225 106.644 17.3843C106.476 17.1024 106.251 16.8769 106.026 16.7078C105.745 16.4823 105.464 16.4259 105.07 16.4259Z" fill="#EE942F"/>
<path d="M110.581 26.8012C110.356 26.8012 110.131 26.7448 110.019 26.5757C109.906 26.4629 109.85 26.2938 109.85 26.1811C109.85 25.9555 109.963 25.7864 110.187 25.6737C110.3 25.6173 110.469 25.5609 110.637 25.5045C110.806 25.4481 110.975 25.3918 111.143 25.3918C111.312 25.3354 111.537 25.279 111.818 25.1663C112.043 25.0535 112.155 24.9407 112.268 24.828C112.324 24.7152 112.38 24.4897 112.38 24.0387C112.38 23.9259 112.38 23.7004 112.38 23.4185C112.38 23.1366 112.324 22.742 112.324 22.3474C112.268 21.9527 112.268 21.5017 112.212 20.9943C112.155 20.4869 112.155 19.9795 112.099 19.4721C112.043 18.9647 111.987 18.4573 111.987 17.9499C111.93 17.4425 111.874 16.9351 111.874 16.4841C111.818 16.033 111.818 15.6384 111.762 15.3001C111.706 14.9619 111.706 14.68 111.649 14.4545C111.593 14.2289 111.593 14.0598 111.537 13.9471C111.481 13.8343 111.424 13.7779 111.368 13.7215C111.312 13.6652 111.256 13.6652 111.2 13.6652C111.087 13.6652 110.975 13.6652 110.862 13.6652H110.356C110.3 13.6652 110.244 13.6652 110.187 13.6652C110.075 13.6652 110.019 13.6652 109.906 13.6088C109.794 13.5524 109.738 13.496 109.625 13.4397C109.513 13.3269 109.513 13.2141 109.513 13.1014C109.513 12.9323 109.625 12.7631 109.794 12.6504C109.906 12.594 110.019 12.5376 110.187 12.5376C110.581 12.4812 110.975 12.4249 111.312 12.3121C111.593 12.2557 111.93 12.0866 112.212 11.8611C112.38 11.7483 112.605 11.5228 112.774 11.2973C112.999 11.0718 113.167 10.7899 113.28 10.508C113.449 10.1697 113.617 10.057 113.842 10.057C114.067 10.057 114.236 10.1697 114.292 10.3952C114.348 10.508 114.348 10.6208 114.348 10.7335C114.348 10.8463 114.348 10.959 114.348 11.1845C114.348 11.3537 114.348 11.5228 114.348 11.7483C114.348 11.9738 114.348 12.2557 114.404 12.4812C114.404 12.7067 114.461 12.9323 114.517 13.1578C114.573 13.045 114.629 12.8759 114.686 12.7067C114.798 12.3121 114.967 11.9175 115.192 11.4664C115.417 11.0154 115.641 10.6208 115.979 10.2261C116.316 9.83147 116.71 9.4932 117.16 9.26769C117.609 8.9858 118.172 8.87305 118.79 8.87305C119.352 8.87305 119.859 8.9858 120.252 9.15494C120.646 9.38045 120.983 9.60596 121.208 9.94423C121.433 10.2261 121.602 10.5644 121.714 10.959C121.826 11.2973 121.883 11.6356 121.883 11.9738C121.883 12.4249 121.826 12.8759 121.714 13.2141C121.602 13.5524 121.433 13.8907 121.208 14.1162C120.983 14.3417 120.702 14.5672 120.421 14.68C120.14 14.7927 119.859 14.8491 119.521 14.8491C118.959 14.8491 118.509 14.7363 118.172 14.4545C117.778 14.1726 117.609 13.7779 117.609 13.2141C117.609 12.9323 117.666 12.7067 117.722 12.5376C117.778 12.3121 117.891 12.143 118.003 12.0302C118.115 11.9175 118.284 11.7483 118.453 11.6919C118.622 11.5792 118.79 11.5228 119.015 11.4664C119.409 11.3537 119.521 11.2409 119.634 11.1845C119.746 11.0718 119.746 10.959 119.746 10.7899C119.746 10.6771 119.746 10.6208 119.69 10.508C119.634 10.4516 119.634 10.3389 119.521 10.2825C119.465 10.2261 119.352 10.1697 119.24 10.1134C119.128 10.057 118.959 10.057 118.734 10.057C118.34 10.057 117.947 10.1697 117.609 10.3389C117.272 10.5644 116.991 10.7899 116.766 11.1845C116.541 11.5228 116.316 11.9175 116.148 12.4249C115.979 12.8759 115.81 13.3833 115.754 13.8907C115.641 14.3981 115.585 14.9619 115.529 15.4693C115.473 15.9767 115.473 16.4841 115.473 16.9351C115.473 17.3297 115.473 17.8371 115.529 18.2882C115.585 18.7956 115.585 19.303 115.641 19.754C115.698 20.2614 115.754 20.7688 115.81 21.2198C115.866 21.6708 115.923 22.1218 115.979 22.5165C116.035 22.9111 116.091 23.2494 116.148 23.5313C116.204 23.8132 116.26 23.9823 116.26 24.0951C116.316 24.377 116.429 24.6025 116.597 24.7152C116.766 24.828 116.935 24.8844 117.216 24.8844C117.328 24.8844 117.497 24.8844 117.666 24.8844C117.834 24.8844 117.947 24.8844 118.003 24.8844C118.453 24.8844 118.622 25.1663 118.622 25.4481C118.622 25.73 118.509 25.8992 118.228 25.9555C118.115 26.0119 117.891 26.0119 117.609 26.0683C117.328 26.0683 117.047 26.0683 116.71 26.0683C116.372 26.0683 116.035 26.0683 115.641 26.1247C115.248 26.1247 114.854 26.1811 114.517 26.2374C114.123 26.2938 113.73 26.3502 113.336 26.4629C112.943 26.5757 112.605 26.6321 112.268 26.6885C111.93 26.7448 111.649 26.8576 111.424 26.914C110.975 26.8012 110.75 26.8012 110.581 26.8012Z" fill="#EE942F"/>
<path d="M133.015 29.6185C132.565 29.6185 132.171 29.5621 131.89 29.4494C131.553 29.3366 131.272 29.1675 131.047 28.942C130.822 28.7728 130.653 28.5473 130.485 28.3218C130.316 28.0963 130.203 27.9272 130.147 27.7017C129.922 27.2507 129.697 26.687 129.585 26.1232C129.529 25.8414 129.473 25.5031 129.416 25.2212C129.36 25.2776 129.304 25.3904 129.248 25.4467C128.967 25.785 128.629 26.0669 128.236 26.4051C127.842 26.687 127.392 26.9689 126.886 27.1944C126.38 27.4198 125.762 27.5326 125.143 27.5326C124.469 27.5326 123.85 27.4198 123.344 27.2507C122.838 27.0252 122.388 26.7433 122.107 26.4051C121.77 26.0669 121.545 25.6159 121.376 25.1649C121.208 24.7139 121.151 24.2065 121.151 23.6991C121.151 23.1354 121.264 22.5716 121.432 22.0079C121.657 21.4441 121.995 20.9367 122.445 20.4857C122.894 20.0347 123.513 19.6401 124.244 19.3582C124.975 19.0764 125.874 18.9636 126.942 18.9636C127.167 18.9636 127.449 18.9636 127.673 19.02C127.898 19.02 128.123 19.0764 128.292 19.0764C128.461 19.0764 128.573 19.1327 128.685 19.1327C128.629 18.5126 128.573 17.9489 128.517 17.3287L128.404 16.3704C128.348 16.0321 128.348 15.6939 128.292 15.3556C128.236 15.0174 128.179 14.6791 128.179 14.3409C128.123 14.0026 128.067 13.7207 128.011 13.4389C127.898 12.8751 127.673 12.3677 127.28 12.0295C126.942 11.6912 126.549 11.5221 125.987 11.5221C125.706 11.5221 125.481 11.5785 125.256 11.6912C125.031 11.804 124.862 11.9167 124.694 12.0859C124.525 12.255 124.412 12.4241 124.356 12.5932C124.3 12.8187 124.244 12.9879 124.244 13.157C124.244 13.3261 124.3 13.4952 124.356 13.608C124.469 13.7207 124.581 13.8899 124.75 14.0026C124.918 14.1154 125.087 14.2281 125.256 14.3409C125.481 14.4536 125.649 14.6227 125.874 14.7355C126.043 14.9046 126.212 15.1301 126.38 15.3556C126.549 15.5811 126.605 15.9194 126.605 16.2576C126.605 16.765 126.436 17.1596 126.099 17.4415C125.762 17.7234 125.368 17.8925 124.862 17.8925C124.525 17.8925 124.187 17.8361 123.85 17.667C123.513 17.5542 123.288 17.3287 123.063 17.0469C122.838 16.765 122.669 16.4831 122.557 16.0885C122.445 15.6939 122.388 15.2429 122.388 14.7355C122.388 14.1717 122.445 13.6644 122.613 13.1006C122.782 12.5932 123.007 12.0859 123.344 11.6912C123.681 11.2966 124.131 10.902 124.637 10.6765C125.143 10.451 125.762 10.2819 126.493 10.2819C127.055 10.2819 127.617 10.3382 128.067 10.5074C128.517 10.6765 128.91 10.902 129.304 11.1275C129.641 11.4094 129.979 11.6912 130.203 12.0295C130.428 12.3677 130.653 12.706 130.822 13.1006C130.991 13.4952 131.103 13.8335 131.216 14.2281C131.328 14.6227 131.44 14.961 131.497 15.2992C131.553 15.4684 131.609 15.7502 131.665 16.0885C131.722 16.4267 131.778 16.8214 131.89 17.2724C131.946 17.7234 132.059 18.1744 132.115 18.6817C132.171 19.1891 132.284 19.6965 132.34 20.2039L132.565 21.726C132.621 22.2334 132.902 23.8119 132.958 24.0937C133.015 24.3756 133.015 24.5447 133.071 24.6575C133.127 24.9394 133.183 25.1649 133.24 25.4467C133.296 25.6722 133.352 25.9541 133.465 26.1232C133.521 26.2924 133.633 26.4615 133.746 26.5742C133.858 26.687 133.914 26.687 134.083 26.687C134.139 26.687 134.195 26.687 134.252 26.6306C134.308 26.5742 134.364 26.5742 134.364 26.5179C134.42 26.4615 134.42 26.3487 134.477 26.236C134.477 26.1232 134.533 26.0105 134.533 25.8977C134.533 25.7286 134.533 25.5595 134.533 25.4467C134.533 25.2776 134.533 25.1085 134.533 24.9957C134.533 24.8266 134.533 24.7139 134.589 24.5447C134.645 24.3192 134.814 24.2065 135.039 24.2065C135.151 24.2065 135.376 24.2629 135.489 24.5447C135.545 24.6575 135.601 24.8266 135.657 24.9957C135.713 25.1649 135.713 25.2776 135.713 25.4467C135.713 25.6159 135.713 25.7286 135.713 25.785C135.713 26.0669 135.713 26.4615 135.657 26.7997C135.601 27.1943 135.489 27.589 135.32 27.9272C135.151 28.3218 134.87 28.6601 134.477 28.942C134.027 29.5057 133.521 29.6185 133.015 29.6185ZM126.886 20.1475C126.493 20.1475 126.099 20.2039 125.762 20.3166C125.424 20.4294 125.143 20.5985 124.862 20.824C124.637 21.0495 124.412 21.3314 124.3 21.6696C124.131 22.0079 124.075 22.4025 124.075 22.8535C124.075 23.2481 124.131 23.5864 124.244 23.8119C124.356 24.0374 124.525 24.2629 124.75 24.3756C124.975 24.5447 125.143 24.6011 125.424 24.6575C125.706 24.7139 125.93 24.7702 126.155 24.7702C126.549 24.7702 126.942 24.7139 127.28 24.6011C127.673 24.4884 127.955 24.3192 128.236 24.1501C128.517 23.981 128.742 23.8119 128.91 23.6427C129.023 23.53 129.079 23.4736 129.135 23.4172C129.079 22.9099 129.023 22.4589 128.967 22.0079C128.967 21.7824 128.91 21.6132 128.91 21.4441C128.91 21.275 128.854 21.0495 128.854 20.8804C128.854 20.7112 128.798 20.5985 128.798 20.4294V20.373C128.742 20.373 128.742 20.373 128.685 20.3166C128.517 20.2602 128.404 20.2602 128.179 20.2039C128.011 20.1475 127.786 20.1475 127.561 20.0911C127.336 20.2039 127.111 20.1475 126.886 20.1475ZM126.886 9.99998C126.605 9.99998 126.493 9.83086 126.493 9.77448C126.436 9.71811 126.436 9.60536 126.436 9.43623C126.436 9.26711 126.493 9.04161 126.549 8.75973C126.661 8.47786 126.774 8.13961 126.886 7.74498C127.055 7.35036 127.224 6.95573 127.392 6.56111C127.617 6.16648 127.786 5.77186 128.011 5.43361C128.236 5.09536 128.461 4.81348 128.742 4.58798C129.023 4.30611 129.304 4.19336 129.641 4.19336C129.979 4.19336 130.147 4.30611 130.26 4.47523C130.372 4.64436 130.428 4.81348 130.428 5.03898C130.428 5.20811 130.372 5.43361 130.26 5.71548C130.147 5.94098 130.035 6.22286 129.866 6.50473C129.697 6.78661 129.529 7.06848 129.36 7.35036C129.191 7.63223 128.967 7.91411 128.798 8.19598C128.461 8.70336 128.123 9.09798 127.786 9.43623C127.392 9.83086 127.111 9.99998 126.886 9.99998Z" fill="#EE942F"/>
<path d="M141.166 27.7013C140.941 27.7013 140.773 27.5322 140.548 27.1376C140.379 26.8557 140.154 26.461 139.873 25.9536C139.648 25.5026 139.367 24.9388 139.03 24.3187C138.748 23.6985 138.411 23.022 138.13 22.3454C137.793 21.6689 137.511 20.9924 137.174 20.3158C136.837 19.6393 136.556 18.9628 136.274 18.3426C135.993 17.7224 135.768 17.215 135.543 16.7076L135.037 15.5801C134.925 15.411 134.869 15.2418 134.756 15.1291C134.644 15.0163 134.588 14.9036 134.475 14.8472C134.419 14.7908 134.306 14.7344 134.25 14.7344C134.138 14.7344 134.082 14.678 133.969 14.678C133.857 14.678 133.744 14.678 133.632 14.7344C133.519 14.7908 133.351 14.7908 133.238 14.8472C133.126 14.9036 132.957 14.9599 132.845 15.0163C132.676 15.0727 132.563 15.0727 132.451 15.0727C132.338 15.0727 132.226 15.0163 132.114 14.9599C131.945 14.8472 131.889 14.7344 131.889 14.5089C131.889 14.3962 131.945 14.1706 132.226 14.0015C132.338 13.9451 132.563 13.8324 132.845 13.776L133.744 13.4377C134.082 13.325 134.419 13.2122 134.812 13.0431C135.15 12.9303 135.543 12.7612 135.825 12.5921C136.218 12.4229 136.556 12.2538 136.893 12.0847C137.174 11.9155 137.455 11.7464 137.68 11.6336C137.905 11.5209 138.13 11.4081 138.299 11.2954C138.523 11.1826 138.692 11.1826 138.861 11.1826C139.086 11.1826 139.198 11.2954 139.311 11.3518C139.423 11.4645 139.423 11.5773 139.423 11.69C139.423 11.8592 139.367 12.0283 139.198 12.141C139.142 12.1974 139.03 12.2538 138.917 12.3666C138.748 12.4793 138.636 12.5921 138.523 12.7048C138.467 12.8176 138.411 12.9303 138.411 13.0995C138.411 13.2686 138.467 13.6069 138.523 13.9451C138.636 14.3398 138.748 14.7344 138.861 15.2418C139.03 15.7492 139.198 16.2566 139.367 16.764C139.536 17.3278 139.76 17.8352 139.929 18.399C140.154 18.9628 140.323 19.4702 140.548 19.9776C140.773 20.485 140.941 20.936 141.11 21.3306C141.279 21.7253 141.391 22.0635 141.56 22.3454C141.672 22.6273 141.728 22.7965 141.785 22.8528C141.841 22.9092 141.841 22.9656 141.841 23.022C141.841 22.9656 141.897 22.7965 142.01 22.5146C142.122 22.2327 142.178 21.8944 142.291 21.4434C142.403 21.0487 142.516 20.5413 142.684 20.0903C142.797 19.5829 142.965 19.1319 143.022 18.6809C143.134 18.2299 143.19 17.7788 143.303 17.3842C143.359 16.9895 143.415 16.7076 143.415 16.4821C143.415 16.3694 143.415 16.2566 143.359 16.2566C143.359 16.2002 143.303 16.2002 143.303 16.1439C143.247 16.0875 143.247 16.0875 143.19 16.0875C143.134 16.0875 143.078 16.0311 143.022 16.0311C142.909 16.0311 142.797 15.9747 142.684 15.9747C142.516 15.9747 142.347 15.9184 142.178 15.9184C142.01 15.862 141.841 15.862 141.728 15.8056C141.504 15.6928 141.391 15.5237 141.391 15.2982C141.391 15.0727 141.56 14.8472 141.785 14.7908C141.897 14.7344 142.066 14.7344 142.234 14.7344C142.403 14.7344 142.628 14.7344 142.965 14.7908C143.303 14.8472 143.753 14.8472 144.315 14.8472C144.484 14.8472 144.652 14.8472 144.877 14.7908C145.102 14.7344 145.327 14.7344 145.552 14.678C145.777 14.6217 146.002 14.6217 146.227 14.5653C146.452 14.5089 146.62 14.5089 146.789 14.5089C146.958 14.5089 147.07 14.5089 147.182 14.5653C147.407 14.6217 147.52 14.7908 147.52 15.0163C147.52 15.1291 147.464 15.2982 147.295 15.411C147.182 15.4673 147.07 15.5237 146.958 15.5801C146.845 15.6365 146.676 15.6365 146.508 15.6928C146.339 15.6928 146.227 15.7492 146.058 15.8056C145.889 15.862 145.777 15.862 145.664 15.9184C145.552 15.9747 145.496 16.0311 145.439 16.0875C145.383 16.1439 145.327 16.2566 145.271 16.313C145.215 16.4258 145.158 16.5385 145.102 16.6513C144.99 16.9332 144.877 17.215 144.765 17.5533C144.652 17.8916 144.54 18.2298 144.427 18.6245C144.315 19.0191 143.753 20.8796 143.753 20.8796L143.471 21.838C143.415 22.0072 143.359 22.2327 143.247 22.5709C143.134 22.9092 143.022 23.2475 142.909 23.6421C142.797 24.0368 142.628 24.4878 142.516 24.8824C142.347 25.3335 142.234 25.7281 142.066 26.0664C141.897 26.4046 141.785 26.7429 141.672 26.9684C141.56 27.4758 141.391 27.7013 141.166 27.7013Z" fill="#EE942F"/>
<path d="M146.284 30.1811C146.06 30.1811 145.891 30.1247 145.722 30.012C145.61 29.8992 145.553 29.7301 145.553 29.561C145.553 29.4482 145.61 28.9972 146.284 28.9972C146.622 28.9972 146.903 28.9972 147.128 28.9409C147.353 28.8845 147.578 28.8281 147.746 28.7717C148.084 28.659 148.308 28.4899 148.477 28.2644C148.646 28.0389 148.815 27.757 148.871 27.4187C148.983 27.0805 148.983 26.7422 149.039 26.404C149.039 26.0094 149.039 25.6711 149.039 25.3329C149.039 24.8255 149.039 24.3181 149.039 23.7544C149.039 23.1906 149.039 22.5705 149.039 21.9504C149.039 21.3302 149.039 20.7101 148.983 20.0336C148.983 19.4135 148.983 18.7934 148.927 18.1732C148.927 17.6095 148.871 15.5236 148.871 15.1854C148.871 14.678 148.871 14.1706 148.871 13.6069C148.871 13.0431 148.871 12.4794 148.815 11.8592L148.758 10.1116C148.758 9.54787 148.702 8.98412 148.702 8.47675C148.702 7.96937 148.646 7.51837 148.646 7.12375C148.646 6.72912 148.59 6.39087 148.533 6.16537C148.477 5.8835 148.421 5.60162 148.308 5.4325C148.196 5.26337 148.084 5.15062 147.971 5.03787C147.859 4.92512 147.69 4.86875 147.521 4.86875C147.353 4.81237 147.184 4.81237 146.959 4.81237C146.678 4.81237 146.397 4.81237 146.06 4.86875C145.722 4.92512 145.385 4.92512 145.104 4.92512C144.823 4.92512 144.654 4.86875 144.485 4.81237C144.317 4.69962 144.204 4.5305 144.204 4.305C144.204 4.13587 144.26 3.96675 144.429 3.854C144.541 3.79762 144.654 3.68487 144.823 3.68487C145.272 3.57212 145.666 3.51575 146.003 3.403C146.341 3.29025 146.678 3.23387 147.015 3.12112C147.296 3.00837 147.578 2.89562 147.859 2.78287C148.14 2.67012 148.365 2.501 148.646 2.33187C148.927 2.16275 149.152 1.99362 149.321 1.76812C149.545 1.54262 149.714 1.3735 149.827 1.26075C149.995 1.09162 150.108 0.978875 150.22 0.866125C150.389 0.697 150.557 0.640625 150.726 0.640625C150.951 0.640625 151.176 0.753375 151.232 0.978875C151.288 1.148 151.288 1.26075 151.288 1.42987C151.288 1.54262 151.288 1.76812 151.288 1.99362C151.288 2.21912 151.288 2.44462 151.288 2.7265V3.51575C151.288 3.79762 151.288 4.02312 151.288 4.19225C151.288 4.5305 151.288 4.9815 151.288 5.54525C151.288 6.109 151.345 6.7855 151.345 7.462C151.345 8.19487 151.401 8.92775 151.401 9.77337C151.401 10.5626 151.457 11.4082 151.457 12.1975C151.513 12.9867 151.513 13.776 151.569 14.5652C151.626 15.3545 151.626 16.031 151.682 16.6511C151.738 17.2712 151.738 17.7786 151.738 18.2296C151.738 18.286 151.738 18.3987 151.738 18.4551C151.907 18.286 152.076 18.1169 152.188 18.0041C152.413 17.7786 152.694 17.4967 152.919 17.2712C153.144 17.0457 153.369 16.8202 153.537 16.5384C153.762 16.3129 153.987 16.031 154.212 15.6927C154.324 15.5236 154.437 15.3545 154.493 15.2417C154.549 15.129 154.549 15.0162 154.549 14.9035C154.549 14.7344 154.493 14.5652 154.156 14.3961L153.144 13.8887C152.806 13.7196 152.75 13.4377 152.75 13.2686C152.75 13.0995 152.806 12.9867 152.863 12.874C152.919 12.7612 153.088 12.6485 153.312 12.6485C153.481 12.6485 153.594 12.7049 153.762 12.7612C153.875 12.8176 154.043 12.9304 154.212 12.9867C154.381 13.0995 154.662 13.1559 154.943 13.2686C155.224 13.3814 155.561 13.4377 155.955 13.5505C156.124 13.6069 156.292 13.6069 156.517 13.6069C156.742 13.6069 156.967 13.6632 157.192 13.6632C157.417 13.6632 157.642 13.7196 157.867 13.7196C158.092 13.7196 158.26 13.7196 158.429 13.7196C158.654 13.7196 158.822 13.776 158.935 13.8324C159.16 13.9451 159.272 14.1142 159.272 14.3397C159.272 14.5089 159.16 14.678 158.991 14.7907C158.822 14.9035 158.654 14.9599 158.373 14.9599C158.148 14.9599 157.979 14.9599 157.754 14.9599C157.529 14.9599 157.361 15.0162 157.192 15.0726C157.023 15.129 156.798 15.1854 156.63 15.2981C156.461 15.4109 156.236 15.5236 156.011 15.6927C155.899 15.8055 155.73 15.9182 155.561 16.0874C155.393 16.2565 155.224 16.4256 155.055 16.5947C154.887 16.7639 154.718 16.9894 154.549 17.1585C154.437 17.3276 154.324 17.4404 154.212 17.6095C154.268 17.7786 154.268 18.0605 154.381 18.3424C154.493 18.737 154.606 19.188 154.774 19.6954C154.943 20.2027 155.168 20.7101 155.393 21.2175C155.618 21.7249 155.899 22.2322 156.236 22.6269C156.517 23.0215 156.855 23.4161 157.248 23.6416C157.586 23.9235 157.979 24.0362 158.373 24.0362C158.71 24.0362 158.991 23.9235 159.216 23.6416C159.441 23.3597 159.553 23.0215 159.553 22.5705C159.553 22.345 159.553 22.1759 159.497 22.0067C159.441 21.8376 159.385 21.6121 159.272 21.443C159.216 21.2739 159.104 21.1047 158.991 20.9356C158.879 20.7665 158.766 20.6537 158.654 20.541C158.541 20.4282 158.485 20.3719 158.373 20.3155C158.26 20.2027 158.092 20.09 158.092 19.9209C158.092 19.7517 158.204 19.5262 158.485 19.5262C158.654 19.5262 158.822 19.5826 159.047 19.6954C159.216 19.8081 159.441 19.9209 159.61 20.09C159.778 20.2027 159.947 20.4282 160.116 20.5974C160.284 20.8229 160.453 21.0484 160.565 21.2739C160.678 21.5557 160.79 21.8376 160.903 22.1195C160.959 22.4577 161.015 22.796 161.015 23.1906C161.015 23.4725 160.959 23.8107 160.903 24.149C160.79 24.5436 160.678 24.8819 160.453 25.2765C160.228 25.6147 159.891 25.953 159.497 26.1785C159.104 26.404 158.541 26.5731 157.923 26.5731C157.079 26.5731 156.349 26.3476 155.674 26.0094C155.055 25.6147 154.493 25.1074 153.987 24.4309C153.537 23.8107 153.088 23.0215 152.75 22.1759C152.469 21.4994 152.244 20.7665 152.019 19.9772L151.907 20.09C151.907 20.4846 151.963 20.8792 151.963 21.2739C152.019 21.7249 152.019 22.2322 152.076 22.6832C152.132 23.1906 152.132 23.6416 152.188 24.0926C152.244 24.5436 152.244 24.9946 152.3 25.3892C152.357 25.7839 152.357 26.1221 152.413 26.404C152.469 26.7422 152.469 26.9114 152.469 26.9677C152.525 27.2496 152.582 27.4751 152.638 27.6442C152.694 27.8134 152.806 27.9825 152.919 28.0952C153.031 28.208 153.144 28.3207 153.312 28.3771C153.481 28.4335 153.706 28.4899 153.987 28.4899C154.1 28.4899 154.268 28.4899 154.437 28.4899C154.606 28.4899 154.774 28.4899 154.943 28.4899C155.055 28.4899 155.168 28.4899 155.28 28.4899C155.393 28.4899 155.561 28.5462 155.618 28.6026C155.73 28.659 155.843 28.7154 155.955 28.8281C156.011 28.8845 156.124 29.0536 156.124 29.2791C156.124 29.4482 156.067 29.6737 155.786 29.8992C155.561 30.0684 155.224 30.1247 154.718 30.1247C154.493 30.1247 154.212 30.1247 153.987 30.0684C153.762 30.0684 153.481 30.012 153.2 30.012C152.919 29.9556 152.582 29.9556 152.188 29.9556C151.794 29.9556 151.345 29.8992 150.782 29.8992C150.389 29.8992 149.939 29.8992 149.489 29.9556C149.039 30.012 148.646 30.012 148.252 30.0684C147.859 30.1247 147.465 30.1811 147.128 30.1811C146.79 30.1811 146.509 30.1811 146.284 30.1811Z" fill="#EE942F"/>
<path d="M167.593 25.2197C166.75 25.2197 165.962 25.107 165.231 24.8251C164.444 24.5432 163.769 24.1485 163.207 23.6411C162.645 23.1337 162.139 22.4572 161.802 21.6679C161.464 20.8786 161.239 20.033 161.239 19.0745C161.239 18.1161 161.408 17.2141 161.689 16.4248C161.97 15.6355 162.42 14.959 162.982 14.3952C163.545 13.8314 164.219 13.3804 165.006 13.0985C165.794 12.8166 166.693 12.6475 167.649 12.6475C168.493 12.6475 169.336 12.8166 170.067 13.0985C170.798 13.3804 171.416 13.8314 171.979 14.3388C172.541 14.9026 172.935 15.5227 173.216 16.312C173.497 17.1013 173.665 17.947 173.665 18.9054C173.665 20.033 173.497 20.9914 173.103 21.7807C172.71 22.57 172.26 23.2465 171.641 23.7539C171.079 24.2613 170.404 24.6559 169.673 24.8815C168.999 25.107 168.268 25.2197 167.593 25.2197ZM167.48 13.6059C167.031 13.6059 166.693 13.7186 166.412 13.8878C166.131 14.1133 165.85 14.3952 165.625 14.7334C165.4 15.1281 165.231 15.5791 165.175 16.0865C165.063 16.5939 165.006 17.1577 165.006 17.7215C165.006 18.2289 165.063 18.6799 165.119 19.1873C165.175 19.6947 165.288 20.1457 165.4 20.5967C165.513 21.0478 165.681 21.4988 165.85 21.8371C166.019 22.2317 166.243 22.57 166.468 22.8519C166.693 23.1337 166.974 23.3593 167.256 23.472C167.537 23.6411 167.874 23.6975 168.211 23.6975C168.661 23.6975 169.055 23.5848 169.336 23.4156C169.617 23.1901 169.898 22.9646 170.067 22.6263C170.236 22.2881 170.404 21.8934 170.461 21.4424C170.517 20.9914 170.573 20.5404 170.573 20.0893C170.573 18.9618 170.517 17.947 170.348 17.1013C170.179 16.2556 169.954 15.5791 169.673 15.0717C169.392 14.5643 169.055 14.1697 168.717 13.8878C168.268 13.775 167.874 13.6059 167.48 13.6059Z" fill="#EE942F"/>
<path d="M182.494 27.7013C182.269 27.7013 182.101 27.5322 181.876 27.1376C181.707 26.8557 181.482 26.461 181.201 25.9536C180.976 25.5026 180.695 24.9388 180.358 24.3187C180.077 23.6985 179.739 23.022 179.458 22.3454C179.121 21.6689 178.84 20.9924 178.502 20.3158C178.165 19.6393 177.884 18.9628 177.603 18.3426C177.321 17.7224 177.096 17.215 176.872 16.7076L176.366 15.5801C176.253 15.411 176.197 15.2418 176.084 15.1291C175.972 15.0163 175.916 14.9036 175.803 14.8472C175.747 14.7908 175.635 14.7344 175.578 14.7344C175.466 14.7344 175.41 14.678 175.297 14.678C175.185 14.678 175.072 14.678 174.96 14.7344C174.847 14.7908 174.679 14.7908 174.566 14.8472C174.454 14.9036 174.285 14.9599 174.173 15.0163C174.004 15.0727 173.892 15.0727 173.779 15.0727C173.667 15.0727 173.554 15.0163 173.442 14.9599C173.273 14.8472 173.217 14.7344 173.217 14.5089C173.217 14.3962 173.273 14.1706 173.554 14.0015C173.667 13.9451 173.892 13.8324 174.173 13.776L175.072 13.4377C175.41 13.325 175.747 13.2122 176.141 13.0431C176.478 12.9303 176.872 12.7612 177.153 12.5921C177.546 12.4229 177.884 12.2538 178.221 12.0847C178.502 11.9155 178.783 11.7464 179.008 11.6336C179.233 11.5209 179.458 11.4081 179.627 11.2954C179.852 11.1826 180.02 11.1826 180.189 11.1826C180.414 11.1826 180.526 11.2954 180.639 11.3518C180.751 11.4645 180.751 11.5773 180.751 11.69C180.751 11.8592 180.695 12.0283 180.526 12.141C180.47 12.1974 180.358 12.2538 180.245 12.3666C180.077 12.4793 179.964 12.5921 179.852 12.7048C179.795 12.8176 179.739 12.9303 179.739 13.0995C179.739 13.2686 179.795 13.6069 179.852 13.9451C179.964 14.3398 180.077 14.7344 180.189 15.2418C180.358 15.7492 180.526 16.2566 180.695 16.764C180.864 17.3278 181.089 17.8352 181.257 18.399C181.482 18.9628 181.651 19.4702 181.876 19.9776C182.101 20.485 182.269 20.936 182.438 21.3306C182.607 21.7253 182.719 22.0635 182.888 22.3454C183 22.6273 183.057 22.7965 183.113 22.8528C183.169 22.9092 183.169 22.9656 183.169 23.022C183.169 22.9656 183.225 22.7965 183.338 22.5146C183.45 22.2327 183.506 21.8944 183.619 21.4434C183.731 21.0487 183.844 20.5413 184.012 20.0903C184.125 19.5829 184.294 19.1319 184.35 18.6809C184.462 18.2299 184.518 17.7788 184.631 17.3842C184.687 16.9895 184.743 16.7076 184.743 16.4821C184.743 16.3694 184.743 16.2566 184.687 16.2566C184.687 16.2002 184.631 16.2002 184.631 16.1439C184.575 16.0875 184.575 16.0875 184.518 16.0875C184.462 16.0875 184.406 16.0311 184.35 16.0311C184.237 16.0311 184.125 15.9747 184.012 15.9747C183.844 15.9747 183.675 15.9184 183.506 15.9184C183.338 15.862 183.169 15.862 183.057 15.8056C182.832 15.6928 182.719 15.5237 182.719 15.2982C182.719 15.0727 182.888 14.8472 183.113 14.7908C183.225 14.7344 183.394 14.7344 183.563 14.7344C183.731 14.7344 183.956 14.7344 184.294 14.7908C184.631 14.8472 185.081 14.8472 185.643 14.8472C185.812 14.8472 185.98 14.8472 186.205 14.7908C186.43 14.7344 186.655 14.7344 186.88 14.678C187.105 14.6217 187.33 14.6217 187.555 14.5653C187.78 14.5089 187.948 14.5089 188.117 14.5089C188.286 14.5089 188.398 14.5089 188.511 14.5653C188.736 14.6217 188.848 14.7908 188.848 15.0163C188.848 15.1291 188.792 15.2982 188.623 15.411C188.511 15.4673 188.398 15.5237 188.286 15.5801C188.173 15.6365 188.005 15.6365 187.836 15.6928C187.667 15.6928 187.555 15.7492 187.386 15.8056C187.217 15.862 187.105 15.862 186.992 15.9184C186.88 15.9747 186.824 16.0311 186.768 16.0875C186.711 16.1439 186.655 16.2566 186.599 16.313C186.543 16.4258 186.486 16.5385 186.43 16.6513C186.318 16.9332 186.205 17.215 186.093 17.5533C185.98 17.8916 185.868 18.2298 185.755 18.6245C185.643 19.0191 185.081 20.8796 185.081 20.8796L184.8 21.838C184.743 22.0072 184.687 22.2327 184.575 22.5709C184.462 22.9092 184.35 23.2475 184.237 23.6421C184.125 24.0368 183.956 24.4878 183.844 24.8824C183.675 25.3335 183.563 25.7281 183.394 26.0664C183.225 26.4046 183.113 26.7429 183 26.9684C182.888 27.4758 182.775 27.7013 182.494 27.7013Z" fill="#EE942F"/>
<path d="M194.917 25.2197C194.074 25.2197 193.287 25.107 192.556 24.8251C191.768 24.5432 191.094 24.1485 190.531 23.6411C189.969 23.1337 189.463 22.4572 189.126 21.6679C188.788 20.8786 188.563 20.033 188.563 19.0745C188.563 18.1161 188.732 17.2141 189.013 16.4248C189.294 15.6355 189.744 14.959 190.307 14.3952C190.869 13.8314 191.544 13.3804 192.331 13.0985C193.118 12.8166 194.018 12.6475 194.973 12.6475C195.817 12.6475 196.66 12.8166 197.391 13.0985C198.122 13.3804 198.741 13.8314 199.303 14.3388C199.865 14.9026 200.259 15.5227 200.54 16.312C200.821 17.1013 200.99 17.947 200.99 18.9054C200.99 20.033 200.821 20.9914 200.427 21.7807C200.034 22.57 199.584 23.2465 198.966 23.7539C198.403 24.2613 197.729 24.6559 196.998 24.8815C196.323 25.107 195.592 25.2197 194.917 25.2197ZM194.805 13.6059C194.355 13.6059 194.018 13.7186 193.736 13.8878C193.455 14.1133 193.174 14.3952 192.949 14.7334C192.724 15.1281 192.556 15.5791 192.499 16.0865C192.387 16.5939 192.331 17.1577 192.331 17.7215C192.331 18.2289 192.387 18.6799 192.443 19.1873C192.499 19.6947 192.612 20.1457 192.724 20.5967C192.837 21.0478 193.005 21.4988 193.174 21.8371C193.343 22.2317 193.568 22.57 193.793 22.8519C194.018 23.1337 194.299 23.3593 194.58 23.472C194.861 23.6411 195.198 23.6975 195.536 23.6975C195.985 23.6975 196.379 23.5848 196.66 23.4156C196.941 23.1901 197.222 22.9646 197.391 22.6263C197.56 22.2881 197.729 21.8934 197.785 21.4424C197.841 20.9914 197.897 20.5404 197.897 20.0893C197.897 18.9618 197.841 17.947 197.672 17.1013C197.504 16.2556 197.279 15.5791 196.998 15.0717C196.716 14.5643 196.379 14.1697 196.042 13.8878C195.592 13.775 195.198 13.6059 194.805 13.6059Z" fill="#EE942F"/>
<path d="M15.2231 27.3051C15.5042 27.2487 15.6728 27.1924 15.8415 27.0232C16.0102 26.9105 16.1226 26.685 16.2351 26.4031C16.3475 26.0648 16.46 23.7535 16.5162 23.2461C16.5162 23.0206 16.5724 22.626 16.5724 22.1186C16.5724 21.6112 16.6287 20.9911 16.6287 20.2582C16.6287 19.5817 16.6287 18.7925 16.6287 18.0032C16.6287 17.214 16.5724 16.4247 16.5724 15.6355C16.5162 14.9026 16.46 14.1697 16.4038 13.4932C16.3475 12.8167 16.2351 12.3094 16.1226 11.8584C16.0102 11.4637 15.8415 11.1255 15.6728 10.9C15.5042 10.6745 15.2793 10.5054 15.0544 10.3362C14.8295 10.2235 14.5484 10.1107 14.2672 10.0544C13.9299 9.99798 13.6488 9.94161 13.2552 9.88523C13.0865 9.82886 12.9179 9.77248 12.8054 9.71611C12.693 9.65973 12.5243 9.49061 12.5805 9.15236C12.5805 8.98323 12.693 8.81411 12.8054 8.70136C12.9179 8.58861 13.1427 8.53223 13.4239 8.53223C13.705 8.53223 13.9299 8.53223 14.0986 8.53223L15.4479 8.64498C15.6728 8.64498 15.954 8.70136 16.2351 8.70136C16.5162 8.70136 16.7973 8.70136 17.1347 8.70136C17.472 8.70136 17.8656 8.70136 18.3154 8.64498C18.8776 8.64498 19.4399 8.58861 19.8897 8.47586C20.3957 8.36311 20.8455 8.30673 21.2953 8.19398C21.7451 8.08123 22.1949 8.02486 22.6447 7.96848C23.0945 7.91211 23.5443 7.91211 24.0503 7.91211C25.1185 7.96848 26.0744 8.19398 26.7491 8.58861C27.4237 8.98323 27.986 9.43423 28.3796 9.94161C28.7731 10.449 28.998 11.0691 29.1667 11.6892C29.2792 12.3094 29.3354 12.8731 29.2792 13.4369C29.2229 14.0006 29.1105 14.508 28.9418 15.0717C28.7731 15.6355 28.492 16.1429 28.2109 16.5939C27.9298 17.0449 27.5362 17.4959 27.1426 17.8341C26.6928 18.2287 26.243 18.5106 25.6808 18.6797L25.3997 18.7925C25.737 19.9764 27.3675 22.7951 27.8173 23.6971C28.3233 24.6555 28.8856 25.4447 29.5603 26.0649C30.1787 26.685 30.8534 27.136 31.5281 27.4742C32.2028 27.8125 32.9337 27.9816 33.6647 28.038C34.0582 28.0944 34.4518 28.038 34.7891 27.9816C35.1265 27.9252 35.4076 27.7561 35.6325 27.587C35.8574 27.4179 36.0823 27.1924 36.1948 26.9105C36.3634 26.6286 36.4196 26.2903 36.4759 25.9521C36.4759 25.6702 36.4759 25.3884 36.4759 25.2192C36.4759 24.9937 36.4197 24.8246 36.4197 24.7119C36.4197 24.5991 36.3634 24.4864 36.3634 24.43C36.3072 24.3172 36.3072 24.2045 36.3072 24.0917C36.3072 23.979 36.3634 23.9226 36.3634 23.8099C36.4197 23.6971 36.5883 23.6407 36.757 23.6407C36.9819 23.6407 37.1506 23.8099 37.263 23.979C37.3755 24.1481 37.4879 24.3172 37.6004 24.5991C37.7128 24.8246 37.769 25.1065 37.8253 25.3884C37.8815 25.6702 37.8815 26.0085 37.8815 26.2904C37.8253 26.9669 37.6566 27.6434 37.4317 28.2071C37.2068 28.8272 36.8132 29.3346 36.3634 29.7292C35.9136 30.1802 35.3514 30.4621 34.6767 30.6876C34.002 30.9131 33.2711 30.9695 32.4277 30.9131C31.247 30.8003 30.1787 30.5748 29.2792 30.1802C28.3796 29.7856 27.5924 29.2218 26.9177 28.6581C26.243 28.038 25.6808 27.3615 25.1748 26.685C24.725 25.9521 23.7129 24.7682 22.7571 22.7387C22.4198 22.0622 22.1949 21.3857 22.0262 20.7656C21.9138 20.2582 21.8013 19.8636 21.6889 19.5254C21.5202 19.5254 21.3515 19.5254 21.1828 19.5254C20.9579 19.5254 20.733 19.5254 20.5081 19.5254C20.2832 19.5254 20.0583 19.469 19.8897 19.469H19.8335C19.8335 19.92 19.7772 20.4274 19.7772 20.9347C19.7772 21.5549 19.7772 22.175 19.7772 22.7951C19.7772 23.3589 19.7772 25.8394 19.8335 26.2904C19.8897 26.7414 19.9459 27.0796 20.0021 27.3051C20.1146 27.6997 20.3395 27.9816 20.5644 28.2071L15.2231 27.3051ZM22.982 9.20873C22.6447 9.20873 22.3073 9.20873 22.0824 9.32148C21.8013 9.43423 21.5764 9.54698 21.3515 9.77248C21.1266 9.99798 20.9579 10.2235 20.7893 10.5054C20.6206 10.7872 20.5081 11.1819 20.3957 11.5201C20.227 12.3657 20.0583 13.155 20.0021 14.0006C19.8897 14.8462 19.8335 15.6355 19.7772 16.4247L19.6648 18.0032C20.5081 18.0596 21.2953 17.9469 21.9138 17.7777C22.6447 17.5522 23.2069 17.214 23.7129 16.8194C24.1627 16.3684 24.5563 15.861 24.8374 15.2972C25.1185 14.6771 25.231 14.0006 25.2872 13.2677C25.3997 11.9711 25.231 10.9564 24.7812 10.2799C24.4439 9.60336 23.8254 9.26511 22.982 9.20873Z" fill="#EE942F"/>
<path d="M35.2397 0.469609C28.549 -0.263265 23.3763 4.75411 23.3763 4.75411C23.3763 4.75411 20.4527 2.49911 16.6856 1.65348C12.3001 0.638734 7.07126 1.14611 3.4729 4.75411C-1.08128 9.37685 1.22392 15.409 5.60942 19.5807C5.94677 19.919 6.39657 20.3136 6.95881 20.7646C7.57728 21.3283 8.25197 21.9485 9.03911 22.5686C13.3122 26.233 19.6093 31.3631 22.2518 33.3362C25.1193 30.743 28.0992 27.8678 30.8542 25.2182L30.9666 25.1055L32.822 23.3015L32.9345 23.1887C33.7216 22.4559 34.4525 21.723 35.1835 20.9901C39.7939 16.5929 42.9987 13.3795 43.842 10.448C44.9103 6.67086 42.6613 1.31523 35.2397 0.469609ZM38.2758 11.801C37.6011 12.703 35.9144 14.8452 33.7779 16.9311C32.4847 18.2277 31.0229 19.5807 29.5048 20.9337L27.4807 22.7941L27.2558 23.0196C25.0068 25.1055 22.8141 27.0786 21.1836 28.7698L13.031 21.6102L12.9748 21.5539C12.8061 21.4411 12.6937 21.3284 12.525 21.2156C12.1877 20.9337 11.9066 20.6519 11.5692 20.37C11.1194 19.9754 10.7258 19.5807 10.3323 19.1861C9.54513 18.3969 8.81421 17.5512 8.25197 16.762C5.83432 13.2104 3.81024 9.77148 8.19575 6.67086C11.6254 4.24673 15.6174 4.52861 22.6454 8.41848L22.9265 8.58761L23.0952 8.47486C25.4004 7.00911 27.8181 4.75411 32.9907 5.20511C38.3883 5.71248 40.4686 8.86948 38.2758 11.801Z" fill="#EE942F"/>
</svg>
