<svg width="57" height="33" viewBox="0 0 57 33" fill="none" xmlns="http://www.w3.org/2000/svg">
<path d="M17.7504 27.1107C17.3558 27.1759 17.0272 27.0275 16.6823 26.7804L6.97858 17.7417C6.40374 17.33 6.37196 16.5244 6.8987 16.0319L15.9374 6.32818C16.3655 5.852 17.1711 5.82022 17.6473 6.2483C18.1234 6.67639 18.1552 7.48199 17.7271 7.95816L9.56092 16.8082L18.4109 24.9744C18.8871 25.4025 18.9189 26.2081 18.4908 26.6843C18.2274 26.9305 17.9478 27.0781 17.7504 27.1107Z" fill="white"/>
<path d="M29.2424 26.7318C28.8478 26.797 28.5192 26.6486 28.1743 26.4015L18.4706 17.3628C17.9944 16.9347 17.9626 16.1291 18.3907 15.653L27.4294 5.94926C27.8575 5.47309 28.6631 5.4413 29.1393 5.86939C29.6155 6.29747 29.6472 7.10307 29.2192 7.57925L21.0366 16.3306L29.8866 24.4968C30.3628 24.9249 30.3946 25.7305 29.9665 26.2067C29.7195 26.5516 29.5384 26.6829 29.2424 26.7318Z" fill="white"/>
<path d="M40.7182 26.2542C40.3235 26.3195 39.9949 26.1711 39.65 25.924L29.9463 16.8853C29.4701 16.4572 29.4383 15.6516 29.8664 15.1754L39.0038 5.45542C39.4319 4.97924 40.2375 4.94746 40.7137 5.37554C41.1898 5.80363 41.2216 6.60923 40.7935 7.0854L32.6273 15.9354L41.4773 24.1016C41.9535 24.5297 41.9853 25.3353 41.5572 25.8115C41.2938 26.0577 41.0141 26.2053 40.7182 26.2542Z" fill="white"/>
<path d="M54.3434 16.7046C54.2447 16.7209 54.2447 16.7209 54.1461 16.7372L2.37658 16.8806C1.7683 16.8798 1.17716 16.3693 1.16168 15.6624C1.1462 14.9554 1.67294 14.463 2.37988 14.4475L54.0344 14.2217C54.7413 14.2063 55.2338 14.733 55.2493 15.4399C55.3634 16.1306 54.9353 16.6068 54.3434 16.7046Z" fill="white"/>
</svg>
