<svg width="70" height="83" viewBox="0 0 70 83" fill="none" xmlns="http://www.w3.org/2000/svg">
<path d="M8.86675 13.0668C8.16675 12.8335 7.46674 12.6001 6.76674 12.3668L11.2001 18.6669C11.6668 19.3669 12.1335 20.0669 12.3668 20.5335C12.8335 20.0669 13.3001 19.8335 14.0001 19.3669L15.1668 21.0002L10.5001 24.2669L9.56676 22.8669C10.0334 22.6336 10.2668 22.4002 10.2668 22.1669C10.2668 21.9336 10.5001 21.7002 10.2668 21.2335C10.2668 21.0002 10.0334 20.5335 9.56676 20.0669L3.96671 12.3668C3.2667 11.4334 3.03336 10.7334 2.80003 10.5001L1.16668 11.6668L0 10.0334L3.2667 7.70008L15.1668 11.2001C16.3335 11.6668 17.2668 11.9001 17.9668 12.1335L13.5335 5.60006C12.8335 4.66671 12.3668 4.20004 12.3668 3.73337L10.7334 4.90005L9.56676 3.2667L14.2335 0L15.1668 1.40001C14.7001 1.63335 14.4668 1.86669 14.4668 2.10002C14.4668 2.33336 14.2335 2.56669 14.4668 3.03336C14.4668 3.2667 14.7001 3.73337 15.1668 4.20004L23.3336 15.6335L21.4669 16.8002L8.86675 13.0668Z" fill="black"/>
<path d="M50.8671 67.2003C43.6337 72.3337 33.6003 70.467 28.4669 63.2336C23.3335 56.0002 25.2002 45.9668 32.4336 40.8334C39.667 35.7 49.7005 37.5667 54.8338 44.8001C59.9672 52.0335 58.1005 62.0669 50.8671 67.2003ZM32.667 41.0667C25.6669 45.9668 23.8002 56.0002 28.7002 63.0003C33.6003 70.0003 43.6337 71.867 50.6338 66.967C57.6339 62.0669 59.5006 52.0335 54.6005 45.0334C49.7005 38.0333 39.667 36.1667 32.667 41.0667Z" fill="black"/>
<path d="M70.0002 34.066L52.0334 51.5662L63.7001 57.8663L50.6333 59.733L61.6001 82.5998L43.8666 64.3997L37.7999 76.0665L35.6999 62.9997L13.0663 73.9664L31.0332 56.2329L17.9664 49.6995L32.4332 48.2995L21.6997 25.4326L39.1999 43.3995L45.7333 30.3327L47.3666 44.7995L70.0002 34.066Z" fill="black"/>
<path d="M23.3341 28L41.5343 53.9003L39.4342 44.5668L23.3341 28Z" fill="white"/>
<path d="M45.4999 31.9658L41.5332 53.8994L46.6666 45.966L45.4999 31.9658Z" fill="white"/>
<path d="M67.6668 35.6982L41.5332 53.8984L50.8667 51.7984L67.6668 35.6982Z" fill="white"/>
<path d="M62.3001 57.6328L41.5332 53.8994L49.7 59.0328L62.3001 57.6328Z" fill="white"/>
<path d="M59.9673 79.7997L41.7672 53.8994L43.8672 63.2328L59.9673 79.7997Z" fill="white"/>
<path d="M38.2671 74.4329L41.7671 53.8994L36.6338 61.8328L38.2671 74.4329Z" fill="white"/>
<path d="M15.8674 72.0996L41.7676 53.8994L32.4342 55.9994L15.8674 72.0996Z" fill="white"/>
<path d="M20.5334 49.9333L41.767 53.9L33.6002 48.7666L20.5334 49.9333Z" fill="white"/>
</svg>
