<svg xmlns="http://www.w3.org/2000/svg" viewBox="0 0 30 35.4"><defs><style>.cls-1{fill:#fff;}</style></defs><title>Domy Transparent</title><g id="Layer_2" data-name="Layer 2"><g id="Layer_1-2" data-name="Layer 1"><path d="M3.78,5.66l-1-.32h0L4.75,8.07a9.07,9.07,0,0,1,.52.83,6.83,6.83,0,0,1,.65-.49l.49.69-2,1.42L4,9.94a1.09,1.09,0,0,0,.32-.33.42.42,0,0,0,0-.35,1.74,1.74,0,0,0-.28-.54L1.65,5.35a7.53,7.53,0,0,1-.51-.83L.48,5,0,4.32l1.4-1L6.51,4.84l1.22.4h0l-2-2.8a7.54,7.54,0,0,1-.53-.82l-.66.49-.48-.69L6.12,0l.41.58A1.12,1.12,0,0,0,6.2.9a.54.54,0,0,0,0,.36,1.74,1.74,0,0,0,.28.54L9.91,6.74l-.76.53Z"/><path d="M21.75,28.86a6.91,6.91,0,1,1,1.7-9.62A6.9,6.9,0,0,1,21.75,28.86ZM13.91,17.65a6.75,6.75,0,1,0,9.4,1.66A6.76,6.76,0,0,0,13.91,17.65Z"/><polygon points="30 14.62 22.27 22.19 27.25 24.85 21.67 25.66 26.34 35.4 18.78 27.69 16.17 32.61 15.29 27.07 5.56 31.74 13.27 24.18 7.69 21.36 13.9 20.72 9.22 10.96 16.79 18.69 19.57 13.05 20.24 19.3 30 14.62"/><polygon class="cls-1" points="9.96 12.02 17.78 23.18 16.85 19.19 9.96 12.02"/><polygon class="cls-1" points="19.45 13.71 17.78 23.18 19.92 19.71 19.45 13.71"/><polygon class="cls-1" points="28.94 15.36 17.78 23.18 21.76 22.25 28.94 15.36"/><polygon class="cls-1" points="26.61 24.72 17.78 23.18 21.26 25.34 26.61 24.72"/><polygon class="cls-1" points="25.66 34.3 17.84 23.13 18.77 27.12 25.66 34.3"/><polygon class="cls-1" points="16.31 31.93 17.84 23.13 15.7 26.6 16.31 31.93"/><polygon class="cls-1" points="6.7 30.94 17.84 23.13 13.86 24.06 6.7 30.94"/><polygon class="cls-1" points="8.77 21.48 17.84 23.13 14.38 20.99 8.77 21.48"/></g></g></svg>