<svg width="327" height="42" viewBox="0 0 327 42" fill="none" xmlns="http://www.w3.org/2000/svg">
<path d="M163.3 41.394C161.2 41.394 159.1 40.649 157.6 39.0525C155.8 37.1367 155.2 34.3695 156 31.1765C156.4 29.5801 157.1 27.9836 158.1 26.1742C156.5 27.2386 154.9 27.9836 153.4 28.4093C150.4 29.2608 147.8 28.6222 146 26.7064C143.1 23.6199 143.1 17.7661 146 14.6796C147.8 12.7638 150.4 12.1252 153.4 12.9767C154.9 13.4024 156.4 14.1474 158.1 15.2117C157.1 13.5088 156.4 11.8059 156 10.2094C155.2 7.01646 155.8 4.24923 157.6 2.33345C160.5 -0.753078 166 -0.753078 168.9 2.33345C170.7 4.24923 171.3 7.01646 170.5 10.2094C170.1 11.8059 169.4 13.4024 168.4 15.2117C170 14.1474 171.6 13.4024 173.1 12.9767C176.1 12.1252 178.7 12.7638 180.5 14.6796C183.4 17.7661 183.4 23.6199 180.5 26.7064C178.7 28.6222 176.1 29.2608 173.1 28.4093C171.6 27.9836 170.1 27.2386 168.4 26.1742C169.4 27.8771 170.1 29.5801 170.5 31.1765C171.3 34.3695 170.7 37.1367 168.9 39.0525C167.5 40.5426 165.4 41.394 163.3 41.394ZM163.3 22.1298C160.3 25.6421 158.5 28.835 157.8 31.6023C157.2 34.1566 157.6 36.2853 158.9 37.6689C161.1 40.0104 165.5 40.0104 167.7 37.6689C169 36.2853 169.4 34.1566 168.8 31.6023C168.1 28.835 166.2 25.6421 163.3 22.1298ZM164.6 20.6398C167.9 23.8327 170.9 25.7485 173.5 26.4935C175.9 27.1321 177.9 26.7064 179.2 25.3228C181.4 22.9813 181.4 18.2983 179.2 15.9568C177.9 14.5731 175.9 14.1474 173.5 14.786C170.9 15.531 167.9 17.5532 164.6 20.6398ZM150.9 14.4667C149.4 14.4667 148.2 14.9989 147.3 15.9568C145.1 18.2983 145.1 22.9813 147.3 25.3228C148.6 26.7064 150.6 27.1321 153 26.4935C155.6 25.7485 158.6 23.8327 161.9 20.6398C158.6 17.4468 155.6 15.531 153 14.786C152.2 14.5731 151.5 14.4667 150.9 14.4667ZM163.3 1.90772C161.7 1.90772 160 2.54632 158.9 3.71707C157.6 5.10068 157.2 7.22933 157.8 9.7837C158.5 12.5509 160.3 15.7439 163.3 19.2561C166.3 15.7439 168.1 12.5509 168.8 9.7837C169.4 7.22933 169 5.10068 167.7 3.71707C166.5 2.43988 164.9 1.90772 163.3 1.90772Z" fill="#547D9B"/>
<path d="M25.2 28.1964C18.6 28.1964 13.4 21.5976 13.1 21.2783C12.8 20.959 12.8 20.4269 13.1 20.1076C13.3 19.7883 18.5 13.1895 25.2 13.1895C31.9 13.1895 37 19.7883 37.3 20.1076C37.6 20.4269 37.6 20.959 37.3 21.2783C37.1 21.5976 31.8 28.1964 25.2 28.1964ZM15.1 20.6397C16.5 22.2362 20.6 26.1742 25.3 26.1742C30 26.1742 34 22.1298 35.5 20.6397C34.1 19.0432 30 15.1052 25.3 15.1052C20.6 15.1052 16.5 19.1497 15.1 20.6397Z" fill="#547D9B"/>
<path d="M132.9 21.5974H29.9C29.4 21.5974 29 21.1717 29 20.6395C29 20.1074 29.4 19.6816 29.9 19.6816H132.9C133.4 19.6816 133.8 20.1074 133.8 20.6395C133.8 21.1717 133.4 21.5974 132.9 21.5974Z" fill="#547D9B"/>
<path d="M7.6 21.5974H0.9C0.4 21.5974 0 21.1717 0 20.6395C0 20.1074 0.4 19.6816 0.9 19.6816H7.6C8.1 19.6816 8.5 20.1074 8.5 20.6395C8.5 21.1717 8.1 21.5974 7.6 21.5974Z" fill="#547D9B"/>
<path d="M301.301 13.1895C307.901 13.1895 313.101 19.7883 313.401 20.1076C313.701 20.4269 313.701 20.959 313.401 21.2783C313.201 21.5976 308.001 28.1964 301.301 28.1964C294.601 28.1964 289.501 21.5976 289.201 21.2783C288.901 20.959 288.901 20.4269 289.201 20.1076C289.501 19.7883 294.701 13.1895 301.301 13.1895ZM311.501 20.6397C310.101 19.0432 306.001 15.1052 301.301 15.1052C296.601 15.1052 292.601 19.1497 291.101 20.6397C292.501 22.2362 296.601 26.1742 301.301 26.1742C306.001 26.2806 310.101 22.2362 311.501 20.6397Z" fill="#547D9B"/>
<path d="M193.6 19.6816H296.6C297.1 19.6816 297.5 20.1074 297.5 20.6395C297.5 21.1717 297.1 21.5974 296.6 21.5974H193.6C193.1 21.5974 192.7 21.1717 192.7 20.6395C192.7 20.1074 193.1 19.6816 193.6 19.6816Z" fill="#547D9B"/>
<path d="M319.001 19.6816H325.701C326.201 19.6816 326.601 20.1074 326.601 20.6395C326.601 21.1717 326.201 21.5974 325.701 21.5974H319.001C318.501 21.5974 318.101 21.1717 318.101 20.6395C318.101 20.1074 318.501 19.6816 319.001 19.6816Z" fill="#547D9B"/>
</svg>
