<svg width="80" height="81" viewBox="0 0 80 81" fill="none" xmlns="http://www.w3.org/2000/svg">
<path d="M59.4401 80C59.0401 79.9 58.6401 79.9 58.2401 79.8H58.0401C57.0401 79.6 56.0401 79.5 55.0401 79.3C49.6401 78 44.4401 75.8 39.6401 73C32.0401 68.8 25.2401 63.5 19.3401 57.1C11.5401 48.5 5.94006 39.9 2.54006 30.8C1.14006 27.2 0.240056 23.4 0.0400562 19.5C-0.259944 15.7 1.14006 11.9 3.74006 9.1C4.24006 8.6 4.74006 8 5.24006 7.5C7.04006 5.8 8.74006 4 10.6401 2.4C12.4401 0.8 14.3401 0 16.3401 0C18.3401 0 20.2401 0.9 22.0401 2.5C25.6401 5.9 29.2401 9.5 33.0401 13.6C35.7401 16.5 35.7401 21 33.0401 23.9C31.7401 25.3 30.4401 26.7 29.0401 28L28.9401 28.1C28.3401 28.7 27.6401 29.4 27.0401 30C26.9401 30.1 26.8401 30.2 26.7401 30.3L26.3401 30.6L26.5401 30.9C31.7401 40.2 39.4401 47.9 48.8401 53.1L49.1401 53.2L53.8401 48.4C55.0401 47 56.4401 45.9 58.1401 45.2C59.0401 45 60.0401 44.8 61.0401 44.8C62.9401 44.8 64.6401 45.5 66.0401 46.8C70.0401 50.6 73.9401 54.5 77.6401 58.5C80.34 61.4 80.4401 65.8 77.8401 68.7C75.2401 71.8 72.34 74.6 70.1401 76.8C68.2401 78.5 65.7401 79.6 63.2401 79.9C63.0401 79.9 62.8401 80 62.7401 80.1L59.4401 80ZM60.7401 75.1H61.1401C63.6401 75.1 66.0401 74.1 67.7401 72.3C68.94 71 70.1401 69.8 71.3401 68.6L73.1401 66.8C73.34 66.6 73.6401 66.3 73.8401 66.1C74.4401 65.5 74.7401 64.7 74.7401 63.8C74.7401 62.9 74.4401 62.1 73.8401 61.5L73.7401 61.4C72.7401 60.3 71.5401 59.2 70.5401 58.1L67.6401 55.2C66.2401 53.8 64.8401 52.4 63.3401 51C62.7401 50.3 61.8401 49.9 60.9401 49.9C60.1401 49.9 59.4401 50.2 58.8401 50.7L58.7401 50.8C58.5401 51 58.2401 51.2 58.0401 51.4L55.8401 53.6C54.6401 54.8 53.4401 56 52.2401 57.2C51.5401 58 50.5401 58.5 49.4401 58.5C48.8401 58.5 48.1401 58.3 47.6401 58C46.4401 57.4 45.3401 56.8 44.2401 56.2C39.3401 53.2 34.8401 49.5 31.0401 45.1C27.4401 41.4 24.5401 37.2 22.2401 32.6C21.1401 30.1 21.3401 28.8 23.3401 26.9L23.8401 26.4C25.6401 24.6 27.5401 22.8 29.3401 20.9C29.9401 20.4 30.3401 19.6 30.3401 18.8C30.3401 18 30.1401 17.2 29.5401 16.6C29.5401 16.5 29.4401 16.5 29.3401 16.4C29.1401 16.1 28.8401 15.9 28.6401 15.6L19.2401 6.2C18.2401 5.2 17.3401 4.7 16.3401 4.7C15.4401 4.7 14.4401 5.2 13.5401 6.2C13.0401 6.7 12.4401 7.2 11.9401 7.7L11.8401 7.8C10.4401 9.2 9.14006 10.4 7.84006 11.9C6.94006 12.8 6.24006 13.9 5.74006 15.1C4.94006 17.7 4.94006 20.3 5.64006 22.9C6.54006 26.9 7.94006 30.7 9.84006 34.3C13.0401 40.7 17.1401 46.6 21.9401 51.9C30.2401 61.3 40.7401 68.6 52.4401 73C54.9401 74.3 57.7401 74.9 60.7401 75.1Z" fill="white"/>
</svg>
