<svg width="27" height="27" viewBox="0 0 27 27" fill="none" xmlns="http://www.w3.org/2000/svg">
<path d="M19.7613 26.5966C19.6283 26.5634 19.4953 26.5634 19.3624 26.5301H19.2959C18.9634 26.4636 18.631 26.4304 18.2985 26.3639C16.5032 25.9317 14.7744 25.2003 13.1786 24.2694C10.652 22.8731 8.39126 21.1111 6.42975 18.9833C3.83658 16.1242 1.97482 13.2651 0.844462 10.2397C0.379021 9.04285 0.0798086 7.77951 0.013317 6.48293C-0.0864204 5.21959 0.379021 3.95625 1.24341 3.02537C1.40964 2.85914 1.57587 2.65966 1.7421 2.49343C2.34052 1.92826 2.9057 1.32983 3.53737 0.797899C4.1358 0.265966 4.76746 0 5.43238 0C6.0973 0 6.72897 0.299212 7.32739 0.831145C8.52424 1.9615 9.72109 3.15835 10.9844 4.52143C11.8821 5.48556 11.8821 6.98162 10.9844 7.94574C10.5522 8.41118 10.12 8.87663 9.6546 9.30882L9.62135 9.34207C9.42188 9.54154 9.18915 9.77426 8.98968 9.97374C8.95643 10.007 8.92319 10.0402 8.88994 10.0735L8.75696 10.1732L8.82345 10.2729C10.5522 13.3648 13.1122 15.9247 16.2373 17.6535L16.337 17.6868L17.8996 16.091C18.2985 15.6255 18.7639 15.2598 19.3291 15.0271C19.6283 14.9606 19.9608 14.8941 20.2932 14.8941C20.9249 14.8941 21.4901 15.1268 21.9555 15.559C23.2854 16.8224 24.582 18.119 25.812 19.4488C26.7097 20.4129 26.7429 21.8757 25.8785 22.8399C25.0142 23.8705 24.05 24.8014 23.3186 25.5328C22.6869 26.0979 21.8558 26.4636 21.0247 26.5634C20.9582 26.5634 20.8917 26.5966 20.8584 26.6299L19.7613 26.5966ZM20.1935 24.9676H20.3265C21.1576 24.9676 21.9555 24.6351 22.5207 24.0367C22.9197 23.6045 23.3186 23.2056 23.7176 22.8066L24.316 22.2082C24.3825 22.1417 24.4822 22.042 24.5487 21.9755C24.7482 21.776 24.8479 21.51 24.8479 21.2108C24.8479 20.9116 24.7482 20.6456 24.5487 20.4462L24.5155 20.4129C24.183 20.0472 23.7841 19.6815 23.4516 19.3158L22.4875 18.3517C22.022 17.8862 21.5566 17.4208 21.0579 16.9554C20.8584 16.7226 20.5592 16.5896 20.26 16.5896C19.994 16.5896 19.7613 16.6894 19.5618 16.8556L19.5286 16.8889C19.4621 16.9554 19.3624 17.0218 19.2959 17.0883L18.5645 17.8197C18.1655 18.2187 17.7666 18.6176 17.3676 19.0166C17.1349 19.2826 16.8024 19.4488 16.4367 19.4488C16.2373 19.4488 16.0045 19.3823 15.8383 19.2826C15.4394 19.0831 15.0737 18.8836 14.708 18.6841C13.0789 17.6868 11.5829 16.4567 10.3195 14.9938C9.12266 13.7638 8.15854 12.3674 7.39388 10.8381C7.02818 10.007 7.09467 9.57479 7.75959 8.94312L7.92581 8.77689C8.52424 8.17846 9.15591 7.58004 9.75433 6.94837C9.95381 6.78214 10.0868 6.51617 10.0868 6.25021C10.0868 5.98424 10.0203 5.71828 9.82082 5.5188C9.82082 5.48556 9.78758 5.48555 9.75433 5.45231C9.68784 5.35257 9.5881 5.28608 9.52161 5.18634L6.39651 2.06124C6.06405 1.72878 5.76484 1.56255 5.43238 1.56255C5.13317 1.56255 4.80071 1.72878 4.5015 2.06124C4.33527 2.22747 4.13579 2.3937 3.96957 2.55993L3.93632 2.59317C3.47088 3.05861 3.03868 3.45756 2.60649 3.95625C2.30728 4.25546 2.07456 4.62116 1.90833 5.02011C1.64236 5.8845 1.64236 6.74889 1.87508 7.61329C2.17429 8.94312 2.63973 10.2065 3.2714 11.4033C4.33527 13.531 5.69835 15.4925 7.29415 17.2546C10.0535 20.3797 13.5444 22.8066 17.4341 24.2694C18.2653 24.7016 19.1961 24.9011 20.1935 24.9676Z" fill="#EE942F"/>
</svg>
