<svg width="41" height="42" viewBox="0 0 41 42" fill="none" xmlns="http://www.w3.org/2000/svg">
<path d="M30.4458 40.9768C30.2409 40.9255 30.036 40.9255 29.8311 40.8743H29.7287C29.2165 40.7719 28.7043 40.7207 28.192 40.6182C25.4261 39.9524 22.7626 38.8255 20.304 37.3913C16.4112 35.24 12.9282 32.5253 9.90616 29.2472C5.91093 24.8422 3.04255 20.4372 1.30104 15.7761C0.583948 13.9321 0.122959 11.9857 0.0205172 9.98809C-0.133146 8.04169 0.583948 6.09529 1.91569 4.66111C2.1718 4.405 2.4279 4.09768 2.68401 3.84157C3.60598 2.97082 4.47674 2.04884 5.44994 1.2293C6.37192 0.409768 7.34511 0 8.36953 0C9.39395 0 10.3672 0.460989 11.2891 1.28052C13.1331 3.02204 14.977 4.86599 16.9234 6.96605C18.3064 8.45146 18.3064 10.7564 16.9234 12.2418C16.2576 12.9589 15.5917 13.676 14.8746 14.3419L14.8234 14.3931C14.5161 14.7004 14.1575 15.059 13.8502 15.3663C13.799 15.4175 13.7477 15.4687 13.6965 15.5199L13.4916 15.6736L13.5941 15.8273C16.2576 20.5908 20.2016 24.5348 25.0163 27.1983L25.17 27.2495L27.5774 24.7909C28.192 24.0739 28.9091 23.5104 29.7799 23.1519C30.2409 23.0494 30.7531 22.947 31.2653 22.947C32.2385 22.947 33.1093 23.3055 33.8264 23.9714C35.8752 25.9178 37.8728 27.9154 39.768 29.9643C41.151 31.4497 41.2022 33.7034 39.8704 35.1888C38.5387 36.7766 37.0533 38.2108 35.9264 39.3377C34.9532 40.2085 33.6727 40.7719 32.3922 40.9255C32.2897 40.9255 32.1873 40.9768 32.1361 41.028L30.4458 40.9768ZM31.1116 38.4669H31.3165C32.597 38.4669 33.8264 37.9547 34.6971 37.0328C35.3118 36.3669 35.9264 35.7522 36.5411 35.1376L37.463 34.2156C37.5655 34.1132 37.7191 33.9595 37.8216 33.8571C38.1289 33.5497 38.2826 33.14 38.2826 32.679C38.2826 32.218 38.1289 31.8082 37.8216 31.5009L37.7704 31.4497C37.2582 30.8862 36.6435 30.3228 36.1313 29.7594L34.6459 28.274C33.9288 27.5569 33.2117 26.8398 32.4434 26.1227C32.1361 25.7641 31.6751 25.5593 31.2141 25.5593C30.8043 25.5593 30.4458 25.7129 30.1384 25.969L30.0872 26.0202C29.9848 26.1227 29.8311 26.2251 29.7287 26.3276L28.6018 27.4544C27.9872 28.0691 27.3725 28.6837 26.7579 29.2984C26.3993 29.7082 25.8871 29.9643 25.3237 29.9643C25.0163 29.9643 24.6578 29.8618 24.4017 29.7082C23.787 29.4008 23.2236 29.0935 22.6602 28.7862C20.1504 27.2495 17.8454 25.3544 15.899 23.1007C14.0551 21.2055 12.5697 19.0542 11.3916 16.698C10.8281 15.4175 10.9306 14.7516 11.955 13.7784L12.2111 13.5223C13.1331 12.6004 14.1063 11.6784 15.0283 10.7052C15.3356 10.4491 15.5405 10.0393 15.5405 9.62954C15.5405 9.21977 15.438 8.81001 15.1307 8.50268C15.1307 8.45146 15.0795 8.45146 15.0283 8.40024C14.9258 8.24657 14.7722 8.14413 14.6697 7.99047L9.85494 3.1757C9.34273 2.66349 8.88174 2.40739 8.36953 2.40739C7.90855 2.40739 7.39634 2.66349 6.93535 3.1757C6.67924 3.4318 6.37192 3.68791 6.11581 3.94401L6.06459 3.99523C5.3475 4.71233 4.68162 5.32698 4.01575 6.09529C3.55476 6.55628 3.19622 7.11971 2.94011 7.73436C2.53034 9.06611 2.53034 10.3979 2.88889 11.7296C3.34988 13.7784 4.06697 15.7248 5.04017 17.5688C6.67924 20.8469 8.7793 23.869 11.2379 26.5837C15.4892 31.3984 20.8675 35.1376 26.8603 37.3913C28.1408 38.0572 29.575 38.3645 31.1116 38.4669Z" fill="#EE942F"/>
</svg>
