<svg width="155" height="30" viewBox="0 0 155 30" fill="none" xmlns="http://www.w3.org/2000/svg">
<path fill-rule="evenodd" clip-rule="evenodd" d="M70.7633 15.0378C70.1453 14.6258 69.39 14.2825 68.7033 13.9391C68.36 13.8018 68.0853 13.5958 67.742 13.4585C67.6733 12.9778 67.6047 12.4971 67.536 12.0852C67.0553 9.68186 65.9567 7.69055 63.7594 6.52324C62.3861 5.76791 60.8754 5.14992 59.4334 4.53193C59.3648 4.46327 59.0901 4.53193 59.0901 4.6006C59.0214 4.73793 58.9528 4.94393 59.0214 5.08126C59.8454 6.86656 60.7381 8.58321 61.6307 10.2998C61.9054 10.8492 62.2487 11.3298 62.5234 11.8105C62.6607 12.0165 62.7981 12.1538 62.6607 12.4285C62.5234 12.4285 62.3861 12.4971 62.2487 12.4971C59.7768 12.2225 57.2361 12.1538 54.7642 12.3598C54.3522 12.3598 53.9402 12.3598 53.6655 12.3598C53.5282 12.2225 53.4595 12.0852 53.4595 12.0165C52.5669 9.06387 50.7129 7.0039 48.1036 5.42459C45.4256 3.84528 42.7477 2.33463 40.0011 0.892653C39.7951 0.686656 39.4517 0.549325 39.1084 0.411994C38.7651 0.274663 38.4904 0.137331 38.0784 0C38.0098 0.411994 37.8724 0.686656 37.8724 1.02998C37.8724 4.05127 38.5591 6.7979 40.5504 9.13253C41.7177 10.5058 43.091 11.6045 44.6703 12.4285C44.945 12.5658 45.2883 12.7718 45.6316 12.9778C45.4943 13.1151 45.4256 13.1838 45.357 13.1838C41.855 13.8705 38.4218 14.4885 34.9198 15.1751C34.7138 15.2438 34.5078 15.2438 34.2332 15.2438C33.9585 14.8318 33.6838 14.4885 33.4778 14.0765C32.1045 11.4672 29.9759 9.68186 27.2293 8.72054C24.9633 7.89655 22.56 7.14123 20.2254 6.38591C19.1954 6.04258 18.0967 5.76791 17.1354 5.14992C16.9981 5.01259 16.7234 5.08126 16.5174 5.01259C16.1741 5.63058 16.3801 6.11124 16.5174 6.66057C17.4787 9.88785 19.4014 12.2912 22.4227 13.8018C24.3453 14.8318 26.4053 15.5184 28.6026 15.9304C28.8086 15.9991 29.1519 15.8618 29.1519 16.3424C27.0233 16.8917 24.8946 17.4411 22.6973 17.9904C22.0793 18.1277 21.5987 18.0591 20.9807 17.8531C19.7447 17.3037 18.5087 16.8917 17.3414 16.4111C16.1054 15.9304 14.8008 15.7244 13.4961 15.7244C12.1915 15.7244 10.8868 15.9304 9.58218 16.2738C7.24755 16.8918 4.84425 17.1664 2.44096 16.7544C1.9603 16.6858 1.47964 16.5484 0.998979 16.4798C0.655651 16.4111 0.380988 16.4798 0.106326 16.4798C-0.0310057 17.5784 -0.0996714 17.6471 0.312322 18.2651C0.861648 19.1577 1.47964 20.119 2.16629 20.943C2.85295 21.8357 3.7456 22.4537 4.77559 22.8657C8.00287 24.1016 11.2988 24.445 14.6634 23.6896C15.6934 23.415 16.7234 23.0717 17.7534 22.591C19.676 21.6983 21.5987 20.6684 23.4526 19.707C24.3453 19.2264 25.238 18.8831 26.1993 18.6084C26.7486 18.4711 27.2293 18.3337 27.7786 18.1964C29.1519 17.9217 30.5252 17.5097 32.0359 17.3724C31.8299 17.6471 31.7612 17.7844 31.6239 17.8531C31.0059 18.2651 30.3192 18.6771 29.6326 19.0891C28.7399 19.6384 27.9159 20.325 27.5039 21.2864C26.4053 23.6896 24.8946 25.7496 23.0406 27.6036C22.8347 27.8096 22.6287 28.0842 22.4227 28.2902C22.2167 28.5649 22.0793 28.8396 22.2167 29.1829C22.354 29.5262 22.6287 29.5949 22.972 29.6636C23.3153 29.6636 23.59 29.6636 23.9333 29.6636C28.1906 29.3889 32.0359 28.0156 35.2631 25.2003C36.0871 24.5136 36.7051 23.6896 37.1171 22.7283C37.3918 22.0417 37.6664 21.355 37.9411 20.737C38.2844 19.8444 38.5591 18.9517 38.6964 17.9904C38.7651 17.3724 38.7651 16.7544 39.0397 16.1364C39.1771 16.0678 39.3144 15.9991 39.4517 15.9991C41.7177 15.5871 43.9837 15.1751 46.3183 14.9004C48.6529 14.6258 50.9876 14.4885 53.3222 14.2825C53.3222 14.2825 53.3222 14.2825 53.3909 14.2825C53.5969 14.2825 53.8029 14.2825 54.0089 14.2825V14.3511C53.8029 14.3511 53.5969 14.2825 53.3909 14.2825C53.3909 14.6258 53.0475 14.6258 52.7729 14.6944C50.5756 15.2438 48.7216 16.4798 47.1423 18.1277C45.975 19.3637 44.8077 20.531 43.6403 21.767C43.4343 21.973 43.2283 22.2477 43.0224 22.5223C42.885 22.797 43.0224 23.209 43.297 23.3463C43.4343 23.415 43.6403 23.4837 43.8463 23.4837C48.2409 24.1016 52.4295 23.3463 56.4121 21.2864C57.7168 20.5997 58.7468 19.707 59.5021 18.4711C60.2574 17.2351 61.1501 15.9991 61.3561 14.5571C61.8367 14.1451 62.3174 14.2138 62.7294 14.2825C64.034 14.4885 65.3387 14.6258 66.6433 14.9004C67.33 15.0378 68.0166 15.3811 68.6346 15.6558C69.5273 16.0678 70.2139 16.6858 70.8319 17.4411C71.1753 17.9217 70.9693 18.4711 70.3513 18.5397C69.6646 18.6084 69.0466 18.8144 68.4286 18.1964C68.0853 17.7844 67.6047 17.9904 67.1927 18.1964C66.7807 18.4024 66.918 18.8144 66.918 19.1577C66.918 20.531 69.1153 21.8357 70.4199 21.0117C71.3813 20.3937 71.9993 19.501 72.4112 18.4711C72.7546 17.6471 72.6172 16.8231 72.0679 16.2051C71.5873 15.6558 71.1753 15.3124 70.7633 15.0378ZM4.56959 18.1964C6.5609 18.1964 8.41487 17.9217 10.3375 17.4411C12.6035 16.8231 14.8008 16.8917 16.9981 17.7844C17.6161 18.0591 18.3714 18.1964 19.058 18.6084C18.852 18.7457 18.7834 18.8831 18.646 18.8831C15.1441 19.5697 11.5735 19.913 7.93421 19.501C6.62956 19.3637 5.39358 19.0204 4.1576 18.5397C4.22626 18.1277 4.43226 18.1964 4.56959 18.1964ZM19.7447 20.4624C18.0281 21.355 16.1741 22.1103 14.3201 22.5223C11.1615 23.209 8.07154 22.8657 5.11892 21.6983C3.67694 21.149 2.64695 20.119 2.16629 18.5397C2.44096 18.6771 2.71562 18.8144 2.99028 18.9517C5.32491 20.1877 7.79688 20.737 10.4062 20.8057C13.3588 20.8744 16.3114 20.5997 19.1954 20.119C19.47 20.0504 19.8134 20.0504 20.3627 19.9817C20.0194 20.2564 19.882 20.3937 19.7447 20.4624ZM30.1132 14.9691C27.5726 14.4198 25.1006 13.7331 22.766 12.4971C20.706 11.3985 19.1267 9.81919 18.0967 7.69055C22.2167 10.2998 26.6113 12.3598 30.8685 14.6944C30.9372 14.6944 30.9372 14.8318 31.0059 14.9691C30.7312 14.9691 30.4565 15.0378 30.1132 14.9691ZM20.294 7.75922C20.5687 7.75922 20.706 7.75922 20.8433 7.82788C22.354 8.30854 23.8646 8.7892 25.3753 9.26986C26.7486 9.75052 28.0532 10.3685 29.2892 11.1238C30.1819 11.7418 30.9372 12.4971 31.6239 13.3898C31.6925 13.4585 31.6925 13.6645 31.8299 13.9391C28.3966 12.4971 21.4613 8.7892 20.294 7.75922ZM26.5426 25.475C27.2979 24.3763 27.9159 23.2777 28.4652 22.0417C28.7399 21.2864 29.2892 20.737 29.9072 20.2564C31.2119 19.295 32.5165 18.3337 33.8898 17.4411C34.7825 16.8231 34.8511 16.8231 35.8811 16.6858C36.0185 16.8917 35.8811 17.0291 35.7438 17.0977C34.7138 17.9217 33.9585 18.8831 33.2718 19.913C32.5165 21.0117 31.6239 22.0417 30.7312 23.0717C29.5639 24.3763 28.0532 25.269 26.2679 26.2989C26.3366 25.8183 26.4053 25.681 26.5426 25.475ZM36.9798 19.295C36.6364 20.325 36.2245 21.355 35.8125 22.3163C35.5378 22.9343 35.1945 23.4837 34.6451 23.9643C32.2418 26.0929 29.4952 27.4663 26.3366 28.0843C26.2679 28.0843 26.2679 28.0842 26.0619 28.0156C26.6113 27.3976 27.1606 27.0543 27.7786 26.7109C30.5939 25.1316 32.6538 22.8657 34.3705 20.1877C35.0571 19.0891 36.0185 18.2651 36.9798 17.5097C37.0484 17.4411 37.1171 17.5097 37.2544 17.5097C37.3918 18.1277 37.1858 18.7457 36.9798 19.295ZM44.2583 10.7118C41.5117 8.92653 39.7951 6.52324 39.1771 3.08995C39.4517 3.29595 39.6577 3.36462 39.7951 3.50195C40.2071 3.91394 40.6191 4.3946 41.031 4.8066C42.9537 6.7979 45.0823 8.58321 47.4856 9.95652C48.5843 10.5745 49.6143 11.3298 50.7129 12.0165C50.8502 12.0852 50.9189 12.2225 51.0562 12.3598C49.2709 12.9778 46.799 12.2912 44.2583 10.7118ZM51.5369 11.0552C51.3309 10.9865 51.1936 10.9178 50.9876 10.7805C49.6143 9.88785 48.2409 9.06386 46.8676 8.17121C44.4643 6.66057 42.473 4.66926 40.6191 2.60929C40.6877 2.54063 40.7564 2.47196 40.7564 2.33463C41.649 2.81529 42.5417 3.36462 43.4343 3.84528C44.945 4.73793 46.387 5.63058 47.8289 6.52324C49.2709 7.48456 50.5756 8.65187 51.3996 10.2312C51.5369 10.4372 51.5369 10.6432 51.6056 10.8492C51.6742 10.9178 51.6056 10.9178 51.5369 11.0552ZM46.4556 20.531C48.3783 17.9217 50.7816 15.9304 54.1462 15.3124C54.9702 15.1751 55.7942 14.8318 56.6868 14.7631C56.6181 14.9004 56.6181 15.0378 56.5495 15.0378C53.3222 16.8917 50.0949 18.7457 46.8676 20.531C46.799 20.5997 46.6616 20.5997 46.5243 20.5997C46.4556 20.5997 46.387 20.531 46.4556 20.531ZM59.7081 15.2438C59.1588 16.1364 58.6094 17.0291 58.0601 17.9217C57.5108 18.7457 56.8241 19.3637 56.0002 19.8444C53.3222 21.2864 50.4382 22.2477 47.3483 22.2477C47.211 22.2477 47.0736 22.2477 46.9363 22.2477C46.8676 22.2477 46.8676 22.2477 46.593 22.1103C51.0562 19.5697 55.3822 17.0977 59.7081 14.6944C59.9828 14.8318 59.8454 15.0378 59.7081 15.2438ZM64.3774 12.0852C63.3474 11.0552 62.5921 9.68186 62.2487 8.23988C63.8967 9.81919 65.27 11.6045 65.6133 12.7718C64.9954 12.8405 64.7207 12.4285 64.3774 12.0852ZM65.5447 10.3685C65.5447 10.3685 65.476 10.3685 65.4073 10.2998C64.652 9.40719 63.8967 8.51454 63.21 7.62189C64.446 8.17121 65.2013 9.06386 65.682 10.2312C65.5447 10.3685 65.5447 10.3685 65.5447 10.3685Z" fill="#EE942F"/>
<path fill-rule="evenodd" clip-rule="evenodd" d="M154.355 16.4798C154.08 16.4798 153.805 16.3424 153.462 16.4111C152.981 16.4798 152.501 16.6171 152.02 16.6858C149.617 17.0977 147.214 16.8231 144.879 16.2051C143.574 15.8618 142.338 15.6558 140.965 15.6558C139.66 15.6558 138.356 15.8618 137.12 16.3424C135.884 16.8231 134.648 17.2351 133.48 17.7844C132.931 18.0591 132.382 18.1277 131.764 17.9217C129.635 17.3724 127.438 16.8231 125.309 16.2738C125.309 15.7931 125.653 15.8618 125.859 15.8618C127.987 15.4498 130.047 14.7631 132.038 13.7331C134.991 12.2225 136.982 9.75052 137.944 6.5919C138.081 6.11124 138.356 5.56192 137.944 4.94393C137.738 5.01259 137.532 4.94393 137.326 5.08126C136.364 5.69925 135.266 5.97391 134.167 6.31724C131.832 7.07256 129.498 7.75922 127.163 8.65187C124.417 9.68186 122.288 11.3985 120.915 14.0078C120.709 14.4198 120.434 14.7631 120.159 15.1751C119.885 15.1751 119.679 15.1064 119.473 15.1064C115.971 14.4198 112.537 13.8018 109.035 13.1151C108.967 13.1151 108.898 13.0465 108.761 12.9091C109.104 12.7031 109.379 12.5658 109.722 12.3598C111.301 11.5358 112.675 10.4372 113.842 9.06386C115.833 6.72923 116.52 3.98261 116.52 0.961319C116.52 0.686656 116.383 0.411994 116.314 0C115.902 0.137331 115.627 0.274663 115.284 0.411994C114.941 0.549325 114.597 0.686656 114.323 0.892653C111.576 2.26597 108.898 3.77661 106.22 5.42459C103.611 7.0039 101.688 9.06386 100.864 12.0165C100.864 12.0852 100.796 12.1538 100.658 12.3598C100.315 12.3598 99.9029 12.4285 99.5596 12.3598C97.0876 12.2225 94.547 12.2225 92.075 12.4971C91.9377 12.4971 91.8004 12.4285 91.7317 12.4285C91.5944 12.1538 91.7317 12.0165 91.869 11.8105C92.1437 11.3298 92.487 10.8492 92.7617 10.2998C93.6543 8.58321 94.4783 6.7979 95.371 5.08126C95.4396 4.94393 95.371 4.73793 95.3023 4.6006C95.2337 4.53193 95.0277 4.46327 94.959 4.53193C93.517 5.21859 92.075 5.76791 90.6331 6.52324C88.4358 7.69055 87.3371 9.68186 86.8564 12.0852C86.7878 12.4971 86.7191 12.9778 86.6504 13.4585C86.3758 13.5958 86.0325 13.8018 85.6891 13.9391C85.0025 14.2825 84.3158 14.6258 83.6292 15.0378C83.2172 15.3124 82.8738 15.6558 82.5305 16.0678C81.9812 16.7544 81.8439 17.5097 82.1872 18.3337C82.5992 19.3637 83.1485 20.2564 84.1785 20.8744C85.4831 21.6983 87.6804 20.3937 87.6804 19.0204C87.6804 18.6771 87.7491 18.2651 87.4058 18.0591C86.9938 17.7844 86.5131 17.6471 86.1698 18.0591C85.6205 18.6771 84.9338 18.4711 84.2471 18.4024C83.6292 18.3337 83.4232 17.7844 83.7665 17.3037C84.3845 16.5484 85.0711 15.9304 85.9638 15.5184C86.6504 15.1751 87.2684 14.9004 87.9551 14.7631C89.2597 14.4885 90.5644 14.2825 91.869 14.1451C92.281 14.0765 92.7617 14.0765 93.2423 14.4198C93.4483 15.8618 94.341 17.0977 95.0963 18.3337C95.8516 19.5697 96.8816 20.531 98.1863 21.149C102.169 23.209 106.289 23.9643 110.752 23.3463C110.958 23.3463 111.095 23.2777 111.301 23.209C111.576 23.0717 111.782 22.6597 111.576 22.385C111.439 22.1103 111.233 21.9043 110.958 21.6297C109.791 20.3937 108.623 19.2264 107.456 17.9904C105.877 16.3424 104.023 15.1751 101.826 14.5571C101.551 14.4885 101.276 14.4885 101.208 14.1451C101.002 14.1451 100.796 14.2138 100.59 14.2138V14.1451C100.796 14.1451 101.002 14.1451 101.208 14.1451C101.208 14.1451 101.208 14.1451 101.276 14.1451C103.611 14.3511 105.945 14.4885 108.28 14.7631C110.546 15.0378 112.881 15.5184 115.147 15.8618C115.284 15.8618 115.421 15.9304 115.559 15.9991C115.833 16.5484 115.833 17.2351 115.902 17.8531C116.039 18.8144 116.245 19.707 116.657 20.5997C116.932 21.2863 117.207 21.973 117.481 22.591C117.893 23.5523 118.511 24.3763 119.335 25.063C122.563 27.8783 126.408 29.2516 130.665 29.5262C131.008 29.5262 131.283 29.5262 131.626 29.5262C131.97 29.5262 132.244 29.3889 132.382 29.0456C132.519 28.7022 132.382 28.4276 132.176 28.1529C131.97 27.8783 131.764 27.6723 131.558 27.4663C129.772 25.6123 128.193 23.5523 127.095 21.149C126.683 20.1877 125.859 19.501 124.966 18.9517C124.279 18.5397 123.661 18.1277 122.975 17.7157C122.837 17.6471 122.769 17.5097 122.563 17.2351C124.142 17.3724 125.447 17.7844 126.82 18.0591C127.369 18.1964 127.85 18.3337 128.399 18.4711C129.36 18.6771 130.253 19.089 131.146 19.5697C133 20.5997 134.922 21.561 136.845 22.4537C137.806 22.9343 138.836 23.2777 139.935 23.5523C143.3 24.3076 146.596 23.9643 149.823 22.7283C150.853 22.3163 151.745 21.6983 152.432 20.8057C153.119 19.9817 153.737 19.0204 154.286 18.1277C154.561 17.6471 154.492 17.6471 154.355 16.4798ZM91.251 7.69055C90.4957 8.58321 89.7404 9.47586 89.0537 10.3685C89.0537 10.3685 88.9851 10.4372 88.9164 10.4372C88.8477 10.4372 88.8477 10.3685 88.7791 10.2998C89.2597 9.13253 90.0151 8.23988 91.251 7.69055ZM88.7791 12.8405C89.1911 11.6045 90.4957 9.81919 92.1437 8.30854C91.8004 9.75052 90.9764 11.1238 90.0151 12.1538C89.7404 12.4285 89.3971 12.8405 88.7791 12.8405ZM107.525 22.179C107.387 22.179 107.25 22.179 107.113 22.179C104.023 22.179 101.139 21.2177 98.4609 19.7757C97.6369 19.295 96.9503 18.6771 96.401 17.8531C95.8516 16.9604 95.3023 16.0678 94.753 15.1751C94.6157 14.9691 94.4783 14.7631 94.8217 14.5571C99.0789 16.9604 103.405 19.4324 107.937 21.973C107.593 22.1103 107.525 22.1103 107.525 22.179ZM108.005 20.531C108.005 20.531 108.005 20.5997 107.937 20.6684C107.799 20.6684 107.662 20.6684 107.593 20.5997C104.366 18.7457 101.139 16.9604 97.9116 15.1064C97.8429 15.1064 97.8429 14.9691 97.7743 14.8318C98.6669 14.9004 99.4909 15.1751 100.315 15.3811C103.611 15.9304 106.014 17.8531 108.005 20.531ZM102.787 10.8492C102.856 10.6432 102.924 10.4372 102.993 10.2312C103.817 8.65187 105.053 7.48455 106.563 6.52324C108.005 5.63058 109.516 4.73793 110.958 3.84528C111.851 3.29595 112.743 2.81529 113.636 2.33463C113.705 2.4033 113.773 2.47196 113.773 2.60929C111.919 4.66926 109.859 6.66057 107.525 8.17121C106.151 9.06386 104.778 9.95652 103.405 10.7805C103.199 10.9178 103.062 10.9865 102.856 11.0552C102.787 10.9178 102.787 10.9178 102.787 10.8492ZM103.336 12.4285C103.474 12.2912 103.611 12.1538 103.68 12.0852C104.71 11.3985 105.808 10.6432 106.907 10.0252C109.31 8.65187 111.439 6.86656 113.361 4.87526C113.773 4.46327 114.185 3.98261 114.597 3.57061C114.735 3.43328 114.941 3.36462 115.215 3.15862C114.597 6.52324 112.881 8.92653 110.134 10.7118C107.662 12.2912 105.122 12.9778 103.336 12.4285ZM128.056 28.0842C124.897 27.4663 122.151 26.1616 119.747 23.9643C119.267 23.4837 118.855 22.9343 118.58 22.3163C118.168 21.2863 117.756 20.325 117.413 19.295C117.207 18.6771 117.001 18.1277 117.138 17.4411C117.275 17.4411 117.344 17.4411 117.413 17.4411C118.443 18.1964 119.335 19.089 120.022 20.119C121.739 22.7283 123.799 25.063 126.614 26.6423C127.163 26.9856 127.781 27.3289 128.33 27.9469C128.193 28.0842 128.124 28.0842 128.056 28.0842ZM124.554 20.2564C125.172 20.737 125.653 21.2863 125.996 22.0417C126.477 23.2777 127.163 24.3763 127.918 25.475C128.056 25.6123 128.124 25.8183 128.33 26.2989C126.545 25.3376 125.035 24.445 123.867 23.0717C122.975 22.0417 122.082 21.0117 121.327 19.913C120.571 18.8831 119.816 17.8531 118.855 17.0977C118.717 17.0291 118.511 16.8917 118.717 16.6858C119.747 16.8231 119.816 16.8231 120.709 17.4411C121.945 18.4024 123.249 19.3637 124.554 20.2564ZM122.837 13.3898C123.455 12.4971 124.211 11.7418 125.172 11.1238C126.408 10.2998 127.712 9.68186 129.086 9.26986C130.596 8.7892 132.107 8.30854 133.618 7.82788C133.755 7.75922 133.892 7.82788 134.167 7.75922C133 8.72054 126.065 12.4285 122.7 13.9391C122.769 13.6645 122.769 13.5271 122.837 13.3898ZM123.387 14.9691C123.455 14.8318 123.455 14.6944 123.524 14.6944C127.712 12.3598 132.107 10.3685 136.227 7.69055C135.266 9.88785 133.618 11.3985 131.558 12.4971C129.223 13.7331 126.751 14.4198 124.211 14.9691C124.005 15.0378 123.661 14.9691 123.387 14.9691ZM137.394 17.7157C139.592 16.8231 141.789 16.7544 144.055 17.3724C145.978 17.8531 147.832 18.1964 149.823 18.1277C149.96 18.1277 150.166 18.1277 150.166 18.4711C148.999 19.0204 147.694 19.295 146.39 19.4324C142.819 19.8444 139.248 19.4324 135.678 18.8144C135.54 18.8144 135.472 18.6771 135.266 18.5397C136.021 18.1277 136.776 17.9904 137.394 17.7157ZM149.342 21.6983C146.39 22.9343 143.3 23.209 140.141 22.5223C138.218 22.1103 136.433 21.355 134.716 20.4624C134.579 20.3937 134.442 20.1877 134.098 19.913C134.648 19.9817 134.991 20.0504 135.266 20.0504C138.15 20.5997 141.102 20.8057 144.055 20.737C146.664 20.6684 149.205 20.119 151.471 18.8831C151.745 18.7457 152.02 18.6084 152.295 18.4711C151.814 20.119 150.784 21.149 149.342 21.6983Z" fill="#EE942F"/>
</svg>
