<svg width="450" height="34" viewBox="0 0 450 34" fill="none" xmlns="http://www.w3.org/2000/svg">
<path d="M205.567 17.079C205.567 15.2702 206.269 13.4614 207.774 12.1694C209.579 10.6191 212.187 10.1023 215.196 10.7913C216.7 11.1359 218.205 11.7388 219.91 12.6001C218.907 11.222 218.205 9.84387 217.804 8.55188C217.001 5.9679 217.603 3.72846 219.409 2.17807C222.317 -0.319774 227.834 -0.319774 230.743 2.17807C232.548 3.72846 233.15 5.9679 232.347 8.55188C231.946 9.84387 231.244 11.1359 230.241 12.6001C231.846 11.7388 233.451 11.1359 234.955 10.7913C237.964 10.1023 240.572 10.6191 242.377 12.1694C245.286 14.6673 245.286 19.4046 242.377 21.9024C240.572 23.4528 237.964 23.9696 234.955 23.2805C233.451 22.936 231.946 22.3331 230.241 21.4718C231.244 22.8499 231.946 24.228 232.347 25.52C233.15 28.104 232.548 30.3434 230.743 31.8938C227.834 34.3916 222.317 34.3916 219.409 31.8938C217.603 30.3434 217.001 28.104 217.804 25.52C218.205 24.228 218.907 22.936 219.91 21.4718C218.305 22.3331 216.7 22.936 215.196 23.2805C212.187 23.9696 209.579 23.4528 207.774 21.9024C206.369 20.6966 205.567 18.8878 205.567 17.079ZM223.722 17.079C220.412 14.495 217.403 12.9446 214.795 12.3417C212.388 11.8249 210.382 12.1694 209.078 13.2892C206.871 15.1841 206.871 18.9739 209.078 20.8688C210.382 21.9886 212.388 22.3331 214.795 21.8163C217.403 21.2134 220.412 19.663 223.722 17.079ZM225.126 18.2849C222.117 21.1272 220.311 23.7112 219.609 25.9507C219.007 28.0178 219.409 29.7405 220.712 30.8602C222.919 32.7551 227.332 32.7551 229.539 30.8602C230.843 29.7405 231.244 28.0178 230.642 25.9507C229.94 23.7112 228.034 21.1272 225.126 18.2849ZM230.843 6.4847C230.843 5.19271 230.341 4.15912 229.439 3.38393C227.232 1.48901 222.819 1.48901 220.612 3.38393C219.308 4.50365 218.907 6.2263 219.509 8.29348C220.211 10.5329 222.016 13.1169 225.025 15.9593C228.034 13.1169 229.84 10.5329 230.542 8.29348C230.743 7.60442 230.843 7.00149 230.843 6.4847ZM242.779 17.079C242.779 15.7009 242.177 14.2366 241.074 13.2892C239.77 12.1694 237.764 11.8249 235.356 12.3417C232.749 12.9446 229.74 14.495 226.43 17.079C229.74 19.663 232.749 21.2134 235.356 21.8163C237.764 22.3331 239.77 21.9886 241.074 20.8688C242.177 19.9214 242.779 18.5433 242.779 17.079Z" fill="#1A465E"/>
<path d="M424.723 11.0488C431.343 11.0488 436.559 16.389 436.86 16.6474C437.161 16.9058 437.161 17.3365 436.86 17.5949C436.659 17.8533 431.444 23.1935 424.723 23.1935C418.003 23.1935 412.788 17.8533 412.587 17.5949C412.286 17.3365 412.286 16.9058 412.587 16.6474C412.788 16.389 418.104 11.0488 424.723 11.0488ZM434.854 17.0781C433.45 15.7861 429.337 12.5992 424.623 12.5992C419.909 12.5992 415.897 15.8723 414.493 17.0781C415.897 18.3701 420.009 21.557 424.723 21.557C429.438 21.557 433.45 18.3701 434.854 17.0781Z" fill="#1A465E"/>
<path d="M316.701 16.3018L420.011 16.3018C420.512 16.3018 420.914 16.6463 420.914 17.077C420.914 17.5076 420.512 17.8521 420.011 17.8521L316.701 17.8521C316.2 17.8521 315.798 17.5076 315.798 17.0769C315.798 16.6463 316.2 16.3018 316.701 16.3018Z" fill="#1A465E"/>
<path d="M442.377 16.3027L449.097 16.3027C449.599 16.3027 450 16.6473 450 17.0779C450 17.5086 449.599 17.8531 449.097 17.8531L442.377 17.8531C441.876 17.8531 441.474 17.5086 441.474 17.0779C441.474 16.6473 441.876 16.3027 442.377 16.3027Z" fill="#1A465E"/>
<path d="M292.629 11.0498L297.042 11.0498C297.443 11.0498 297.844 11.3082 297.945 11.7389C297.945 11.825 298.446 14.5812 296.841 16.39C296.54 16.6484 296.34 16.9068 295.939 17.0791C296.139 17.2513 296.34 17.3375 296.54 17.5097C298.446 19.2324 298.045 22.3332 298.045 22.5054C297.945 22.9361 297.644 23.1945 297.142 23.1945L292.729 23.1945C288.918 23.1945 285.909 20.6105 285.608 17.4236C285.407 17.5097 285.106 17.5959 284.906 17.7681C282.398 18.6295 261.134 18.2849 256.922 18.1988C256.42 18.1988 256.019 17.8543 256.019 17.4236C256.019 16.9929 256.42 16.6484 256.922 16.6484C266.551 16.8207 282.498 16.993 284.203 16.39C285.307 16.0455 286.009 15.1842 286.711 14.2367C287.814 12.7725 289.319 11.0498 292.629 11.0498ZM296.139 12.6002L292.629 12.6002C290.322 12.6002 289.319 13.806 288.216 15.098C287.814 15.5287 287.413 15.9594 287.012 16.39C287.213 16.5623 287.413 16.7346 287.413 16.993C287.413 19.5769 289.82 21.558 292.729 21.558L296.24 21.558C296.24 20.6105 296.039 19.2324 295.237 18.4572C294.735 18.0265 294.033 17.7681 293.13 17.7681C292.629 17.8543 292.228 17.4236 292.228 16.993C292.228 16.5623 292.629 16.2178 293.03 16.2178C294.133 16.1316 294.835 15.8732 295.437 15.2703C296.039 14.4951 296.139 13.2893 296.139 12.6002Z" fill="#1A465E"/>
<path d="M25.4261 23.1945C18.8062 23.1945 13.5906 17.8543 13.2897 17.5959C12.9888 17.3375 12.9888 16.9068 13.2897 16.6484C13.4903 16.39 18.7059 11.0498 25.4261 11.0498C32.1462 11.0498 37.2615 16.39 37.5624 16.6484C37.8633 16.9068 37.8633 17.3375 37.5624 17.5959C37.3618 17.8543 32.0459 23.1945 25.4261 23.1945ZM15.2957 17.0791C16.6999 18.3711 20.8122 21.558 25.5263 21.558C30.2405 21.558 34.2525 18.2849 35.757 17.0791C34.3528 15.7871 30.2405 12.6002 25.5263 12.6002C20.7119 12.6002 16.6999 15.8732 15.2957 17.0791Z" fill="#1A465E"/>
<path d="M133.45 17.8551L30.1404 17.8551C29.6388 17.8551 29.2376 17.5105 29.2376 17.0799C29.2376 16.6492 29.6388 16.3047 30.1404 16.3047L133.45 16.3047C133.952 16.3047 134.353 16.6492 134.353 17.0799C134.353 17.5105 133.952 17.8551 133.45 17.8551Z" fill="#1A465E"/>
<path d="M7.77364 17.8551L1.05348 17.8551C0.551975 17.8551 0.150778 17.5105 0.150778 17.0799C0.150778 16.6492 0.551975 16.3047 1.05348 16.3047L7.77364 16.3047C8.27515 16.3047 8.67635 16.6492 8.67635 17.0799C8.67635 17.5105 8.27515 17.8551 7.77364 17.8551Z" fill="#1A465E"/>
<path d="M157.623 23.1945L153.21 23.1945C152.809 23.1945 152.407 22.9361 152.307 22.5054C152.307 22.4193 151.806 19.6631 153.41 17.8543C153.711 17.5959 153.912 17.3375 154.313 17.1652C154.112 16.993 153.912 16.9068 153.711 16.7346C151.806 15.0119 152.207 11.9111 152.207 11.7389C152.307 11.3082 152.608 11.0498 153.109 11.0498L157.523 11.0498C161.334 11.0498 164.343 13.6338 164.644 16.8207C164.845 16.7346 165.146 16.6484 165.346 16.4762C167.854 15.6148 189.117 15.9594 193.33 16.0455C193.832 16.0455 194.233 16.39 194.233 16.8207C194.233 17.2513 193.832 17.5959 193.33 17.5959C183.701 17.4236 167.753 17.2513 166.048 17.8543C164.945 18.1988 164.243 19.0601 163.541 20.0076C162.337 21.4718 160.833 23.1945 157.623 23.1945ZM154.012 21.6441L157.523 21.6441C159.83 21.6441 160.833 20.4383 161.936 19.1463C162.337 18.7156 162.738 18.2849 163.14 17.8543C162.939 17.682 162.738 17.5097 162.738 17.2513C162.738 14.6674 160.331 12.6863 157.422 12.6863L153.912 12.6863C153.912 13.6338 154.112 15.0119 154.915 15.7871C155.416 16.2178 156.118 16.4762 157.021 16.4762C157.523 16.39 157.924 16.8207 157.924 17.2513C157.924 17.682 157.523 18.0265 157.121 18.0265C156.018 18.1127 155.316 18.3711 154.714 18.974C154.112 19.6631 154.012 20.8689 154.012 21.6441Z" fill="#1A465E"/>
</svg>
