<svg width="68" height="15" viewBox="0 0 68 15" fill="none" xmlns="http://www.w3.org/2000/svg">
<path d="M14.3416 12.4951C14.2316 12.4951 14.1583 12.4584 14.0483 12.3851C13.8649 12.2384 13.8282 11.945 13.9749 11.7617L16.6885 8.27811L13.2049 5.56457C13.0215 5.41789 12.9848 5.12454 13.1315 4.94119C13.2782 4.75784 13.5716 4.72117 13.7549 4.86785L17.6052 7.83807C17.7885 7.98475 17.8252 8.27811 17.6785 8.46145L14.7083 12.3117C14.5983 12.4217 14.4516 12.4951 14.3416 12.4951Z" fill="#AFAFAF"/>
<path d="M10.1248 13.0454C10.0148 13.0454 9.94147 13.0088 9.83146 12.9354C9.64811 12.7887 9.61144 12.4954 9.75812 12.312L12.4717 8.79178L8.98806 6.07824C8.80472 5.93156 8.76805 5.63821 8.91473 5.45486C9.0614 5.27151 9.35476 5.23484 9.53811 5.38152L13.3884 8.35174C13.5717 8.49842 13.6084 8.79178 13.4617 8.97512L10.4915 12.8254C10.4182 12.9721 10.2715 13.0454 10.1248 13.0454Z" fill="#AFAFAF"/>
<path d="M5.94469 13.5586C5.83468 13.5586 5.76134 13.5219 5.65133 13.4486C5.46799 13.3019 5.43132 13.0085 5.57799 12.8252L8.29153 9.34158L4.77127 6.62805C4.58792 6.48137 4.55125 6.18801 4.69793 6.00467C4.84461 5.82132 5.13796 5.78465 5.32131 5.93133L9.1716 8.90155C9.35494 9.04823 9.39161 9.34158 9.24493 9.52493L6.27471 13.3752C6.20137 13.5219 6.09137 13.5586 5.94469 13.5586Z" fill="#AFAFAF"/>
<path d="M0.444729 10.918C0.224712 10.918 0.0413651 10.7713 0.00469572 10.5513C-0.0319737 10.2946 0.151373 10.0746 0.37139 10.038L19.0728 7.03106C19.3295 6.99439 19.5495 7.17774 19.5862 7.39776C19.6228 7.65444 19.4395 7.87446 19.2195 7.91113L0.518067 10.918C0.518067 10.918 0.481398 10.918 0.444729 10.918Z" fill="#AFAFAF"/>
<path d="M53.7297 12.1084C53.583 12.1084 53.473 12.035 53.363 11.925L50.3928 8.07473C50.2094 7.89139 50.2461 7.59803 50.4661 7.45135L54.3164 4.48113C54.4998 4.33445 54.7931 4.37112 54.9398 4.55447C55.0865 4.73782 55.0498 5.03117 54.8665 5.17785L51.3829 7.89139L54.0964 11.375C54.2431 11.5583 54.2064 11.8517 54.0231 11.9984C53.913 12.0717 53.803 12.1084 53.7297 12.1084Z" fill="#AFAFAF"/>
<path d="M57.9108 12.6582C57.7641 12.6582 57.6541 12.5848 57.5441 12.4748L54.5739 8.62454C54.4272 8.44119 54.4639 8.14784 54.6472 8.00116L58.4975 5.03094C58.6809 4.88426 58.9742 4.92093 59.1209 5.10428C59.2676 5.28762 59.2309 5.58098 59.0476 5.72765L55.564 8.40452L58.2775 11.8881C58.4242 12.0715 58.3875 12.3648 58.2042 12.5115C58.0942 12.6215 58.0208 12.6582 57.9108 12.6582Z" fill="#AFAFAF"/>
<path d="M62.0905 13.1718C61.9438 13.1718 61.8338 13.0985 61.7238 12.9885L58.7536 9.13821C58.6069 8.95486 58.6436 8.66151 58.8269 8.51483L62.7139 5.54461C62.8972 5.39793 63.1906 5.4346 63.3373 5.61795C63.4839 5.80129 63.4473 6.09465 63.2639 6.24133L59.7803 8.95486L62.4939 12.4385C62.6405 12.6218 62.6039 12.9152 62.4205 13.0618C62.3105 13.1352 62.2005 13.1718 62.0905 13.1718Z" fill="#AFAFAF"/>
<path d="M67.591 10.5317C67.5543 10.5317 67.5543 10.5317 67.5177 10.5317L48.7796 7.48818C48.5596 7.45151 48.3762 7.23149 48.4129 6.97481C48.4496 6.71812 48.6696 6.57145 48.9263 6.60812L67.6277 9.61501C67.8844 9.65168 68.031 9.87169 67.9944 10.1284C67.9944 10.3851 67.811 10.5317 67.591 10.5317Z" fill="#AFAFAF"/>
<path d="M32.0486 14.2552C31.2785 14.2552 30.5085 13.9985 29.9584 13.4485C29.2984 12.7885 29.0784 11.835 29.3717 10.735C29.5184 10.1849 29.7751 9.63489 30.1418 9.01151C29.5551 9.3782 28.9684 9.63489 28.4183 9.78156C27.3182 10.0749 26.3648 9.8549 25.7048 9.19485C24.6414 8.13144 24.6414 6.11462 25.7048 5.05121C26.4015 4.39116 27.3549 4.17114 28.455 4.4645C29.005 4.61118 29.5551 4.86786 30.1785 5.23456C29.8118 4.64785 29.5551 4.06114 29.4084 3.5111C29.115 2.41101 29.3351 1.45761 29.9951 0.79756C31.0585 -0.265853 33.0753 -0.265853 34.1387 0.79756C34.7988 1.45761 35.0188 2.41101 34.7255 3.5111C34.5788 4.06114 34.3221 4.61118 33.9554 5.23456C34.5421 4.86786 35.1288 4.61118 35.6789 4.4645C36.7789 4.17114 37.7324 4.39116 38.3924 5.05121C39.4558 6.11462 39.4558 8.13144 38.3924 9.19485C37.7324 9.8549 36.7789 10.0749 35.6789 9.78156C35.1288 9.63489 34.5788 9.3782 33.9554 9.01151C34.3221 9.59822 34.5788 10.1849 34.7255 10.735C35.0188 11.835 34.7988 12.7885 34.1387 13.4485C33.5887 13.9619 32.8187 14.2552 32.0486 14.2552ZM32.0486 7.61807C30.9485 8.82816 30.2885 9.92824 30.0318 10.8816C29.8118 11.7617 29.9584 12.4951 30.4351 12.9718C31.2419 13.7785 32.8553 13.7785 33.662 12.9718C34.1387 12.4951 34.2854 11.7617 34.0654 10.8816C33.8087 9.92824 33.1487 8.82816 32.0486 7.61807ZM32.562 7.1047C33.7721 8.20478 34.8721 8.86483 35.8255 9.12151C36.7056 9.34153 37.439 9.19485 37.9157 8.71815C38.7224 7.91142 38.7224 6.29797 37.9157 5.49124C37.439 5.01454 36.7056 4.86786 35.8255 5.08788C34.8721 5.34457 33.7721 6.04128 32.562 7.1047ZM27.5383 4.97787C26.9882 4.97787 26.5482 5.16122 26.2182 5.49124C25.4114 6.29797 25.4114 7.91142 26.2182 8.71815C26.6949 9.19485 27.4282 9.34153 28.3083 9.12151C29.2617 8.86483 30.3618 8.20478 31.5719 7.1047C30.3618 6.00461 29.2617 5.34457 28.3083 5.08788C28.015 5.01454 27.7583 4.97787 27.5383 4.97787ZM32.0486 0.650882C31.4619 0.650882 30.8385 0.870898 30.4351 1.27426C29.9584 1.75096 29.8118 2.48435 30.0318 3.36442C30.2885 4.31782 30.9485 5.4179 32.0486 6.628C33.1487 5.4179 33.8087 4.31782 34.0654 3.36442C34.2854 2.48435 34.1387 1.75096 33.662 1.27426C33.2587 0.834229 32.672 0.650882 32.0486 0.650882Z" fill="#AFAFAF"/>
</svg>
