<svg width="68" height="15" viewBox="0 0 68 15" fill="none" xmlns="http://www.w3.org/2000/svg">
<path d="M14.3422 12.4951C14.2322 12.4951 14.1589 12.4584 14.0489 12.3851C13.8655 12.2384 13.8289 11.945 13.9755 11.7617L16.6891 8.27811L13.2055 5.56457C13.0221 5.41789 12.9855 5.12454 13.1321 4.94119C13.2788 4.75784 13.5722 4.72117 13.7555 4.86785L17.6058 7.83807C17.7891 7.98475 17.8258 8.27811 17.6791 8.46145L14.7089 12.3117C14.5989 12.4217 14.4522 12.4951 14.3422 12.4951Z" fill="#AFAFAF"/>
<path d="M10.1252 13.0454C10.0152 13.0454 9.9419 13.0088 9.83189 12.9354C9.64854 12.7887 9.61187 12.4954 9.75855 12.312L12.4721 8.79178L8.98849 6.07824C8.80514 5.93156 8.76847 5.63821 8.91515 5.45486C9.06183 5.27151 9.35519 5.23484 9.53853 5.38152L13.3888 8.35174C13.5722 8.49842 13.6088 8.79178 13.4622 8.97512L10.4919 12.8254C10.4186 12.9721 10.2719 13.0454 10.1252 13.0454Z" fill="#AFAFAF"/>
<path d="M5.94493 13.5586C5.83492 13.5586 5.76159 13.5219 5.65158 13.4486C5.46823 13.3019 5.43156 13.0085 5.57824 12.8252L8.29177 9.34158L4.77151 6.62805C4.58816 6.48137 4.5515 6.18801 4.69817 6.00467C4.84485 5.82132 5.13821 5.78465 5.32155 5.93133L9.17184 8.90155C9.35519 9.04823 9.39186 9.34158 9.24518 9.52493L6.27496 13.3752C6.20162 13.5219 6.09161 13.5586 5.94493 13.5586Z" fill="#AFAFAF"/>
<path d="M0.444729 10.918C0.224712 10.918 0.0413651 10.7713 0.00469572 10.5513C-0.0319737 10.2946 0.151373 10.0746 0.37139 10.038L19.0728 7.03106C19.3295 6.99439 19.5495 7.17774 19.5862 7.39776C19.6228 7.65444 19.4395 7.87446 19.2195 7.91113L0.518067 10.918C0.518067 10.918 0.481398 10.918 0.444729 10.918Z" fill="#AFAFAF"/>
<path d="M53.7301 12.1084C53.5834 12.1084 53.4734 12.035 53.3634 11.925L50.3931 8.07473C50.2098 7.89139 50.2465 7.59803 50.4665 7.45135L54.3168 4.48113C54.5001 4.33445 54.7935 4.37112 54.9402 4.55447C55.0868 4.73782 55.0502 5.03117 54.8668 5.17785L51.3832 7.89139L54.0968 11.375C54.2434 11.5583 54.2068 11.8517 54.0234 11.9984C53.9134 12.0717 53.8034 12.1084 53.7301 12.1084Z" fill="#AFAFAF"/>
<path d="M57.9109 12.6582C57.7642 12.6582 57.6542 12.5848 57.5442 12.4748L54.5739 8.62454C54.4273 8.44119 54.4639 8.14784 54.6473 8.00116L58.4976 5.03094C58.6809 4.88426 58.9743 4.92093 59.1209 5.10428C59.2676 5.28762 59.2309 5.58098 59.0476 5.72765L55.564 8.40452L58.2775 11.8881C58.4242 12.0715 58.3876 12.3648 58.2042 12.5115C58.0942 12.6215 58.0209 12.6582 57.9109 12.6582Z" fill="#AFAFAF"/>
<path d="M62.091 13.1718C61.9443 13.1718 61.8343 13.0985 61.7243 12.9885L58.7541 9.13821C58.6074 8.95486 58.644 8.66151 58.8274 8.51483L62.7143 5.54461C62.8977 5.39793 63.191 5.4346 63.3377 5.61795C63.4844 5.80129 63.4477 6.09465 63.2644 6.24133L59.7808 8.95486L62.4943 12.4385C62.641 12.6218 62.6043 12.9152 62.421 13.0618C62.311 13.1352 62.201 13.1718 62.091 13.1718Z" fill="#AFAFAF"/>
<path d="M67.5911 10.5317C67.5544 10.5317 67.5544 10.5317 67.5177 10.5317L48.7797 7.48818C48.5596 7.45151 48.3763 7.23149 48.413 6.97481C48.4496 6.71812 48.6696 6.57145 48.9263 6.60812L67.6277 9.61501C67.8844 9.65168 68.0311 9.87169 67.9944 10.1284C67.9944 10.3851 67.8111 10.5317 67.5911 10.5317Z" fill="#AFAFAF"/>
<path d="M32.049 14.2552C31.2789 14.2552 30.5089 13.9985 29.9588 13.4485C29.2988 12.7885 29.0788 11.835 29.3721 10.735C29.5188 10.1849 29.7755 9.63489 30.1422 9.01151C29.5555 9.3782 28.9688 9.63489 28.4187 9.78156C27.3186 10.0749 26.3652 9.8549 25.7052 9.19485C24.6418 8.13144 24.6418 6.11462 25.7052 5.05121C26.4019 4.39116 27.3553 4.17114 28.4554 4.4645C29.0054 4.61118 29.5555 4.86786 30.1789 5.23456C29.8122 4.64785 29.5555 4.06114 29.4088 3.5111C29.1154 2.41101 29.3355 1.45761 29.9955 0.79756C31.0589 -0.265853 33.0757 -0.265853 34.1391 0.79756C34.7992 1.45761 35.0192 2.41101 34.7259 3.5111C34.5792 4.06114 34.3225 4.61118 33.9558 5.23456C34.5425 4.86786 35.1292 4.61118 35.6793 4.4645C36.7793 4.17114 37.7327 4.39116 38.3928 5.05121C39.4562 6.11462 39.4562 8.13144 38.3928 9.19485C37.7327 9.8549 36.7793 10.0749 35.6793 9.78156C35.1292 9.63489 34.5792 9.3782 33.9558 9.01151C34.3225 9.59822 34.5792 10.1849 34.7259 10.735C35.0192 11.835 34.7992 12.7885 34.1391 13.4485C33.5891 13.9619 32.819 14.2552 32.049 14.2552ZM32.049 7.61807C30.9489 8.82816 30.2889 9.92824 30.0322 10.8816C29.8122 11.7617 29.9588 12.4951 30.4355 12.9718C31.2423 13.7785 32.8557 13.7785 33.6624 12.9718C34.1391 12.4951 34.2858 11.7617 34.0658 10.8816C33.8091 9.92824 33.1491 8.82816 32.049 7.61807ZM32.5624 7.1047C33.7725 8.20478 34.8725 8.86483 35.8259 9.12151C36.706 9.34153 37.4394 9.19485 37.9161 8.71815C38.7228 7.91142 38.7228 6.29797 37.9161 5.49124C37.4394 5.01454 36.706 4.86786 35.8259 5.08788C34.8725 5.34457 33.7725 6.04128 32.5624 7.1047ZM27.5387 4.97787C26.9886 4.97787 26.5486 5.16122 26.2186 5.49124C25.4118 6.29797 25.4118 7.91142 26.2186 8.71815C26.6953 9.19485 27.4286 9.34153 28.3087 9.12151C29.2621 8.86483 30.3622 8.20478 31.5723 7.1047C30.3622 6.00461 29.2621 5.34457 28.3087 5.08788C28.0154 5.01454 27.7587 4.97787 27.5387 4.97787ZM32.049 0.650882C31.4623 0.650882 30.8389 0.870898 30.4355 1.27426C29.9588 1.75096 29.8122 2.48435 30.0322 3.36442C30.2889 4.31782 30.9489 5.4179 32.049 6.628C33.1491 5.4179 33.8091 4.31782 34.0658 3.36442C34.2858 2.48435 34.1391 1.75096 33.6624 1.27426C33.2591 0.834229 32.6724 0.650882 32.049 0.650882Z" fill="#AFAFAF"/>
</svg>
