<svg width="59" height="59" viewBox="0 0 59 59" fill="none" xmlns="http://www.w3.org/2000/svg">
<path fill-rule="evenodd" clip-rule="evenodd" d="M33.9398 47.8602L29.3916 42.7607L24.1543 47.3089L30.632 18.7793L33.9398 47.8602Z" fill="#7F7F7F"/>
<path d="M1 28.0137L6.78862 28.2893" stroke="#7F7F7F" stroke-width="0.28" stroke-linecap="round" stroke-linejoin="round"/>
<path d="M28.5649 58.4727L28.8406 52.6841" stroke="#7F7F7F" stroke-width="0.28" stroke-linecap="round" stroke-linejoin="round"/>
<path d="M53.2354 30.7705L58.4727 31.0462" stroke="#7F7F7F" stroke-width="0.28" stroke-linecap="round" stroke-linejoin="round"/>
<path d="M31.1831 6.37515L31.4588 1" stroke="#7F7F7F" stroke-width="0.28" stroke-linecap="round" stroke-linejoin="round"/>
<path d="M30.632 18.7793L24.1543 47.3089" stroke="#7F7F7F" stroke-width="0.28" stroke-linecap="round" stroke-linejoin="round"/>
<path d="M24.1543 47.3089L29.3916 42.7607" stroke="#7F7F7F" stroke-width="0.28" stroke-linecap="round" stroke-linejoin="round"/>
<path d="M30.6323 18.7793L33.9401 47.8602" stroke="#7F7F7F" stroke-width="0.28" stroke-linecap="round" stroke-linejoin="round"/>
<path d="M33.9398 47.8602L29.3916 42.7607" stroke="#7F7F7F" stroke-width="0.28" stroke-linecap="round" stroke-linejoin="round"/>
<path d="M56.2678 29.5299C56.2678 15.0583 44.5527 3.34326 30.0811 3.34326C15.6096 3.34326 3.89453 15.0583 3.89453 29.5299C3.89453 44.0014 15.6096 55.7165 30.0811 55.7165C44.5527 55.7165 56.2678 44.0014 56.2678 29.5299Z" stroke="#7F7F7F" stroke-width="0.28" stroke-linecap="round" stroke-linejoin="round"/>
<path d="M29.6671 11.337C29.5293 11.0613 29.2537 10.7857 28.978 10.3722L28.8402 14.0935C28.8402 14.5069 28.8402 14.7826 28.7024 15.1961C28.978 15.1961 29.2537 15.1961 29.6671 15.1961V16.1608L26.9106 16.023V15.1961C27.0485 15.1961 27.1863 15.1961 27.4619 15.1961C27.5998 15.1961 27.7376 15.0582 27.7376 14.9204C27.8754 14.6448 27.8754 14.5069 27.8754 14.2313L28.1511 9.54526C28.1511 9.13179 28.1511 8.85614 28.2889 8.44267H27.3241V7.61572L29.1158 7.75355L32.5614 12.5774C32.8371 12.9909 33.1127 13.4043 33.3884 13.8178L33.5262 9.95874C33.5262 9.54526 33.5262 9.26961 33.664 8.85614H32.8371V7.89137L35.5936 8.0292V8.85614C35.4558 8.85614 35.3179 8.85614 35.0423 8.85614C34.9045 8.85614 34.7666 8.99397 34.7666 9.13179C34.6288 9.40744 34.6288 9.54526 34.6288 9.82091L34.2153 16.5743H33.2506L29.6671 11.337Z" fill="#7F7F7F"/>
</svg>
