<svg width="75" height="16" viewBox="0 0 75 16" fill="none" xmlns="http://www.w3.org/2000/svg">
<path d="M15.8193 11.3448C15.698 11.3448 15.6171 11.3043 15.4958 11.2234C15.2935 11.0616 15.2531 10.7381 15.4149 10.5358L18.4079 6.6934L14.5655 3.70035C14.3633 3.53856 14.3228 3.21499 14.4846 3.01275C14.6464 2.81052 14.97 2.77007 15.1722 2.93186L19.4191 6.20804C19.6213 6.36983 19.6618 6.6934 19.5 6.89564L16.2238 11.1425C16.1025 11.2639 15.9407 11.3448 15.8193 11.3448Z" fill="#EE942F"/>
<path d="M11.167 11.9521C11.0457 11.9521 10.9648 11.9117 10.8434 11.8308C10.6412 11.669 10.6007 11.3454 10.7625 11.1432L13.7556 7.2603L9.91315 4.26724C9.71091 4.10546 9.67046 3.78188 9.83225 3.57965C9.99404 3.37742 10.3176 3.33697 10.5198 3.49876L14.7667 6.77494C14.969 6.93672 15.0094 7.2603 14.8476 7.46253L11.5715 11.7094C11.4906 11.8712 11.3288 11.9521 11.167 11.9521Z" fill="#EE942F"/>
<path d="M6.55705 12.5181C6.43571 12.5181 6.35481 12.4777 6.23347 12.3968C6.03124 12.235 5.99079 11.9114 6.15258 11.7092L9.14564 7.86674L5.26275 4.87369C5.06052 4.7119 5.02007 4.38833 5.18186 4.18609C5.34365 3.98386 5.66722 3.94341 5.86945 4.1052L10.1164 7.38138C10.3186 7.54317 10.359 7.86674 10.1973 8.06898L6.92107 12.3159C6.84018 12.4777 6.71884 12.5181 6.55705 12.5181Z" fill="#EE942F"/>
<path d="M0.49054 9.60503C0.24786 9.60503 0.0456261 9.44324 0.00517943 9.20056C-0.0352673 8.91743 0.166966 8.67475 0.409646 8.63431L21.0375 5.31768C21.3206 5.27723 21.5633 5.47947 21.6037 5.72215C21.6442 6.00527 21.4419 6.24795 21.1992 6.2884L0.571433 9.60503C0.571433 9.60503 0.530986 9.60503 0.49054 9.60503Z" fill="#EE942F"/>
<path d="M59.2594 11.3443C59.0976 11.3443 58.9762 11.2634 58.8549 11.1421L55.5787 6.89515C55.3765 6.69292 55.4169 6.36934 55.6596 6.20755L59.9065 2.93137C60.1087 2.76959 60.4323 2.81003 60.5941 3.01227C60.7559 3.2145 60.7154 3.53807 60.5132 3.69986L56.6708 6.69292L59.6638 10.5354C59.8256 10.7376 59.7852 11.0612 59.5829 11.2229C59.4616 11.3038 59.3402 11.3443 59.2594 11.3443Z" fill="#EE942F"/>
<path d="M63.8703 11.9517C63.7085 11.9517 63.5872 11.8708 63.4659 11.7495L60.1897 7.50257C60.0279 7.30034 60.0683 6.97676 60.2706 6.81498L64.5175 3.53879C64.7197 3.37701 65.0433 3.41745 65.2051 3.61969C65.3669 3.82192 65.3264 4.14549 65.1242 4.30728L61.2817 7.25989L64.2748 11.1023C64.4366 11.3046 64.3961 11.6281 64.1939 11.7899C64.0726 11.9113 63.9917 11.9517 63.8703 11.9517Z" fill="#EE942F"/>
<path d="M68.4816 12.5176C68.3199 12.5176 68.1985 12.4367 68.0772 12.3154L64.801 8.06849C64.6392 7.86625 64.6797 7.54268 64.8819 7.38089L69.1692 4.10471C69.3715 3.94293 69.6951 3.98337 69.8568 4.18561C70.0186 4.38784 69.9782 4.71141 69.7759 4.8732L65.9335 7.86625L68.9266 11.7087C69.0884 11.9109 69.0479 12.2345 68.8457 12.3963C68.7243 12.4772 68.603 12.5176 68.4816 12.5176Z" fill="#EE942F"/>
<path d="M74.5494 9.60445C74.509 9.60445 74.509 9.60445 74.4685 9.60445L53.8003 6.24738C53.5576 6.20693 53.3554 5.96425 53.3958 5.68113C53.4363 5.398 53.6789 5.23621 53.9621 5.27666L74.5899 8.59329C74.873 8.63373 75.0348 8.87641 74.9943 9.15954C74.9943 9.44267 74.7921 9.60445 74.5494 9.60445Z" fill="#EE942F"/>
<path d="M37.4024 15.7236C36.553 15.7236 35.7036 15.4405 35.0969 14.8338C34.3689 14.1058 34.1262 13.0542 34.4498 11.8408C34.6116 11.2341 34.8947 10.6274 35.2992 9.93977C34.652 10.3442 34.0049 10.6274 33.3982 10.7892C32.1848 11.1127 31.1331 10.87 30.4051 10.142C29.2322 8.96905 29.2322 6.74449 30.4051 5.57153C31.1736 4.84349 32.2252 4.60081 33.4386 4.92438C34.0453 5.08617 34.652 5.3693 35.3396 5.77376C34.9351 5.12662 34.652 4.47947 34.4902 3.87277C34.1666 2.65937 34.4093 1.60776 35.1374 0.879716C36.3103 -0.293238 38.5349 -0.293238 39.7078 0.879716C40.4359 1.60776 40.6786 2.65937 40.355 3.87277C40.1932 4.47947 39.9101 5.08617 39.5056 5.77376C40.1528 5.3693 40.7999 5.08617 41.4066 4.92438C42.62 4.60081 43.6716 4.84349 44.3997 5.57153C45.5726 6.74449 45.5726 8.96905 44.3997 10.142C43.6716 10.87 42.62 11.1127 41.4066 10.7892C40.7999 10.6274 40.1932 10.3442 39.5056 9.93977C39.9101 10.5869 40.1932 11.2341 40.355 11.8408C40.6786 13.0542 40.4359 14.1058 39.7078 14.8338C39.1011 15.4001 38.2518 15.7236 37.4024 15.7236ZM37.4024 8.4028C36.189 9.73754 35.4609 10.9509 35.1778 12.0026C34.9351 12.9733 35.0969 13.7822 35.6227 14.308C36.5126 15.1978 38.2922 15.1978 39.182 14.308C39.7078 13.7822 39.8696 12.9733 39.627 12.0026C39.3438 10.9509 38.6158 9.73754 37.4024 8.4028ZM37.9686 7.83655C39.3034 9.04995 40.5168 9.77799 41.5684 10.0611C42.5391 10.3038 43.348 10.142 43.8739 9.6162C44.7637 8.72637 44.7637 6.94672 43.8739 6.05689C43.348 5.53108 42.5391 5.3693 41.5684 5.61198C40.5168 5.8951 39.3034 6.66359 37.9686 7.83655ZM32.4274 5.49064C31.8207 5.49064 31.3354 5.69287 30.9714 6.05689C30.0815 6.94672 30.0815 8.72637 30.9714 9.6162C31.4972 10.142 32.3061 10.3038 33.2768 10.0611C34.3284 9.77799 35.5418 9.04995 36.8766 7.83655C35.5418 6.62315 34.3284 5.8951 33.2768 5.61198C32.9532 5.53108 32.6701 5.49064 32.4274 5.49064ZM37.4024 0.717929C36.7552 0.717929 36.0676 0.960609 35.6227 1.40552C35.0969 1.93133 34.9351 2.74026 35.1778 3.71098C35.4609 4.7626 36.189 5.976 37.4024 7.31074C38.6158 5.976 39.3438 4.7626 39.627 3.71098C39.8696 2.74026 39.7078 1.93133 39.182 1.40552C38.7371 0.920162 38.09 0.717929 37.4024 0.717929Z" fill="#EE942F"/>
</svg>
