<svg width="163" height="31" viewBox="0 0 163 31" fill="none" xmlns="http://www.w3.org/2000/svg">
<path fill-rule="evenodd" clip-rule="evenodd" d="M72.8401 15.9834C72.1956 15.5323 71.4222 15.21 70.7777 14.8233C70.4555 14.63 70.1332 14.5011 69.811 14.3077C69.7465 13.7921 69.6821 13.341 69.6176 12.8898C69.1665 10.4408 68.0064 8.37842 65.7507 7.21833C64.2684 6.50939 62.786 5.8649 61.2393 5.15596C61.1104 5.09151 60.917 5.15596 60.8526 5.22041C60.7881 5.34931 60.7237 5.6071 60.7881 5.736C61.6904 7.54058 62.5282 9.34515 63.4305 11.1497C63.6883 11.6653 64.075 12.1809 64.3973 12.6965C64.5262 12.8899 64.7195 13.0832 64.5262 13.341C64.3973 13.341 64.2684 13.4054 64.1395 13.4054C61.5615 13.0832 59.048 13.0832 56.47 13.2121C56.0833 13.2121 55.6322 13.2121 55.3099 13.2121C55.181 13.0187 55.1166 12.9543 55.1166 12.8898C54.2143 9.86074 52.2808 7.73392 49.574 6.1227C46.8671 4.51147 44.0958 2.90024 41.26 1.48237C40.9378 1.28902 40.6156 1.16012 40.2289 1.03122C39.9066 0.902323 39.5844 0.773425 39.1977 0.580078C39.1332 0.966773 39.0043 1.28902 39.0043 1.61126C39.0043 4.70482 39.7133 7.54058 41.7756 9.92519C42.9357 11.3431 44.418 12.4387 46.0293 13.341C46.3515 13.5343 46.6738 13.7277 46.996 13.921C46.8671 14.0499 46.8027 14.1144 46.7382 14.1788C43.1291 14.7589 39.5844 15.4678 35.9752 16.1123C35.7819 16.1768 35.5241 16.1768 35.2663 16.1768C35.0085 15.7901 34.6862 15.4034 34.4929 15.0167C33.075 12.3098 30.8837 10.5052 28.048 9.47405C25.6634 8.63621 23.2788 7.86282 20.8941 7.08943C19.7985 6.70274 18.6384 6.44494 17.6717 5.80045C17.4783 5.67155 17.2205 5.736 17.0272 5.67155C16.6405 6.31605 16.8983 6.83164 17.0272 7.34723C17.9939 10.6341 19.9919 13.1476 23.0854 14.6944C25.0833 15.7256 27.2101 16.4345 29.4014 16.8857C29.6592 16.9501 29.9815 16.8212 29.9815 17.3368C27.7902 17.9169 25.5989 18.4969 23.3432 19.0125C22.7632 19.1414 22.1831 19.077 21.6031 18.8192C20.3785 18.3036 19.0896 17.8524 17.8006 17.3368C16.5116 16.8212 15.2226 16.6279 13.8047 16.6279C12.4513 16.6279 11.0979 16.8212 9.8089 17.1435C7.42428 17.788 4.97522 18.1102 2.46171 17.6591C1.94611 17.5946 1.43052 17.4013 0.979378 17.4013C0.657133 17.3368 0.399336 17.4657 0.0770909 17.4657C-0.0518072 18.6903 -0.0518072 18.6903 0.334887 19.3348C0.914929 20.3015 1.55942 21.2038 2.20391 22.1061C2.91285 23.0084 3.81514 23.6528 4.91077 24.0395C8.19767 25.3285 11.6135 25.6508 15.0937 24.8774C16.1894 24.6196 17.2205 24.2329 18.2517 23.7173C20.2496 22.7506 22.1831 21.7838 24.1166 20.6882C25.0189 20.1726 25.9856 19.7859 26.9524 19.5926C27.4679 19.4637 28.048 19.2703 28.5636 19.1414C29.9815 18.8192 31.3349 18.4325 32.9461 18.2391C32.7528 18.4969 32.6239 18.6258 32.495 18.7547C31.8505 19.2059 31.1415 19.5926 30.497 20.0437C29.5303 20.6237 28.7569 21.3327 28.3058 22.3639C27.2101 24.8129 25.5989 26.9397 23.7299 28.8732C23.4721 29.131 23.2788 29.3244 23.0854 29.5822C22.8921 29.84 22.6987 30.0977 22.8921 30.4844C23.021 30.8067 23.3432 30.9356 23.6654 30.9356C23.9877 30.9356 24.3099 30.9356 24.6322 30.9356C29.0147 30.6133 32.9461 29.2599 36.2975 26.3597C37.1353 25.6508 37.7798 24.8129 38.1665 23.7817C38.4243 23.0728 38.6821 22.3639 39.0043 21.7194C39.391 20.8171 39.6488 19.8503 39.7777 18.8836C39.8422 18.2391 39.8422 17.5946 40.1644 16.9501C40.2933 16.8857 40.4222 16.8212 40.5511 16.8212C42.8713 16.4345 45.2559 15.9834 47.5761 15.6612C49.9607 15.3389 52.4097 15.21 54.7943 15.0167C54.7943 15.0167 54.7943 15.0167 54.8588 15.0167C55.0521 15.0167 55.3099 15.0167 55.5033 15.0167V15.0811C55.3099 15.0811 55.0521 15.0167 54.8588 15.0167C54.8588 15.4034 54.5365 15.4034 54.2788 15.4678C52.023 16.0479 50.0896 17.2724 48.4783 18.9481C47.3183 20.1726 46.0937 21.3971 44.8692 22.6861C44.6758 22.9439 44.418 23.2017 44.2891 23.4595C44.0958 23.7173 44.2892 24.1684 44.5469 24.2973C44.7403 24.3618 44.9336 24.4262 45.0625 24.4262C49.574 25.0707 53.8921 24.2973 57.9524 22.1705C59.2413 21.526 60.337 20.4948 61.1104 19.2703C61.9482 17.9813 62.8505 16.6923 63.0438 15.21C63.5594 14.8233 64.0106 14.8233 64.4617 14.8878C65.8151 15.0811 67.1686 15.2745 68.4576 15.5323C69.1665 15.6612 69.8754 16.0479 70.5199 16.3056C71.4222 16.7568 72.1311 17.4013 72.7756 18.1747C73.1623 18.6258 72.9045 19.2703 72.3245 19.3348C71.68 19.3992 70.9711 19.5926 70.3266 18.9481C69.9399 18.5614 69.4887 18.6903 69.0376 18.9481C68.6509 19.2059 68.7153 19.5926 68.7153 19.9792C68.7153 21.3971 70.9711 22.6861 72.3245 21.9127C73.3557 21.3327 73.9357 20.3659 74.3869 19.3348C74.7091 18.4325 74.5802 17.6591 74.0002 16.9501C73.6779 16.6279 73.2912 16.3056 72.8401 15.9834ZM4.71742 19.2059C6.71534 19.2059 8.71327 18.9481 10.6467 18.4325C12.9669 17.788 15.2871 17.8524 17.4783 18.7547C18.1228 19.0125 18.8962 19.1414 19.6052 19.5926C19.4118 19.7215 19.2829 19.8503 19.2185 19.8503C15.6093 20.4948 11.9357 20.946 8.19767 20.4948C6.84424 20.3659 5.55526 20.0437 4.33073 19.5281C4.39518 19.2059 4.58853 19.2059 4.71742 19.2059ZM20.3141 21.5905C18.5095 22.4928 16.6405 23.2661 14.707 23.7173C11.4846 24.4262 8.32657 24.104 5.23302 22.8795C3.75069 22.2994 2.7195 21.2038 2.20391 19.657C2.46171 19.7859 2.78395 19.9148 3.04175 20.0437C5.42636 21.3327 8.00433 21.9127 10.7112 21.9772C13.7403 22.0416 16.7694 21.7838 19.7341 21.2682C20.0563 21.2038 20.3785 21.2038 20.9586 21.0749C20.6363 21.3971 20.5074 21.526 20.3141 21.5905ZM31.0771 15.9834C28.4347 15.4678 25.9212 14.6944 23.5366 13.4699C21.4097 12.3743 19.7985 10.763 18.7673 8.50731C23.021 11.2142 27.5324 13.2765 31.8505 15.7256C31.9149 15.7901 31.9149 15.8545 31.9794 16.0479C31.6571 15.9834 31.3349 16.0479 31.0771 15.9834ZM20.8941 8.57176C21.1519 8.57176 21.3453 8.57176 21.4742 8.63621C23.021 9.1518 24.5677 9.60295 26.1145 10.1185C27.5324 10.5697 28.8858 11.2142 30.1104 12.052C31.0771 12.6965 31.8505 13.4699 32.495 14.3722C32.5594 14.5011 32.5594 14.63 32.6883 14.9522C29.2081 13.4054 22.1187 9.5385 20.8941 8.57176ZM27.339 26.7464C28.1124 25.6508 28.7569 24.4907 29.2725 23.2017C29.5948 22.4283 30.1104 21.8483 30.7548 21.3971C32.1083 20.4304 33.4617 19.3992 34.8151 18.4969C35.7174 17.8524 35.7819 17.8524 36.8131 17.7235C37.0064 17.9169 36.8131 18.0458 36.6842 18.1747C35.653 19.0125 34.8796 20.0437 34.1062 21.0749C33.3328 22.235 32.4305 23.2661 31.4638 24.3618C30.2393 25.7152 28.6925 26.6175 26.8235 27.6487C27.1457 27.1331 27.2101 26.9397 27.339 26.7464ZM38.102 20.3659C37.7153 21.3971 37.3287 22.4283 36.8775 23.4595C36.6197 24.104 36.233 24.684 35.653 25.1352C33.2039 27.3264 30.3682 28.7443 27.1457 29.3244C27.0812 29.3244 27.0812 29.3244 26.8235 29.2599C27.339 28.6799 27.9835 28.2932 28.5636 27.9065C31.4638 26.2953 33.5906 23.9106 35.3952 21.2038C36.1041 20.1081 37.0709 19.2059 38.102 18.4325C38.1665 18.368 38.2954 18.4325 38.4243 18.368C38.5532 19.2059 38.2954 19.7859 38.102 20.3659ZM45.5781 11.5364C42.8068 9.73185 41.0022 7.21833 40.3578 3.67363C40.68 3.86698 40.8733 3.99588 41.0022 4.12478C41.4534 4.57592 41.8401 5.02706 42.2268 5.47821C44.2247 7.54058 46.3515 9.34515 48.865 10.763C50.0251 11.4075 51.0563 12.1809 52.1519 12.8898C52.2808 12.9543 52.4097 13.1476 52.5386 13.2765C50.7341 13.8566 48.1561 13.2121 45.5781 11.5364ZM53.0542 11.9231C52.8609 11.8587 52.6675 11.7942 52.4742 11.6653C51.0563 10.763 49.6384 9.86074 48.2205 8.95846C45.7715 7.41168 43.7091 5.34931 41.7756 3.22249C41.8401 3.09359 41.9045 3.02914 41.9045 2.96469C42.8068 3.48029 43.7736 3.99588 44.6758 4.57592C46.2226 5.47821 47.705 6.38049 49.2517 7.34723C50.7341 8.31397 52.023 9.5385 52.9253 11.1497C53.0542 11.3431 53.1187 11.6009 53.1831 11.7942C53.1831 11.7298 53.1187 11.7942 53.0542 11.9231ZM47.8338 21.6549C49.8318 18.9481 52.2808 16.8857 55.6966 16.3056C56.5345 16.1768 57.3723 15.8545 58.339 15.7901C58.2746 15.919 58.2746 16.0479 58.2102 16.1123C54.9232 17.9813 51.5719 19.9148 48.2205 21.7838C48.0916 21.8483 47.9627 21.8483 47.8338 21.8483C47.8338 21.7194 47.7694 21.6549 47.8338 21.6549ZM61.4326 16.1768C60.8526 17.079 60.337 17.9813 59.7569 18.8836C59.2413 19.7215 58.5324 20.4304 57.6301 20.8815C54.8588 22.3639 51.8941 23.3306 48.7361 23.3306C48.6072 23.3306 48.4783 23.3306 48.3494 23.3306C48.285 23.3306 48.285 23.3306 47.9627 23.2017C52.6031 20.5593 57.0501 18.0458 61.4326 15.5967C61.7548 15.7901 61.5615 16.0479 61.4326 16.1768ZM66.2663 12.9543C65.2351 11.9231 64.3973 10.5052 64.075 9.02291C65.8151 10.6341 67.1686 12.5032 67.5553 13.7277C66.9108 13.7277 66.5885 13.341 66.2663 12.9543ZM67.4264 11.2142C67.3619 11.2142 67.3619 11.2142 67.2975 11.1497C66.5241 10.2474 65.7507 9.34515 64.9773 8.37842C66.2663 8.95846 67.0397 9.86074 67.4908 11.0208C67.4908 11.1497 67.4908 11.2142 67.4264 11.2142Z" fill="#EE942F"/>
<path fill-rule="evenodd" clip-rule="evenodd" d="M162.359 17.5302C162.102 17.5302 161.779 17.4013 161.457 17.4657C160.941 17.5302 160.426 17.6591 159.975 17.7235C157.461 18.1747 155.012 17.8524 152.628 17.2079C151.339 16.8857 149.985 16.6279 148.632 16.6923C147.278 16.6923 145.925 16.8857 144.636 17.4013C143.411 17.9169 142.122 18.368 140.833 18.8836C140.253 19.1414 139.673 19.2059 139.093 19.077C136.902 18.4969 134.646 17.9169 132.455 17.4013C132.455 16.8857 132.842 17.0146 133.035 16.9501C135.291 16.5634 137.353 15.7901 139.351 14.7589C142.445 13.1476 144.443 10.6986 145.409 7.41167C145.538 6.89608 145.796 6.38049 145.409 5.736C145.216 5.80045 144.958 5.736 144.765 5.8649C143.734 6.50939 142.638 6.76718 141.542 7.15388C139.158 7.92727 136.709 8.63621 134.388 9.53849C131.553 10.5697 129.361 12.3743 127.944 15.0811C127.75 15.4678 127.428 15.8545 127.17 16.2412C126.912 16.2412 126.655 16.1767 126.461 16.1767C122.917 15.5323 119.307 14.8233 115.763 14.1144C115.698 14.1144 115.634 13.9855 115.505 13.8566C115.827 13.6632 116.149 13.4699 116.472 13.2765C118.083 12.3743 119.501 11.2786 120.725 9.86074C122.723 7.47612 123.497 4.57592 123.497 1.54681C123.497 1.22456 123.368 0.902319 123.303 0.515625C122.917 0.708972 122.594 0.773421 122.272 0.966768C121.821 1.09567 121.499 1.28901 121.176 1.41791C118.341 2.83579 115.569 4.38257 112.862 6.05824C110.22 7.66947 108.222 9.79629 107.32 12.8254C107.32 12.8898 107.255 12.9543 107.127 13.1476C106.804 13.1476 106.353 13.2121 105.966 13.1476C103.388 13.0187 100.811 13.0187 98.297 13.341C98.1681 13.341 98.0392 13.2765 97.9103 13.2765C97.7169 13.0187 97.9103 12.8254 98.0392 12.6321C98.3614 12.1165 98.6837 11.6009 99.0059 11.0853C99.9082 9.2807 100.811 7.47612 101.648 5.67155C101.713 5.54265 101.648 5.3493 101.584 5.15596C101.519 5.15596 101.326 5.15596 101.197 5.15596C99.7149 5.80045 98.1681 6.44494 96.7502 7.21833C94.4945 8.44286 93.3344 10.4408 92.8833 12.8898C92.8188 13.341 92.7544 13.7921 92.6899 14.3077C92.3677 14.4366 92.0454 14.63 91.7232 14.8233C91.0142 15.21 90.3053 15.5323 89.6608 15.9834C89.2097 16.2412 88.823 16.6279 88.5007 17.0146C87.9207 17.7235 87.7918 18.4969 88.114 19.3992C88.5652 20.4948 89.1452 21.3971 90.1764 21.9772C91.5298 22.815 93.7856 21.4616 93.7856 20.0437C93.7856 19.657 93.85 19.2703 93.4633 19.0125C93.0122 18.7547 92.561 18.6258 92.1743 19.0125C91.5943 19.657 90.8853 19.4637 90.1764 19.3992C89.5964 19.3348 89.3386 18.7547 89.7253 18.2391C90.3053 17.4657 91.0787 16.8212 91.981 16.3701C92.6255 16.0479 93.3344 15.7256 94.0433 15.5967C95.3323 15.3389 96.6858 15.1456 98.0392 14.9522C98.4903 14.8878 99.0059 14.8878 99.4571 15.2745C99.6504 16.7568 100.553 17.9813 101.391 19.3348C102.164 20.6237 103.195 21.5905 104.549 22.235C108.609 24.2973 112.927 25.0707 117.438 24.4907C117.632 24.4907 117.825 24.4262 117.954 24.3618C118.276 24.2329 118.405 23.7817 118.212 23.5239C118.018 23.2661 117.825 23.0083 117.632 22.7506C116.407 21.526 115.183 20.3015 114.023 19.0125C112.411 17.3368 110.542 16.1123 108.222 15.5323C107.964 15.4678 107.642 15.4678 107.642 15.0811C107.449 15.0811 107.191 15.1456 106.998 15.1456V15.0811C107.191 15.0811 107.449 15.0811 107.642 15.0811C107.642 15.0811 107.642 15.0811 107.707 15.0811C110.091 15.2745 112.54 15.4678 114.925 15.7256C117.309 16.0479 119.63 16.499 121.95 16.8857C122.079 16.8857 122.208 16.9501 122.336 17.0146C122.659 17.5946 122.594 18.3036 122.723 18.9481C122.852 19.9148 123.11 20.8815 123.497 21.7838C123.819 22.4928 124.077 23.2017 124.334 23.8462C124.721 24.8774 125.366 25.7152 126.203 26.4242C129.555 29.3244 133.486 30.6778 137.869 31C138.191 31 138.513 31 138.835 31C139.158 31 139.48 30.8711 139.609 30.5489C139.738 30.2266 139.609 29.9044 139.415 29.6466C139.222 29.3888 139.029 29.131 138.771 28.9377C136.902 27.0042 135.291 24.8774 134.195 22.4283C133.744 21.3971 132.971 20.6882 132.004 20.1081C131.295 19.7214 130.65 19.2703 130.006 18.8192C129.877 18.7547 129.748 18.5614 129.555 18.3036C131.166 18.4969 132.584 18.8836 133.937 19.2059C134.453 19.3348 135.033 19.5281 135.549 19.657C136.58 19.9148 137.482 20.3015 138.384 20.7526C140.318 21.7838 142.251 22.815 144.249 23.7817C145.28 24.2329 146.312 24.684 147.407 24.9418C150.887 25.7152 154.303 25.393 157.59 24.104C158.621 23.7173 159.588 23.0728 160.297 22.1705C161.006 21.2682 161.586 20.3659 162.166 19.3992C162.553 18.6903 162.488 18.6903 162.359 17.5302ZM97.4592 8.44286C96.6858 9.34515 95.9124 10.2474 95.139 11.2142C95.139 11.2142 95.0745 11.2786 95.0101 11.2786C94.9456 11.2786 94.9456 11.2142 94.8812 11.1497C95.3968 9.92519 96.1702 9.0229 97.4592 8.44286ZM94.9456 13.7277C95.3323 12.5032 96.7502 10.6341 98.4259 9.0229C98.0392 10.5052 97.2658 11.9231 96.2346 12.9543C95.9124 13.341 95.5901 13.7277 94.9456 13.7277ZM114.216 23.3306C114.087 23.3306 113.958 23.3306 113.829 23.3306C110.607 23.3306 107.707 22.3639 104.935 20.8815C104.033 20.4304 103.324 19.7214 102.808 18.8836C102.228 17.9813 101.648 17.079 101.133 16.1767C101.004 15.9834 100.875 15.7901 101.197 15.5323C105.58 18.0458 110.027 20.5593 114.667 23.1372C114.28 23.2661 114.216 23.3306 114.216 23.3306ZM114.667 21.6549C114.667 21.6549 114.667 21.7194 114.603 21.7838C114.474 21.7838 114.345 21.7838 114.216 21.7194C110.865 19.8503 107.578 17.9169 104.226 16.0479C104.162 15.9834 104.162 15.919 104.097 15.7256C105 15.7901 105.838 16.1123 106.74 16.2412C110.22 16.8857 112.669 18.9481 114.667 21.6549ZM109.318 11.7298C109.382 11.5364 109.447 11.2786 109.576 11.0853C110.413 9.47405 111.702 8.24951 113.249 7.28278C114.732 6.31604 116.278 5.41375 117.825 4.51147C118.727 3.99587 119.694 3.48028 120.596 2.90024C120.661 2.96469 120.725 3.09359 120.79 3.15804C118.856 5.28486 116.794 7.34723 114.345 8.894C112.927 9.79629 111.509 10.6986 110.091 11.6009C109.898 11.7298 109.704 11.7942 109.511 11.8587C109.382 11.7942 109.318 11.7298 109.318 11.7298ZM109.898 13.2765C110.027 13.1476 110.156 12.9543 110.285 12.8898C111.38 12.1809 112.411 11.4075 113.571 10.763C116.085 9.34515 118.276 7.54057 120.21 5.4782C120.596 5.02706 121.048 4.57592 121.434 4.12477C121.563 3.99587 121.756 3.93143 122.079 3.67363C121.434 7.21833 119.694 9.73184 116.858 11.5364C114.345 13.2121 111.767 13.8566 109.898 13.2765ZM135.355 29.4533C132.133 28.8088 129.297 27.4553 126.848 25.2641C126.332 24.8129 125.946 24.2329 125.623 23.5884C125.237 22.5572 124.786 21.526 124.399 20.4948C124.206 19.9148 123.948 19.2703 124.077 18.6258C124.206 18.6258 124.334 18.6258 124.399 18.6903C125.43 19.4637 126.397 20.3659 127.106 21.4616C128.91 24.1684 131.037 26.553 133.937 28.1643C134.517 28.4865 135.097 28.8732 135.677 29.5177C135.42 29.3888 135.42 29.4533 135.355 29.4533ZM131.746 21.3971C132.391 21.8483 132.906 22.4928 133.228 23.2017C133.744 24.4262 134.453 25.5863 135.162 26.7464C135.291 26.9397 135.355 27.1331 135.613 27.5842C133.744 26.553 132.197 25.6508 130.973 24.2973C130.07 23.2661 129.168 22.1705 128.33 21.0104C127.557 19.9148 126.783 18.8836 125.752 18.1102C125.623 17.9813 125.43 17.9169 125.623 17.6591C126.655 17.788 126.719 17.788 127.621 18.4325C129.039 19.4637 130.393 20.4304 131.746 21.3971ZM129.941 14.3077C130.586 13.4054 131.359 12.5676 132.326 11.9876C133.551 11.1497 134.904 10.5052 136.322 10.0541C137.869 9.53849 139.415 9.08735 140.962 8.57176C141.091 8.50731 141.285 8.57176 141.542 8.50731C140.318 9.53849 133.228 13.341 129.748 14.8233C129.877 14.5655 129.877 14.4366 129.941 14.3077ZM130.522 15.9834C130.586 15.8545 130.586 15.7256 130.65 15.6612C134.969 13.2121 139.544 11.1497 143.734 8.44286C142.702 10.6986 141.091 12.3098 138.964 13.4054C136.58 14.63 134.066 15.4034 131.424 15.919C131.166 16.0479 130.844 15.9834 130.522 15.9834ZM144.958 18.7547C147.214 17.788 149.47 17.788 151.79 18.4325C153.723 18.9481 155.721 19.2703 157.719 19.2059C157.912 19.2059 158.106 19.1414 158.041 19.5281C156.817 20.0437 155.528 20.3659 154.174 20.4948C150.501 20.8815 146.827 20.4948 143.154 19.8503C143.025 19.8503 142.96 19.7214 142.767 19.5925C143.54 19.2059 144.249 19.077 144.958 18.7547ZM157.203 22.8795C154.174 24.104 150.952 24.4262 147.729 23.7173C145.796 23.2661 143.927 22.4928 142.122 21.5905C141.929 21.526 141.8 21.3327 141.478 21.0104C142.058 21.0749 142.38 21.1393 142.702 21.2038C145.667 21.7194 148.696 21.9772 151.725 21.9127C154.432 21.8483 157.01 21.2682 159.395 19.9792C159.653 19.8503 159.975 19.7214 160.233 19.5925C159.717 21.2682 158.686 22.2994 157.203 22.8795Z" fill="#EE942F"/>
<path fill-rule="evenodd" clip-rule="evenodd" d="M81.2187 0C80.7032 0 79.2208 3.93139 78.383 5.41372C77.2873 7.41164 76.7073 9.53846 77.5451 11.8586C78.1252 13.4699 78.7052 15.0811 79.2853 16.7568C79.672 17.9168 80.5098 20.7526 81.1543 20.7526C81.7988 20.7526 82.6366 17.9168 83.0233 16.7568C83.6034 15.1455 84.119 13.4699 84.7634 11.8586C85.6013 9.53846 85.0857 7.41164 83.9256 5.41372C83.2167 3.93139 81.7988 0 81.2187 0ZM80.4454 15.7256C80.1876 15.79 80.1231 15.5322 80.0587 15.4033C79.5431 13.9854 79.0275 12.5031 78.5763 11.0208C78.0607 9.47401 78.4474 8.05613 79.0919 6.7027C79.4786 5.92931 79.9298 5.22037 80.3809 4.38254C80.5098 4.57588 80.6387 4.64033 80.6387 4.70478C80.6387 8.24948 80.6387 11.7942 80.6387 15.3389C80.5743 15.4678 80.5098 15.5967 80.4454 15.7256ZM83.9256 11.0208C83.4745 12.5031 82.9589 13.921 82.4433 15.4033C82.3788 15.5322 82.3144 15.79 82.0566 15.7256C81.9921 15.5967 81.9277 15.4678 81.9277 15.4033C81.9277 11.8586 81.9277 8.31393 81.9277 4.76923C81.9277 4.70478 82.0566 4.64033 82.1855 4.44699C82.6366 5.28482 83.0878 5.99376 83.4745 6.76715C84.0545 8.12058 84.4412 9.53846 83.9256 11.0208Z" fill="#EE942F"/>
</svg>
